<?xml version="1.0" encoding="utf-8"?>
<!-- Generator: Adobe illustrator 23.0.2, SVG Export Plug-In . SVG Version: 6.00 Build 0)  -->
<svg version="1.1" id="Layer_1" xmlns="http://www.w3.org/2000/svg" xmlns:xlink="http://www.w3.org/1999/xlink" x="0px" y="0px"
	 viewBox="0 0 623.3 1259.9" style="enable-background:new 0 0 623.3 1259.9;" xml:space="preserve">
<style type="text/css">
	.st0{fill:#152C53;}
	.st1{fill:#F5C515;}
	.st2{fill:#FFFFFF;}
	.st3{fill:#002A54;}
	.st4{fill:#3D3D3D;}
	.st5{display:none;}
	.st6{display:inline;}
</style>
<g id="_x31_">
	<rect class="st0" width="180" height="180"/>
	<rect x="180" class="st1" width="26" height="180"/>
	<rect x="180" class="st1" width="184.8" height="40"/>
	<path class="st2" d="M88.6,110.5c22.1,0,40-17.9,40-40s-17.9-40-40-40s-40,17.9-40,40C48.6,92.6,66.5,110.5,88.6,110.5z M71.9,98.1
		l8.6-8.6c5.1,2.2,11,2.2,16.1,0l8.6,8.6C95.1,104.3,82.1,104.3,71.9,98.1L71.9,98.1z M101.5,70.5c0,7.1-5.8,12.9-12.9,12.9
		s-12.9-5.8-12.9-12.9s5.8-12.9,12.9-12.9C95.7,57.6,101.5,63.4,101.5,70.5z M116.2,87.2l-8.6-8.6c2.2-5.1,2.2-11,0-16.1l8.6-8.6
		C122.4,64,122.4,77,116.2,87.2z M105.3,42.9l-8.6,8.6c-5.1-2.2-11-2.2-16.1,0L72,42.9C82.1,36.7,95.1,36.7,105.3,42.9z M61,53.8
		l8.6,8.6c-2.2,5.1-2.2,11,0,16.1L61,87.1C54.8,77,54.8,64,61,53.8z"/>
	<g id="_x37__x2A_24_Support">
		<g>
			<path class="st3" d="M251.9,70.7v2.9L244.5,91h-4l7.5-17h-9.6v-3.3H251.9z"/>
			<path class="st3" d="M260.8,74.3l3.1-2.4l1.4,2.5l-3.6,1.3l3.6,1.3l-1.5,2.6l-3-2.5l0.6,3.9h-2.9l0.6-3.9l-3,2.5l-1.5-2.7
				l3.6-1.3l-3.6-1.3l1.4-2.6l3.1,2.5l-0.6-3.9h2.9L260.8,74.3z"/>
			<path class="st3" d="M268.5,87.9c4.6-3.9,9.5-7.5,9.5-11.3c0-1.8-0.8-3.1-2.7-3.1c-1.9,0-2.9,1.3-2.9,3.5h-3.8
				c0.1-4.7,3.1-6.8,6.8-6.8c4.4,0,6.6,2.6,6.6,6.2c0,4.7-4.6,8.4-7.8,11.2h8.3v3.2h-13.8v-2.9H268.5z"/>
			<path class="st3" d="M294.4,87.1h-9.8V84l9.2-13.1h4.6v12.8h2.5v3.4h-2.5v4h-3.9v-4H294.4z M294.7,83.7v-8.6l-5.7,8.6H294.7z"/>
			<path class="st3" d="M317.2,91.3c-4.1,0-7.2-2.1-7.3-5.8h4.2c0.1,1.6,1.1,2.6,3,2.6c1.8,0,2.9-1,2.9-2.4c0-4.2-10.1-1.7-10.1-8.8
				c0-3.5,2.9-5.7,6.9-5.7s6.7,2,7,5.6h-4.3c-0.1-1.3-1.1-2.3-2.8-2.3c-1.5-0.1-2.7,0.7-2.7,2.3c0,3.9,10,1.7,10,8.6
				C324.1,88.5,321.6,91.3,317.2,91.3z"/>
			<path class="st3" d="M342.1,91.1h-3.9v-2c-1,1.3-2.7,2.2-4.6,2.2c-3.6,0-6.2-2.4-6.2-6.6v-9.1h3.9v8.5c0,2.5,1.4,3.8,3.4,3.8
				c2.1,0,3.5-1.3,3.5-3.8v-8.5h3.9L342.1,91.1L342.1,91.1z"/>
			<path class="st3" d="M355,75.3c4,0,7.1,3.1,7.1,8c0,4.8-3.1,8.1-7.1,8.1c-2.4,0-4.2-1.2-5.1-2.5v9.6H346V75.6h3.9v2.2
				C350.8,76.5,352.6,75.3,355,75.3z M354,78.7c-2.1,0-4.1,1.6-4.1,4.6c0,2.9,2,4.6,4.1,4.6s4.1-1.7,4.1-4.6
				C358.1,80.3,356.1,78.7,354,78.7z"/>
			<path class="st3" d="M374,75.3c4,0,7.1,3.1,7.1,8c0,4.8-3.1,8.1-7.1,8.1c-2.4,0-4.2-1.2-5.1-2.5v9.6H365V75.6h3.9v2.2
				C369.8,76.5,371.6,75.3,374,75.3z M373,78.7c-2.1,0-4.1,1.6-4.1,4.6c0,2.9,2,4.6,4.1,4.6s4.1-1.7,4.1-4.6
				C377.1,80.3,375.1,78.7,373,78.7z"/>
			<path class="st3" d="M390.8,91.3c-4.5,0-7.9-3.1-7.9-8s3.5-8,8-8s8,3.1,8,8S395.3,91.3,390.8,91.3z M390.8,87.9
				c2.1,0,4.1-1.5,4.1-4.6s-1.9-4.6-4-4.6s-3.9,1.5-3.9,4.6C386.9,86.4,388.7,87.9,390.8,87.9z"/>
			<path class="st3" d="M405.7,91.1h-3.9V75.6h3.9V78c1-1.6,2.6-2.6,4.8-2.6v4.1h-1c-2.3,0-3.7,0.9-3.7,3.9L405.7,91.1L405.7,91.1z"
				/>
			<path class="st3" d="M413.7,78.8h-1.8v-3.2h1.8v-3.9h3.9v3.8h3.5v3.2h-3.5v7.5c0,1,0.4,1.5,1.7,1.5h1.8V91h-2.5c-3,0-5-1.3-5-4.8
				v-7.4H413.7z"/>
		</g>
		<g>
			<path class="st4" d="M245.2,106.6c2.9,0,5.4,1.5,6.5,4.2H249c-0.7-1.5-2.1-2.2-3.7-2.2c-2.8,0-4.8,2-4.8,5.1s2,5.1,4.8,5.1
				c1.7,0,3-0.7,3.7-2.2h2.7c-1.1,2.7-3.6,4.2-6.5,4.2c-3.9,0-7.1-2.9-7.1-7.1C238.1,109.6,241.3,106.6,245.2,106.6z"/>
			<path class="st4" d="M259.1,120.9c-3.1,0-5.5-2.2-5.5-5.7s2.5-5.7,5.6-5.7s5.6,2.2,5.6,5.7C264.9,118.6,262.3,120.9,259.1,120.9z
				 M259.1,118.9c1.7,0,3.4-1.2,3.4-3.7s-1.6-3.7-3.3-3.7c-1.7,0-3.3,1.2-3.3,3.7C255.9,117.7,257.4,118.9,259.1,118.9z"/>
			<path class="st4" d="M274.9,114.5c0-2-1.1-3.1-2.8-3.1c-1.7,0-2.8,1-2.8,3.1v6.2H267v-11h2.3v1.3c0.7-0.9,2-1.4,3.3-1.4
				c2.6,0,4.5,1.6,4.5,4.7v6.5h-2.3L274.9,114.5L274.9,114.5z"/>
			<path class="st4" d="M280.5,111.5h-1.3v-1.8h1.3V107h2.3v2.7h2.7v1.9h-2.7v6.1c0,0.8,0.3,1.2,1.3,1.2h1.4v1.9h-1.8
				c-2,0-3.2-0.8-3.2-3.1L280.5,111.5L280.5,111.5z"/>
			<path class="st4" d="M287.2,106.8c0-0.8,0.6-1.5,1.5-1.5c0.8,0,1.4,0.6,1.4,1.5c0,0.8-0.6,1.5-1.4,1.5
				C287.9,108.2,287.2,107.6,287.2,106.8z M287.5,109.7h2.3v11h-2.3V109.7z"/>
			<path class="st4" d="M300.6,114.5c0-2-1.1-3.1-2.8-3.1c-1.7,0-2.8,1-2.8,3.1v6.2h-2.3v-11h2.3v1.3c0.7-0.9,2-1.4,3.3-1.4
				c2.6,0,4.5,1.6,4.5,4.7v6.5h-2.3L300.6,114.5L300.6,114.5z"/>
			<path class="st4" d="M310.6,120.9c-3.1,0-5.5-2.2-5.5-5.7s2.5-5.7,5.6-5.7s5.6,2.2,5.6,5.7C316.3,118.6,313.7,120.9,310.6,120.9z
				 M310.6,118.9c1.7,0,3.4-1.2,3.4-3.7s-1.6-3.7-3.3-3.7c-1.7,0-3.3,1.2-3.3,3.7C307.4,117.7,308.9,118.9,310.6,118.9z"/>
			<path class="st4" d="M328.5,120.7h-2.3v-1.3c-0.7,0.9-2,1.5-3.3,1.5c-2.6,0-4.5-1.6-4.5-4.7v-6.5h2.3v6.1c0,2,1.1,3.1,2.8,3.1
				c1.7,0,2.8-1,2.8-3.1v-6.1h2.3L328.5,120.7L328.5,120.7z"/>
			<path class="st4" d="M335.5,120.9c-2.6,0-4.5-1.6-4.6-3.6h2.4c0.1,0.9,0.9,1.6,2.2,1.6c1.3,0,2-0.6,2-1.3c0-2.2-6.4-0.9-6.4-5
				c0-1.8,1.6-3.2,4.2-3.2c2.5,0,4.1,1.3,4.3,3.5h-2.3c-0.1-1-0.8-1.6-2.1-1.6c-1.2,0-1.9,0.5-1.9,1.2c0,2.2,6.2,1,6.3,5
				C339.8,119.5,338.1,120.9,335.5,120.9z"/>
			<path class="st4" d="M351.4,120.9c-2.6,0-4.5-1.6-4.6-3.6h2.4c0.1,0.9,0.9,1.6,2.2,1.6c1.3,0,2-0.6,2-1.3c0-2.2-6.4-0.9-6.4-5
				c0-1.8,1.6-3.2,4.2-3.2c2.5,0,4.1,1.3,4.3,3.5h-2.3c-0.1-1-0.8-1.6-2.1-1.6c-1.2,0-1.9,0.5-1.9,1.2c0,2.2,6.2,1,6.3,5
				C355.6,119.5,354,120.9,351.4,120.9z"/>
			<path class="st4" d="M368.1,120.7h-2.3v-1.3c-0.7,0.9-2,1.5-3.3,1.5c-2.6,0-4.5-1.6-4.5-4.7v-6.5h2.3v6.1c0,2,1.1,3.1,2.8,3.1
				c1.7,0,2.8-1,2.8-3.1v-6.1h2.3L368.1,120.7L368.1,120.7z"/>
			<path class="st4" d="M377.2,109.5c2.9,0,5.2,2.2,5.2,5.6c0,3.4-2.3,5.7-5.2,5.7c-1.8,0-3.1-0.9-3.8-1.8v6.8h-2.3v-16.1h2.3v1.6
				C374.1,110.4,375.4,109.5,377.2,109.5z M376.7,111.5c-1.7,0-3.3,1.3-3.3,3.7s1.6,3.7,3.3,3.7c1.7,0,3.4-1.4,3.4-3.8
				C380.1,112.8,378.4,111.5,376.7,111.5z"/>
			<path class="st4" d="M390.8,109.5c2.9,0,5.2,2.2,5.2,5.6c0,3.4-2.3,5.7-5.2,5.7c-1.8,0-3.1-0.9-3.8-1.8v6.8h-2.3v-16.1h2.3v1.6
				C387.6,110.4,389,109.5,390.8,109.5z M390.3,111.5c-1.7,0-3.3,1.3-3.3,3.7s1.6,3.7,3.3,3.7c1.7,0,3.4-1.4,3.4-3.8
				C393.6,112.8,392,111.5,390.3,111.5z"/>
			<path class="st4" d="M403,120.9c-3.1,0-5.5-2.2-5.5-5.7s2.5-5.7,5.6-5.7s5.6,2.2,5.6,5.7C408.7,118.6,406.1,120.9,403,120.9z
				 M403,118.9c1.7,0,3.4-1.2,3.4-3.7s-1.6-3.7-3.3-3.7c-1.7,0-3.3,1.2-3.3,3.7C399.8,117.7,401.3,118.9,403,118.9z"/>
			<path class="st4" d="M413.2,120.7H411v-11h2.3v1.6c0.6-1.1,1.7-1.8,3.3-1.8v2.4H416c-1.7,0-2.7,0.7-2.7,3L413.2,120.7
				L413.2,120.7z"/>
			<path class="st4" d="M419,111.5h-1.3v-1.8h1.3V107h2.3v2.7h2.7v1.9h-2.7v6.1c0,0.8,0.3,1.2,1.3,1.2h1.4v1.9h-1.8
				c-2,0-3.2-0.8-3.2-3.1L419,111.5L419,111.5z"/>
			<path class="st4" d="M430,109.7h2.3l2.3,8.9l2.3-8.9h2.4l2.2,8.8l2.3-8.8h2.2l-3.4,11h-2.4l-2.2-8.1l-2.2,8.1h-2.4L430,109.7z"/>
			<path class="st4" d="M447.8,105.9h2.3v5.1c0.8-0.9,2-1.5,3.4-1.5c2.5,0,4.4,1.6,4.4,4.7v6.5h-2.3v-6.2c0-2-1.1-3.1-2.8-3.1
				c-1.7,0-2.8,1-2.8,3.1v6.2h-2.3L447.8,105.9L447.8,105.9z"/>
			<path class="st4" d="M465.5,120.9c-3.2,0-5.5-2.2-5.5-5.7s2.2-5.7,5.5-5.7c3.1,0,5.4,2.2,5.4,5.4c0,0.4,0,0.7-0.1,1.1h-8.4
				c0.2,1.8,1.5,2.9,3.1,2.9c1.4,0,2.2-0.7,2.6-1.5h2.5C469.9,119.3,468.2,120.9,465.5,120.9z M462.4,114.2h6.1
				c0-1.7-1.4-2.8-3.1-2.8C463.9,111.4,462.6,112.5,462.4,114.2z"/>
			<path class="st4" d="M480.9,114.5c0-2-1.1-3.1-2.8-3.1c-1.7,0-2.8,1-2.8,3.1v6.2H473v-11h2.3v1.3c0.7-0.9,2-1.4,3.3-1.4
				c2.6,0,4.5,1.6,4.5,4.7v6.5h-2.3L480.9,114.5L480.9,114.5z"/>
			<path class="st4" d="M490.8,120.9c-3.2,0-5.5-2.2-5.5-5.7s2.2-5.7,5.5-5.7c3.1,0,5.4,2.2,5.4,5.4c0,0.4,0,0.7-0.1,1.1h-8.4
				c0.2,1.8,1.5,2.9,3.1,2.9c1.4,0,2.2-0.7,2.6-1.5h2.5C495.3,119.3,493.5,120.9,490.8,120.9z M487.7,114.2h6.1
				c0-1.7-1.4-2.8-3.1-2.8C489.2,111.4,487.9,112.5,487.7,114.2z"/>
			<path class="st4" d="M499.5,109.7l3.1,9l3.1-9h2.4l-4.2,11h-2.7l-4.2-11H499.5z"/>
			<path class="st4" d="M514.7,120.9c-3.2,0-5.5-2.2-5.5-5.7s2.2-5.7,5.5-5.7c3.1,0,5.4,2.2,5.4,5.4c0,0.4,0,0.7-0.1,1.1h-8.4
				c0.2,1.8,1.5,2.9,3.1,2.9c1.4,0,2.2-0.7,2.6-1.5h2.5C519.1,119.3,517.4,120.9,514.7,120.9z M511.5,114.2h6.1
				c0-1.7-1.4-2.8-3.1-2.8C513,111.4,511.8,112.5,511.5,114.2z"/>
			<path class="st4" d="M524.5,120.7h-2.3v-11h2.3v1.6c0.6-1.1,1.7-1.8,3.3-1.8v2.4h-0.6c-1.7,0-2.7,0.7-2.7,3V120.7z"/>
			<path class="st4" d="M542.7,109.7h2.4l-6.8,16.2h-2.4l2.2-5.4l-4.3-10.8h2.5l3.1,8.4L542.7,109.7z"/>
			<path class="st4" d="M551.6,120.9c-3.1,0-5.5-2.2-5.5-5.7s2.5-5.7,5.6-5.7s5.6,2.2,5.6,5.7C557.3,118.6,554.7,120.9,551.6,120.9z
				 M551.6,118.9c1.7,0,3.4-1.2,3.4-3.7s-1.6-3.7-3.3-3.7s-3.3,1.2-3.3,3.7S549.8,118.9,551.6,118.9z"/>
			<path class="st4" d="M569.5,120.7h-2.3v-1.3c-0.7,0.9-2,1.5-3.3,1.5c-2.6,0-4.5-1.6-4.5-4.7v-6.5h2.3v6.1c0,2,1.1,3.1,2.8,3.1
				s2.8-1,2.8-3.1v-6.1h2.3L569.5,120.7L569.5,120.7z"/>
			<path class="st4" d="M246.7,140.5c0-2-1.1-3.1-2.8-3.1s-2.8,1-2.8,3.1v6.2h-2.3v-11h2.3v1.3c0.7-0.9,2-1.4,3.3-1.4
				c2.6,0,4.5,1.6,4.5,4.7v6.5h-2.3v-6.3H246.7z"/>
			<path class="st4" d="M256.6,146.9c-3.2,0-5.5-2.2-5.5-5.7s2.2-5.7,5.5-5.7c3.1,0,5.4,2.2,5.4,5.4c0,0.4,0,0.7-0.1,1.1h-8.4
				c0.2,1.8,1.5,2.9,3.1,2.9c1.4,0,2.2-0.7,2.6-1.5h2.5C261.1,145.3,259.3,146.9,256.6,146.9z M253.5,140.2h6.1
				c0-1.7-1.4-2.8-3.1-2.8C255,137.4,253.7,138.5,253.5,140.2z"/>
			<path class="st4" d="M269,146.9c-3.2,0-5.5-2.2-5.5-5.7s2.2-5.7,5.5-5.7c3.1,0,5.4,2.2,5.4,5.4c0,0.4,0,0.7-0.1,1.1h-8.4
				c0.2,1.8,1.5,2.9,3.1,2.9c1.4,0,2.2-0.7,2.6-1.5h2.5C273.4,145.3,271.7,146.9,269,146.9z M265.8,140.2h6.1c0-1.7-1.4-2.8-3.1-2.8
				C267.3,137.4,266.1,138.5,265.8,140.2z"/>
			<path class="st4" d="M281,135.5c1.4,0,3,0.7,3.8,1.7v-5.3h2.3v14.8h-2.3V145c-0.7,1-2,1.8-3.8,1.8c-2.9,0-5.2-2.3-5.2-5.7
				C275.8,137.7,278.1,135.5,281,135.5z M281.5,137.5c-1.7,0-3.3,1.3-3.3,3.7s1.6,3.8,3.3,3.8c1.7,0,3.3-1.3,3.3-3.7
				C284.8,138.8,283.2,137.5,281.5,137.5z"/>
			<path class="st4" d="M305.3,146.7H303v-1.3c-0.7,0.9-2,1.5-3.3,1.5c-2.6,0-4.5-1.6-4.5-4.7v-6.5h2.3v6.1c0,2,1.1,3.1,2.8,3.1
				c1.7,0,2.8-1,2.8-3.1v-6.1h2.3L305.3,146.7L305.3,146.7z"/>
			<path class="st4" d="M312.3,146.9c-2.6,0-4.5-1.6-4.6-3.6h2.4c0.1,0.9,0.9,1.6,2.2,1.6c1.3,0,2-0.6,2-1.3c0-2.2-6.4-0.9-6.4-5
				c0-1.8,1.6-3.2,4.2-3.2c2.5,0,4.1,1.3,4.3,3.5h-2.3c-0.1-1-0.8-1.6-2.1-1.6c-1.2,0-1.9,0.5-1.9,1.2c0,2.2,6.2,1,6.3,5
				C316.5,145.5,314.9,146.9,312.3,146.9z"/>
		</g>
	</g>
	<rect y="140" class="st1" width="184.8" height="40"/>
</g>
<g id="_x32_">
	<rect x="0" y="180.1" class="st0" width="180" height="140"/>
	<g>
		<rect x="180" y="180.1" class="st1" width="26" height="180"/>
		<rect x="180" y="180" class="st1" width="183.9" height="40"/>
	</g>
	<path class="st2" d="M56.8,213.2l6.3,71.1l28.1,9.4l28.3-9.4l6.3-71.1H56.8z M112.2,236.2h-33l0.7,8.9h31.5l-2.4,26.7l-17.6,4.8
		l0,0h-0.2l-17.7-4.9l-1.1-13.6H81l0.6,6.8l9.6,2.6l9.6-2.6l1.1-11.2h-30l-2.3-26.2H113L112.2,236.2z"/>
	<g id="HTML5">
		<g>
			<path class="st3" d="M250.1,262.4h-8.4v8.3h-3.9v-19.5h3.9v8h8.4v-8h3.9v19.5h-3.9V262.4z"/>
			<path class="st3" d="M256.8,251.2h14.3v3.2H266v16.4h-3.9v-16.4h-5.2v-3.2H256.8z"/>
			<path class="st3" d="M274,251.2h4.5l6.2,14.5l6.2-14.5h4.4v19.5h-3.9V258l-5.2,12.7h-3l-5.3-12.7v12.7H274V251.2z"/>
			<path class="st3" d="M303.1,251.2v16.4h6.4v3.1h-10.4v-19.5H303.1z"/>
			<path class="st3" d="M325.3,250.3v3.4h-9.1v4.8c0.8-0.9,2.3-1.7,4-1.7c4.8,0,6.4,3.6,6.4,6.7c0,4.2-2.4,7.1-7.1,7.1
				c-4.4,0-6.9-2.4-7.3-5.8h3.8c0.3,1.4,1.5,2.5,3.4,2.5c2.3,0,3.3-1.6,3.3-3.8c0-2.3-1.1-3.6-3.4-3.6c-1.6,0-2.7,0.9-3.1,2.2h-3.8
				v-12h12.9V250.3z"/>
			<path class="st3" d="M346.1,255.7c0.1-1.3-0.7-1.9-1.7-1.9c-1.1,0-1.8,0.7-1.8,1.7s0.6,1.8,1.8,3.1l4.9,4.9
				c0.1-0.1,0.1-0.1,0.1-0.2l1.6-2.7h4.1l-2,3.4c-0.4,0.8-0.8,1.4-1.2,2.1l4.7,4.7h-4.8l-2.1-2.1c-1.8,1.6-4,2.4-6.6,2.4
				c-4.4,0-7.2-2.4-7.2-6c0-2.5,1.4-4.7,4.3-6c-1-1.3-1.4-2.3-1.4-3.6c0-2.7,2.2-4.7,5.7-4.7c3.7,0,5.6,2.3,5.4,5L346.1,255.7
				L346.1,255.7z M347.2,266.2l-4.8-4.8c-1.8,0.8-2.7,2-2.7,3.4c0,1.7,1.3,3,3.5,3C344.7,267.8,346.1,267.2,347.2,266.2z"/>
			<path class="st3" d="M374.2,250.9c4.3,0,7.9,2.3,9.2,6.3h-4.5c-0.9-1.9-2.6-2.8-4.7-2.8c-3.4,0-5.9,2.5-5.9,6.5
				c0,3.9,2.4,6.5,5.9,6.5c2.1,0,3.8-0.9,4.7-2.8h4.5c-1.3,4-4.8,6.3-9.2,6.3c-5.6,0-9.9-4.1-9.9-10
				C364.3,255.1,368.5,250.9,374.2,250.9z"/>
			<path class="st3" d="M393.5,270.9c-4.1,0-7.2-2.1-7.3-5.8h4.2c0.1,1.6,1.1,2.6,3,2.6c1.8,0,2.9-1,2.9-2.4
				c0-4.2-10.1-1.7-10.1-8.8c0-3.5,2.9-5.7,6.9-5.7s6.7,2,7,5.6h-4.3c-0.1-1.3-1.1-2.3-2.8-2.3c-1.5-0.1-2.7,0.7-2.7,2.3
				c0,3.9,10,1.7,10,8.6C400.4,268.1,397.9,270.9,393.5,270.9z"/>
			<path class="st3" d="M410.5,270.9c-4.1,0-7.2-2.1-7.3-5.8h4.2c0.1,1.6,1.1,2.6,3,2.6c1.8,0,2.9-1,2.9-2.4
				c0-4.2-10.1-1.7-10.1-8.8c0-3.5,2.9-5.7,6.9-5.7s6.7,2,7,5.6h-4.3c-0.1-1.3-1.1-2.3-2.8-2.3c-1.5-0.1-2.7,0.7-2.7,2.3
				c0,3.9,10,1.7,10,8.6C417.4,268.1,415,270.9,410.5,270.9z"/>
			<path class="st3" d="M427.2,249.8c4.2,0,6.4,2.4,6.4,5.4c0,2.5-1.6,4.1-3.1,4.6v0.1c2.1,0.6,3.4,2.3,3.4,5.1
				c0,3.3-2.4,5.8-6.6,5.8c-4,0-7.1-2-7.3-6.3h3.8c0.1,1.8,1.3,3,3.4,3c2,0,3-1.2,3-2.9c0-2.3-1.5-3.1-4.4-3.1H425v-3.2h0.8
				c2.3,0,4-0.6,4-2.7c0-1.6-1-2.5-2.8-2.5c-1.9,0-2.7,1.2-2.9,2.5h-3.8C420.6,251.9,423.3,249.8,427.2,249.8z"/>
		</g>
		<g>
			<path class="st4" d="M237.4,286.5h2.5l4.9,10.9l4.9-10.9h2.4v13.9h-2.3v-9.6l-4.2,9.5H244l-4.3-9.5v9.5h-2.3V286.5z"/>
			<path class="st4" d="M259.8,300.5c-3.1,0-5.5-2.2-5.5-5.7s2.5-5.7,5.6-5.7s5.6,2.2,5.6,5.7S263,300.5,259.8,300.5z M259.8,298.6
				c1.7,0,3.4-1.2,3.4-3.7s-1.6-3.7-3.3-3.7c-1.7,0-3.3,1.2-3.3,3.7S258.1,298.6,259.8,298.6z"/>
			<path class="st4" d="M272.2,289.2c1.4,0,3,0.7,3.8,1.7v-5.3h2.3v14.8H276v-1.7c-0.7,1-2,1.8-3.8,1.8c-2.9,0-5.2-2.3-5.2-5.7
				C267,291.4,269.3,289.2,272.2,289.2z M272.7,291.1c-1.7,0-3.3,1.3-3.3,3.7c0,2.4,1.6,3.8,3.3,3.8c1.7,0,3.3-1.3,3.3-3.7
				C276,292.5,274.4,291.1,272.7,291.1z"/>
			<path class="st4" d="M286.1,300.5c-3.2,0-5.5-2.2-5.5-5.7s2.2-5.7,5.5-5.7c3.1,0,5.4,2.2,5.4,5.4c0,0.4,0,0.7-0.1,1.1H283
				c0.2,1.8,1.5,2.9,3.1,2.9c1.4,0,2.2-0.7,2.6-1.5h2.5C290.5,299,288.8,300.5,286.1,300.5z M283,293.9h6.1c0-1.7-1.4-2.8-3.1-2.8
				C284.4,291.1,283.2,292.1,283,293.9z"/>
			<path class="st4" d="M296,300.4h-2.3v-11h2.3v1.6c0.6-1.1,1.7-1.8,3.3-1.8v2.4h-0.6c-1.7,0-2.7,0.7-2.7,3L296,300.4L296,300.4z"
				/>
			<path class="st4" d="M309.2,294.2c0-2-1.1-3.1-2.8-3.1c-1.7,0-2.8,1-2.8,3.1v6.2h-2.3v-11h2.3v1.3c0.7-0.9,2-1.4,3.3-1.4
				c2.6,0,4.5,1.6,4.5,4.7v6.5h-2.3L309.2,294.2L309.2,294.2z"/>
			<path class="st4" d="M324,289.2c1.9,0,3.1,0.9,3.8,1.8v-1.6h2.3v11h-2.3v-1.6c-0.7,0.9-2,1.8-3.9,1.8c-2.9,0-5.2-2.3-5.2-5.7
				C318.8,291.4,321.1,289.2,324,289.2z M324.5,291.1c-1.7,0-3.3,1.3-3.3,3.7c0,2.4,1.6,3.8,3.3,3.8c1.7,0,3.3-1.3,3.3-3.7
				C327.8,292.5,326.2,291.1,324.5,291.1z"/>
			<path class="st4" d="M340.9,294.2c0-2-1.1-3.1-2.8-3.1s-2.8,1-2.8,3.1v6.2H333v-11h2.3v1.3c0.7-0.9,2-1.4,3.3-1.4
				c2.6,0,4.5,1.6,4.5,4.7v6.5h-2.3L340.9,294.2L340.9,294.2z"/>
			<path class="st4" d="M350.5,289.2c1.4,0,3,0.7,3.8,1.7v-5.3h2.3v14.8h-2.3v-1.7c-0.7,1-2,1.8-3.8,1.8c-2.9,0-5.2-2.3-5.2-5.7
				C345.3,291.4,347.6,289.2,350.5,289.2z M351,291.1c-1.7,0-3.3,1.3-3.3,3.7c0,2.4,1.6,3.8,3.3,3.8s3.3-1.3,3.3-3.7
				C354.3,292.5,352.7,291.1,351,291.1z"/>
			<path class="st4" d="M372.5,288.3h-5.4v4.1h4.8v1.9h-4.8v4.3h5.4v1.9h-7.7v-13.9h7.7V288.3z"/>
			<path class="st4" d="M375.3,285.6h2.3v14.8h-2.3V285.6z"/>
			<path class="st4" d="M385.3,300.5c-3.2,0-5.5-2.2-5.5-5.7s2.2-5.7,5.5-5.7c3.1,0,5.4,2.2,5.4,5.4c0,0.4,0,0.7-0.1,1.1h-8.4
				c0.2,1.8,1.5,2.9,3.1,2.9c1.4,0,2.2-0.7,2.6-1.5h2.5C389.8,299,388,300.5,385.3,300.5z M382.2,293.9h6.1c0-1.7-1.4-2.8-3.1-2.8
				C383.7,291.1,382.5,292.1,382.2,293.9z"/>
			<path class="st4" d="M397.4,289.2c1.8,0,3.1,0.8,3.8,1.8v-1.6h2.3v11.2c0,3-1.9,5.3-5.4,5.3c-2.9,0-5.1-1.5-5.4-3.9h2.3
				c0.3,1.1,1.6,1.9,3.1,1.9c1.8,0,3.1-1.1,3.1-3.3v-1.8c-0.7,0.9-2,1.8-3.8,1.8c-2.9,0-5.2-2.3-5.2-5.7
				C392.2,291.4,394.5,289.2,397.4,289.2z M397.9,291.1c-1.7,0-3.3,1.3-3.3,3.7c0,2.4,1.6,3.8,3.3,3.8s3.3-1.3,3.3-3.7
				C401.2,292.5,399.6,291.1,397.9,291.1z"/>
			<path class="st4" d="M410.9,289.2c1.9,0,3.1,0.9,3.8,1.8v-1.6h2.3v11h-2.3v-1.6c-0.7,0.9-2,1.8-3.9,1.8c-2.9,0-5.2-2.3-5.2-5.7
				C405.7,291.4,408,289.2,410.9,289.2z M411.4,291.1c-1.7,0-3.3,1.3-3.3,3.7c0,2.4,1.6,3.8,3.3,3.8s3.3-1.3,3.3-3.7
				C414.8,292.5,413.1,291.1,411.4,291.1z"/>
			<path class="st4" d="M427.9,294.2c0-2-1.1-3.1-2.8-3.1s-2.8,1-2.8,3.1v6.2H420v-11h2.3v1.3c0.7-0.9,2-1.4,3.3-1.4
				c2.6,0,4.5,1.6,4.5,4.7v6.5h-2.3L427.9,294.2L427.9,294.2z"/>
			<path class="st4" d="M433.4,291.2h-1.3v-1.9h1.3v-2.7h2.3v2.7h2.7v1.9h-2.7v6.1c0,0.8,0.3,1.2,1.3,1.2h1.4v1.9h-1.8
				c-2,0-3.2-0.8-3.2-3.1V291.2z"/>
			<path class="st4" d="M450.1,289.2c1.4,0,3,0.7,3.8,1.7v-5.3h2.3v14.8h-2.3v-1.7c-0.7,1-2,1.8-3.8,1.8c-2.9,0-5.2-2.3-5.2-5.7
				C444.9,291.4,447.2,289.2,450.1,289.2z M450.6,291.1c-1.7,0-3.3,1.3-3.3,3.7c0,2.4,1.6,3.8,3.3,3.8s3.3-1.3,3.3-3.7
				C453.9,292.5,452.3,291.1,450.6,291.1z"/>
			<path class="st4" d="M464,300.5c-3.2,0-5.5-2.2-5.5-5.7s2.2-5.7,5.5-5.7c3.1,0,5.4,2.2,5.4,5.4c0,0.4,0,0.7-0.1,1.1h-8.4
				c0.2,1.8,1.5,2.9,3.1,2.9c1.4,0,2.2-0.7,2.6-1.5h2.5C468.4,299,466.7,300.5,464,300.5z M460.9,293.9h6.1c0-1.7-1.4-2.8-3.1-2.8
				C462.3,291.1,461.1,292.1,460.9,293.9z"/>
			<path class="st4" d="M475.6,300.5c-2.6,0-4.5-1.6-4.6-3.6h2.4c0.1,0.9,0.9,1.6,2.2,1.6s2-0.6,2-1.3c0-2.2-6.4-0.9-6.4-5
				c0-1.8,1.6-3.2,4.2-3.2c2.5,0,4.1,1.3,4.3,3.5h-2.3c-0.1-1-0.8-1.6-2.1-1.6c-1.2,0-1.9,0.5-1.9,1.2c0,2.2,6.2,1,6.3,5
				C479.8,299.1,478.2,300.5,475.6,300.5z"/>
			<path class="st4" d="M482,286.4c0-0.8,0.6-1.5,1.5-1.5c0.8,0,1.4,0.6,1.4,1.5s-0.6,1.5-1.4,1.5C482.6,287.9,482,287.2,482,286.4z
				 M482.3,289.3h2.3v11h-2.3V289.3z"/>
			<path class="st4" d="M492,289.2c1.8,0,3.1,0.8,3.8,1.8v-1.6h2.3v11.2c0,3-1.9,5.3-5.4,5.3c-2.9,0-5.1-1.5-5.4-3.9h2.3
				c0.3,1.1,1.6,1.9,3.1,1.9c1.8,0,3.1-1.1,3.1-3.3v-1.8c-0.7,0.9-2,1.8-3.8,1.8c-2.9,0-5.2-2.3-5.2-5.7
				C486.8,291.4,489.1,289.2,492,289.2z M492.5,291.1c-1.7,0-3.3,1.3-3.3,3.7c0,2.4,1.6,3.8,3.3,3.8s3.3-1.3,3.3-3.7
				C495.8,292.5,494.2,291.1,492.5,291.1z"/>
			<path class="st4" d="M508.9,294.2c0-2-1.1-3.1-2.8-3.1s-2.8,1-2.8,3.1v6.2H501v-11h2.3v1.3c0.7-0.9,2-1.4,3.3-1.4
				c2.6,0,4.5,1.6,4.5,4.7v6.5h-2.3L508.9,294.2L508.9,294.2z"/>
			<path class="st4" d="M523.7,289.2c1.9,0,3.1,0.9,3.8,1.8v-1.6h2.3v11h-2.3v-1.6c-0.7,0.9-2,1.8-3.9,1.8c-2.9,0-5.2-2.3-5.2-5.7
				C518.5,291.4,520.8,289.2,523.7,289.2z M524.2,291.1c-1.7,0-3.3,1.3-3.3,3.7c0,2.4,1.6,3.8,3.3,3.8s3.3-1.3,3.3-3.7
				C527.5,292.5,525.9,291.1,524.2,291.1z"/>
			<path class="st4" d="M536.8,300.5c-2.6,0-4.5-1.6-4.6-3.6h2.4c0.1,0.9,0.9,1.6,2.2,1.6s2-0.6,2-1.3c0-2.2-6.4-0.9-6.4-5
				c0-1.8,1.6-3.2,4.2-3.2c2.5,0,4.1,1.3,4.3,3.5h-2.3c-0.1-1-0.8-1.6-2.1-1.6c-1.2,0-1.9,0.5-1.9,1.2c0,2.2,6.2,1,6.3,5
				C541.1,299.1,539.4,300.5,536.8,300.5z"/>
			<path class="st4" d="M243.5,315.2c2.9,0,5.2,2.2,5.2,5.6s-2.3,5.7-5.2,5.7c-1.8,0-3.1-0.9-3.8-1.8v6.8h-2.3v-16.3h2.3v1.6
				C240.4,316,241.7,315.2,243.5,315.2z M243,317.1c-1.7,0-3.3,1.3-3.3,3.7c0,2.4,1.6,3.7,3.3,3.7c1.7,0,3.4-1.4,3.4-3.8
				C246.4,318.4,244.7,317.1,243,317.1z"/>
			<path class="st4" d="M255.7,326.5c-3.2,0-5.5-2.2-5.5-5.7s2.2-5.7,5.5-5.7c3.1,0,5.4,2.2,5.4,5.4c0,0.4,0,0.7-0.1,1.1h-8.4
				c0.2,1.8,1.5,2.9,3.1,2.9c1.4,0,2.2-0.7,2.6-1.5h2.5C260.1,325,258.4,326.5,255.7,326.5z M252.6,319.9h6.1c0-1.7-1.4-2.8-3.1-2.8
				C254,317.1,252.8,318.1,252.6,319.9z"/>
			<path class="st4" d="M265.6,326.4h-2.3v-11h2.3v1.6c0.6-1.1,1.7-1.8,3.3-1.8v2.4h-0.6c-1.7,0-2.7,0.7-2.7,3L265.6,326.4
				L265.6,326.4z"/>
			<path class="st4" d="M276.5,317.2h-1.3v-1.9h1.3v-2.7h2.3v2.7h2.7v1.9h-2.7v6.1c0,0.8,0.3,1.2,1.3,1.2h1.4v1.9h-1.8
				c-2,0-3.2-0.8-3.2-3.1L276.5,317.2L276.5,317.2z"/>
			<path class="st4" d="M283.6,311.6h2.3v5.1c0.8-0.9,2-1.5,3.4-1.5c2.5,0,4.4,1.6,4.4,4.7v6.5h-2.3v-6.2c0-2-1.1-3.1-2.8-3.1
				c-1.7,0-2.8,1-2.8,3.1v6.2h-2.3L283.6,311.6L283.6,311.6z"/>
			<path class="st4" d="M301.3,326.5c-3.2,0-5.5-2.2-5.5-5.7s2.2-5.7,5.5-5.7c3.1,0,5.4,2.2,5.4,5.4c0,0.4,0,0.7-0.1,1.1h-8.4
				c0.2,1.8,1.5,2.9,3.1,2.9c1.4,0,2.2-0.7,2.6-1.5h2.5C305.8,325,304,326.5,301.3,326.5z M298.2,319.9h6.1c0-1.7-1.4-2.8-3.1-2.8
				C299.7,317.1,298.4,318.1,298.2,319.9z"/>
			<path class="st4" d="M316.4,326.4h-2.3v-11h2.3v1.6c0.6-1.1,1.7-1.8,3.3-1.8v2.4h-0.6c-1.7,0-2.7,0.7-2.7,3L316.4,326.4
				L316.4,326.4z"/>
			<path class="st4" d="M326.5,326.5c-3.2,0-5.5-2.2-5.5-5.7s2.2-5.7,5.5-5.7c3.1,0,5.4,2.2,5.4,5.4c0,0.4,0,0.7-0.1,1.1h-8.4
				c0.2,1.8,1.5,2.9,3.1,2.9c1.4,0,2.2-0.7,2.6-1.5h2.5C331,325,329.2,326.5,326.5,326.5z M323.4,319.9h6.1c0-1.7-1.4-2.8-3.1-2.8
				C324.9,317.1,323.7,318.1,323.4,319.9z"/>
			<path class="st4" d="M338.6,315.2c1.8,0,3.2,0.9,3.8,1.8v-1.6h2.3v16.3h-2.3v-6.9c-0.6,0.9-2,1.8-3.9,1.8c-2.8,0-5.1-2.3-5.1-5.7
				C333.4,317.4,335.7,315.2,338.6,315.2z M339.1,317.1c-1.7,0-3.3,1.3-3.3,3.7c0,2.4,1.6,3.8,3.3,3.8s3.3-1.3,3.3-3.7
				C342.4,318.5,340.8,317.1,339.1,317.1z"/>
			<path class="st4" d="M357.7,326.4h-2.3v-1.3c-0.7,0.9-2,1.5-3.3,1.5c-2.6,0-4.5-1.6-4.5-4.7v-6.5h2.3v6.1c0,2,1.1,3.1,2.8,3.1
				s2.8-1,2.8-3.1v-6.1h2.3L357.7,326.4L357.7,326.4z"/>
			<path class="st4" d="M360.4,312.4c0-0.8,0.6-1.5,1.5-1.5c0.8,0,1.4,0.6,1.4,1.5s-0.6,1.5-1.4,1.5
				C361,313.9,360.4,313.2,360.4,312.4z M360.7,315.3h2.3v11h-2.3V315.3z"/>
			<path class="st4" d="M368.2,326.4H366v-11h2.3v1.6c0.6-1.1,1.7-1.8,3.3-1.8v2.4H371c-1.7,0-2.7,0.7-2.7,3L368.2,326.4
				L368.2,326.4z"/>
			<path class="st4" d="M378.4,326.5c-3.2,0-5.5-2.2-5.5-5.7s2.2-5.7,5.5-5.7c3.1,0,5.4,2.2,5.4,5.4c0,0.4,0,0.7-0.1,1.1h-8.4
				c0.2,1.8,1.5,2.9,3.1,2.9c1.4,0,2.2-0.7,2.6-1.5h2.5C382.8,325,381.1,326.5,378.4,326.5z M375.3,319.9h6.1c0-1.7-1.4-2.8-3.1-2.8
				C376.7,317.1,375.5,318.1,375.3,319.9z"/>
			<path class="st4" d="M401.6,320.2c0-2-1.1-3.1-2.8-3.1s-2.8,1-2.8,3.1v6.2h-2.3v-6.2c0-2-1.1-3.1-2.8-3.1s-2.8,1-2.8,3.1v6.2H386
				v-11h2.3v1.3c0.7-0.9,1.9-1.4,3.3-1.4c1.7,0,3.2,0.7,4,2.2c0.7-1.3,2.2-2.2,3.8-2.2c2.6,0,4.5,1.6,4.5,4.7v6.5h-2.3V320.2z"/>
			<path class="st4" d="M411.5,326.5c-3.2,0-5.5-2.2-5.5-5.7s2.2-5.7,5.5-5.7c3.1,0,5.4,2.2,5.4,5.4c0,0.4,0,0.7-0.1,1.1h-8.4
				c0.2,1.8,1.5,2.9,3.1,2.9c1.4,0,2.2-0.7,2.6-1.5h2.5C415.9,325,414.2,326.5,411.5,326.5z M408.4,319.9h6.1c0-1.7-1.4-2.8-3.1-2.8
				C409.9,317.1,408.6,318.1,408.4,319.9z"/>
			<path class="st4" d="M426.9,320.2c0-2-1.1-3.1-2.8-3.1s-2.8,1-2.8,3.1v6.2H419v-11h2.3v1.3c0.7-0.9,2-1.4,3.3-1.4
				c2.6,0,4.5,1.6,4.5,4.7v6.5h-2.3L426.9,320.2L426.9,320.2z"/>
			<path class="st4" d="M432.4,317.2h-1.3v-1.9h1.3v-2.7h2.3v2.7h2.7v1.9h-2.7v6.1c0,0.8,0.3,1.2,1.3,1.2h1.4v1.9h-1.8
				c-2,0-3.2-0.8-3.2-3.1V317.2z"/>
		</g>
	</g>
	<rect y="320.1" class="st1" width="183.9" height="40"/>
</g>
<g id="_x33_">
	<rect y="360.1" class="st0" width="180" height="140"/>
	<g>
		<rect x="180" y="360.1" class="st1" width="26" height="180"/>
		<rect x="180" y="360.1" class="st1" width="185.4" height="40"/>
		<rect y="500.1" class="st1" width="185.4" height="40"/>
	</g>
	<path class="st2" d="M83.7,461l-7.6-2.2c-0.8-0.2-1.3-1.1-1-1.9l17.1-58.8c0.2-0.8,1.1-1.3,1.9-1l7.6,2.2c0.8,0.2,1.3,1.1,1,1.9
		L85.6,460C85.3,460.8,84.5,461.2,83.7,461z M69.5,447l5.4-5.8c0.6-0.6,0.5-1.6-0.1-2.2l-11.3-10l11.3-10c0.6-0.6,0.7-1.5,0.1-2.2
		l-5.4-5.8c-0.6-0.6-1.5-0.6-2.1-0.1l-18,16.9c-0.6,0.6-0.6,1.6,0,2.2l18,16.9C68,447.6,68.9,447.6,69.5,447L69.5,447z M110.4,447.1
		l18-16.9c0.6-0.6,0.6-1.6,0-2.2l-18-16.9c-0.6-0.6-1.5-0.5-2.1,0.1l-5.4,5.8c-0.6,0.6-0.5,1.6,0.1,2.2l11.3,10l-11.3,10
		c-0.6,0.6-0.7,1.5-0.1,2.2l5.4,5.8C108.8,447.6,109.8,447.6,110.4,447.1L110.4,447.1z"/>
	<g id="Strong">
		<g>
			<path class="st3" d="M244.8,450.8c-4.1,0-7.2-2.1-7.3-5.8h4.2c0.1,1.6,1.1,2.6,3,2.6c1.8,0,2.9-1,2.9-2.4
				c0-4.2-10.1-1.7-10.1-8.8c0-3.5,2.9-5.7,6.9-5.7s6.7,2,7,5.6h-4.3c-0.1-1.3-1.1-2.3-2.8-2.3c-1.5-0.1-2.7,0.7-2.7,2.3
				c0,3.9,10,1.7,10,8.6C251.7,448,249.2,450.8,244.8,450.8z"/>
			<path class="st3" d="M255.7,438.3h-1.8v-3.2h1.8v-3.8h3.9v3.8h3.5v3.2h-3.5v7.5c0,1,0.4,1.5,1.7,1.5h1.8v3.3h-2.5
				c-3,0-5-1.3-5-4.8L255.7,438.3L255.7,438.3z"/>
			<path class="st3" d="M269.9,450.6H266v-15.5h3.9v2.4c1-1.6,2.6-2.6,4.8-2.6v4.1h-1c-2.3,0-3.7,0.9-3.7,3.9L269.9,450.6
				L269.9,450.6z"/>
			<path class="st3" d="M284.2,450.8c-4.5,0-7.9-3.1-7.9-8c0-4.9,3.5-8,8-8s8,3.1,8,8C292.3,447.7,288.7,450.8,284.2,450.8z
				 M284.2,447.4c2.1,0,4.1-1.5,4.1-4.6c0-3.1-1.9-4.6-4-4.6s-3.9,1.5-3.9,4.6C280.3,445.9,282.1,447.4,284.2,447.4z"/>
			<path class="st3" d="M306,442c0-2.5-1.4-3.8-3.4-3.8c-2.1,0-3.5,1.3-3.5,3.8v8.6h-3.9v-15.5h3.9v1.9c1-1.3,2.7-2.2,4.7-2.2
				c3.6,0,6.2,2.4,6.2,6.6v9.1h-4V442z"/>
			<path class="st3" d="M319.7,434.8c2.4,0,4.2,1.1,5.1,2.5v-2.2h3.9v15.6c0,4.2-2.6,7.5-7.7,7.5c-4.4,0-7.4-2.2-7.8-5.7h3.9
				c0.4,1.4,1.8,2.3,3.8,2.3c2.2,0,3.8-1.2,3.8-4.1v-2.4c-0.9,1.3-2.7,2.5-5.1,2.5c-3.9,0-7.1-3.2-7.1-8.1
				C312.6,437.9,315.8,434.8,319.7,434.8z M320.7,438.2c-2.1,0-4.1,1.6-4.1,4.5c0,2.9,2,4.6,4.1,4.6c2.2,0,4.1-1.6,4.1-4.6
				C324.8,439.9,322.9,438.2,320.7,438.2z"/>
			<path class="st3" d="M348.3,430.8c4.3,0,7.9,2.3,9.2,6.3H353c-0.9-1.9-2.6-2.8-4.7-2.8c-3.4,0-5.9,2.5-5.9,6.5
				c0,3.9,2.4,6.5,5.9,6.5c2.1,0,3.8-0.9,4.7-2.8h4.5c-1.3,4-4.8,6.3-9.2,6.3c-5.6,0-9.9-4.1-9.9-10
				C338.3,434.9,342.6,430.8,348.3,430.8z"/>
			<path class="st3" d="M367.7,450.8c-4.5,0-7.9-3.1-7.9-8c0-4.9,3.5-8,8-8s8,3.1,8,8C375.8,447.7,372.2,450.8,367.7,450.8z
				 M367.7,447.4c2.1,0,4.1-1.5,4.1-4.6c0-3.1-1.9-4.6-4-4.6s-3.9,1.5-3.9,4.6C363.8,445.9,365.6,447.4,367.7,447.4z"/>
			<path class="st3" d="M384.8,434.8c2,0,4,1,5.1,2.4v-7.4h4v20.7h-4v-2.3c-0.9,1.4-2.7,2.5-5.1,2.5c-3.9,0-7.1-3.2-7.1-8.1
				C377.7,437.9,380.8,434.8,384.8,434.8z M385.7,438.2c-2.1,0-4.1,1.6-4.1,4.5c0,2.9,2,4.6,4.1,4.6c2.2,0,4.1-1.6,4.1-4.6
				C389.9,439.9,387.9,438.2,385.7,438.2z"/>
			<path class="st3" d="M397.2,430.9c0-1.3,1-2.3,2.4-2.3s2.4,1,2.4,2.3c0,1.3-1,2.3-2.4,2.3C398.2,433.2,397.2,432.2,397.2,430.9z
				 M397.6,435.1h3.9v15.5h-3.9V435.1z"/>
			<path class="st3" d="M416.3,442c0-2.5-1.4-3.8-3.4-3.8c-2.1,0-3.5,1.3-3.5,3.8v8.6h-3.9v-15.5h3.9v1.9c1-1.3,2.7-2.2,4.7-2.2
				c3.6,0,6.2,2.4,6.2,6.6v9.1h-3.9L416.3,442L416.3,442z"/>
			<path class="st3" d="M430,434.8c2.4,0,4.2,1.1,5.1,2.5v-2.2h3.9v15.6c0,4.2-2.6,7.5-7.7,7.5c-4.4,0-7.4-2.2-7.8-5.7h3.9
				c0.4,1.4,1.8,2.3,3.8,2.3c2.2,0,3.8-1.2,3.8-4.1v-2.4c-0.9,1.3-2.7,2.5-5.1,2.5c-3.9,0-7.1-3.2-7.1-8.1
				C422.9,437.9,426.1,434.8,430,434.8z M431,438.2c-2.1,0-4.1,1.6-4.1,4.5c0,2.9,2,4.6,4.1,4.6c2.2,0,4.1-1.6,4.1-4.6
				C435.1,439.9,433.2,438.2,431,438.2z"/>
		</g>
		<g>
			<path class="st4" d="M236.5,466.3h2.4l2.9,11.3l3.1-11.3h2.6l2.9,11.3l2.9-11.3h2.4l-4.1,13.9H249l-2.9-10.5l-3.1,10.5h-2.6
				L236.5,466.3z"/>
			<path class="st4" d="M259.9,480.2h-2.3v-11h2.3v1.6c0.6-1.1,1.7-1.8,3.3-1.8v2.4h-0.6c-1.7,0-2.7,0.7-2.7,3V480.2z"/>
			<path class="st4" d="M265,466.3c0-0.8,0.6-1.5,1.5-1.5c0.8,0,1.4,0.6,1.4,1.5c0,0.8-0.6,1.5-1.4,1.5
				C265.6,467.7,265,467.1,265,466.3z M265.3,469.2h2.3v11h-2.3V469.2z"/>
			<path class="st4" d="M270.9,471.1h-1.3v-1.9h1.3v-2.7h2.3v2.7h2.7v1.9h-2.7v6.1c0,0.8,0.3,1.2,1.3,1.2h1.4v1.9h-1.8
				c-2,0-3.2-0.8-3.2-3.1V471.1z"/>
			<path class="st4" d="M277.7,466.3c0-0.8,0.6-1.5,1.5-1.5c0.8,0,1.4,0.6,1.4,1.5c0,0.8-0.6,1.5-1.4,1.5
				C278.3,467.7,277.7,467.1,277.7,466.3z M278,469.2h2.3v11H278V469.2z"/>
			<path class="st4" d="M291.1,474.1c0-2-1.1-3.1-2.8-3.1s-2.8,1-2.8,3.1v6.2h-2.3v-11h2.3v1.3c0.7-0.9,2-1.4,3.3-1.4
				c2.6,0,4.5,1.6,4.5,4.7v6.5H291L291.1,474.1L291.1,474.1z"/>
			<path class="st4" d="M300.7,469c1.8,0,3.1,0.8,3.8,1.8v-1.6h2.3v11.2c0,3-1.9,5.3-5.4,5.3c-2.9,0-5.1-1.5-5.4-3.9h2.3
				c0.3,1.1,1.6,1.9,3.1,1.9c1.8,0,3.1-1.1,3.1-3.3v-1.8c-0.7,0.9-2,1.8-3.8,1.8c-2.9,0-5.2-2.3-5.2-5.7
				C295.5,471.3,297.8,469,300.7,469z M301.2,471c-1.7,0-3.3,1.3-3.3,3.7c0,2.4,1.6,3.8,3.3,3.8s3.3-1.3,3.3-3.7
				C304.5,472.3,302.9,471,301.2,471z"/>
			<path class="st4" d="M319.6,480.4c-2.8,0-4.9-1.5-4.9-4h2.4c0.1,1.1,0.9,2.1,2.5,2.1s2.5-0.9,2.5-2c0-3.4-7.4-1.2-7.4-6.3
				c0-2.4,1.9-4,4.8-4c2.7,0,4.5,1.4,4.7,3.8h-2.5c-0.1-0.9-0.9-1.8-2.3-1.8c-1.3,0-2.3,0.6-2.3,1.9c0,3.1,7.4,1.2,7.4,6.3
				C324.4,478.4,322.7,480.4,319.6,480.4z"/>
			<path class="st4" d="M327.5,471.1h-1.3v-1.9h1.3v-2.7h2.3v2.7h2.7v1.9h-2.7v6.1c0,0.8,0.3,1.2,1.3,1.2h1.4v1.9h-1.8
				c-2,0-3.2-0.8-3.2-3.1V471.1z"/>
			<path class="st4" d="M339,469c1.9,0,3.1,0.9,3.8,1.8v-1.6h2.3v11h-2.3v-1.6c-0.7,0.9-2,1.8-3.9,1.8c-2.9,0-5.2-2.3-5.2-5.7
				C333.8,471.3,336.1,469,339,469z M339.5,471c-1.7,0-3.3,1.3-3.3,3.7c0,2.4,1.6,3.8,3.3,3.8s3.3-1.3,3.3-3.7
				C342.8,472.3,341.2,471,339.5,471z"/>
			<path class="st4" d="M355.9,474.1c0-2-1.1-3.1-2.8-3.1s-2.8,1-2.8,3.1v6.2H348v-11h2.3v1.3c0.7-0.9,2-1.4,3.3-1.4
				c2.6,0,4.5,1.6,4.5,4.7v6.5h-2.3L355.9,474.1L355.9,474.1z"/>
			<path class="st4" d="M365.5,469c1.4,0,3,0.7,3.8,1.7v-5.3h2.3v14.8h-2.3v-1.7c-0.7,1-2,1.8-3.8,1.8c-2.9,0-5.2-2.3-5.2-5.7
				C360.3,471.3,362.6,469,365.5,469z M366,471c-1.7,0-3.3,1.3-3.3,3.7c0,2.4,1.6,3.8,3.3,3.8s3.3-1.3,3.3-3.7
				C369.3,472.3,367.7,471,366,471z"/>
			<path class="st4" d="M379.1,469c1.9,0,3.1,0.9,3.8,1.8v-1.6h2.3v11h-2.3v-1.6c-0.7,0.9-2,1.8-3.9,1.8c-2.9,0-5.2-2.3-5.2-5.7
				C373.9,471.3,376.2,469,379.1,469z M379.6,471c-1.7,0-3.3,1.3-3.3,3.7c0,2.4,1.6,3.8,3.3,3.8s3.3-1.3,3.3-3.7
				C382.9,472.3,381.3,471,379.6,471z"/>
			<path class="st4" d="M390.5,480.2h-2.3v-11h2.3v1.6c0.6-1.1,1.7-1.8,3.3-1.8v2.4h-0.6c-1.7,0-2.7,0.7-2.7,3V480.2z"/>
			<path class="st4" d="M400.3,469c1.4,0,3,0.7,3.8,1.7v-5.3h2.3v14.8h-2.3v-1.7c-0.7,1-2,1.8-3.8,1.8c-2.9,0-5.2-2.3-5.2-5.7
				C395.1,471.3,397.4,469,400.3,469z M400.8,471c-1.7,0-3.3,1.3-3.3,3.7c0,2.4,1.6,3.8,3.3,3.8s3.3-1.3,3.3-3.7
				C404.1,472.3,402.5,471,400.8,471z"/>
			<path class="st4" d="M419.3,469c2.7,0,4.5,1.3,5.1,3.7h-2.5c-0.4-1.1-1.3-1.7-2.6-1.7c-1.8,0-3.1,1.4-3.1,3.8
				c0,2.4,1.2,3.8,3.1,3.8c1.4,0,2.2-0.6,2.6-1.7h2.5c-0.6,2.2-2.4,3.7-5.1,3.7c-3.2,0-5.4-2.2-5.4-5.7
				C413.9,471.3,416.1,469,419.3,469z"/>
			<path class="st4" d="M431.4,480.4c-3.1,0-5.5-2.2-5.5-5.7c0-3.5,2.5-5.7,5.6-5.7s5.6,2.2,5.6,5.7
				C437.1,478.2,434.6,480.4,431.4,480.4z M431.4,478.4c1.7,0,3.4-1.2,3.4-3.7c0-2.5-1.6-3.7-3.3-3.7s-3.3,1.2-3.3,3.7
				C428.2,477.2,429.7,478.4,431.4,478.4z"/>
			<path class="st4" d="M443.9,469c1.4,0,3,0.7,3.8,1.7v-5.3h2.3v14.8h-2.3v-1.7c-0.7,1-2,1.8-3.8,1.8c-2.9,0-5.2-2.3-5.2-5.7
				C438.6,471.3,440.9,469,443.9,469z M444.3,471c-1.7,0-3.3,1.3-3.3,3.7c0,2.4,1.6,3.8,3.3,3.8s3.3-1.3,3.3-3.7
				C447.7,472.3,446,471,444.3,471z"/>
			<path class="st4" d="M457.7,480.4c-3.2,0-5.5-2.2-5.5-5.7c0-3.5,2.2-5.7,5.5-5.7c3.1,0,5.4,2.2,5.4,5.4c0,0.4,0,0.7-0.1,1.1h-8.4
				c0.2,1.8,1.5,2.9,3.1,2.9c1.4,0,2.2-0.7,2.6-1.5h2.5C462.1,478.9,460.4,480.4,457.7,480.4z M454.6,473.7h6.1
				c0-1.7-1.4-2.8-3.1-2.8C456.1,470.9,454.8,472,454.6,473.7z"/>
			<path class="st4" d="M469.2,469.2h2.3l2.3,8.9l2.3-8.9h2.4l2.2,8.8l2.3-8.8h2.2l-3.4,11h-2.4l-2.2-8.1l-2.2,8.1h-2.4L469.2,469.2
				z"/>
			<path class="st4" d="M486.7,466.3c0-0.8,0.6-1.5,1.5-1.5c0.8,0,1.4,0.6,1.4,1.5c0,0.8-0.6,1.5-1.4,1.5
				C487.3,467.7,486.7,467.1,486.7,466.3z M487,469.2h2.3v11H487V469.2z"/>
			<path class="st4" d="M492.6,471.1h-1.3v-1.9h1.3v-2.7h2.3v2.7h2.7v1.9h-2.7v6.1c0,0.8,0.3,1.2,1.3,1.2h1.4v1.9h-1.8
				c-2,0-3.2-0.8-3.2-3.1V471.1z"/>
			<path class="st4" d="M499.7,465.4h2.3v5.1c0.8-0.9,2-1.5,3.4-1.5c2.5,0,4.4,1.6,4.4,4.7v6.5h-2.3V474c0-2-1.1-3.1-2.8-3.1
				s-2.8,1-2.8,3.1v6.2h-2.3L499.7,465.4L499.7,465.4z"/>
			<path class="st4" d="M243.7,495c2.9,0,5.2,2.2,5.2,5.6c0,3.4-2.3,5.7-5.2,5.7c-1.8,0-3.1-0.9-3.8-1.8v6.8h-2.3V495h2.3v1.6
				C240.6,495.9,241.9,495,243.7,495z M243.2,497c-1.7,0-3.3,1.3-3.3,3.7c0,2.4,1.6,3.7,3.3,3.7s3.4-1.4,3.4-3.8
				C246.6,498.3,245,497,243.2,497z"/>
			<path class="st4" d="M253.5,506.2h-2.3v-11h2.3v1.6c0.6-1.1,1.7-1.8,3.3-1.8v2.4h-0.6c-1.7,0-2.7,0.7-2.7,3V506.2z"/>
			<path class="st4" d="M263.6,506.4c-3.1,0-5.5-2.2-5.5-5.7s2.5-5.7,5.6-5.7s5.6,2.2,5.6,5.7C269.4,504.2,266.8,506.4,263.6,506.4z
				 M263.6,504.4c1.7,0,3.4-1.2,3.4-3.7s-1.6-3.7-3.3-3.7s-3.3,1.2-3.3,3.7S261.9,504.4,263.6,504.4z"/>
			<path class="st4" d="M277.7,495c2.9,0,5.2,2.2,5.2,5.6c0,3.4-2.3,5.7-5.2,5.7c-1.8,0-3.1-0.9-3.8-1.8v6.8h-2.3V495h2.3v1.6
				C274.6,495.9,275.9,495,277.7,495z M277.2,497c-1.7,0-3.3,1.3-3.3,3.7c0,2.4,1.6,3.7,3.3,3.7s3.4-1.4,3.4-3.8
				C280.6,498.3,279,497,277.2,497z"/>
			<path class="st4" d="M289.9,506.4c-3.2,0-5.5-2.2-5.5-5.7s2.2-5.7,5.5-5.7c3.1,0,5.4,2.2,5.4,5.4c0,0.4,0,0.7-0.1,1.1h-8.4
				c0.2,1.8,1.5,2.9,3.1,2.9c1.4,0,2.2-0.7,2.6-1.5h2.5C294.4,504.9,292.6,506.4,289.9,506.4z M286.8,499.7h6.1
				c0-1.7-1.4-2.8-3.1-2.8C288.3,496.9,287,498,286.8,499.7z"/>
			<path class="st4" d="M299.8,506.2h-2.3v-11h2.3v1.6c0.6-1.1,1.7-1.8,3.3-1.8v2.4h-0.6c-1.7,0-2.7,0.7-2.7,3V506.2z"/>
			<path class="st4" d="M315,495c2.7,0,4.5,1.3,5.1,3.7h-2.5c-0.4-1.1-1.3-1.7-2.6-1.7c-1.8,0-3.1,1.4-3.1,3.8
				c0,2.4,1.2,3.8,3.1,3.8c1.4,0,2.2-0.6,2.6-1.7h2.5c-0.6,2.2-2.4,3.7-5.1,3.7c-3.2,0-5.4-2.2-5.4-5.7
				C309.6,497.3,311.9,495,315,495z"/>
			<path class="st4" d="M327.2,506.4c-3.1,0-5.5-2.2-5.5-5.7s2.5-5.7,5.6-5.7s5.6,2.2,5.6,5.7C332.9,504.2,330.3,506.4,327.2,506.4z
				 M327.2,504.4c1.7,0,3.4-1.2,3.4-3.7s-1.6-3.7-3.3-3.7s-3.3,1.2-3.3,3.7C324,503.2,325.5,504.4,327.2,504.4z"/>
			<path class="st4" d="M350.8,500.1c0-2-1.1-3.1-2.8-3.1s-2.8,1-2.8,3.1v6.2H343v-6.2c0-2-1.1-3.1-2.8-3.1s-2.8,1-2.8,3.1v6.2h-2.3
				v-11h2.3v1.3c0.7-0.9,1.9-1.4,3.3-1.4c1.7,0,3.2,0.7,4,2.2c0.7-1.3,2.2-2.2,3.8-2.2c2.6,0,4.5,1.6,4.5,4.7v6.5h-2.3L350.8,500.1
				L350.8,500.1z"/>
			<path class="st4" d="M371.6,500.1c0-2-1.1-3.1-2.8-3.1s-2.8,1-2.8,3.1v6.2h-2.3v-6.2c0-2-1.1-3.1-2.8-3.1s-2.8,1-2.8,3.1v6.2
				h-2.3v-11h2.3v1.3c0.7-0.9,1.9-1.4,3.3-1.4c1.7,0,3.2,0.7,4,2.2c0.7-1.3,2.2-2.2,3.8-2.2c2.6,0,4.5,1.6,4.5,4.7v6.5h-2.3v-6.3
				H371.6z"/>
			<path class="st4" d="M381.5,506.4c-3.2,0-5.5-2.2-5.5-5.7s2.2-5.7,5.5-5.7c3.1,0,5.4,2.2,5.4,5.4c0,0.4,0,0.7-0.1,1.1h-8.4
				c0.2,1.8,1.5,2.9,3.1,2.9c1.4,0,2.2-0.7,2.6-1.5h2.5C385.9,504.9,384.2,506.4,381.5,506.4z M378.3,499.7h6.1
				c0-1.7-1.4-2.8-3.1-2.8C379.8,496.9,378.6,498,378.3,499.7z"/>
			<path class="st4" d="M396.9,500.1c0-2-1.1-3.1-2.8-3.1s-2.8,1-2.8,3.1v6.2H389v-11h2.3v1.3c0.7-0.9,2-1.4,3.3-1.4
				c2.6,0,4.5,1.6,4.5,4.7v6.5h-2.3L396.9,500.1L396.9,500.1z"/>
			<path class="st4" d="M402.4,497.1h-1.3v-1.9h1.3v-2.7h2.3v2.7h2.7v1.9h-2.7v6.1c0,0.8,0.3,1.2,1.3,1.2h1.4v1.9h-1.8
				c-2,0-3.2-0.8-3.2-3.1V497.1z"/>
			<path class="st4" d="M409.2,492.3c0-0.8,0.6-1.5,1.5-1.5c0.8,0,1.4,0.6,1.4,1.5c0,0.8-0.6,1.5-1.4,1.5
				C409.8,493.7,409.2,493.1,409.2,492.3z M409.5,495.2h2.3v11h-2.3V495.2z"/>
			<path class="st4" d="M422.6,500.1c0-2-1.1-3.1-2.8-3.1s-2.8,1-2.8,3.1v6.2h-2.3v-11h2.3v1.3c0.7-0.9,2-1.4,3.3-1.4
				c2.6,0,4.5,1.6,4.5,4.7v6.5h-2.3L422.6,500.1L422.6,500.1z"/>
			<path class="st4" d="M432.2,495c1.8,0,3.1,0.8,3.8,1.8v-1.6h2.3v11.2c0,3-1.9,5.3-5.4,5.3c-2.9,0-5.1-1.5-5.4-3.9h2.3
				c0.3,1.1,1.6,1.9,3.1,1.9c1.8,0,3.1-1.1,3.1-3.3v-1.8c-0.7,0.9-2,1.8-3.8,1.8c-2.9,0-5.2-2.3-5.2-5.7
				C427,497.3,429.3,495,432.2,495z M432.7,497c-1.7,0-3.3,1.3-3.3,3.7c0,2.4,1.6,3.8,3.3,3.8s3.3-1.3,3.3-3.7
				C436,498.3,434.4,497,432.7,497z"/>
		</g>
	</g>
</g>
<g id="_x34_">
	<rect y="540.1" class="st0" width="180" height="180"/>
	<g>
		<rect x="180" y="540.1" class="st1" width="26" height="180"/>
		<rect x="180" y="540.1" class="st1" width="186.7" height="40"/>
		<rect y="680.1" class="st1" width="186.7" height="40"/>
	</g>
	<path class="st2" d="M75.8,582.1v11.1c0,1.8-1.5,3.3-3.3,3.3h-14c-1.8,0-3.3-1.5-3.3-3.3v-11.1c0-1.8,1.5-3.3,3.3-3.3h14
		C74.3,578.8,75.8,580.2,75.8,582.1L75.8,582.1z M100.9,615.3v-11.1c0-1.8-1.5-3.3-3.3-3.3h-14c-1.8,0-3.3,1.5-3.3,3.3v11.1
		c0,1.8,1.5,3.3,3.3,3.3h14C99.4,618.6,100.9,617.1,100.9,615.3z M105.3,582.1v11.1c0,1.8,1.5,3.3,3.3,3.3h14c1.8,0,3.3-1.5,3.3-3.3
		v-11.1c0-1.8-1.5-3.3-3.3-3.3h-14C106.8,578.8,105.3,580.2,105.3,582.1z M100.9,593.1V582c0-1.8-1.5-3.3-3.3-3.3h-14
		c-1.8,0-3.3,1.5-3.3,3.3v11.1c0,1.8,1.5,3.3,3.3,3.3h14C99.4,596.5,100.9,595,100.9,593.1z M72.5,600.9h-14c-1.8,0-3.3,1.5-3.3,3.3
		v11.1c0,1.8,1.5,3.3,3.3,3.3h14c1.8,0,3.3-1.5,3.3-3.3v-11.1C75.8,602.4,74.3,600.9,72.5,600.9L72.5,600.9z M55.1,626.4v11.1
		c0,1.8,1.5,3.3,3.3,3.3h14c1.8,0,3.3-1.5,3.3-3.3v-11.1c0-1.8-1.5-3.3-3.3-3.3h-14C56.6,623,55.1,624.5,55.1,626.4z M108.7,618.6
		h14c1.8,0,3.3-1.5,3.3-3.3v-11.1c0-1.8-1.5-3.3-3.3-3.3h-14c-1.8,0-3.3,1.5-3.3,3.3v11.1C105.3,617.1,106.8,618.6,108.7,618.6z
		 M108.7,640.8h14c1.8,0,3.3-1.5,3.3-3.3v-11.1c0-1.8-1.5-3.3-3.3-3.3h-14c-1.8,0-3.3,1.5-3.3,3.3v11.1
		C105.3,639.3,106.8,640.8,108.7,640.8z M80.2,626.4v11.1c0,1.8,1.5,3.3,3.3,3.3h14c1.8,0,3.3-1.5,3.3-3.3v-11.1
		c0-1.8-1.5-3.3-3.3-3.3h-14C81.7,623,80.2,624.5,80.2,626.4z"/>
	<g id="High">
		<g>
			<path class="st3" d="M250.1,622.5h-8.4v8.3h-3.9v-19.5h3.9v8h8.4v-8h3.9v19.5h-3.9V622.5z"/>
			<path class="st3" d="M257.4,611.2c0-1.3,1-2.3,2.4-2.3s2.4,1,2.4,2.3s-1,2.3-2.4,2.3S257.4,612.4,257.4,611.2z M257.8,615.3h3.9
				v15.5h-3.9V615.3z"/>
			<path class="st3" d="M271.7,615.1c2.4,0,4.2,1.1,5.1,2.5v-2.2h3.9V631c0,4.2-2.6,7.5-7.7,7.5c-4.4,0-7.4-2.2-7.8-5.7h3.9
				c0.4,1.4,1.8,2.3,3.8,2.3c2.2,0,3.8-1.2,3.8-4.1v-2.4c-0.9,1.3-2.7,2.5-5.1,2.5c-3.9,0-7.1-3.2-7.1-8.1
				C264.6,618.2,267.7,615.1,271.7,615.1z M272.7,618.5c-2.1,0-4.1,1.6-4.1,4.5c0,2.9,2,4.6,4.1,4.6c2.2,0,4.1-1.6,4.1-4.6
				C276.8,620.1,274.9,618.5,272.7,618.5z"/>
			<path class="st3" d="M284.6,610.1h3.9v7.1c1-1.3,2.7-2.2,4.8-2.2c3.5,0,6,2.4,6,6.6v9.1h-3.9v-8.6c0-2.5-1.4-3.8-3.4-3.8
				c-2.1,0-3.5,1.3-3.5,3.8v8.6h-3.9L284.6,610.1L284.6,610.1z"/>
			<path class="st3" d="M321.1,614.4h-7.4v4.9h6.6v3.1h-6.6v5.2h7.4v3.2h-11.3v-19.6h11.3V614.4z"/>
			<path class="st3" d="M325.1,618.5h-1.8v-3.2h1.8v-0.8c0-3.8,2.2-5.6,6.5-5.5v3.3c-1.9-0.1-2.5,0.6-2.5,2.3v0.6h2.7v3.2h-2.7v12.3
				h-4V618.5z"/>
			<path class="st3" d="M334.8,618.5H333v-3.2h1.8v-0.8c0-3.8,2.2-5.6,6.5-5.5v3.3c-1.9-0.1-2.5,0.6-2.5,2.3v0.6h2.7v3.2h-2.7v12.3
				h-4V618.5z"/>
			<path class="st3" d="M343.6,611.2c0-1.3,1-2.3,2.4-2.3s2.4,1,2.4,2.3s-1,2.3-2.4,2.3S343.6,612.4,343.6,611.2z M344,615.3h3.9
				v15.5H344V615.3z"/>
			<path class="st3" d="M358.4,615.1c3.9,0,6.5,2,7.3,5.5h-4.2c-0.4-1.3-1.5-2.2-3.1-2.2c-2.2,0-3.6,1.7-3.6,4.7s1.5,4.6,3.6,4.6
				c1.6,0,2.6-0.7,3.1-2.1h4.2c-0.8,3.3-3.4,5.5-7.3,5.5c-4.5,0-7.7-3.1-7.7-8C350.7,618.2,354,615.1,358.4,615.1z"/>
			<path class="st3" d="M368.2,611.2c0-1.3,1-2.3,2.4-2.3s2.4,1,2.4,2.3s-1,2.3-2.4,2.3S368.2,612.4,368.2,611.2z M368.6,615.3h3.9
				v15.5h-3.9V615.3z"/>
			<path class="st3" d="M383.2,631.1c-4.5,0-7.8-3.1-7.8-8c0-4.9,3.2-8,7.8-8c4.5,0,7.6,3.1,7.6,7.7c0,0.5,0,1-0.1,1.5h-11.3
				c0.2,2.3,1.8,3.6,3.7,3.6c1.7,0,2.6-0.8,3.1-1.9h4.2C389.6,628.8,387,631.1,383.2,631.1z M379.4,621.6h7.4
				c-0.1-2-1.7-3.3-3.7-3.3C381.2,618.3,379.7,619.5,379.4,621.6z"/>
			<path class="st3" d="M404.6,622.2c0-2.5-1.4-3.8-3.4-3.8c-2.1,0-3.5,1.3-3.5,3.8v8.6h-3.9v-15.5h3.9v1.9c1-1.3,2.7-2.2,4.7-2.2
				c3.6,0,6.2,2.4,6.2,6.6v9.1h-3.9L404.6,622.2L404.6,622.2z"/>
			<path class="st3" d="M418.9,615.1c3.9,0,6.5,2,7.3,5.5H422c-0.4-1.3-1.5-2.2-3.1-2.2c-2.2,0-3.6,1.7-3.6,4.7s1.5,4.6,3.6,4.6
				c1.6,0,2.6-0.7,3.1-2.1h4.2c-0.8,3.3-3.4,5.5-7.3,5.5c-4.5,0-7.7-3.1-7.7-8C411.2,618.2,414.4,615.1,418.9,615.1z"/>
			<path class="st3" d="M439.7,615.3h4.2l-9.6,22.8h-4.2l3.4-7.7l-6.2-15.1h4.4l4,10.8L439.7,615.3z"/>
		</g>
		<g>
			<path class="st4" d="M245.7,657.6h-5.8l-1,2.8h-2.4l5-13.9h2.6l5,13.9h-2.4L245.7,657.6z M242.8,649.3l-2.3,6.5h4.5L242.8,649.3z
				"/>
			<path class="st4" d="M257.4,649.3c2.9,0,5.2,2.2,5.2,5.6c0,3.4-2.3,5.7-5.2,5.7c-1.8,0-3.1-0.9-3.8-1.8v6.8h-2.3v-16.3h2.3v1.6
				C254.3,650.1,255.6,649.3,257.4,649.3z M256.9,651.2c-1.7,0-3.3,1.3-3.3,3.7s1.6,3.7,3.3,3.7s3.4-1.4,3.4-3.8
				C260.3,652.5,258.6,651.2,256.9,651.2z"/>
			<path class="st4" d="M271,649.3c2.9,0,5.2,2.2,5.2,5.6c0,3.4-2.3,5.7-5.2,5.7c-1.8,0-3.1-0.9-3.8-1.8v6.8h-2.3v-16.3h2.3v1.6
				C267.8,650.1,269.2,649.3,271,649.3z M270.5,651.2c-1.7,0-3.3,1.3-3.3,3.7s1.6,3.7,3.3,3.7s3.4-1.4,3.4-3.8
				C273.8,652.5,272.2,651.2,270.5,651.2z"/>
			<path class="st4" d="M280.7,660.5h-2.3v-11h2.3v1.6c0.6-1.1,1.7-1.8,3.3-1.8v2.4h-0.6c-1.7,0-2.7,0.7-2.7,3V660.5z"/>
			<path class="st4" d="M290.9,660.6c-3.1,0-5.5-2.2-5.5-5.7s2.5-5.7,5.6-5.7s5.6,2.2,5.6,5.7C296.6,658.4,294,660.6,290.9,660.6z
				 M290.9,658.7c1.7,0,3.4-1.2,3.4-3.7s-1.6-3.7-3.3-3.7s-3.3,1.2-3.3,3.7C287.6,657.4,289.1,658.7,290.9,658.7z"/>
			<path class="st4" d="M303.3,649.3c1.9,0,3.1,0.9,3.8,1.8v-1.6h2.3v11h-2.3v-1.6c-0.7,0.9-2,1.8-3.9,1.8c-2.9,0-5.2-2.3-5.2-5.7
				C298.1,651.5,300.4,649.3,303.3,649.3z M303.7,651.2c-1.7,0-3.3,1.3-3.3,3.7s1.6,3.8,3.3,3.8c1.7,0,3.3-1.3,3.3-3.7
				C307.1,652.6,305.5,651.2,303.7,651.2z"/>
			<path class="st4" d="M317,649.3c2.7,0,4.5,1.3,5.1,3.7h-2.5c-0.4-1.1-1.3-1.7-2.6-1.7c-1.8,0-3.1,1.4-3.1,3.8
				c0,2.4,1.2,3.8,3.1,3.8c1.4,0,2.2-0.6,2.6-1.7h2.5c-0.6,2.2-2.4,3.7-5.1,3.7c-3.2,0-5.4-2.2-5.4-5.7
				C311.6,651.5,313.9,649.3,317,649.3z"/>
			<path class="st4" d="M324.4,645.7h2.3v5.1c0.8-0.9,2-1.5,3.4-1.5c2.5,0,4.4,1.6,4.4,4.7v6.5h-2.3v-6.2c0-2-1.1-3.1-2.8-3.1
				c-1.7,0-2.8,1-2.8,3.1v6.2h-2.3v-14.8H324.4z"/>
			<path class="st4" d="M342.8,652.3h8.2v1.9h-8.2V652.3z"/>
			<path class="st4" d="M358.6,644.5h2.1l-0.2,4.1h-1.6L358.6,644.5z M361.7,644.5h2.1l-0.2,4.1H362L361.7,644.5z"/>
			<path class="st4" d="M364.8,646.6h2.4l2.9,11.3l3.1-11.3h2.6l2.9,11.3l2.9-11.3h2.4l-4.1,13.9h-2.6l-2.9-10.5l-3.1,10.5h-2.6
				L364.8,646.6z"/>
			<path class="st4" d="M385.9,645.7h2.3v5.1c0.8-0.9,2-1.5,3.4-1.5c2.5,0,4.4,1.6,4.4,4.7v6.5h-2.3v-6.2c0-2-1.1-3.1-2.8-3.1
				c-1.7,0-2.8,1-2.8,3.1v6.2h-2.3v-14.8H385.9z"/>
			<path class="st4" d="M403.3,649.3c1.9,0,3.1,0.9,3.8,1.8v-1.6h2.3v11h-2.3v-1.6c-0.7,0.9-2,1.8-3.9,1.8c-2.9,0-5.2-2.3-5.2-5.7
				C398.1,651.5,400.4,649.3,403.3,649.3z M403.8,651.2c-1.7,0-3.3,1.3-3.3,3.7s1.6,3.8,3.3,3.8c1.7,0,3.3-1.3,3.3-3.7
				S405.5,651.2,403.8,651.2z"/>
			<path class="st4" d="M412.8,651.3h-1.3v-1.9h1.3v-2.7h2.3v2.7h2.7v1.9h-2.7v6.1c0,0.8,0.3,1.2,1.3,1.2h1.4v1.9H416
				c-2,0-3.2-0.8-3.2-3.1L412.8,651.3L412.8,651.3z"/>
			<path class="st4" d="M429.7,649.3c2.7,0,4.5,1.3,5.1,3.7h-2.5c-0.4-1.1-1.3-1.7-2.6-1.7c-1.8,0-3.1,1.4-3.1,3.8
				c0,2.4,1.2,3.8,3.1,3.8c1.4,0,2.2-0.6,2.6-1.7h2.5c-0.6,2.2-2.4,3.7-5.1,3.7c-3.2,0-5.4-2.2-5.4-5.7
				C424.3,651.5,426.6,649.3,429.7,649.3z"/>
			<path class="st4" d="M441.5,649.3c1.9,0,3.1,0.9,3.8,1.8v-1.6h2.3v11h-2.3v-1.6c-0.7,0.9-2,1.8-3.9,1.8c-2.9,0-5.2-2.3-5.2-5.7
				C436.3,651.5,438.6,649.3,441.5,649.3z M442,651.2c-1.7,0-3.3,1.3-3.3,3.7s1.6,3.8,3.3,3.8c1.7,0,3.3-1.3,3.3-3.7
				C445.3,652.6,443.7,651.2,442,651.2z"/>
			<path class="st4" d="M458.5,654.3c0-2-1.1-3.1-2.8-3.1c-1.7,0-2.8,1-2.8,3.1v6.2h-2.3v-11h2.3v1.3c0.7-0.9,2-1.4,3.3-1.4
				c2.6,0,4.5,1.6,4.5,4.7v6.5h-2.3v-6.3H458.5z"/>
			<path class="st4" d="M467.5,649.4h2.3l2.3,8.9l2.3-8.9h2.4l2.2,8.8l2.3-8.8h2.2l-3.4,11h-2.4l-2.2-8.1l-2.2,8.1h-2.4L467.5,649.4
				z"/>
			<path class="st4" d="M490.1,660.6c-3.2,0-5.5-2.2-5.5-5.7s2.2-5.7,5.5-5.7c3.1,0,5.4,2.2,5.4,5.4c0,0.4,0,0.7-0.1,1.1H487
				c0.2,1.8,1.5,2.9,3.1,2.9c1.4,0,2.2-0.7,2.6-1.5h2.5C494.5,659.1,492.8,660.6,490.1,660.6z M486.9,654h6.1c0-1.7-1.4-2.8-3.1-2.8
				C488.4,651.2,487.2,652.2,486.9,654z"/>
			<path class="st4" d="M507.3,649.3c1.4,0,3,0.7,3.8,1.7v-5.3h2.3v14.8h-2.3v-1.7c-0.7,1-2,1.8-3.8,1.8c-2.9,0-5.2-2.3-5.2-5.7
				C502.1,651.5,504.4,649.3,507.3,649.3z M507.8,651.2c-1.7,0-3.3,1.3-3.3,3.7s1.6,3.8,3.3,3.8c1.7,0,3.3-1.3,3.3-3.7
				S509.5,651.2,507.8,651.2z"/>
			<path class="st4" d="M521.2,660.6c-3.1,0-5.5-2.2-5.5-5.7s2.5-5.7,5.6-5.7s5.6,2.2,5.6,5.7C526.9,658.4,524.4,660.6,521.2,660.6z
				 M521.2,658.7c1.7,0,3.4-1.2,3.4-3.7s-1.6-3.7-3.3-3.7c-1.7,0-3.3,1.2-3.3,3.7C518,657.4,519.5,658.7,521.2,658.7z"/>
			<path class="st4" d="M540.5,649.3c2.9,0,5.2,2.2,5.2,5.6c0,3.4-2.3,5.7-5.2,5.7c-1.8,0-3.1-0.8-3.8-1.8v1.6h-2.3v-14.8h2.3v5.4
				C537.4,650.1,538.8,649.3,540.5,649.3z M540,651.2c-1.7,0-3.3,1.3-3.3,3.7s1.6,3.7,3.3,3.7c1.7,0,3.4-1.4,3.4-3.8
				C543.4,652.5,541.7,651.2,540,651.2z"/>
			<path class="st4" d="M552.7,660.6c-3.2,0-5.5-2.2-5.5-5.7s2.2-5.7,5.5-5.7c3.1,0,5.4,2.2,5.4,5.4c0,0.4,0,0.7-0.1,1.1h-8.4
				c0.2,1.8,1.5,2.9,3.1,2.9c1.4,0,2.2-0.7,2.6-1.5h2.5C557.1,659.1,555.4,660.6,552.7,660.6z M549.6,654h6.1c0-1.7-1.4-2.8-3.1-2.8
				C551,651.2,549.8,652.2,549.6,654z"/>
			<path class="st4" d="M560.6,651.3h-1.3v-1.9h1.3v-2.7h2.3v2.7h2.7v1.9h-2.7v6.1c0,0.8,0.3,1.2,1.3,1.2h1.4v1.9h-1.8
				c-2,0-3.2-0.8-3.2-3.1L560.6,651.3L560.6,651.3z"/>
			<path class="st4" d="M568.1,651.3h-1.3v-1.9h1.3v-2.7h2.3v2.7h2.7v1.9h-2.7v6.1c0,0.8,0.3,1.2,1.3,1.2h1.4v1.9h-1.8
				c-2,0-3.2-0.8-3.2-3.1L568.1,651.3L568.1,651.3z"/>
			<path class="st4" d="M579.9,660.6c-3.2,0-5.5-2.2-5.5-5.7s2.2-5.7,5.5-5.7c3.1,0,5.4,2.2,5.4,5.4c0,0.4,0,0.7-0.1,1.1h-8.4
				c0.2,1.8,1.5,2.9,3.1,2.9c1.4,0,2.2-0.7,2.6-1.5h2.5C584.3,659.1,582.6,660.6,579.9,660.6z M576.8,654h6.1c0-1.7-1.4-2.8-3.1-2.8
				C578.3,651.2,577,652.2,576.8,654z"/>
			<path class="st4" d="M589.8,660.5h-2.3v-11h2.3v1.6c0.6-1.1,1.7-1.8,3.3-1.8v2.4h-0.6c-1.7,0-2.7,0.7-2.7,3L589.8,660.5
				L589.8,660.5z"/>
			<path class="st4" d="M241.8,675.3c1.9,0,3.1,0.9,3.8,1.8v-1.6h2.3v11h-2.3v-1.6c-0.7,0.9-2,1.8-3.9,1.8c-2.9,0-5.2-2.3-5.2-5.7
				C236.6,677.5,238.9,675.3,241.8,675.3z M242.3,677.2c-1.7,0-3.3,1.3-3.3,3.7s1.6,3.8,3.3,3.8s3.3-1.3,3.3-3.7
				S244,677.2,242.3,677.2z"/>
			<path class="st4" d="M258.7,680.3c0-2-1.1-3.1-2.8-3.1s-2.8,1-2.8,3.1v6.2h-2.3v-11h2.3v1.3c0.7-0.9,2-1.4,3.3-1.4
				c2.6,0,4.5,1.6,4.5,4.7v6.5h-2.3L258.7,680.3L258.7,680.3z"/>
			<path class="st4" d="M268.3,675.3c1.4,0,3,0.7,3.8,1.7v-5.3h2.3v14.8h-2.3v-1.7c-0.7,1-2,1.8-3.8,1.8c-2.9,0-5.2-2.3-5.2-5.7
				C263.1,677.5,265.4,675.3,268.3,675.3z M268.8,677.2c-1.7,0-3.3,1.3-3.3,3.7s1.6,3.8,3.3,3.8s3.3-1.3,3.3-3.7
				S270.5,677.2,268.8,677.2z"/>
			<path class="st4" d="M287.1,675.3c1.4,0,3,0.7,3.8,1.7v-5.3h2.3v14.8h-2.3v-1.7c-0.7,1-2,1.8-3.8,1.8c-2.9,0-5.2-2.3-5.2-5.7
				C281.9,677.5,284.2,675.3,287.1,675.3z M287.6,677.2c-1.7,0-3.3,1.3-3.3,3.7s1.6,3.8,3.3,3.8s3.3-1.3,3.3-3.7
				S289.3,677.2,287.6,677.2z"/>
			<path class="st4" d="M295.9,672.5c0-0.8,0.6-1.5,1.5-1.5c0.8,0,1.4,0.6,1.4,1.5c0,0.8-0.6,1.5-1.4,1.5
				C296.5,674,295.9,673.3,295.9,672.5z M296.2,675.4h2.3v11h-2.3L296.2,675.4L296.2,675.4z"/>
			<path class="st4" d="M301.7,677.3h-1.3v-1.9h1.3v-0.8c0-2.5,1.3-3.6,4.2-3.6v1.9c-1.4,0-1.9,0.5-1.9,1.7v0.8h2v1.9h-2v9.2h-2.3
				L301.7,677.3L301.7,677.3z"/>
			<path class="st4" d="M308.4,677.3h-1.3v-1.9h1.3v-0.8c0-2.5,1.3-3.6,4.2-3.6v1.9c-1.4,0-1.9,0.5-1.9,1.7v0.8h2v1.9h-2v9.2h-2.3
				L308.4,677.3L308.4,677.3z"/>
			<path class="st4" d="M319.5,686.6c-3.2,0-5.5-2.2-5.5-5.7s2.2-5.7,5.5-5.7c3.1,0,5.4,2.2,5.4,5.4c0,0.4,0,0.7-0.1,1.1h-8.4
				c0.2,1.8,1.5,2.9,3.1,2.9c1.4,0,2.2-0.7,2.6-1.5h2.5C323.9,685.1,322.2,686.6,319.5,686.6z M316.4,680h6.1c0-1.7-1.4-2.8-3.1-2.8
				C317.8,677.2,316.6,678.2,316.4,680z"/>
			<path class="st4" d="M329.4,686.5h-2.3v-11h2.3v1.6c0.6-1.1,1.7-1.8,3.3-1.8v2.4h-0.6c-1.7,0-2.7,0.7-2.7,3L329.4,686.5
				L329.4,686.5z"/>
			<path class="st4" d="M339.5,686.6c-3.2,0-5.5-2.2-5.5-5.7s2.2-5.7,5.5-5.7c3.1,0,5.4,2.2,5.4,5.4c0,0.4,0,0.7-0.1,1.1h-8.4
				c0.2,1.8,1.5,2.9,3.1,2.9c1.4,0,2.2-0.7,2.6-1.5h2.5C343.9,685.1,342.2,686.6,339.5,686.6z M336.4,680h6.1c0-1.7-1.4-2.8-3.1-2.8
				C337.9,677.2,336.6,678.2,336.4,680z"/>
			<path class="st4" d="M354.9,680.3c0-2-1.1-3.1-2.8-3.1c-1.7,0-2.8,1-2.8,3.1v6.2H347v-11h2.3v1.3c0.7-0.9,2-1.4,3.3-1.4
				c2.6,0,4.5,1.6,4.5,4.7v6.5h-2.3v-6.3H354.9z"/>
			<path class="st4" d="M360.4,677.3h-1.3v-1.9h1.3v-2.7h2.3v2.7h2.7v1.9h-2.7v6.1c0,0.8,0.3,1.2,1.3,1.2h1.4v1.9h-1.8
				c-2,0-3.2-0.8-3.2-3.1L360.4,677.3L360.4,677.3z"/>
			<path class="st4" d="M366.7,670.5h2.1l-0.2,4.1H367L366.7,670.5z M369.7,670.5h2.1l-0.2,4.1H370L369.7,670.5z"/>
		</g>
	</g>
</g>
<g id="_x35_">
	<rect y="720.2" class="st0" width="180" height="140"/>
	<g>
		<rect x="180" y="720.2" class="st1" width="26" height="180"/>
		<rect x="180" y="720.1" class="st1" width="190.2" height="40"/>
		<rect y="859.9" class="st1" width="190.2" height="40"/>
	</g>
	<path class="st2" d="M89,776.1c-1.5,0-2.9,0.3-4.3,0.7c0.7,1.1,1,2.4,1,3.8c0,4.3-3.5,7.8-7.8,7.8c-1.3,0-2.6-0.4-3.8-1
		c-2.4,8.2,2.4,16.8,10.6,19.2c8.2,2.4,16.8-2.4,19.2-10.6s-2.4-16.8-10.6-19.2C91.9,776.3,90.5,776.1,89,776.1z M128.5,789.7
		C121,775,106.1,765.1,89,765.1s-32,10-39.5,24.6c-0.6,1.3-0.6,2.8,0,4c7.5,14.7,22.4,24.6,39.5,24.6s32-10,39.5-24.6
		C129.2,792.5,129.2,790.9,128.5,789.7z M89,811.7c-13.7,0-26.3-7.6-33-20c6.8-12.4,19.3-20,33-20s26.3,7.6,33,20
		C115.3,804.1,102.7,811.7,89,811.7z"/>
	<g id="Mobile">
		<g>
			<path class="st3" d="M237.8,791.2h4.5l6.2,14.5l6.2-14.5h4.4v19.5h-3.9v-12.6l-5.2,12.7h-3l-5.3-12.7v12.7h-3.9L237.8,791.2
				L237.8,791.2z"/>
			<path class="st3" d="M269.8,811c-4.5,0-7.9-3.1-7.9-8c0-4.9,3.5-8,8-8s8,3.1,8,8C277.9,807.9,274.3,811,269.8,811z M269.8,807.6
				c2.1,0,4.1-1.5,4.1-4.6c0-3.1-1.9-4.6-4-4.6s-3.9,1.5-3.9,4.6C265.9,806.1,267.7,807.6,269.8,807.6z"/>
			<path class="st3" d="M289.8,795c4,0,7.1,3.1,7.1,8c0,4.8-3.1,8.1-7.1,8.1c-2.4,0-4.2-1.1-5.1-2.5v2.2h-3.9v-20.7h3.9v7.5
				C285.7,796.1,287.5,795,289.8,795z M288.8,798.5c-2.1,0-4.1,1.6-4.1,4.6c0,2.9,2,4.6,4.1,4.6s4.1-1.7,4.1-4.6
				C292.9,800,290.9,798.5,288.8,798.5z"/>
			<path class="st3" d="M299.4,791.1c0-1.3,1-2.3,2.4-2.3s2.4,1,2.4,2.3s-1,2.3-2.4,2.3S299.4,792.4,299.4,791.1z M299.8,795.3h3.9
				v15.5h-3.9V795.3z"/>
			<path class="st3" d="M307.6,790.1h3.9v20.7h-3.9V790.1z"/>
			<path class="st3" d="M322.1,811c-4.5,0-7.8-3.1-7.8-8c0-4.9,3.2-8,7.8-8c4.5,0,7.6,3.1,7.6,7.7c0,0.5,0,1-0.1,1.5h-11.3
				c0.2,2.3,1.8,3.6,3.7,3.6c1.7,0,2.6-0.8,3.1-1.9h4.2C328.5,808.8,326,811,322.1,811z M318.3,801.6h7.4c-0.1-2-1.7-3.3-3.7-3.3
				C320.1,798.2,318.7,799.4,318.3,801.6z"/>
			<path class="st3" d="M339.3,791.2h12.1v3.2h-8.1v5h6.2v3.1h-6.2v8.3h-3.9L339.3,791.2L339.3,791.2z"/>
			<path class="st3" d="M358,810.8h-3.9v-15.5h3.9v2.4c1-1.6,2.6-2.6,4.8-2.6v4.1h-1c-2.3,0-3.7,0.9-3.7,3.9v7.7H358z"/>
			<path class="st3" d="M365,791.1c0-1.3,1-2.3,2.4-2.3s2.4,1,2.4,2.3s-1,2.3-2.4,2.3S365,792.4,365,791.1z M365.4,795.3h3.9v15.5
				h-3.9V795.3z"/>
			<path class="st3" d="M380,811c-4.5,0-7.8-3.1-7.8-8c0-4.9,3.2-8,7.8-8c4.5,0,7.6,3.1,7.6,7.7c0,0.5,0,1-0.1,1.5h-11.3
				c0.2,2.3,1.8,3.6,3.7,3.6c1.7,0,2.6-0.8,3.1-1.9h4.2C386.4,808.8,383.8,811,380,811z M376.2,801.6h7.4c-0.1-2-1.7-3.3-3.7-3.3
				C378,798.2,376.5,799.4,376.2,801.6z"/>
			<path class="st3" d="M401.4,802.2c0-2.5-1.4-3.8-3.4-3.8c-2.1,0-3.5,1.3-3.5,3.8v8.6h-3.9v-15.5h3.9v1.9c1-1.3,2.7-2.2,4.7-2.2
				c3.6,0,6.2,2.4,6.2,6.6v9.1h-3.9L401.4,802.2L401.4,802.2z"/>
			<path class="st3" d="M415.1,795c2,0,4,1,5.1,2.4v-7.3h4v20.7h-4v-2.3c-0.9,1.4-2.7,2.5-5.1,2.5c-3.9,0-7.1-3.2-7.1-8.1
				C408,798.1,411.1,795,415.1,795z M416.1,798.5c-2.1,0-4.1,1.6-4.1,4.5c0,2.9,2,4.6,4.1,4.6c2.2,0,4.1-1.6,4.1-4.6
				C420.2,800.1,418.2,798.5,416.1,798.5z"/>
			<path class="st3" d="M428,790.1h3.9v20.7H428V790.1z"/>
			<path class="st3" d="M446.4,795.3h4.2l-9.6,22.8h-4.2l3.4-7.7l-6.2-15.1h4.4l4,10.8L446.4,795.3z"/>
		</g>
		<g>
			<path class="st4" d="M245,828.4h-5.4v4.1h4.8v1.9h-4.8v4.3h5.4v1.9h-7.7v-13.9h7.7V828.4z"/>
			<path class="st4" d="M252.3,829.2c1.9,0,3.1,0.9,3.8,1.8v-1.6h2.3v11h-2.3v-1.6c-0.7,0.9-2,1.8-3.9,1.8c-2.9,0-5.2-2.3-5.2-5.7
				C247,831.5,249.3,829.2,252.3,829.2z M252.7,831.2c-1.7,0-3.3,1.3-3.3,3.7c0,2.4,1.6,3.8,3.3,3.8c1.7,0,3.3-1.3,3.3-3.7
				C256.1,832.6,254.5,831.2,252.7,831.2z"/>
			<path class="st4" d="M265.4,840.6c-2.6,0-4.5-1.6-4.6-3.6h2.4c0.1,0.9,0.9,1.6,2.2,1.6c1.3,0,2-0.6,2-1.3c0-2.2-6.4-0.9-6.4-5
				c0-1.8,1.6-3.2,4.2-3.2c2.5,0,4.1,1.3,4.3,3.5h-2.3c-0.1-1-0.8-1.6-2.1-1.6c-1.2,0-1.9,0.5-1.9,1.2c0,2.2,6.2,1,6.3,5
				C269.6,839.2,268,840.6,265.4,840.6z"/>
			<path class="st4" d="M271.7,826.5c0-0.8,0.6-1.5,1.5-1.5c0.8,0,1.4,0.6,1.4,1.5c0,0.8-0.6,1.5-1.4,1.5
				C272.4,827.9,271.7,827.3,271.7,826.5z M272,829.4h2.3v11H272V829.4z"/>
			<path class="st4" d="M277.3,825.6h2.3v14.8h-2.3V825.6z"/>
			<path class="st4" d="M290.2,829.4h2.4l-6.8,16.2h-2.4l2.2-5.4l-4.3-10.8h2.5l3.1,8.4L290.2,829.4z"/>
			<path class="st4" d="M300.6,829.4l3.1,9l3.1-9h2.4l-4.2,11h-2.7l-4.2-11H300.6z"/>
			<path class="st4" d="M310.7,826.5c0-0.8,0.6-1.5,1.5-1.5c0.8,0,1.4,0.6,1.4,1.5c0,0.8-0.6,1.5-1.4,1.5
				C311.3,827.9,310.7,827.3,310.7,826.5z M311,829.4h2.3v11H311V829.4z"/>
			<path class="st4" d="M321,840.6c-3.2,0-5.5-2.2-5.5-5.7s2.2-5.7,5.5-5.7c3.1,0,5.4,2.2,5.4,5.4c0,0.4,0,0.7-0.1,1.1h-8.4
				c0.2,1.8,1.5,2.9,3.1,2.9c1.4,0,2.2-0.7,2.6-1.5h2.5C325.4,839.1,323.7,840.6,321,840.6z M317.9,833.9h6.1c0-1.7-1.4-2.8-3.1-2.8
				C319.3,831.1,318.1,832.2,317.9,833.9z"/>
			<path class="st4" d="M327.3,829.4h2.3l2.3,8.9l2.3-8.9h2.4l2.2,8.8l2.3-8.8h2.2l-3.4,11h-2.4l-2.2-8.1l-2.2,8.1h-2.4L327.3,829.4
				z"/>
			<path class="st4" d="M349.5,829.2c1.9,0,3.1,0.9,3.8,1.8v-1.6h2.3v11h-2.3v-1.6c-0.7,0.9-2,1.8-3.9,1.8c-2.9,0-5.2-2.3-5.2-5.7
				C344.3,831.5,346.6,829.2,349.5,829.2z M350,831.2c-1.7,0-3.3,1.3-3.3,3.7c0,2.4,1.6,3.8,3.3,3.8c1.7,0,3.3-1.3,3.3-3.7
				C353.4,832.6,351.7,831.2,350,831.2z"/>
			<path class="st4" d="M364.8,829.2c2.9,0,5.2,2.2,5.2,5.6c0,3.4-2.3,5.7-5.2,5.7c-1.8,0-3.1-0.8-3.8-1.8v1.6h-2.3v-14.8h2.3v5.4
				C361.6,830.1,363,829.2,364.8,829.2z M364.3,831.2c-1.7,0-3.3,1.3-3.3,3.7c0,2.4,1.6,3.7,3.3,3.7c1.7,0,3.4-1.4,3.4-3.8
				C367.6,832.5,366,831.2,364.3,831.2z"/>
			<path class="st4" d="M372.2,825.6h2.3v14.8h-2.3V825.6z"/>
			<path class="st4" d="M382.2,840.6c-3.2,0-5.5-2.2-5.5-5.7s2.2-5.7,5.5-5.7c3.1,0,5.4,2.2,5.4,5.4c0,0.4,0,0.7-0.1,1.1h-8.4
				c0.2,1.8,1.5,2.9,3.1,2.9c1.4,0,2.2-0.7,2.6-1.5h2.5C386.7,839.1,384.9,840.6,382.2,840.6z M379.1,833.9h6.1
				c0-1.7-1.4-2.8-3.1-2.8C380.6,831.1,379.3,832.2,379.1,833.9z"/>
			<path class="st4" d="M394.7,826.5c0-0.8,0.6-1.5,1.5-1.5c0.8,0,1.4,0.6,1.4,1.5c0,0.8-0.6,1.5-1.4,1.5
				C395.4,827.9,394.7,827.3,394.7,826.5z M395,829.4h2.3v11H395V829.4z"/>
			<path class="st4" d="M408.1,834.3c0-2-1.1-3.1-2.8-3.1c-1.7,0-2.8,1-2.8,3.1v6.2h-2.3v-11h2.3v1.3c0.7-0.9,2-1.4,3.3-1.4
				c2.6,0,4.5,1.6,4.5,4.7v6.5H408v-6.3H408.1z"/>
			<path class="st4" d="M413.6,831.3h-1.3v-1.9h1.3v-2.7h2.3v2.7h2.7v1.9h-2.7v6.1c0,0.8,0.3,1.2,1.3,1.2h1.4v1.9h-1.8
				c-2,0-3.2-0.8-3.2-3.1L413.6,831.3L413.6,831.3z"/>
			<path class="st4" d="M425.5,840.6c-3.2,0-5.5-2.2-5.5-5.7s2.2-5.7,5.5-5.7c3.1,0,5.4,2.2,5.4,5.4c0,0.4,0,0.7-0.1,1.1h-8.4
				c0.2,1.8,1.5,2.9,3.1,2.9c1.4,0,2.2-0.7,2.6-1.5h2.5C429.9,839.1,428.2,840.6,425.5,840.6z M422.3,833.9h6.1
				c0-1.7-1.4-2.8-3.1-2.8C423.8,831.1,422.6,832.2,422.3,833.9z"/>
			<path class="st4" d="M435.3,840.4H433v-11h2.3v1.6c0.6-1.1,1.7-1.8,3.3-1.8v2.4H438c-1.7,0-2.7,0.7-2.7,3L435.3,840.4
				L435.3,840.4z"/>
			<path class="st4" d="M441,831.3h-1.3v-1.9h1.3v-0.8c0-2.5,1.3-3.6,4.2-3.6v1.9c-1.4,0-1.9,0.5-1.9,1.7v0.8h2v1.9h-2v9.2H441
				L441,831.3L441,831.3z"/>
			<path class="st4" d="M451.8,829.2c1.9,0,3.1,0.9,3.8,1.8v-1.6h2.3v11h-2.3v-1.6c-0.7,0.9-2,1.8-3.9,1.8c-2.9,0-5.2-2.3-5.2-5.7
				C446.6,831.5,448.9,829.2,451.8,829.2z M452.3,831.2c-1.7,0-3.3,1.3-3.3,3.7c0,2.4,1.6,3.8,3.3,3.8c1.7,0,3.3-1.3,3.3-3.7
				S454,831.2,452.3,831.2z"/>
			<path class="st4" d="M465.6,829.2c2.7,0,4.5,1.3,5.1,3.7h-2.5c-0.4-1.1-1.3-1.7-2.6-1.7c-1.8,0-3.1,1.4-3.1,3.8
				c0,2.4,1.2,3.8,3.1,3.8c1.4,0,2.2-0.6,2.6-1.7h2.5c-0.6,2.2-2.4,3.7-5.1,3.7c-3.2,0-5.4-2.2-5.4-5.7
				C460.2,831.5,462.4,829.2,465.6,829.2z"/>
			<path class="st4" d="M477.7,840.6c-3.2,0-5.5-2.2-5.5-5.7s2.2-5.7,5.5-5.7c3.1,0,5.4,2.2,5.4,5.4c0,0.4,0,0.7-0.1,1.1h-8.4
				c0.2,1.8,1.5,2.9,3.1,2.9c1.4,0,2.2-0.7,2.6-1.5h2.5C482.1,839.1,480.4,840.6,477.7,840.6z M474.6,833.9h6.1
				c0-1.7-1.4-2.8-3.1-2.8C476,831.1,474.8,832.2,474.6,833.9z"/>
			<path class="st4" d="M494.9,829.2c1.9,0,3.1,0.9,3.8,1.8v-1.6h2.3v11h-2.3v-1.6c-0.7,0.9-2,1.8-3.9,1.8c-2.9,0-5.2-2.3-5.2-5.7
				C489.7,831.5,492,829.2,494.9,829.2z M495.4,831.2c-1.7,0-3.3,1.3-3.3,3.7c0,2.4,1.6,3.8,3.3,3.8c1.7,0,3.3-1.3,3.3-3.7
				C498.7,832.6,497.1,831.2,495.4,831.2z"/>
			<path class="st4" d="M508.7,829.2c2.7,0,4.5,1.3,5.1,3.7h-2.5c-0.4-1.1-1.3-1.7-2.6-1.7c-1.8,0-3.1,1.4-3.1,3.8
				c0,2.4,1.2,3.8,3.1,3.8c1.4,0,2.2-0.6,2.6-1.7h2.5c-0.6,2.2-2.4,3.7-5.1,3.7c-3.2,0-5.4-2.2-5.4-5.7
				C503.3,831.5,505.5,829.2,508.7,829.2z"/>
			<path class="st4" d="M518.3,840.4H516v-11h2.3v1.6c0.6-1.1,1.7-1.8,3.3-1.8v2.4H521c-1.7,0-2.7,0.7-2.7,3L518.3,840.4
				L518.3,840.4z"/>
			<path class="st4" d="M528.5,840.6c-3.1,0-5.5-2.2-5.5-5.7s2.5-5.7,5.6-5.7s5.6,2.2,5.6,5.7S531.7,840.6,528.5,840.6z
				 M528.5,838.6c1.7,0,3.4-1.2,3.4-3.7s-1.6-3.7-3.3-3.7c-1.7,0-3.3,1.2-3.3,3.7S526.8,838.6,528.5,838.6z"/>
			<path class="st4" d="M540.5,840.6c-2.6,0-4.5-1.6-4.6-3.6h2.4c0.1,0.9,0.9,1.6,2.2,1.6c1.3,0,2-0.6,2-1.3c0-2.2-6.4-0.9-6.4-5
				c0-1.8,1.6-3.2,4.2-3.2c2.5,0,4.1,1.3,4.3,3.5h-2.3c-0.1-1-0.8-1.6-2.1-1.6c-1.2,0-1.9,0.5-1.9,1.2c0,2.2,6.2,1,6.3,5
				C544.7,839.2,543.1,840.6,540.5,840.6z"/>
			<path class="st4" d="M551.2,840.6c-2.6,0-4.5-1.6-4.6-3.6h2.4c0.1,0.9,0.9,1.6,2.2,1.6c1.3,0,2-0.6,2-1.3c0-2.2-6.4-0.9-6.4-5
				c0-1.8,1.6-3.2,4.2-3.2c2.5,0,4.1,1.3,4.3,3.5H553c-0.1-1-0.8-1.6-2.1-1.6c-1.2,0-1.9,0.5-1.9,1.2c0,2.2,6.2,1,6.3,5
				C555.4,839.2,553.8,840.6,551.2,840.6z"/>
			<path class="st4" d="M241.8,855.2c1.9,0,3.1,0.9,3.8,1.8v-1.6h2.3v11h-2.3v-1.6c-0.7,0.9-2,1.8-3.9,1.8c-2.9,0-5.2-2.3-5.2-5.7
				C236.6,857.5,238.9,855.2,241.8,855.2z M242.3,857.2c-1.7,0-3.3,1.3-3.3,3.7c0,2.4,1.6,3.8,3.3,3.8c1.7,0,3.3-1.3,3.3-3.7
				S244,857.2,242.3,857.2z"/>
			<path class="st4" d="M258.7,860.3c0-2-1.1-3.1-2.8-3.1c-1.7,0-2.8,1-2.8,3.1v6.2h-2.3v-11h2.3v1.3c0.7-0.9,2-1.4,3.3-1.4
				c2.6,0,4.5,1.6,4.5,4.7v6.5h-2.3v-6.3H258.7z"/>
			<path class="st4" d="M271.4,855.4h2.4l-6.8,16.2h-2.4l2.2-5.4l-4.3-10.8h2.5l3.1,8.4L271.4,855.4z"/>
			<path class="st4" d="M285.2,855.2c1.4,0,3,0.7,3.8,1.7v-5.3h2.3v14.8H289v-1.7c-0.7,1-2,1.8-3.8,1.8c-2.9,0-5.2-2.3-5.2-5.7
				C279.9,857.5,282.2,855.2,285.2,855.2z M285.6,857.2c-1.7,0-3.3,1.3-3.3,3.7c0,2.4,1.6,3.8,3.3,3.8c1.7,0,3.3-1.3,3.3-3.7
				C289,858.6,287.4,857.2,285.6,857.2z"/>
			<path class="st4" d="M299,866.6c-3.2,0-5.5-2.2-5.5-5.7s2.2-5.7,5.5-5.7c3.1,0,5.4,2.2,5.4,5.4c0,0.4,0,0.7-0.1,1.1h-8.4
				c0.2,1.8,1.5,2.9,3.1,2.9c1.4,0,2.2-0.7,2.6-1.5h2.5C303.5,865.1,301.7,866.6,299,866.6z M295.9,859.9h6.1c0-1.7-1.4-2.8-3.1-2.8
				C297.4,857.1,296.1,858.2,295.9,859.9z"/>
			<path class="st4" d="M307.7,855.4l3.1,9l3.1-9h2.4l-4.2,11h-2.7l-4.2-11H307.7z"/>
			<path class="st4" d="M317.8,852.5c0-0.8,0.6-1.5,1.5-1.5c0.8,0,1.4,0.6,1.4,1.5c0,0.8-0.6,1.5-1.4,1.5
				C318.5,853.9,317.8,853.3,317.8,852.5z M318.1,855.4h2.3v11h-2.3V855.4z"/>
			<path class="st4" d="M328,855.2c2.7,0,4.5,1.3,5.1,3.7h-2.5c-0.4-1.1-1.3-1.7-2.6-1.7c-1.8,0-3.1,1.4-3.1,3.8
				c0,2.4,1.2,3.8,3.1,3.8c1.4,0,2.2-0.6,2.6-1.7h2.5c-0.6,2.2-2.4,3.7-5.1,3.7c-3.2,0-5.4-2.2-5.4-5.7
				C322.6,857.5,324.9,855.2,328,855.2z"/>
			<path class="st4" d="M340.1,866.6c-3.2,0-5.5-2.2-5.5-5.7s2.2-5.7,5.5-5.7c3.1,0,5.4,2.2,5.4,5.4c0,0.4,0,0.7-0.1,1.1H337
				c0.2,1.8,1.5,2.9,3.1,2.9c1.4,0,2.2-0.7,2.6-1.5h2.5C344.6,865.1,342.8,866.6,340.1,866.6z M337,859.9h6.1c0-1.7-1.4-2.8-3.1-2.8
				C338.5,857.1,337.3,858.2,337,859.9z"/>
		</g>
	</g>
</g>
<g id="_x36_">
	<rect x="0" y="899.9" class="st0" width="180" height="140"/>
	<g>
		<rect x="180" y="899.9" class="st1" width="26" height="180"/>
		<rect x="180" y="899.9" class="st1" width="184.3" height="40"/>
		<rect x="0" y="1039.9" class="st1" width="184.3" height="40"/>
	</g>
	<path class="st2" d="M123.3,957.2l-6.4,6.4c-0.6,0.6-1.7,0.6-2.4,0l-15.4-15.4c-0.6-0.6-0.6-1.7,0-2.4l6.4-6.4
		c2.6-2.6,6.8-2.6,9.4,0l8.3,8.3C125.9,950.4,125.9,954.6,123.3,957.2z M93.7,951.3l-36.4,36.4l-2.9,16.9c-0.4,2.3,1.6,4.2,3.9,3.9
		l16.9-3l36.4-36.4c0.6-0.6,0.6-1.7,0-2.4l-15.4-15.4C95.4,950.7,94.3,950.7,93.7,951.3L93.7,951.3z M71.5,984.6
		c-0.8-0.8-0.8-2,0-2.7l21.4-21.4c0.8-0.8,2-0.8,2.7,0c0.8,0.8,0.8,2,0,2.7l-21.4,21.4C73.5,985.4,72.2,985.4,71.5,984.6L71.5,984.6
		z M66.5,996.3h6.7v5l-8.9,1.6l-4.3-4.3l1.6-8.9h5L66.5,996.3L66.5,996.3z"/>
	<g id="Flexibility">
		<g>
			<path class="st3" d="M237.8,971h12.1v3.2h-8.1v5h6.2v3.1h-6.2v8.3h-3.9L237.8,971L237.8,971z"/>
			<path class="st3" d="M252.6,969.8h3.9v20.7h-3.9V969.8z"/>
			<path class="st3" d="M267.2,990.8c-4.5,0-7.8-3.1-7.8-8c0-4.9,3.2-8,7.8-8c4.5,0,7.6,3.1,7.6,7.7c0,0.5,0,1-0.1,1.5h-11.3
				c0.2,2.3,1.8,3.6,3.7,3.6c1.7,0,2.6-0.8,3.1-1.9h4.2C273.6,988.5,271,990.8,267.2,990.8z M263.4,981.4h7.4
				c-0.1-2-1.7-3.3-3.7-3.3C265.2,978,263.7,979.2,263.4,981.4z"/>
			<path class="st3" d="M283,985.7l-2.8,4.8H276l5.1-7.8L276,975h4.4l3.2,4.8l2.9-4.8h4.2l-5.1,7.7l5.2,7.8h-4.4L283,985.7z"/>
			<path class="st3" d="M292.4,970.9c0-1.3,1-2.3,2.4-2.3s2.4,1,2.4,2.3c0,1.3-1,2.3-2.4,2.3S292.4,972.2,292.4,970.9z M292.8,975.1
				h3.9v15.5h-3.9V975.1z"/>
			<path class="st3" d="M309.6,974.8c4,0,7.1,3.1,7.1,8c0,4.8-3.1,8.1-7.1,8.1c-2.4,0-4.2-1.1-5.1-2.5v2.2h-3.9v-20.7h3.9v7.5
				C305.4,975.9,307.3,974.8,309.6,974.8z M308.6,978.2c-2.1,0-4.1,1.6-4.1,4.6c0,2.9,2,4.6,4.1,4.6s4.1-1.7,4.1-4.6
				C312.7,979.8,310.7,978.2,308.6,978.2z"/>
			<path class="st3" d="M319.1,970.9c0-1.3,1-2.3,2.4-2.3s2.4,1,2.4,2.3c0,1.3-1,2.3-2.4,2.3S319.1,972.2,319.1,970.9z M319.5,975.1
				h3.9v15.5h-3.9V975.1z"/>
			<path class="st3" d="M327.3,969.8h3.9v20.7h-3.9V969.8z"/>
			<path class="st3" d="M334.7,970.9c0-1.3,1-2.3,2.4-2.3s2.4,1,2.4,2.3c0,1.3-1,2.3-2.4,2.3S334.7,972.2,334.7,970.9z M335.1,975.1
				h3.9v15.5h-3.9V975.1z"/>
			<path class="st3" d="M343.5,978.3h-1.8v-3.2h1.8v-3.8h3.9v3.8h3.5v3.2h-3.5v7.5c0,1,0.4,1.5,1.7,1.5h1.8v3.3h-2.5
				c-3,0-5-1.3-5-4.8L343.5,978.3L343.5,978.3z"/>
			<path class="st3" d="M364.4,975.1h4.2l-9.6,22.8h-4.2l3.4-7.7l-6.2-15.1h4.4l4,10.8L364.4,975.1z"/>
		</g>
		<g>
			<path class="st4" d="M237.3,1006.3h8.2v1.9h-5.9v4.1h4.6v1.9h-4.6v6.1h-2.3L237.3,1006.3L237.3,1006.3z"/>
			<path class="st4" d="M247.6,1005.4h2.3v14.8h-2.3V1005.4z"/>
			<path class="st4" d="M257.7,1020.4c-3.2,0-5.5-2.2-5.5-5.7c0-3.5,2.2-5.7,5.5-5.7c3.1,0,5.4,2.2,5.4,5.4c0,0.4,0,0.7-0.1,1.1
				h-8.4c0.2,1.8,1.5,2.9,3.1,2.9c1.4,0,2.2-0.7,2.6-1.5h2.5C262.1,1018.9,260.4,1020.4,257.7,1020.4z M254.5,1013.7h6.1
				c0-1.7-1.4-2.8-3.1-2.8C256,1010.9,254.8,1012,254.5,1013.7z"/>
			<path class="st4" d="M268.6,1016.5l-2.2,3.7H264l3.6-5.4l-3.6-5.6h2.6l2.4,3.7l2.2-3.7h2.4l-3.6,5.4l3.6,5.6H271L268.6,1016.5z"
				/>
			<path class="st4" d="M274.9,1006.3c0-0.8,0.6-1.5,1.5-1.5c0.8,0,1.4,0.6,1.4,1.5c0,0.8-0.6,1.5-1.4,1.5
				C275.6,1007.7,274.9,1007.1,274.9,1006.3z M275.2,1009.2h2.3v11h-2.3V1009.2z"/>
			<path class="st4" d="M286.6,1009c2.9,0,5.2,2.2,5.2,5.6c0,3.4-2.3,5.7-5.2,5.7c-1.8,0-3.1-0.8-3.8-1.8v1.6h-2.3v-14.8h2.3v5.4
				C283.5,1009.8,284.9,1009,286.6,1009z M286.1,1011c-1.7,0-3.3,1.3-3.3,3.7c0,2.4,1.6,3.7,3.3,3.7c1.7,0,3.4-1.4,3.4-3.8
				C289.5,1012.3,287.9,1011,286.1,1011z"/>
			<path class="st4" d="M294.1,1005.4h2.3v14.8h-2.3V1005.4z"/>
			<path class="st4" d="M304.1,1020.4c-3.2,0-5.5-2.2-5.5-5.7c0-3.5,2.2-5.7,5.5-5.7c3.1,0,5.4,2.2,5.4,5.4c0,0.4,0,0.7-0.1,1.1H301
				c0.2,1.8,1.5,2.9,3.1,2.9c1.4,0,2.2-0.7,2.6-1.5h2.5C308.5,1018.9,306.8,1020.4,304.1,1020.4z M301,1013.7h6.1
				c0-1.7-1.4-2.8-3.1-2.8C302.4,1010.9,301.2,1012,301,1013.7z"/>
			<path class="st4" d="M321.3,1009c1.9,0,3.1,0.9,3.8,1.8v-1.6h2.3v11h-2.3v-1.6c-0.7,0.9-2,1.8-3.9,1.8c-2.9,0-5.2-2.3-5.2-5.7
				C316.1,1011.3,318.4,1009,321.3,1009z M321.8,1011c-1.7,0-3.3,1.3-3.3,3.7c0,2.4,1.6,3.8,3.3,3.8c1.7,0,3.3-1.3,3.3-3.7
				C325.2,1012.3,323.5,1011,321.8,1011z"/>
			<path class="st4" d="M336.6,1009c2.9,0,5.2,2.2,5.2,5.6c0,3.4-2.3,5.7-5.2,5.7c-1.8,0-3.1-0.9-3.8-1.8v6.8h-2.3V1009h2.3v1.6
				C333.4,1009.9,334.8,1009,336.6,1009z M336.1,1011c-1.7,0-3.3,1.3-3.3,3.7c0,2.4,1.6,3.7,3.3,3.7c1.7,0,3.4-1.4,3.4-3.8
				C339.4,1012.3,337.8,1011,336.1,1011z"/>
			<path class="st4" d="M350.1,1009c2.9,0,5.2,2.2,5.2,5.6c0,3.4-2.3,5.7-5.2,5.7c-1.8,0-3.1-0.9-3.8-1.8v6.8H344V1009h2.3v1.6
				C347,1009.9,348.3,1009,350.1,1009z M349.6,1011c-1.7,0-3.3,1.3-3.3,3.7c0,2.4,1.6,3.7,3.3,3.7c1.7,0,3.4-1.4,3.4-3.8
				C353,1012.3,351.4,1011,349.6,1011z"/>
			<path class="st4" d="M359.8,1020.2h-2.3v-11h2.3v1.6c0.6-1.1,1.7-1.8,3.3-1.8v2.4h-0.6c-1.7,0-2.7,0.7-2.7,3L359.8,1020.2
				L359.8,1020.2z"/>
			<path class="st4" d="M370,1020.4c-3.1,0-5.5-2.2-5.5-5.7c0-3.5,2.5-5.7,5.6-5.7s5.6,2.2,5.6,5.7
				C375.7,1018.2,373.2,1020.4,370,1020.4z M370,1018.4c1.7,0,3.4-1.2,3.4-3.7c0-2.5-1.6-3.7-3.3-3.7c-1.7,0-3.3,1.2-3.3,3.7
				C366.8,1017.2,368.3,1018.4,370,1018.4z"/>
			<path class="st4" d="M382.4,1009c1.9,0,3.1,0.9,3.8,1.8v-1.6h2.3v11h-2.3v-1.6c-0.7,0.9-2,1.8-3.9,1.8c-2.9,0-5.2-2.3-5.2-5.7
				C377.2,1011.3,379.5,1009,382.4,1009z M382.9,1011c-1.7,0-3.3,1.3-3.3,3.7c0,2.4,1.6,3.8,3.3,3.8c1.7,0,3.3-1.3,3.3-3.7
				C386.3,1012.3,384.6,1011,382.9,1011z"/>
			<path class="st4" d="M396.2,1009c2.7,0,4.5,1.3,5.1,3.7h-2.5c-0.4-1.1-1.3-1.7-2.6-1.7c-1.8,0-3.1,1.4-3.1,3.8s1.2,3.8,3.1,3.8
				c1.4,0,2.2-0.6,2.6-1.7h2.5c-0.6,2.2-2.4,3.7-5.1,3.7c-3.2,0-5.4-2.2-5.4-5.7C390.8,1011.3,393,1009,396.2,1009z"/>
			<path class="st4" d="M403.6,1005.4h2.3v5.1c0.8-0.9,2-1.5,3.4-1.5c2.5,0,4.4,1.6,4.4,4.7v6.5h-2.3v-6.2c0-2-1.1-3.1-2.8-3.1
				c-1.7,0-2.8,1-2.8,3.1v6.2h-2.3v-14.8H403.6z"/>
			<path class="st4" d="M422.1,1011.1h-1.3v-1.9h1.3v-2.7h2.3v2.7h2.7v1.9h-2.7v6.1c0,0.8,0.3,1.2,1.3,1.2h1.4v1.9h-1.8
				c-2,0-3.2-0.8-3.2-3.1L422.1,1011.1L422.1,1011.1z"/>
			<path class="st4" d="M434,1020.4c-3.1,0-5.5-2.2-5.5-5.7c0-3.5,2.5-5.7,5.6-5.7s5.6,2.2,5.6,5.7
				C439.7,1018.2,437.1,1020.4,434,1020.4z M434,1018.4c1.7,0,3.4-1.2,3.4-3.7c0-2.5-1.6-3.7-3.3-3.7c-1.7,0-3.3,1.2-3.3,3.7
				C430.8,1017.2,432.2,1018.4,434,1018.4z"/>
			<path class="st4" d="M451.6,1009c1.9,0,3.1,0.9,3.8,1.8v-1.6h2.3v11h-2.3v-1.6c-0.7,0.9-2,1.8-3.9,1.8c-2.9,0-5.2-2.3-5.2-5.7
				C446.4,1011.3,448.7,1009,451.6,1009z M452.1,1011c-1.7,0-3.3,1.3-3.3,3.7c0,2.4,1.6,3.8,3.3,3.8c1.7,0,3.3-1.3,3.3-3.7
				C455.4,1012.3,453.8,1011,452.1,1011z"/>
			<path class="st4" d="M465.3,1009c2.7,0,4.5,1.3,5.1,3.7h-2.5c-0.4-1.1-1.3-1.7-2.6-1.7c-1.8,0-3.1,1.4-3.1,3.8s1.2,3.8,3.1,3.8
				c1.4,0,2.2-0.6,2.6-1.7h2.5c-0.6,2.2-2.4,3.7-5.1,3.7c-3.2,0-5.4-2.2-5.4-5.7C459.9,1011.3,462.2,1009,465.3,1009z"/>
			<path class="st4" d="M472.7,1005.4h2.3v5.1c0.8-0.9,2-1.5,3.4-1.5c2.5,0,4.4,1.6,4.4,4.7v6.5h-2.3v-6.2c0-2-1.1-3.1-2.8-3.1
				c-1.7,0-2.8,1-2.8,3.1v6.2h-2.3v-14.8H472.7z"/>
			<path class="st4" d="M485.4,1006.3c0-0.8,0.6-1.5,1.5-1.5c0.8,0,1.4,0.6,1.4,1.5c0,0.8-0.6,1.5-1.4,1.5
				C486,1007.7,485.4,1007.1,485.4,1006.3z M485.7,1009.2h2.3v11h-2.3V1009.2z"/>
			<path class="st4" d="M495.7,1020.4c-3.2,0-5.5-2.2-5.5-5.7c0-3.5,2.2-5.7,5.5-5.7c3.1,0,5.4,2.2,5.4,5.4c0,0.4,0,0.7-0.1,1.1
				h-8.4c0.2,1.8,1.5,2.9,3.1,2.9c1.4,0,2.2-0.7,2.6-1.5h2.5C500.1,1018.9,498.4,1020.4,495.7,1020.4z M492.6,1013.7h6.1
				c0-1.7-1.4-2.8-3.1-2.8C494.1,1010.9,492.8,1012,492.6,1013.7z"/>
			<path class="st4" d="M504.4,1009.2l3.1,9l3.1-9h2.4l-4.2,11h-2.7l-4.2-11L504.4,1009.2L504.4,1009.2z"/>
			<path class="st4" d="M519.6,1020.4c-3.2,0-5.5-2.2-5.5-5.7c0-3.5,2.2-5.7,5.5-5.7c3.1,0,5.4,2.2,5.4,5.4c0,0.4,0,0.7-0.1,1.1
				h-8.4c0.2,1.8,1.5,2.9,3.1,2.9c1.4,0,2.2-0.7,2.6-1.5h2.5C524,1018.9,522.3,1020.4,519.6,1020.4z M516.4,1013.7h6.1
				c0-1.7-1.4-2.8-3.1-2.8C517.9,1010.9,516.7,1012,516.4,1013.7z"/>
			<path class="st4" d="M242,1035c2.7,0,4.5,1.3,5.1,3.7h-2.5c-0.4-1.1-1.3-1.7-2.6-1.7c-1.8,0-3.1,1.4-3.1,3.8s1.2,3.8,3.1,3.8
				c1.4,0,2.2-0.6,2.6-1.7h2.5c-0.6,2.2-2.4,3.7-5.1,3.7c-3.2,0-5.4-2.2-5.4-5.7C236.6,1037.3,238.8,1035,242,1035z"/>
			<path class="st4" d="M259.3,1046.2H257v-1.3c-0.7,0.9-2,1.5-3.3,1.5c-2.6,0-4.5-1.6-4.5-4.7v-6.5h2.3v6.1c0,2,1.1,3.1,2.8,3.1
				c1.7,0,2.8-1,2.8-3.1v-6.1h2.3v11H259.3z"/>
			<path class="st4" d="M266.3,1046.4c-2.6,0-4.5-1.6-4.6-3.6h2.4c0.1,0.9,0.9,1.6,2.2,1.6c1.3,0,2-0.6,2-1.3c0-2.2-6.4-0.9-6.4-5
				c0-1.8,1.6-3.2,4.2-3.2c2.5,0,4.1,1.3,4.3,3.5h-2.3c-0.1-1-0.8-1.6-2.1-1.6c-1.2,0-1.9,0.5-1.9,1.2c0,2.2,6.2,1,6.3,5
				C270.5,1045,268.9,1046.4,266.3,1046.4z"/>
			<path class="st4" d="M273.3,1037.1H272v-1.9h1.3v-2.7h2.3v2.7h2.7v1.9h-2.7v6.1c0,0.8,0.3,1.2,1.3,1.2h1.4v1.9h-1.8
				c-2,0-3.2-0.8-3.2-3.1L273.3,1037.1L273.3,1037.1z"/>
			<path class="st4" d="M285.2,1046.4c-3.1,0-5.5-2.2-5.5-5.7s2.5-5.7,5.6-5.7s5.6,2.2,5.6,5.7
				C290.9,1044.2,288.4,1046.4,285.2,1046.4z M285.2,1044.4c1.7,0,3.4-1.2,3.4-3.7s-1.6-3.7-3.3-3.7c-1.7,0-3.3,1.2-3.3,3.7
				C282,1043.2,283.5,1044.4,285.2,1044.4z"/>
			<path class="st4" d="M308.8,1040.1c0-2-1.1-3.1-2.8-3.1c-1.7,0-2.8,1-2.8,3.1v6.2h-2.3v-6.2c0-2-1.1-3.1-2.8-3.1
				c-1.7,0-2.8,1-2.8,3.1v6.2H293v-11h2.3v1.3c0.7-0.9,1.9-1.4,3.3-1.4c1.7,0,3.2,0.7,4,2.2c0.7-1.3,2.2-2.2,3.8-2.2
				c2.6,0,4.5,1.6,4.5,4.7v6.5h-2.3v-6.3H308.8z"/>
			<path class="st4" d="M318.7,1046.4c-3.2,0-5.5-2.2-5.5-5.7s2.2-5.7,5.5-5.7c3.1,0,5.4,2.2,5.4,5.4c0,0.4,0,0.7-0.1,1.1h-8.4
				c0.2,1.8,1.5,2.9,3.1,2.9c1.4,0,2.2-0.7,2.6-1.5h2.5C323.2,1044.9,321.4,1046.4,318.7,1046.4z M315.6,1039.7h6.1
				c0-1.7-1.4-2.8-3.1-2.8C317.1,1036.9,315.8,1038,315.6,1039.7z"/>
			<path class="st4" d="M328.6,1046.2h-2.3v-11h2.3v1.6c0.6-1.1,1.7-1.8,3.3-1.8v2.4h-0.6c-1.7,0-2.7,0.7-2.7,3L328.6,1046.2
				L328.6,1046.2z"/>
			<path class="st4" d="M343.6,1035c1.8,0,3.1,0.8,3.8,1.8v-1.6h2.3v11.2c0,3-1.9,5.3-5.4,5.3c-2.9,0-5.1-1.5-5.4-3.9h2.3
				c0.3,1.1,1.6,1.9,3.1,1.9c1.8,0,3.1-1.1,3.1-3.3v-1.8c-0.7,0.9-2,1.8-3.8,1.8c-2.9,0-5.2-2.3-5.2-5.7S340.7,1035,343.6,1035z
				 M344.1,1037c-1.7,0-3.3,1.3-3.3,3.7s1.6,3.8,3.3,3.8c1.7,0,3.3-1.3,3.3-3.7C347.4,1038.3,345.8,1037,344.1,1037z"/>
			<path class="st4" d="M355,1046.2h-2.3v-11h2.3v1.6c0.6-1.1,1.7-1.8,3.3-1.8v2.4h-0.6c-1.7,0-2.7,0.7-2.7,3L355,1046.2L355,1046.2
				z"/>
			<path class="st4" d="M364.9,1035c1.9,0,3.1,0.9,3.8,1.8v-1.6h2.3v11h-2.3v-1.6c-0.7,0.9-2,1.8-3.9,1.8c-2.9,0-5.2-2.3-5.2-5.7
				C359.7,1037.3,362,1035,364.9,1035z M365.3,1037c-1.7,0-3.3,1.3-3.3,3.7s1.6,3.8,3.3,3.8c1.7,0,3.3-1.3,3.3-3.7
				C368.7,1038.3,367.1,1037,365.3,1037z"/>
			<path class="st4" d="M374.3,1037.1H373v-1.9h1.3v-2.7h2.3v2.7h2.7v1.9h-2.7v6.1c0,0.8,0.3,1.2,1.3,1.2h1.4v1.9h-1.8
				c-2,0-3.2-0.8-3.2-3.1L374.3,1037.1L374.3,1037.1z"/>
			<path class="st4" d="M381.1,1032.3c0-0.8,0.6-1.5,1.5-1.5c0.8,0,1.4,0.6,1.4,1.5c0,0.8-0.6,1.5-1.4,1.5
				C381.8,1033.7,381.1,1033.1,381.1,1032.3z M381.4,1035.2h2.3v11h-2.3V1035.2z"/>
			<path class="st4" d="M387,1037.1h-1.3v-1.9h1.3v-0.8c0-2.5,1.3-3.6,4.2-3.6v1.9c-1.4,0-1.9,0.5-1.9,1.7v0.8h2v1.9h-2v9.2H387
				L387,1037.1L387,1037.1z"/>
			<path class="st4" d="M393,1032.3c0-0.8,0.6-1.5,1.5-1.5c0.8,0,1.4,0.6,1.4,1.5c0,0.8-0.6,1.5-1.4,1.5
				C393.7,1033.7,393,1033.1,393,1032.3z M393.3,1035.2h2.3v11h-2.3V1035.2z"/>
			<path class="st4" d="M403.3,1035c2.7,0,4.5,1.3,5.1,3.7h-2.5c-0.4-1.1-1.3-1.7-2.6-1.7c-1.8,0-3.1,1.4-3.1,3.8s1.2,3.8,3.1,3.8
				c1.4,0,2.2-0.6,2.6-1.7h2.5c-0.6,2.2-2.4,3.7-5.1,3.7c-3.2,0-5.4-2.2-5.4-5.7C397.9,1037.3,400.1,1035,403.3,1035z"/>
			<path class="st4" d="M415.1,1035c1.9,0,3.1,0.9,3.8,1.8v-1.6h2.3v11h-2.3v-1.6c-0.7,0.9-2,1.8-3.9,1.8c-2.9,0-5.2-2.3-5.2-5.7
				C409.9,1037.3,412.2,1035,415.1,1035z M415.5,1037c-1.7,0-3.3,1.3-3.3,3.7s1.6,3.8,3.3,3.8c1.7,0,3.3-1.3,3.3-3.7
				C418.9,1038.3,417.3,1037,415.5,1037z"/>
			<path class="st4" d="M424.5,1037.1h-1.3v-1.9h1.3v-2.7h2.3v2.7h2.7v1.9h-2.7v6.1c0,0.8,0.3,1.2,1.3,1.2h1.4v1.9h-1.8
				c-2,0-3.2-0.8-3.2-3.1L424.5,1037.1L424.5,1037.1z"/>
			<path class="st4" d="M431.3,1032.3c0-0.8,0.6-1.5,1.5-1.5c0.8,0,1.4,0.6,1.4,1.5c0,0.8-0.6,1.5-1.4,1.5
				C432,1033.7,431.3,1033.1,431.3,1032.3z M431.6,1035.2h2.3v11h-2.3V1035.2z"/>
			<path class="st4" d="M441.7,1046.4c-3.1,0-5.5-2.2-5.5-5.7s2.5-5.7,5.6-5.7s5.6,2.2,5.6,5.7
				C447.4,1044.2,444.8,1046.4,441.7,1046.4z M441.7,1044.4c1.7,0,3.4-1.2,3.4-3.7s-1.6-3.7-3.3-3.7c-1.7,0-3.3,1.2-3.3,3.7
				C438.5,1043.2,440,1044.4,441.7,1044.4z"/>
			<path class="st4" d="M457.5,1040.1c0-2-1.1-3.1-2.8-3.1c-1.7,0-2.8,1-2.8,3.1v6.2h-2.3v-11h2.3v1.3c0.7-0.9,2-1.4,3.3-1.4
				c2.6,0,4.5,1.6,4.5,4.7v6.5h-2.3v-6.3H457.5z"/>
		</g>
	</g>
</g>
<g id="_x37_">
	<rect x="0" y="1079.9" class="st0" width="180" height="140"/>
	<g>
		<rect x="180" y="1079.9" class="st1" width="26" height="180"/>
		<rect x="180" y="1079.9" class="st1" width="180" height="40"/>
		<rect x="0" y="1219.9" class="st1" width="183" height="40"/>
	</g>
	<path class="st2" d="M125.6,1114.5H58.1c-3.7,0-6.8,3-6.8,6.8v45c0,3.7,3,6.8,6.8,6.8h27l-2.3,6.8H72.7c-1.9,0-3.4,1.5-3.4,3.4
		s1.5,3.4,3.4,3.4H111c1.9,0,3.4-1.5,3.4-3.4s-1.5-3.4-3.4-3.4h-10.1l-2.3-6.8h27c3.7,0,6.8-3,6.8-6.8v-45
		C132.3,1117.5,129.3,1114.5,125.6,1114.5z M123.3,1164h-63v-40.5h63V1164z"/>
	<g id="TImely">
		<g>
			<path class="st3" d="M236.7,1151H251v3.2h-5.2v16.4h-3.9v-16.4h-5.2L236.7,1151L236.7,1151z"/>
			<path class="st3" d="M253.5,1150.9c0-1.3,1-2.3,2.4-2.3s2.4,1,2.4,2.3s-1,2.3-2.4,2.3S253.5,1152.2,253.5,1150.9z M253.9,1155
				h3.9v15.5h-3.9V1155z"/>
			<path class="st3" d="M283.4,1162c0-2.5-1.4-3.8-3.4-3.8c-2.1,0-3.5,1.3-3.5,3.8v8.6h-3.9v-8.6c0-2.5-1.4-3.8-3.4-3.8
				c-2.1,0-3.5,1.3-3.5,3.8v8.6h-3.9V1155h3.9v1.9c1-1.3,2.6-2.1,4.6-2.1c2.4,0,4.4,1,5.5,3c1-1.8,3.1-3,5.3-3
				c3.7,0,6.4,2.4,6.4,6.6v9.1h-3.9v-8.5H283.4z"/>
			<path class="st3" d="M297.8,1170.8c-4.5,0-7.8-3.1-7.8-8s3.2-8,7.8-8c4.5,0,7.6,3.1,7.6,7.7c0,0.5,0,1-0.1,1.5H294
				c0.2,2.3,1.8,3.6,3.7,3.6c1.7,0,2.6-0.8,3.1-1.9h4.2C304.2,1168.5,301.7,1170.8,297.8,1170.8z M294,1161.3h7.4
				c-0.1-2-1.7-3.3-3.7-3.3C295.8,1158,294.3,1159.2,294,1161.3z"/>
			<path class="st3" d="M308.3,1149.8h3.9v20.7h-3.9V1149.8z"/>
			<path class="st3" d="M326.8,1155h4.2l-9.6,22.8h-4.2l3.4-7.7l-6.2-15.1h4.4l4,10.8L326.8,1155z"/>
			<path class="st3" d="M356.8,1160.8c0,5.9-4.1,9.7-10.3,9.7h-6.8V1151h6.8C352.8,1151,356.8,1154.9,356.8,1160.8z M346.4,1167.2
				c4.1,0,6.4-2.4,6.4-6.4c0-4.1-2.3-6.5-6.4-6.5h-2.8v12.9H346.4z"/>
			<path class="st3" d="M366.6,1170.8c-4.5,0-7.8-3.1-7.8-8s3.2-8,7.8-8c4.5,0,7.6,3.1,7.6,7.7c0,0.5,0,1-0.1,1.5h-11.3
				c0.2,2.3,1.8,3.6,3.7,3.6c1.7,0,2.6-0.8,3.1-1.9h4.2C373,1168.5,370.4,1170.8,366.6,1170.8z M362.8,1161.3h7.4
				c-0.1-2-1.7-3.3-3.7-3.3C364.6,1158,363.1,1159.2,362.8,1161.3z"/>
			<path class="st3" d="M377.1,1149.8h3.9v20.7h-3.9V1149.8z"/>
			<path class="st3" d="M384.4,1150.9c0-1.3,1-2.3,2.4-2.3s2.4,1,2.4,2.3s-1,2.3-2.4,2.3S384.4,1152.2,384.4,1150.9z M384.8,1155
				h3.9v15.5h-3.9V1155z"/>
			<path class="st3" d="M395.2,1155l3.9,11.9l3.9-11.9h4.2l-5.7,15.5h-4.8L391,1155H395.2z"/>
			<path class="st3" d="M416.2,1170.8c-4.5,0-7.8-3.1-7.8-8s3.2-8,7.8-8c4.5,0,7.6,3.1,7.6,7.7c0,0.5,0,1-0.1,1.5h-11.3
				c0.2,2.3,1.8,3.6,3.7,3.6c1.7,0,2.6-0.8,3.1-1.9h4.2C422.6,1168.5,420,1170.8,416.2,1170.8z M412.4,1161.3h7.4
				c-0.1-2-1.7-3.3-3.7-3.3C414.2,1158,412.7,1159.2,412.4,1161.3z"/>
			<path class="st3" d="M430.6,1170.5h-3.9V1155h3.9v2.4c1-1.6,2.6-2.6,4.8-2.6v4.1h-1c-2.3,0-3.7,0.9-3.7,3.9v7.7H430.6z"/>
			<path class="st3" d="M448.7,1155h4.2l-9.6,22.8h-4.2l3.4-7.7l-6.2-15.1h4.4l4,10.8L448.7,1155z"/>
		</g>
		<g>
			<path class="st4" d="M236.2,1186.3h2.4l2.9,11.3l3.1-11.3h2.6l2.9,11.3l2.9-11.3h2.4l-4.1,13.9h-2.6l-2.9-10.5l-3.1,10.5h-2.6
				L236.2,1186.3z"/>
			<path class="st4" d="M257,1186.3c0-0.8,0.6-1.5,1.5-1.5c0.8,0,1.4,0.6,1.4,1.5c0,0.8-0.6,1.5-1.4,1.5
				C257.7,1187.7,257,1187.1,257,1186.3z M257.3,1189.2h2.3v11h-2.3V1189.2z"/>
			<path class="st4" d="M262.9,1191h-1.3v-1.9h1.3v-2.7h2.3v2.7h2.7v1.9h-2.7v6.1c0,0.8,0.3,1.2,1.3,1.2h1.4v1.9h-1.8
				c-2,0-3.2-0.8-3.2-3.1L262.9,1191L262.9,1191z"/>
			<path class="st4" d="M270,1185.4h2.3v5.1c0.8-0.9,2-1.5,3.4-1.5c2.5,0,4.4,1.6,4.4,4.7v6.5h-2.3v-6.2c0-2-1.1-3.1-2.8-3.1
				c-1.7,0-2.8,1-2.8,3.1v6.2h-2.3v-14.8H270z"/>
			<path class="st4" d="M292.9,1200.4c-3.2,0-5.5-2.2-5.5-5.7s2.2-5.7,5.5-5.7c3.1,0,5.4,2.2,5.4,5.4c0,0.4,0,0.7-0.1,1.1h-8.4
				c0.2,1.8,1.5,2.9,3.1,2.9c1.4,0,2.2-0.7,2.6-1.5h2.5C297.4,1198.8,295.7,1200.4,292.9,1200.4z M289.8,1193.7h6.1
				c0-1.7-1.4-2.8-3.1-2.8C291.3,1190.9,290.1,1192,289.8,1193.7z"/>
			<path class="st4" d="M300.8,1191h-1.3v-1.9h1.3v-0.8c0-2.5,1.3-3.6,4.2-3.6v1.9c-1.4,0-1.9,0.5-1.9,1.7v0.8h2v1.9h-2v9.2h-2.3
				L300.8,1191L300.8,1191z"/>
			<path class="st4" d="M307.5,1191h-1.3v-1.9h1.3v-0.8c0-2.5,1.3-3.6,4.2-3.6v1.9c-1.4,0-1.9,0.5-1.9,1.7v0.8h2v1.9h-2v9.2h-2.3
				L307.5,1191L307.5,1191z"/>
			<path class="st4" d="M318.6,1200.4c-3.2,0-5.5-2.2-5.5-5.7s2.2-5.7,5.5-5.7c3.1,0,5.4,2.2,5.4,5.4c0,0.4,0,0.7-0.1,1.1h-8.4
				c0.2,1.8,1.5,2.9,3.1,2.9c1.4,0,2.2-0.7,2.6-1.5h2.5C323,1198.8,321.3,1200.4,318.6,1200.4z M315.4,1193.7h6.1
				c0-1.7-1.4-2.8-3.1-2.8C316.9,1190.9,315.7,1192,315.4,1193.7z"/>
			<path class="st4" d="M330.8,1189c2.7,0,4.5,1.3,5.1,3.7h-2.5c-0.4-1.1-1.3-1.7-2.6-1.7c-1.8,0-3.1,1.4-3.1,3.8s1.2,3.8,3.1,3.8
				c1.4,0,2.2-0.6,2.6-1.7h2.5c-0.6,2.2-2.4,3.7-5.1,3.7c-3.2,0-5.4-2.2-5.4-5.7C325.4,1191.2,327.6,1189,330.8,1189z"/>
			<path class="st4" d="M338.5,1191h-1.3v-1.9h1.3v-2.7h2.3v2.7h2.7v1.9h-2.7v6.1c0,0.8,0.3,1.2,1.3,1.2h1.4v1.9h-1.8
				c-2,0-3.2-0.8-3.2-3.1L338.5,1191L338.5,1191z"/>
			<path class="st4" d="M345.3,1186.3c0-0.8,0.6-1.5,1.5-1.5c0.8,0,1.4,0.6,1.4,1.5c0,0.8-0.6,1.5-1.4,1.5
				C345.9,1187.7,345.3,1187.1,345.3,1186.3z M345.6,1189.2h2.3v11h-2.3V1189.2z"/>
			<path class="st4" d="M352,1189.2l3.1,9l3.1-9h2.4l-4.2,11h-2.7l-4.2-11H352z"/>
			<path class="st4" d="M367.1,1200.4c-3.2,0-5.5-2.2-5.5-5.7s2.2-5.7,5.5-5.7c3.1,0,5.4,2.2,5.4,5.4c0,0.4,0,0.7-0.1,1.1H364
				c0.2,1.8,1.5,2.9,3.1,2.9c1.4,0,2.2-0.7,2.6-1.5h2.5C371.6,1198.8,369.8,1200.4,367.1,1200.4z M364,1193.7h6.1
				c0-1.7-1.4-2.8-3.1-2.8C365.5,1190.9,364.3,1192,364,1193.7z"/>
			<path class="st4" d="M386.1,1189c2.9,0,5.2,2.2,5.2,5.6c0,3.4-2.3,5.7-5.2,5.7c-1.8,0-3.1-0.9-3.8-1.8v6.8H380V1189h2.3v1.6
				C382.9,1189.9,384.3,1189,386.1,1189z M385.6,1191c-1.7,0-3.3,1.3-3.3,3.7c0,2.4,1.6,3.7,3.3,3.7c1.7,0,3.4-1.4,3.4-3.8
				C388.9,1192.3,387.3,1191,385.6,1191z"/>
			<path class="st4" d="M395.8,1200.2h-2.3v-11h2.3v1.6c0.6-1.1,1.7-1.8,3.3-1.8v2.4h-0.6c-1.7,0-2.7,0.7-2.7,3L395.8,1200.2
				L395.8,1200.2z"/>
			<path class="st4" d="M406,1200.4c-3.1,0-5.5-2.2-5.5-5.7s2.5-5.7,5.6-5.7s5.6,2.2,5.6,5.7C411.7,1198.1,409.1,1200.4,406,1200.4z
				 M406,1198.4c1.7,0,3.4-1.2,3.4-3.7s-1.6-3.7-3.3-3.7c-1.7,0-3.3,1.2-3.3,3.7S404.2,1198.4,406,1198.4z"/>
			<path class="st4" d="M416.2,1189.2v13.2c0,2.2-1.2,3.1-3.2,3.1h-1.2v-1.9h0.8c1,0,1.3-0.3,1.3-1.2v-13.2H416.2z M413.6,1186.3
				c0-0.8,0.6-1.5,1.5-1.5c0.8,0,1.4,0.6,1.4,1.5c0,0.8-0.6,1.5-1.4,1.5C414.3,1187.7,413.6,1187.1,413.6,1186.3z"/>
			<path class="st4" d="M424,1200.4c-3.2,0-5.5-2.2-5.5-5.7s2.2-5.7,5.5-5.7c3.1,0,5.4,2.2,5.4,5.4c0,0.4,0,0.7-0.1,1.1h-8.4
				c0.2,1.8,1.5,2.9,3.1,2.9c1.4,0,2.2-0.7,2.6-1.5h2.5C428.4,1198.8,426.7,1200.4,424,1200.4z M420.8,1193.7h6.1
				c0-1.7-1.4-2.8-3.1-2.8C422.3,1190.9,421.1,1192,420.8,1193.7z"/>
			<path class="st4" d="M436.2,1189c2.7,0,4.5,1.3,5.1,3.7h-2.5c-0.4-1.1-1.3-1.7-2.6-1.7c-1.8,0-3.1,1.4-3.1,3.8s1.2,3.8,3.1,3.8
				c1.4,0,2.2-0.6,2.6-1.7h2.5c-0.6,2.2-2.4,3.7-5.1,3.7c-3.2,0-5.4-2.2-5.4-5.7C430.8,1191.2,433,1189,436.2,1189z"/>
			<path class="st4" d="M443.9,1191h-1.3v-1.9h1.3v-2.7h2.3v2.7h2.7v1.9h-2.7v6.1c0,0.8,0.3,1.2,1.3,1.2h1.4v1.9h-1.8
				c-2,0-3.2-0.8-3.2-3.1L443.9,1191L443.9,1191z"/>
			<path class="st4" d="M471.8,1194c0-2-1.1-3.1-2.8-3.1c-1.7,0-2.8,1-2.8,3.1v6.2h-2.3v-6.2c0-2-1.1-3.1-2.8-3.1
				c-1.7,0-2.8,1-2.8,3.1v6.2H456v-11h2.3v1.3c0.7-0.9,1.9-1.4,3.3-1.4c1.7,0,3.2,0.7,4,2.2c0.7-1.3,2.2-2.2,3.8-2.2
				c2.6,0,4.5,1.6,4.5,4.7v6.5h-2.3v-6.3H471.8z"/>
			<path class="st4" d="M481.4,1189c1.9,0,3.1,0.9,3.8,1.8v-1.6h2.3v11h-2.3v-1.6c-0.7,0.9-2,1.8-3.9,1.8c-2.9,0-5.2-2.3-5.2-5.7
				C476.2,1191.2,478.5,1189,481.4,1189z M481.9,1191c-1.7,0-3.3,1.3-3.3,3.7c0,2.4,1.6,3.8,3.3,3.8c1.7,0,3.3-1.3,3.3-3.7
				C485.2,1192.3,483.6,1191,481.9,1191z"/>
			<path class="st4" d="M498.4,1194c0-2-1.1-3.1-2.8-3.1c-1.7,0-2.8,1-2.8,3.1v6.2h-2.3v-11h2.3v1.3c0.7-0.9,2-1.4,3.3-1.4
				c2.6,0,4.5,1.6,4.5,4.7v6.5h-2.3v-6.3H498.4z"/>
			<path class="st4" d="M508,1189c1.9,0,3.1,0.9,3.8,1.8v-1.6h2.3v11h-2.3v-1.6c-0.7,0.9-2,1.8-3.9,1.8c-2.9,0-5.2-2.3-5.2-5.7
				C502.8,1191.2,505.1,1189,508,1189z M508.4,1191c-1.7,0-3.3,1.3-3.3,3.7c0,2.4,1.6,3.8,3.3,3.8c1.7,0,3.3-1.3,3.3-3.7
				C511.8,1192.3,510.2,1191,508.4,1191z"/>
			<path class="st4" d="M521.5,1189c1.8,0,3.1,0.8,3.8,1.8v-1.6h2.3v11.2c0,3-1.9,5.3-5.4,5.3c-2.9,0-5.1-1.5-5.4-3.9h2.3
				c0.3,1.1,1.6,1.9,3.1,1.9c1.8,0,3.1-1.1,3.1-3.3v-1.8c-0.7,0.9-2,1.8-3.8,1.8c-2.9,0-5.2-2.3-5.2-5.7
				C516.3,1191.2,518.6,1189,521.5,1189z M522,1191c-1.7,0-3.3,1.3-3.3,3.7c0,2.4,1.6,3.8,3.3,3.8c1.7,0,3.3-1.3,3.3-3.7
				C525.3,1192.3,523.7,1191,522,1191z"/>
			<path class="st4" d="M535.4,1200.4c-3.2,0-5.5-2.2-5.5-5.7s2.2-5.7,5.5-5.7c3.1,0,5.4,2.2,5.4,5.4c0,0.4,0,0.7-0.1,1.1h-8.4
				c0.2,1.8,1.5,2.9,3.1,2.9c1.4,0,2.2-0.7,2.6-1.5h2.5C539.8,1198.8,538.1,1200.4,535.4,1200.4z M532.3,1193.7h6.1
				c0-1.7-1.4-2.8-3.1-2.8C533.7,1190.9,532.5,1192,532.3,1193.7z"/>
			<path class="st4" d="M558.6,1194c0-2-1.1-3.1-2.8-3.1c-1.7,0-2.8,1-2.8,3.1v6.2h-2.3v-6.2c0-2-1.1-3.1-2.8-3.1
				c-1.7,0-2.8,1-2.8,3.1v6.2h-2.3v-11h2.3v1.3c0.7-0.9,1.9-1.4,3.3-1.4c1.7,0,3.2,0.7,4,2.2c0.7-1.3,2.2-2.2,3.8-2.2
				c2.6,0,4.5,1.6,4.5,4.7v6.5h-2.3v-6.3H558.6z"/>
			<path class="st4" d="M568.5,1200.4c-3.2,0-5.5-2.2-5.5-5.7s2.2-5.7,5.5-5.7c3.1,0,5.4,2.2,5.4,5.4c0,0.4,0,0.7-0.1,1.1h-8.4
				c0.2,1.8,1.5,2.9,3.1,2.9c1.4,0,2.2-0.7,2.6-1.5h2.5C572.9,1198.8,571.2,1200.4,568.5,1200.4z M565.4,1193.7h6.1
				c0-1.7-1.4-2.8-3.1-2.8C566.9,1190.9,565.6,1192,565.4,1193.7z"/>
			<path class="st4" d="M583.9,1194c0-2-1.1-3.1-2.8-3.1c-1.7,0-2.8,1-2.8,3.1v6.2H576v-11h2.3v1.3c0.7-0.9,2-1.4,3.3-1.4
				c2.6,0,4.5,1.6,4.5,4.7v6.5h-2.3v-6.3H583.9z"/>
			<path class="st4" d="M589.4,1191h-1.3v-1.9h1.3v-2.7h2.3v2.7h2.7v1.9h-2.7v6.1c0,0.8,0.3,1.2,1.3,1.2h1.4v1.9h-1.8
				c-2,0-3.2-0.8-3.2-3.1L589.4,1191L589.4,1191z"/>
			<path class="st4" d="M237.7,1217h-1.3v-1.9h1.3v-2.7h2.3v2.7h2.7v1.9H240v6.1c0,0.8,0.3,1.2,1.3,1.2h1.4v1.9h-1.8
				c-2,0-3.2-0.8-3.2-3.1L237.7,1217L237.7,1217z"/>
			<path class="st4" d="M249.6,1226.4c-3.1,0-5.5-2.2-5.5-5.7s2.5-5.7,5.6-5.7s5.6,2.2,5.6,5.7
				C255.3,1224.1,252.7,1226.4,249.6,1226.4z M249.6,1224.4c1.7,0,3.4-1.2,3.4-3.7s-1.6-3.7-3.3-3.7c-1.7,0-3.3,1.2-3.3,3.7
				C246.4,1223.2,247.8,1224.4,249.6,1224.4z"/>
			<path class="st4" d="M262.3,1226.4c-3.1,0-5.5-2.2-5.5-5.7s2.5-5.7,5.6-5.7s5.6,2.2,5.6,5.7
				C268,1224.1,265.5,1226.4,262.3,1226.4z M262.3,1224.4c1.7,0,3.4-1.2,3.4-3.7s-1.6-3.7-3.3-3.7c-1.7,0-3.3,1.2-3.3,3.7
				C259.1,1223.2,260.6,1224.4,262.3,1224.4z"/>
			<path class="st4" d="M270.3,1211.4h2.3v14.8h-2.3V1211.4z"/>
			<path class="st4" d="M279.6,1226.4c-2.6,0-4.5-1.6-4.6-3.6h2.4c0.1,0.9,0.9,1.6,2.2,1.6c1.3,0,2-0.6,2-1.3c0-2.2-6.4-0.9-6.4-5
				c0-1.8,1.6-3.2,4.2-3.2c2.5,0,4.1,1.3,4.3,3.5h-2.3c-0.1-1-0.8-1.6-2.1-1.6c-1.2,0-1.9,0.5-1.9,1.2c0,2.2,6.2,1,6.3,5
				C283.8,1225,282.2,1226.4,279.6,1226.4z"/>
			<path class="st4" d="M290.1,1215.2h2.3l2.3,8.9l2.3-8.9h2.4l2.2,8.8l2.3-8.8h2.2l-3.4,11h-2.4l-2.2-8.1l-2.2,8.1h-2.4
				L290.1,1215.2z"/>
			<path class="st4" d="M312.7,1226.4c-3.2,0-5.5-2.2-5.5-5.7s2.2-5.7,5.5-5.7c3.1,0,5.4,2.2,5.4,5.4c0,0.4,0,0.7-0.1,1.1h-8.4
				c0.2,1.8,1.5,2.9,3.1,2.9c1.4,0,2.2-0.7,2.6-1.5h2.5C317.1,1224.8,315.4,1226.4,312.7,1226.4z M309.6,1219.7h6.1
				c0-1.7-1.4-2.8-3.1-2.8C311,1216.9,309.8,1218,309.6,1219.7z"/>
			<path class="st4" d="M329.9,1215c1.9,0,3.1,0.9,3.8,1.8v-1.6h2.3v11h-2.3v-1.6c-0.7,0.9-2,1.8-3.9,1.8c-2.9,0-5.2-2.3-5.2-5.7
				C324.7,1217.2,327,1215,329.9,1215z M330.4,1217c-1.7,0-3.3,1.3-3.3,3.7c0,2.4,1.6,3.8,3.3,3.8c1.7,0,3.3-1.3,3.3-3.7
				C333.8,1218.3,332.1,1217,330.4,1217z"/>
			<path class="st4" d="M343.7,1215c2.7,0,4.5,1.3,5.1,3.7h-2.5c-0.4-1.1-1.3-1.7-2.6-1.7c-1.8,0-3.1,1.4-3.1,3.8s1.2,3.8,3.1,3.8
				c1.4,0,2.2-0.6,2.6-1.7h2.5c-0.6,2.2-2.4,3.7-5.1,3.7c-3.2,0-5.4-2.2-5.4-5.7C338.3,1217.2,340.5,1215,343.7,1215z"/>
			<path class="st4" d="M351,1211.4h2.3v5.1c0.8-0.9,2-1.5,3.4-1.5c2.5,0,4.4,1.6,4.4,4.7v6.5h-2.3v-6.2c0-2-1.1-3.1-2.8-3.1
				c-1.7,0-2.8,1-2.8,3.1v6.2h-2.3v-14.8H351z"/>
			<path class="st4" d="M363.7,1212.3c0-0.8,0.6-1.5,1.5-1.5c0.8,0,1.4,0.6,1.4,1.5c0,0.8-0.6,1.5-1.4,1.5
				C364.4,1213.7,363.7,1213.1,363.7,1212.3z M364,1215.2h2.3v11H364V1215.2z"/>
			<path class="st4" d="M374,1226.4c-3.2,0-5.5-2.2-5.5-5.7s2.2-5.7,5.5-5.7c3.1,0,5.4,2.2,5.4,5.4c0,0.4,0,0.7-0.1,1.1h-8.4
				c0.2,1.8,1.5,2.9,3.1,2.9c1.4,0,2.2-0.7,2.6-1.5h2.5C378.5,1224.8,376.7,1226.4,374,1226.4z M370.9,1219.7h6.1
				c0-1.7-1.4-2.8-3.1-2.8C372.4,1216.9,371.2,1218,370.9,1219.7z"/>
			<path class="st4" d="M382.8,1215.2l3.1,9l3.1-9h2.4l-4.2,11h-2.7l-4.2-11H382.8z"/>
			<path class="st4" d="M397.9,1226.4c-3.2,0-5.5-2.2-5.5-5.7s2.2-5.7,5.5-5.7c3.1,0,5.4,2.2,5.4,5.4c0,0.4,0,0.7-0.1,1.1h-8.4
				c0.2,1.8,1.5,2.9,3.1,2.9c1.4,0,2.2-0.7,2.6-1.5h2.5C402.3,1224.8,400.6,1226.4,397.9,1226.4z M394.8,1219.7h6.1
				c0-1.7-1.4-2.8-3.1-2.8C396.3,1216.9,395,1218,394.8,1219.7z"/>
			<path class="st4" d="M411.1,1217h-1.3v-1.9h1.3v-2.7h2.3v2.7h2.7v1.9h-2.7v6.1c0,0.8,0.3,1.2,1.3,1.2h1.4v1.9h-1.8
				c-2,0-3.2-0.8-3.2-3.1L411.1,1217L411.1,1217z"/>
			<path class="st4" d="M417.8,1212.3c0-0.8,0.6-1.5,1.5-1.5c0.8,0,1.4,0.6,1.4,1.5c0,0.8-0.6,1.5-1.4,1.5
				C418.5,1213.7,417.8,1213.1,417.8,1212.3z M418.1,1215.2h2.3v11h-2.3V1215.2z"/>
			<path class="st4" d="M439,1220c0-2-1.1-3.1-2.8-3.1c-1.7,0-2.8,1-2.8,3.1v6.2h-2.3v-6.2c0-2-1.1-3.1-2.8-3.1
				c-1.7,0-2.8,1-2.8,3.1v6.2h-2.3v-11h2.3v1.3c0.7-0.9,1.9-1.4,3.3-1.4c1.7,0,3.2,0.7,4,2.2c0.7-1.3,2.2-2.2,3.8-2.2
				c2.6,0,4.5,1.6,4.5,4.7v6.5h-2.3v-6.3H439z"/>
			<path class="st4" d="M448.9,1226.4c-3.2,0-5.5-2.2-5.5-5.7s2.2-5.7,5.5-5.7c3.1,0,5.4,2.2,5.4,5.4c0,0.4,0,0.7-0.1,1.1h-8.4
				c0.2,1.8,1.5,2.9,3.1,2.9c1.4,0,2.2-0.7,2.6-1.5h2.5C453.4,1224.8,451.6,1226.4,448.9,1226.4z M445.8,1219.7h6.1
				c0-1.7-1.4-2.8-3.1-2.8C447.3,1216.9,446.1,1218,445.8,1219.7z"/>
			<path class="st4" d="M456.5,1211.4h2.3v14.8h-2.3V1211.4z"/>
			<path class="st4" d="M461.5,1212.3c0-0.8,0.6-1.5,1.5-1.5c0.8,0,1.4,0.6,1.4,1.5c0,0.8-0.6,1.5-1.4,1.5
				C462.2,1213.7,461.5,1213.1,461.5,1212.3z M461.8,1215.2h2.3v11h-2.3V1215.2z"/>
			<path class="st4" d="M474.9,1220c0-2-1.1-3.1-2.8-3.1c-1.7,0-2.8,1-2.8,3.1v6.2H467v-11h2.3v1.3c0.7-0.9,2-1.4,3.3-1.4
				c2.6,0,4.5,1.6,4.5,4.7v6.5h-2.3v-6.3H474.9z"/>
			<path class="st4" d="M484.8,1226.4c-3.2,0-5.5-2.2-5.5-5.7s2.2-5.7,5.5-5.7c3.1,0,5.4,2.2,5.4,5.4c0,0.4,0,0.7-0.1,1.1h-8.4
				c0.2,1.8,1.5,2.9,3.1,2.9c1.4,0,2.2-0.7,2.6-1.5h2.5C489.3,1224.8,487.5,1226.4,484.8,1226.4z M481.7,1219.7h6.1
				c0-1.7-1.4-2.8-3.1-2.8C483.2,1216.9,481.9,1218,481.7,1219.7z"/>
			<path class="st4" d="M496.4,1226.4c-2.6,0-4.5-1.6-4.6-3.6h2.4c0.1,0.9,0.9,1.6,2.2,1.6c1.3,0,2-0.6,2-1.3c0-2.2-6.4-0.9-6.4-5
				c0-1.8,1.6-3.2,4.2-3.2c2.5,0,4.1,1.3,4.3,3.5h-2.3c-0.1-1-0.8-1.6-2.1-1.6c-1.2,0-1.9,0.5-1.9,1.2c0,2.2,6.2,1,6.3,5
				C500.6,1225,499,1226.4,496.4,1226.4z"/>
			<path class="st4" d="M507.1,1226.4c-2.6,0-4.5-1.6-4.6-3.6h2.4c0.1,0.9,0.9,1.6,2.2,1.6c1.3,0,2-0.6,2-1.3c0-2.2-6.4-0.9-6.4-5
				c0-1.8,1.6-3.2,4.2-3.2c2.5,0,4.1,1.3,4.3,3.5h-2.3c-0.1-1-0.8-1.6-2.1-1.6c-1.2,0-1.9,0.5-1.9,1.2c0,2.2,6.2,1,6.3,5
				C511.3,1225,509.7,1226.4,507.1,1226.4z"/>
			<path class="st4" d="M518.7,1212.3c0-0.8,0.6-1.5,1.5-1.5c0.8,0,1.4,0.6,1.4,1.5c0,0.8-0.6,1.5-1.4,1.5
				C519.3,1213.7,518.7,1213.1,518.7,1212.3z M519,1215.2h2.3v11H519V1215.2z"/>
			<path class="st4" d="M532.1,1220c0-2-1.1-3.1-2.8-3.1c-1.7,0-2.8,1-2.8,3.1v6.2h-2.3v-11h2.3v1.3c0.7-0.9,2-1.4,3.3-1.4
				c2.6,0,4.5,1.6,4.5,4.7v6.5H532v-6.3H532.1z"/>
			<path class="st4" d="M546.9,1215c1.4,0,3,0.7,3.8,1.7v-5.3h2.3v14.8h-2.3v-1.7c-0.7,1-2,1.8-3.8,1.8c-2.9,0-5.2-2.3-5.2-5.7
				C541.7,1217.2,544,1215,546.9,1215z M547.4,1217c-1.7,0-3.3,1.3-3.3,3.7c0,2.4,1.6,3.8,3.3,3.8c1.7,0,3.3-1.3,3.3-3.7
				C550.7,1218.3,549.1,1217,547.4,1217z"/>
			<path class="st4" d="M560.7,1226.4c-3.2,0-5.5-2.2-5.5-5.7s2.2-5.7,5.5-5.7c3.1,0,5.4,2.2,5.4,5.4c0,0.4,0,0.7-0.1,1.1h-8.4
				c0.2,1.8,1.5,2.9,3.1,2.9c1.4,0,2.2-0.7,2.6-1.5h2.5C565.2,1224.8,563.4,1226.4,560.7,1226.4z M557.6,1219.7h6.1
				c0-1.7-1.4-2.8-3.1-2.8C559.1,1216.9,557.9,1218,557.6,1219.7z"/>
			<path class="st4" d="M568.3,1211.4h2.3v14.8h-2.3V1211.4z"/>
			<path class="st4" d="M573.3,1212.3c0-0.8,0.6-1.5,1.5-1.5c0.8,0,1.4,0.6,1.4,1.5c0,0.8-0.6,1.5-1.4,1.5
				C574,1213.7,573.3,1213.1,573.3,1212.3z M573.6,1215.2h2.3v11h-2.3V1215.2z"/>
			<path class="st4" d="M580,1215.2l3.1,9l3.1-9h2.4l-4.2,11h-2.7l-4.2-11H580z"/>
			<path class="st4" d="M595.2,1226.4c-3.2,0-5.5-2.2-5.5-5.7s2.2-5.7,5.5-5.7c3.1,0,5.4,2.2,5.4,5.4c0,0.4,0,0.7-0.1,1.1h-8.4
				c0.2,1.8,1.5,2.9,3.1,2.9c1.4,0,2.2-0.7,2.6-1.5h2.5C599.6,1224.8,597.9,1226.4,595.2,1226.4z M592,1219.7h6.1
				c0-1.7-1.4-2.8-3.1-2.8C593.5,1216.9,592.3,1218,592,1219.7z"/>
			<path class="st4" d="M605,1226.2h-2.3v-11h2.3v1.6c0.6-1.1,1.7-1.8,3.3-1.8v2.4h-0.6c-1.7,0-2.7,0.7-2.7,3L605,1226.2L605,1226.2
				z"/>
			<path class="st4" d="M618,1215.2h2.4l-6.8,16.2h-2.4l2.2-5.4l-4.3-10.8h2.5l3.1,8.4L618,1215.2z"/>
		</g>
	</g>
</g>
<g class="st5">
	<g class="st6">
		<path class="st3" d="M246.5,312.7v2.1l-5.3,12.5h-2.8l5.4-12.1H237v-2.4L246.5,312.7L246.5,312.7z"/>
		<path class="st3" d="M252.9,315.3l2.2-1.7l1,1.8l-2.6,0.9l2.6,0.9l-1,1.9l-2.2-1.8l0.5,2.8h-2.1l0.4-2.8l-2.1,1.8l-1.1-1.9
			l2.6-0.9l-2.6-0.9l1-1.8l2.2,1.8l-0.5-2.8h2.1L252.9,315.3z"/>
		<path class="st3" d="M258.4,325c3.3-2.8,6.8-5.4,6.8-8.1c0-1.3-0.6-2.2-2-2.2c-1.3,0-2.1,1-2.1,2.5h-2.7c0.1-3.3,2.2-4.9,4.9-4.9
			c3.1,0,4.7,1.9,4.7,4.4c0,3.4-3.3,6-5.6,8h5.9v2.3h-9.9L258.4,325L258.4,325z"/>
		<path class="st3" d="M276.9,324.4h-7v-2.2l6.5-9.4h3.3v9.1h1.8v2.4h-1.8v2.8h-2.8V324.4z M277.1,322v-6.2l-4.1,6.1h4.1V322z"/>
		<path class="st3" d="M293.1,327.4c-2.9,0-5.1-1.5-5.2-4.2h3c0.1,1.1,0.8,1.9,2.1,1.9c1.3,0,2.1-0.7,2.1-1.7c0-3-7.2-1.2-7.2-6.3
			c0-2.5,2-4,4.9-4s4.8,1.5,5,4h-3.1c-0.1-0.9-0.8-1.6-2-1.7c-1.1,0-1.9,0.5-1.9,1.6c0,2.8,7.2,1.2,7.2,6.2
			C298.1,325.4,296.3,327.4,293.1,327.4z"/>
		<path class="st3" d="M310.9,327.2h-2.8v-1.4c-0.7,0.9-1.9,1.5-3.3,1.5c-2.6,0-4.4-1.7-4.4-4.7v-6.5h2.8v6.1c0,1.8,1,2.7,2.5,2.7
			s2.5-1,2.5-2.7v-6.1h2.8v11.1H310.9z"/>
		<path class="st3" d="M320.2,316c2.8,0,5.1,2.2,5.1,5.7s-2.2,5.8-5.1,5.8c-1.7,0-3-0.9-3.7-1.8v6.9h-2.8v-16.4h2.8v1.6
			C317.2,316.8,318.4,316,320.2,316z M319.4,318.4c-1.5,0-2.9,1.2-2.9,3.3s1.4,3.3,2.9,3.3s2.9-1.2,2.9-3.3S320.9,318.4,319.4,318.4
			z"/>
		<path class="st3" d="M333.7,316c2.8,0,5.1,2.2,5.1,5.7s-2.2,5.8-5.1,5.8c-1.7,0-3-0.9-3.7-1.8v6.9h-2.8v-16.4h2.8v1.6
			C330.7,316.8,332,316,333.7,316z M333,318.4c-1.5,0-2.9,1.2-2.9,3.3s1.4,3.3,2.9,3.3s2.9-1.2,2.9-3.3S334.5,318.4,333,318.4z"/>
		<path class="st3" d="M345.7,327.4c-3.2,0-5.6-2.2-5.6-5.7s2.5-5.7,5.7-5.7s5.7,2.2,5.7,5.7C351.5,325.2,349,327.4,345.7,327.4z
			 M345.7,325c1.5,0,2.9-1.1,2.9-3.3s-1.4-3.3-2.9-3.3s-2.8,1.1-2.8,3.3C343,323.9,344.2,325,345.7,325z"/>
		<path class="st3" d="M356.4,327.2h-2.8v-11.1h2.8v1.7c0.7-1.1,1.9-1.9,3.4-1.9v2.9h-0.7c-1.7,0-2.7,0.6-2.7,2.8V327.2z"/>
		<path class="st3" d="M362.1,318.5h-1.3v-2.3h1.3v-2.7h2.8v2.7h2.5v2.3h-2.5v5.4c0,0.7,0.3,1.1,1.2,1.1h1.3v2.4h-1.8
			c-2.1,0-3.5-0.9-3.5-3.4V318.5z"/>
	</g>
	<g class="st6">
		<path class="st4" d="M242.4,345.6c2.4,0,4.3,1.2,5.2,3.4h-1.7c-0.6-1.3-1.8-2.1-3.4-2.1c-2.3,0-4.1,1.7-4.1,4.4s1.7,4.4,4.1,4.4
			c1.6,0,2.8-0.8,3.4-2.1h1.7c-0.8,2.1-2.8,3.3-5.2,3.3c-3.1,0-5.6-2.3-5.6-5.7C236.8,348,239.3,345.6,242.4,345.6z"/>
		<path class="st4" d="M253.5,357c-2.5,0-4.4-1.8-4.4-4.5c0-2.8,2-4.5,4.4-4.5c2.5,0,4.4,1.7,4.4,4.5C258,355.3,256,357,253.5,357z
			 M253.5,355.7c1.5,0,3-1,3-3.3c0-2.2-1.5-3.3-3-3.3s-2.9,1-2.9,3.3C250.7,354.7,252,355.7,253.5,355.7z"/>
		<path class="st4" d="M266.4,351.9c0-1.8-1-2.7-2.4-2.7c-1.5,0-2.5,0.9-2.5,2.8v4.8H260V348h1.5v1.2c0.6-0.9,1.6-1.4,2.8-1.4
			c2,0,3.6,1.2,3.6,3.8v5.2h-1.4v-4.9H266.4z"/>
		<path class="st4" d="M270.5,349.3h-1.1v-1.2h1.1v-2.2h1.5v2.2h2.3v1.2H272v5.2c0,0.9,0.3,1.2,1.2,1.2h1.1v1.2H273
			c-1.6,0-2.4-0.6-2.4-2.4v-5.2H270.5z"/>
		<path class="st4" d="M275.8,345.7c0-0.6,0.4-1,1-1c0.5,0,1,0.4,1,1s-0.4,1-1,1C276.2,346.7,275.8,346.3,275.8,345.7z M276,348.1
			h1.5v8.8H276V348.1z"/>
		<path class="st4" d="M286.4,351.9c0-1.8-1-2.7-2.4-2.7c-1.5,0-2.5,0.9-2.5,2.8v4.8H280V348h1.5v1.2c0.6-0.9,1.6-1.4,2.8-1.4
			c2,0,3.6,1.2,3.6,3.8v5.2h-1.4v-4.9H286.4z"/>
		<path class="st4" d="M294,357c-2.5,0-4.4-1.8-4.4-4.5c0-2.8,2-4.5,4.4-4.5c2.5,0,4.4,1.7,4.4,4.5C298.5,355.3,296.5,357,294,357z
			 M294,355.7c1.5,0,3-1,3-3.3c0-2.2-1.5-3.3-3-3.3s-2.9,1-2.9,3.3S292.5,355.7,294,355.7z"/>
		<path class="st4" d="M308.2,356.9h-1.5v-1.3c-0.6,0.9-1.6,1.4-2.8,1.4c-2,0-3.6-1.2-3.6-3.8v-5.1h1.4v4.9c0,1.8,1,2.7,2.4,2.7
			c1.5,0,2.5-0.9,2.5-2.8v-4.8h1.5v8.8H308.2z"/>
		<path class="st4" d="M313.8,357c-2,0-3.5-1.1-3.6-2.7h1.5c0.1,0.8,0.8,1.5,2.1,1.5c1.2,0,1.8-0.6,1.8-1.3c0-2-5.2-0.8-5.2-4.1
			c0-1.3,1.3-2.4,3.2-2.4c1.9,0,3.2,1,3.3,2.8h-1.5c-0.1-0.9-0.7-1.5-1.9-1.5c-1.1,0-1.7,0.5-1.7,1.2c0,2.1,5.1,0.9,5.2,4.1
			C317,355.9,315.7,357,313.8,357z"/>
		<path class="st4" d="M326.4,357c-2,0-3.5-1.1-3.6-2.7h1.5c0.1,0.8,0.8,1.5,2.1,1.5c1.2,0,1.8-0.6,1.8-1.3c0-2-5.2-0.8-5.2-4.1
			c0-1.3,1.3-2.4,3.2-2.4s3.2,1,3.3,2.8H328c-0.1-0.9-0.7-1.5-1.9-1.5c-1.1,0-1.7,0.5-1.7,1.2c0,2.1,5.1,0.9,5.2,4.1
			C329.6,355.9,328.3,357,326.4,357z"/>
		<path class="st4" d="M339.4,356.9h-1.5v-1.3c-0.6,0.9-1.6,1.4-2.8,1.4c-2,0-3.6-1.2-3.6-3.8v-5.1h1.4v4.9c0,1.8,1,2.7,2.4,2.7
			c1.5,0,2.5-0.9,2.5-2.8v-4.8h1.5L339.4,356.9L339.4,356.9z"/>
		<path class="st4" d="M346.6,348c2.4,0,4.2,1.8,4.2,4.5s-1.8,4.6-4.2,4.6c-1.6,0-2.7-0.9-3.3-1.8v5.8h-1.5v-12.9h1.5v1.6
			C343.9,348.8,345,348,346.6,348z M346.3,349.2c-1.6,0-3,1.2-3,3.3s1.4,3.3,3,3.3s3-1.2,3-3.3C349.3,350.4,347.9,349.2,346.3,349.2
			z"/>
		<path class="st4" d="M357.4,348c2.4,0,4.2,1.8,4.2,4.5s-1.8,4.6-4.2,4.6c-1.6,0-2.7-0.9-3.3-1.8v5.8h-1.5v-12.9h1.5v1.6
			C354.7,348.8,355.8,348,357.4,348z M357.1,349.2c-1.6,0-3,1.2-3,3.3s1.4,3.3,3,3.3s3-1.2,3-3.3
			C360.1,350.4,358.8,349.2,357.1,349.2z"/>
		<path class="st4" d="M367.3,357c-2.5,0-4.4-1.8-4.4-4.5c0-2.8,2-4.5,4.4-4.5c2.5,0,4.4,1.7,4.4,4.5
			C371.8,355.3,369.8,357,367.3,357z M367.3,355.7c1.5,0,3-1,3-3.3c0-2.2-1.5-3.3-3-3.3s-2.9,1-2.9,3.3
			C364.5,354.7,365.8,355.7,367.3,355.7z"/>
		<path class="st4" d="M375.2,356.9h-1.5v-8.8h1.5v1.4c0.5-1,1.4-1.6,2.8-1.6v1.5h-0.4c-1.4,0-2.4,0.6-2.4,2.7L375.2,356.9
			L375.2,356.9z"/>
		<path class="st4" d="M380.1,349.3H379v-1.2h1.1v-2.2h1.5v2.2h2.3v1.2h-2.4v5.2c0,0.9,0.3,1.2,1.2,1.2h1.1v1.2h-1.3
			c-1.6,0-2.4-0.6-2.4-2.4V349.3z"/>
		<path class="st4" d="M388.8,348.1h1.5l2,7.4l2.2-7.4h1.5l2.1,7.4l2-7.4h1.4l-2.7,8.8h-1.5l-2.1-7l-2.1,7h-1.6L388.8,348.1z"/>
		<path class="st4" d="M402.9,345h1.5v4.3c0.6-0.9,1.7-1.4,2.9-1.4c2,0,3.5,1.2,3.5,3.8v5.2h-1.4v-5c0-1.8-1-2.7-2.4-2.7
			c-1.5,0-2.5,0.9-2.5,2.8v4.8H403L402.9,345L402.9,345z"/>
		<path class="st4" d="M417,357c-2.5,0-4.3-1.8-4.3-4.5c0-2.8,1.8-4.5,4.3-4.5s4.2,1.8,4.2,4.2c0,0.3,0,0.6,0,0.9h-7
			c0.1,1.8,1.4,2.8,2.8,2.8c1.3,0,2.1-0.7,2.5-1.6h1.6C420.6,355.8,419.2,357,417,357z M414.1,351.9h5.5c0-1.7-1.3-2.7-2.8-2.7
			C415.5,349.2,414.3,350.1,414.1,351.9z"/>
		<path class="st4" d="M429.5,351.9c0-1.8-1-2.7-2.4-2.7c-1.5,0-2.5,0.9-2.5,2.8v4.8h-1.5V348h1.5v1.2c0.6-0.9,1.6-1.4,2.8-1.4
			c2,0,3.6,1.2,3.6,3.8v5.2h-1.5V351.9z"/>
		<path class="st4" d="M437.1,357c-2.5,0-4.3-1.8-4.3-4.5c0-2.8,1.8-4.5,4.3-4.5s4.2,1.8,4.2,4.2c0,0.3,0,0.6,0,0.9h-7
			c0.1,1.8,1.4,2.8,2.8,2.8c1.3,0,2.1-0.7,2.5-1.6h1.6C440.7,355.8,439.3,357,437.1,357z M434.3,351.9h5.5c0-1.7-1.3-2.7-2.8-2.7
			C435.7,349.2,434.5,350.1,434.3,351.9z"/>
		<path class="st4" d="M443.8,348.1l2.7,7.4l2.7-7.4h1.6l-3.4,8.8h-1.7l-3.4-8.8H443.8z"/>
		<path class="st4" d="M456,357c-2.5,0-4.3-1.8-4.3-4.5c0-2.8,1.8-4.5,4.3-4.5s4.2,1.8,4.2,4.2c0,0.3,0,0.6,0,0.9h-7
			c0.1,1.8,1.4,2.8,2.8,2.8c1.3,0,2.1-0.7,2.5-1.6h1.6C459.6,355.8,458.2,357,456,357z M453.2,351.9h5.5c0-1.7-1.3-2.7-2.8-2.7
			C454.5,349.2,453.4,350.1,453.2,351.9z"/>
		<path class="st4" d="M463.6,356.9h-1.5v-8.8h1.5v1.4c0.5-1,1.4-1.6,2.8-1.6v1.5H466c-1.4,0-2.4,0.6-2.4,2.7L463.6,356.9
			L463.6,356.9z"/>
		<path class="st4" d="M478.5,348.1h1.5l-5.3,12.9h-1.5l1.7-4.2l-3.5-8.7h1.6l2.8,7.1L478.5,348.1z"/>
		<path class="st4" d="M485.2,357c-2.5,0-4.4-1.8-4.4-4.5c0-2.8,2-4.5,4.4-4.5c2.5,0,4.4,1.7,4.4,4.5
			C489.7,355.3,487.7,357,485.2,357z M485.2,355.7c1.5,0,3-1,3-3.3c0-2.2-1.5-3.3-3-3.3s-2.9,1-2.9,3.3
			C482.4,354.7,483.7,355.7,485.2,355.7z"/>
		<path class="st4" d="M499.4,356.9h-1.5v-1.3c-0.6,0.9-1.6,1.4-2.8,1.4c-2,0-3.6-1.2-3.6-3.8v-5.1h1.4v4.9c0,1.8,1,2.7,2.4,2.7
			c1.5,0,2.5-0.9,2.5-2.8v-4.8h1.5L499.4,356.9L499.4,356.9z"/>
		<path class="st4" d="M512.6,351.9c0-1.8-1-2.7-2.4-2.7c-1.5,0-2.5,0.9-2.5,2.8v4.8h-1.5V348h1.5v1.2c0.6-0.9,1.6-1.4,2.8-1.4
			c2,0,3.6,1.2,3.6,3.8v5.2h-1.4L512.6,351.9L512.6,351.9z"/>
		<path class="st4" d="M520.2,357c-2.5,0-4.3-1.8-4.3-4.5c0-2.8,1.8-4.5,4.3-4.5s4.2,1.8,4.2,4.2c0,0.3,0,0.6,0,0.9h-7
			c0.1,1.8,1.4,2.8,2.8,2.8c1.3,0,2.1-0.7,2.5-1.6h1.6C523.8,355.8,522.4,357,520.2,357z M517.4,351.9h5.5c0-1.7-1.3-2.7-2.8-2.7
			C518.7,349.2,517.5,350.1,517.4,351.9z"/>
		<path class="st4" d="M530.1,357c-2.5,0-4.3-1.8-4.3-4.5c0-2.8,1.8-4.5,4.3-4.5s4.2,1.8,4.2,4.2c0,0.3,0,0.6,0,0.9h-7
			c0.1,1.8,1.4,2.8,2.8,2.8c1.3,0,2.1-0.7,2.5-1.6h1.6C533.7,355.8,532.3,357,530.1,357z M527.3,351.9h5.5c0-1.7-1.3-2.7-2.8-2.7
			C528.6,349.2,527.4,350.1,527.3,351.9z"/>
		<path class="st4" d="M539.9,348c1.4,0,2.6,0.7,3.2,1.7v-4.6h1.5v11.8h-1.5v-1.6c-0.5,1-1.7,1.8-3.3,1.8c-2.4,0-4.2-1.8-4.2-4.6
			C535.7,349.7,537.5,348,539.9,348z M540.1,349.2c-1.6,0-3,1.2-3,3.2c0,2.1,1.4,3.3,3,3.3s3-1.2,3-3.3
			C543.1,350.4,541.7,349.2,540.1,349.2z"/>
		<path class="st4" d="M559.1,356.9h-1.5v-1.3c-0.6,0.9-1.6,1.4-2.8,1.4c-2,0-3.6-1.2-3.6-3.8v-5.1h1.4v4.9c0,1.8,1,2.7,2.4,2.7
			c1.5,0,2.5-0.9,2.5-2.8v-4.8h1.5L559.1,356.9L559.1,356.9z"/>
		<path class="st4" d="M564.7,357c-2,0-3.5-1.1-3.6-2.7h1.5c0.1,0.8,0.8,1.5,2.1,1.5c1.2,0,1.8-0.6,1.8-1.3c0-2-5.2-0.8-5.2-4.1
			c0-1.3,1.3-2.4,3.2-2.4s3.2,1,3.3,2.8h-1.5c-0.1-0.9-0.7-1.5-1.9-1.5c-1.1,0-1.7,0.5-1.7,1.2c0,2.1,5.1,0.9,5.2,4.1
			C567.9,355.9,566.6,357,564.7,357z"/>
	</g>
</g>
</svg>
