<?xml version="1.0" encoding="utf-8"?>
<!-- Generator: Adobe illustrator 23.0.2, SVG Export Plug-In . SVG Version: 6.00 Build 0)  -->
<svg version="1.1" id="Layer_1" xmlns="http://www.w3.org/2000/svg" xmlns:xlink="http://www.w3.org/1999/xlink" x="0px" y="0px"
	 viewBox="0 0 1913.2 600.1" style="enable-background:new 0 0 1913.2 600.1;" xml:space="preserve">
<style type="text/css">
	.st0{fill:#152C53;}
	.st1{fill:#F5C515;}
	.st2{fill:#FFFFFF;}
	.st3{fill:#002A54;}
	.st4{fill:#3D3D3D;}
	.st5{display:none;}
	.st6{display:inline;}
</style>
<g id="_x31_">
	<rect y="419.3" class="st0" width="180" height="180"/>
	<rect x="180" y="419.3" class="st1" width="26" height="180"/>
	<rect x="180" y="419.3" class="st1" width="184.8" height="40"/>
	<path class="st2" d="M88.6,548.8c22.1,0,40-17.9,40-40s-17.9-40-40-40s-40,17.9-40,40S66.5,548.8,88.6,548.8z M71.9,536.4l8.6-8.6
		c5.1,2.2,11,2.2,16.1,0l8.6,8.6C95.1,542.6,82.1,542.6,71.9,536.4L71.9,536.4z M101.5,508.8c0,7.1-5.8,12.9-12.9,12.9
		s-12.9-5.8-12.9-12.9c0-7.1,5.8-12.9,12.9-12.9C95.7,495.9,101.5,501.7,101.5,508.8z M116.2,525.5l-8.6-8.6c2.2-5.1,2.2-11,0-16.1
		l8.6-8.6C122.4,502.3,122.4,515.3,116.2,525.5z M105.3,481.2l-8.6,8.6c-5.1-2.2-11-2.2-16.1,0l-8.6-8.6
		C82.1,475,95.1,475,105.3,481.2z M61,492.1l8.6,8.6c-2.2,5.1-2.2,11,0,16.1l-8.6,8.6C54.8,515.3,54.8,502.3,61,492.1z"/>
	<g id="_x37__x2A_24_Support">
		<g>
			<path class="st3" d="M251.9,490v2.9l-7.4,17.4h-4l7.5-17h-9.6V490H251.9z"/>
			<path class="st3" d="M260.8,493.6l3.1-2.4l1.4,2.5l-3.6,1.3l3.6,1.3l-1.5,2.6l-3-2.5l0.6,3.9h-2.9l0.6-3.9l-3,2.5l-1.5-2.7
				l3.6-1.3l-3.6-1.3l1.4-2.6l3.1,2.5l-0.6-3.9h2.9L260.8,493.6z"/>
			<path class="st3" d="M268.5,507.2c4.6-3.9,9.5-7.5,9.5-11.3c0-1.8-0.8-3.1-2.7-3.1c-1.9,0-2.9,1.3-2.9,3.5h-3.8
				c0.1-4.7,3.1-6.8,6.8-6.8c4.4,0,6.6,2.6,6.6,6.2c0,4.7-4.6,8.4-7.8,11.2h8.3v3.2h-13.8V507.2z"/>
			<path class="st3" d="M294.4,506.4h-9.8v-3.1l9.2-13.1h4.6V503h2.5v3.4h-2.5v4h-3.9V506.4z M294.7,503v-8.6l-5.7,8.6H294.7z"/>
			<path class="st3" d="M317.2,510.6c-4.1,0-7.2-2.1-7.3-5.8h4.2c0.1,1.6,1.1,2.6,3,2.6c1.8,0,2.9-1,2.9-2.4
				c0-4.2-10.1-1.7-10.1-8.8c0-3.5,2.9-5.7,6.9-5.7c4,0,6.7,2,7,5.6h-4.3c-0.1-1.3-1.1-2.3-2.8-2.3c-1.5-0.1-2.7,0.7-2.7,2.3
				c0,3.9,10,1.7,10,8.6C324.1,507.8,321.6,510.6,317.2,510.6z"/>
			<path class="st3" d="M342.1,510.4h-3.9v-2c-1,1.3-2.7,2.2-4.6,2.2c-3.6,0-6.2-2.4-6.2-6.6v-9.1h3.9v8.5c0,2.5,1.4,3.8,3.4,3.8
				c2.1,0,3.5-1.3,3.5-3.8v-8.5h3.9V510.4z"/>
			<path class="st3" d="M355,494.6c4,0,7.1,3.1,7.1,8c0,4.8-3.1,8.1-7.1,8.1c-2.4,0-4.2-1.2-5.1-2.5v9.6H346v-22.9h3.9v2.2
				C350.8,495.8,352.6,494.6,355,494.6z M354,498c-2.1,0-4.1,1.6-4.1,4.6c0,2.9,2,4.6,4.1,4.6c2.1,0,4.1-1.7,4.1-4.6
				C358.1,499.6,356.1,498,354,498z"/>
			<path class="st3" d="M374,494.6c4,0,7.1,3.1,7.1,8c0,4.8-3.1,8.1-7.1,8.1c-2.4,0-4.2-1.2-5.1-2.5v9.6H365v-22.9h3.9v2.2
				C369.8,495.8,371.6,494.6,374,494.6z M373,498c-2.1,0-4.1,1.6-4.1,4.6c0,2.9,2,4.6,4.1,4.6c2.1,0,4.1-1.7,4.1-4.6
				C377.1,499.6,375.1,498,373,498z"/>
			<path class="st3" d="M390.8,510.6c-4.5,0-7.9-3.1-7.9-8c0-4.9,3.5-8,8-8s8,3.1,8,8C398.9,507.5,395.3,510.6,390.8,510.6z
				 M390.8,507.2c2.1,0,4.1-1.5,4.1-4.6c0-3.1-1.9-4.6-4-4.6s-3.9,1.5-3.9,4.6C386.9,505.7,388.7,507.2,390.8,507.2z"/>
			<path class="st3" d="M405.7,510.4h-3.9v-15.5h3.9v2.4c1-1.6,2.6-2.6,4.8-2.6v4.1h-1c-2.3,0-3.7,0.9-3.7,3.9V510.4z"/>
			<path class="st3" d="M413.7,498.1h-1.8v-3.2h1.8V491h3.9v3.8h3.5v3.2h-3.5v7.5c0,1,0.4,1.5,1.7,1.5h1.8v3.3h-2.5
				c-3,0-5-1.3-5-4.8V498.1z"/>
		</g>
		<g>
			<path class="st4" d="M245.2,525.9c2.9,0,5.4,1.5,6.5,4.2H249c-0.7-1.5-2.1-2.2-3.7-2.2c-2.8,0-4.8,2-4.8,5.1s2,5.1,4.8,5.1
				c1.7,0,3-0.7,3.7-2.2h2.7c-1.1,2.7-3.6,4.2-6.5,4.2c-3.9,0-7.1-2.9-7.1-7.1C238.1,528.9,241.3,525.9,245.2,525.9z"/>
			<path class="st4" d="M259.1,540.2c-3.1,0-5.5-2.2-5.5-5.7c0-3.5,2.5-5.7,5.6-5.7s5.6,2.2,5.6,5.7
				C264.9,537.9,262.3,540.2,259.1,540.2z M259.1,538.2c1.7,0,3.4-1.2,3.4-3.7c0-2.5-1.6-3.7-3.3-3.7c-1.7,0-3.3,1.2-3.3,3.7
				C255.9,537,257.4,538.2,259.1,538.2z"/>
			<path class="st4" d="M274.9,533.8c0-2-1.1-3.1-2.8-3.1c-1.7,0-2.8,1-2.8,3.1v6.2h-2.3v-11h2.3v1.3c0.7-0.9,2-1.4,3.3-1.4
				c2.6,0,4.5,1.6,4.5,4.7v6.5h-2.3V533.8z"/>
			<path class="st4" d="M280.5,530.8h-1.3V529h1.3v-2.7h2.3v2.7h2.7v1.9h-2.7v6.1c0,0.8,0.3,1.2,1.3,1.2h1.4v1.9h-1.8
				c-2,0-3.2-0.8-3.2-3.1V530.8z"/>
			<path class="st4" d="M287.2,526.1c0-0.8,0.6-1.5,1.5-1.5c0.8,0,1.4,0.6,1.4,1.5c0,0.8-0.6,1.5-1.4,1.5
				C287.9,527.5,287.2,526.9,287.2,526.1z M287.5,529h2.3v11h-2.3V529z"/>
			<path class="st4" d="M300.6,533.8c0-2-1.1-3.1-2.8-3.1c-1.7,0-2.8,1-2.8,3.1v6.2h-2.3v-11h2.3v1.3c0.7-0.9,2-1.4,3.3-1.4
				c2.6,0,4.5,1.6,4.5,4.7v6.5h-2.3V533.8z"/>
			<path class="st4" d="M310.6,540.2c-3.1,0-5.5-2.2-5.5-5.7c0-3.5,2.5-5.7,5.6-5.7s5.6,2.2,5.6,5.7
				C316.3,537.9,313.7,540.2,310.6,540.2z M310.6,538.2c1.7,0,3.4-1.2,3.4-3.7c0-2.5-1.6-3.7-3.3-3.7c-1.7,0-3.3,1.2-3.3,3.7
				C307.4,537,308.9,538.2,310.6,538.2z"/>
			<path class="st4" d="M328.5,540h-2.3v-1.3c-0.7,0.9-2,1.5-3.3,1.5c-2.6,0-4.5-1.6-4.5-4.7V529h2.3v6.1c0,2,1.1,3.1,2.8,3.1
				c1.7,0,2.8-1,2.8-3.1V529h2.3V540z"/>
			<path class="st4" d="M335.5,540.2c-2.6,0-4.5-1.6-4.6-3.6h2.4c0.1,0.9,0.9,1.6,2.2,1.6c1.3,0,2-0.6,2-1.3c0-2.2-6.4-0.9-6.4-5
				c0-1.8,1.6-3.2,4.2-3.2c2.5,0,4.1,1.3,4.3,3.5h-2.3c-0.1-1-0.8-1.6-2.1-1.6c-1.2,0-1.9,0.5-1.9,1.2c0,2.2,6.2,1,6.3,5
				C339.8,538.8,338.1,540.2,335.5,540.2z"/>
			<path class="st4" d="M351.4,540.2c-2.6,0-4.5-1.6-4.6-3.6h2.4c0.1,0.9,0.9,1.6,2.2,1.6c1.3,0,2-0.6,2-1.3c0-2.2-6.4-0.9-6.4-5
				c0-1.8,1.6-3.2,4.2-3.2c2.5,0,4.1,1.3,4.3,3.5h-2.3c-0.1-1-0.8-1.6-2.1-1.6c-1.2,0-1.9,0.5-1.9,1.2c0,2.2,6.2,1,6.3,5
				C355.6,538.8,354,540.2,351.4,540.2z"/>
			<path class="st4" d="M368.1,540h-2.3v-1.3c-0.7,0.9-2,1.5-3.3,1.5c-2.6,0-4.5-1.6-4.5-4.7V529h2.3v6.1c0,2,1.1,3.1,2.8,3.1
				c1.7,0,2.8-1,2.8-3.1V529h2.3V540z"/>
			<path class="st4" d="M377.2,528.8c2.9,0,5.2,2.2,5.2,5.6c0,3.4-2.3,5.7-5.2,5.7c-1.8,0-3.1-0.9-3.8-1.8v6.8h-2.3V529h2.3v1.6
				C374.1,529.7,375.4,528.8,377.2,528.8z M376.7,530.8c-1.7,0-3.3,1.3-3.3,3.7c0,2.4,1.6,3.7,3.3,3.7c1.7,0,3.4-1.4,3.4-3.8
				C380.1,532.1,378.4,530.8,376.7,530.8z"/>
			<path class="st4" d="M390.8,528.8c2.9,0,5.2,2.2,5.2,5.6c0,3.4-2.3,5.7-5.2,5.7c-1.8,0-3.1-0.9-3.8-1.8v6.8h-2.3V529h2.3v1.6
				C387.6,529.7,389,528.8,390.8,528.8z M390.3,530.8c-1.7,0-3.3,1.3-3.3,3.7c0,2.4,1.6,3.7,3.3,3.7c1.7,0,3.4-1.4,3.4-3.8
				C393.6,532.1,392,530.8,390.3,530.8z"/>
			<path class="st4" d="M403,540.2c-3.1,0-5.5-2.2-5.5-5.7c0-3.5,2.5-5.7,5.6-5.7s5.6,2.2,5.6,5.7
				C408.7,537.9,406.1,540.2,403,540.2z M403,538.2c1.7,0,3.4-1.2,3.4-3.7c0-2.5-1.6-3.7-3.3-3.7c-1.7,0-3.3,1.2-3.3,3.7
				C399.8,537,401.3,538.2,403,538.2z"/>
			<path class="st4" d="M413.2,540H411v-11h2.3v1.6c0.6-1.1,1.7-1.8,3.3-1.8v2.4H416c-1.7,0-2.7,0.7-2.7,3V540z"/>
			<path class="st4" d="M419,530.8h-1.3V529h1.3v-2.7h2.3v2.7h2.7v1.9h-2.7v6.1c0,0.8,0.3,1.2,1.3,1.2h1.4v1.9h-1.8
				c-2,0-3.2-0.8-3.2-3.1V530.8z"/>
			<path class="st4" d="M430,529h2.3l2.3,8.9l2.3-8.9h2.4l2.2,8.8l2.3-8.8h2.2l-3.4,11h-2.4l-2.2-8.1l-2.2,8.1h-2.4L430,529z"/>
			<path class="st4" d="M447.8,525.2h2.3v5.1c0.8-0.9,2-1.5,3.4-1.5c2.5,0,4.4,1.6,4.4,4.7v6.5h-2.3v-6.2c0-2-1.1-3.1-2.8-3.1
				c-1.7,0-2.8,1-2.8,3.1v6.2h-2.3V525.2z"/>
			<path class="st4" d="M465.5,540.2c-3.2,0-5.5-2.2-5.5-5.7c0-3.5,2.2-5.7,5.5-5.7c3.1,0,5.4,2.2,5.4,5.4c0,0.4,0,0.7-0.1,1.1h-8.4
				c0.2,1.8,1.5,2.9,3.1,2.9c1.4,0,2.2-0.7,2.6-1.5h2.5C469.9,538.6,468.2,540.2,465.5,540.2z M462.4,533.5h6.1
				c0-1.7-1.4-2.8-3.1-2.8C463.9,530.7,462.6,531.8,462.4,533.5z"/>
			<path class="st4" d="M480.9,533.8c0-2-1.1-3.1-2.8-3.1c-1.7,0-2.8,1-2.8,3.1v6.2h-2.3v-11h2.3v1.3c0.7-0.9,2-1.4,3.3-1.4
				c2.6,0,4.5,1.6,4.5,4.7v6.5h-2.3V533.8z"/>
			<path class="st4" d="M490.8,540.2c-3.2,0-5.5-2.2-5.5-5.7c0-3.5,2.2-5.7,5.5-5.7c3.1,0,5.4,2.2,5.4,5.4c0,0.4,0,0.7-0.1,1.1h-8.4
				c0.2,1.8,1.5,2.9,3.1,2.9c1.4,0,2.2-0.7,2.6-1.5h2.5C495.3,538.6,493.5,540.2,490.8,540.2z M487.7,533.5h6.1
				c0-1.7-1.4-2.8-3.1-2.8C489.2,530.7,487.9,531.8,487.7,533.5z"/>
			<path class="st4" d="M499.5,529l3.1,9l3.1-9h2.4l-4.2,11h-2.7l-4.2-11H499.5z"/>
			<path class="st4" d="M514.7,540.2c-3.2,0-5.5-2.2-5.5-5.7c0-3.5,2.2-5.7,5.5-5.7c3.1,0,5.4,2.2,5.4,5.4c0,0.4,0,0.7-0.1,1.1h-8.4
				c0.2,1.8,1.5,2.9,3.1,2.9c1.4,0,2.2-0.7,2.6-1.5h2.5C519.1,538.6,517.4,540.2,514.7,540.2z M511.5,533.5h6.1
				c0-1.7-1.4-2.8-3.1-2.8C513,530.7,511.8,531.8,511.5,533.5z"/>
			<path class="st4" d="M524.5,540h-2.3v-11h2.3v1.6c0.6-1.1,1.7-1.8,3.3-1.8v2.4h-0.6c-1.7,0-2.7,0.7-2.7,3V540z"/>
			<path class="st4" d="M542.7,529h2.4l-6.8,16.2h-2.4l2.2-5.4l-4.3-10.8h2.5l3.1,8.4L542.7,529z"/>
			<path class="st4" d="M551.6,540.2c-3.1,0-5.5-2.2-5.5-5.7c0-3.5,2.5-5.7,5.6-5.7s5.6,2.2,5.6,5.7
				C557.3,537.9,554.7,540.2,551.6,540.2z M551.6,538.2c1.7,0,3.4-1.2,3.4-3.7c0-2.5-1.6-3.7-3.3-3.7c-1.7,0-3.3,1.2-3.3,3.7
				C548.4,537,549.8,538.2,551.6,538.2z"/>
			<path class="st4" d="M569.5,540h-2.3v-1.3c-0.7,0.9-2,1.5-3.3,1.5c-2.6,0-4.5-1.6-4.5-4.7V529h2.3v6.1c0,2,1.1,3.1,2.8,3.1
				c1.7,0,2.8-1,2.8-3.1V529h2.3V540z"/>
			<path class="st4" d="M246.7,559.8c0-2-1.1-3.1-2.8-3.1c-1.7,0-2.8,1-2.8,3.1v6.2h-2.3v-11h2.3v1.3c0.7-0.9,2-1.4,3.3-1.4
				c2.6,0,4.5,1.6,4.5,4.7v6.5h-2.3V559.8z"/>
			<path class="st4" d="M256.6,566.2c-3.2,0-5.5-2.2-5.5-5.7c0-3.5,2.2-5.7,5.5-5.7c3.1,0,5.4,2.2,5.4,5.4c0,0.4,0,0.7-0.1,1.1h-8.4
				c0.2,1.8,1.5,2.9,3.1,2.9c1.4,0,2.2-0.7,2.6-1.5h2.5C261.1,564.6,259.3,566.2,256.6,566.2z M253.5,559.5h6.1
				c0-1.7-1.4-2.8-3.1-2.8C255,556.7,253.7,557.8,253.5,559.5z"/>
			<path class="st4" d="M269,566.2c-3.2,0-5.5-2.2-5.5-5.7c0-3.5,2.2-5.7,5.5-5.7c3.1,0,5.4,2.2,5.4,5.4c0,0.4,0,0.7-0.1,1.1h-8.4
				c0.2,1.8,1.5,2.9,3.1,2.9c1.4,0,2.2-0.7,2.6-1.5h2.5C273.4,564.6,271.7,566.2,269,566.2z M265.8,559.5h6.1c0-1.7-1.4-2.8-3.1-2.8
				C267.3,556.7,266.1,557.8,265.8,559.5z"/>
			<path class="st4" d="M281,554.8c1.4,0,3,0.7,3.8,1.7v-5.3h2.3V566h-2.3v-1.7c-0.7,1-2,1.8-3.8,1.8c-2.9,0-5.2-2.3-5.2-5.7
				C275.8,557,278.1,554.8,281,554.8z M281.5,556.8c-1.7,0-3.3,1.3-3.3,3.7c0,2.4,1.6,3.8,3.3,3.8c1.7,0,3.3-1.3,3.3-3.7
				C284.8,558.1,283.2,556.8,281.5,556.8z"/>
			<path class="st4" d="M305.3,566H303v-1.3c-0.7,0.9-2,1.5-3.3,1.5c-2.6,0-4.5-1.6-4.5-4.7V555h2.3v6.1c0,2,1.1,3.1,2.8,3.1
				c1.7,0,2.8-1,2.8-3.1V555h2.3V566z"/>
			<path class="st4" d="M312.3,566.2c-2.6,0-4.5-1.6-4.6-3.6h2.4c0.1,0.9,0.9,1.6,2.2,1.6c1.3,0,2-0.6,2-1.3c0-2.2-6.4-0.9-6.4-5
				c0-1.8,1.6-3.2,4.2-3.2c2.5,0,4.1,1.3,4.3,3.5h-2.3c-0.1-1-0.8-1.6-2.1-1.6c-1.2,0-1.9,0.5-1.9,1.2c0,2.2,6.2,1,6.3,5
				C316.5,564.8,314.9,566.2,312.3,566.2z"/>
		</g>
	</g>
</g>
<g id="_x32_">
	<rect x="180" y="279.3" class="st0" width="180" height="140"/>
	<g>
		<rect x="360" y="279.3" class="st1" width="26" height="180"/>
		<rect x="360" y="279.2" class="st1" width="183.9" height="40"/>
	</g>
	<path class="st2" d="M236.8,312.4l6.3,71.1l28.1,9.4l28.3-9.4l6.3-71.1H236.8z M292.2,335.4h-33l0.7,8.9h31.5L289,371l-17.6,4.8v0
		h-0.2l-17.7-4.9l-1.1-13.6h8.6l0.6,6.8l9.6,2.6l9.6-2.6l1.1-11.2h-30l-2.3-26.2H293L292.2,335.4z"/>
	<g id="HTML5">
		<g>
			<path class="st3" d="M430.1,361.6h-8.4v8.3h-3.9v-19.5h3.9v8h8.4v-8h3.9v19.5h-3.9V361.6z"/>
			<path class="st3" d="M436.8,350.4h14.3v3.2H446v16.4h-3.9v-16.4h-5.2V350.4z"/>
			<path class="st3" d="M454,350.4h4.5l6.2,14.5l6.2-14.5h4.4v19.5h-3.9v-12.7l-5.2,12.7h-3l-5.3-12.7v12.7H454V350.4z"/>
			<path class="st3" d="M483.1,350.4v16.4h6.4v3.1h-10.4v-19.5H483.1z"/>
			<path class="st3" d="M505.3,349.5v3.4h-9.1v4.8c0.8-0.9,2.3-1.7,4-1.7c4.8,0,6.4,3.6,6.4,6.7c0,4.2-2.4,7.1-7.1,7.1
				c-4.4,0-6.9-2.4-7.3-5.8h3.8c0.3,1.4,1.5,2.5,3.4,2.5c2.3,0,3.3-1.6,3.3-3.8c0-2.3-1.1-3.6-3.4-3.6c-1.6,0-2.7,0.9-3.1,2.2h-3.8
				v-12H505.3z"/>
			<path class="st3" d="M526.1,354.9c0.1-1.3-0.7-1.9-1.7-1.9c-1.1,0-1.8,0.7-1.8,1.7s0.6,1.8,1.8,3.1l4.9,4.9
				c0.1-0.1,0.1-0.1,0.1-0.2l1.6-2.7h4.1l-2,3.4c-0.4,0.8-0.8,1.4-1.2,2.1l4.7,4.7h-4.8l-2.1-2.1c-1.8,1.6-4,2.4-6.6,2.4
				c-4.4,0-7.2-2.4-7.2-6c0-2.5,1.4-4.7,4.3-6c-1-1.3-1.4-2.3-1.4-3.6c0-2.7,2.2-4.7,5.7-4.7c3.7,0,5.6,2.3,5.4,5H526.1z
				 M527.2,365.4l-4.8-4.8c-1.8,0.8-2.7,2-2.7,3.4c0,1.7,1.3,3,3.5,3C524.7,367,526.1,366.4,527.2,365.4z"/>
			<path class="st3" d="M554.2,350.1c4.3,0,7.9,2.3,9.2,6.3h-4.5c-0.9-1.9-2.6-2.8-4.7-2.8c-3.4,0-5.9,2.5-5.9,6.5
				c0,3.9,2.4,6.5,5.9,6.5c2.1,0,3.8-0.9,4.7-2.8h4.5c-1.3,4-4.8,6.3-9.2,6.3c-5.6,0-9.9-4.1-9.9-10
				C544.3,354.3,548.5,350.1,554.2,350.1z"/>
			<path class="st3" d="M573.5,370.1c-4.1,0-7.2-2.1-7.3-5.8h4.2c0.1,1.6,1.1,2.6,3,2.6c1.8,0,2.9-1,2.9-2.4
				c0-4.2-10.1-1.7-10.1-8.8c0-3.5,2.9-5.7,6.9-5.7c4,0,6.7,2,7,5.6h-4.3c-0.1-1.3-1.1-2.3-2.8-2.3c-1.5-0.1-2.7,0.7-2.7,2.3
				c0,3.9,10,1.7,10,8.6C580.4,367.3,577.9,370.1,573.5,370.1z"/>
			<path class="st3" d="M590.5,370.1c-4.1,0-7.2-2.1-7.3-5.8h4.2c0.1,1.6,1.1,2.6,3,2.6c1.8,0,2.9-1,2.9-2.4
				c0-4.2-10.1-1.7-10.1-8.8c0-3.5,2.9-5.7,6.9-5.7c4,0,6.7,2,7,5.6h-4.3c-0.1-1.3-1.1-2.3-2.8-2.3c-1.5-0.1-2.7,0.7-2.7,2.3
				c0,3.9,10,1.7,10,8.6C597.4,367.3,595,370.1,590.5,370.1z"/>
			<path class="st3" d="M607.2,349c4.2,0,6.4,2.4,6.4,5.4c0,2.5-1.6,4.1-3.1,4.6v0.1c2.1,0.6,3.4,2.3,3.4,5.1c0,3.3-2.4,5.8-6.6,5.8
				c-4,0-7.1-2-7.3-6.3h3.8c0.1,1.8,1.3,3,3.4,3c2,0,3-1.2,3-2.9c0-2.3-1.5-3.1-4.4-3.1h-0.8v-3.2h0.8c2.3,0,4-0.6,4-2.7
				c0-1.6-1-2.5-2.8-2.5c-1.9,0-2.7,1.2-2.9,2.5h-3.8C600.6,351.1,603.3,349,607.2,349z"/>
		</g>
		<g>
			<path class="st4" d="M417.4,385.7h2.5l4.9,10.9l4.9-10.9h2.4v13.9h-2.3V390l-4.2,9.5h-1.6l-4.3-9.5v9.5h-2.3V385.7z"/>
			<path class="st4" d="M439.8,399.7c-3.1,0-5.5-2.2-5.5-5.7s2.5-5.7,5.6-5.7s5.6,2.2,5.6,5.7S443,399.7,439.8,399.7z M439.8,397.8
				c1.7,0,3.4-1.2,3.4-3.7s-1.6-3.7-3.3-3.7c-1.7,0-3.3,1.2-3.3,3.7S438.1,397.8,439.8,397.8z"/>
			<path class="st4" d="M452.2,388.4c1.4,0,3,0.7,3.8,1.7v-5.3h2.3v14.8H456v-1.7c-0.7,1-2,1.8-3.8,1.8c-2.9,0-5.2-2.3-5.2-5.7
				C447,390.6,449.3,388.4,452.2,388.4z M452.7,390.3c-1.7,0-3.3,1.3-3.3,3.7c0,2.4,1.6,3.8,3.3,3.8c1.7,0,3.3-1.3,3.3-3.7
				C456,391.7,454.4,390.3,452.7,390.3z"/>
			<path class="st4" d="M466.1,399.7c-3.2,0-5.5-2.2-5.5-5.7s2.2-5.7,5.5-5.7c3.1,0,5.4,2.2,5.4,5.4c0,0.4,0,0.7-0.1,1.1h-8.4
				c0.2,1.8,1.5,2.9,3.1,2.9c1.4,0,2.2-0.7,2.6-1.5h2.5C470.5,398.2,468.8,399.7,466.1,399.7z M463,393.1h6.1c0-1.7-1.4-2.8-3.1-2.8
				C464.4,390.3,463.2,391.3,463,393.1z"/>
			<path class="st4" d="M476,399.6h-2.3v-11h2.3v1.6c0.6-1.1,1.7-1.8,3.3-1.8v2.4h-0.6c-1.7,0-2.7,0.7-2.7,3V399.6z"/>
			<path class="st4" d="M489.2,393.4c0-2-1.1-3.1-2.8-3.1c-1.7,0-2.8,1-2.8,3.1v6.2h-2.3v-11h2.3v1.3c0.7-0.9,2-1.4,3.3-1.4
				c2.6,0,4.5,1.6,4.5,4.7v6.5h-2.3V393.4z"/>
			<path class="st4" d="M504,388.4c1.9,0,3.1,0.9,3.8,1.8v-1.6h2.3v11h-2.3v-1.6c-0.7,0.9-2,1.8-3.9,1.8c-2.9,0-5.2-2.3-5.2-5.7
				C498.8,390.6,501.1,388.4,504,388.4z M504.5,390.3c-1.7,0-3.3,1.3-3.3,3.7c0,2.4,1.6,3.8,3.3,3.8c1.7,0,3.3-1.3,3.3-3.7
				C507.8,391.7,506.2,390.3,504.5,390.3z"/>
			<path class="st4" d="M520.9,393.4c0-2-1.1-3.1-2.8-3.1c-1.7,0-2.8,1-2.8,3.1v6.2h-2.3v-11h2.3v1.3c0.7-0.9,2-1.4,3.3-1.4
				c2.6,0,4.5,1.6,4.5,4.7v6.5h-2.3V393.4z"/>
			<path class="st4" d="M530.5,388.4c1.4,0,3,0.7,3.8,1.7v-5.3h2.3v14.8h-2.3v-1.7c-0.7,1-2,1.8-3.8,1.8c-2.9,0-5.2-2.3-5.2-5.7
				C525.3,390.6,527.6,388.4,530.5,388.4z M531,390.3c-1.7,0-3.3,1.3-3.3,3.7c0,2.4,1.6,3.8,3.3,3.8c1.7,0,3.3-1.3,3.3-3.7
				C534.3,391.7,532.7,390.3,531,390.3z"/>
			<path class="st4" d="M552.5,387.5h-5.4v4.1h4.8v1.9h-4.8v4.3h5.4v1.9h-7.7v-13.9h7.7V387.5z"/>
			<path class="st4" d="M555.3,384.8h2.3v14.8h-2.3V384.8z"/>
			<path class="st4" d="M565.3,399.7c-3.2,0-5.5-2.2-5.5-5.7s2.2-5.7,5.5-5.7c3.1,0,5.4,2.2,5.4,5.4c0,0.4,0,0.7-0.1,1.1h-8.4
				c0.2,1.8,1.5,2.9,3.1,2.9c1.4,0,2.2-0.7,2.6-1.5h2.5C569.8,398.2,568,399.7,565.3,399.7z M562.2,393.1h6.1c0-1.7-1.4-2.8-3.1-2.8
				C563.7,390.3,562.5,391.3,562.2,393.1z"/>
			<path class="st4" d="M577.4,388.4c1.8,0,3.1,0.8,3.8,1.8v-1.6h2.3v11.2c0,3-1.9,5.3-5.4,5.3c-2.9,0-5.1-1.5-5.4-3.9h2.3
				c0.3,1.1,1.6,1.9,3.1,1.9c1.8,0,3.1-1.1,3.1-3.3v-1.8c-0.7,0.9-2,1.8-3.8,1.8c-2.9,0-5.2-2.3-5.2-5.7
				C572.2,390.6,574.5,388.4,577.4,388.4z M577.9,390.3c-1.7,0-3.3,1.3-3.3,3.7c0,2.4,1.6,3.8,3.3,3.8c1.7,0,3.3-1.3,3.3-3.7
				C581.2,391.7,579.6,390.3,577.9,390.3z"/>
			<path class="st4" d="M590.9,388.4c1.9,0,3.1,0.9,3.8,1.8v-1.6h2.3v11h-2.3v-1.6c-0.7,0.9-2,1.8-3.9,1.8c-2.9,0-5.2-2.3-5.2-5.7
				C585.7,390.6,588,388.4,590.9,388.4z M591.4,390.3c-1.7,0-3.3,1.3-3.3,3.7c0,2.4,1.6,3.8,3.3,3.8c1.7,0,3.3-1.3,3.3-3.7
				C594.8,391.7,593.1,390.3,591.4,390.3z"/>
			<path class="st4" d="M607.9,393.4c0-2-1.1-3.1-2.8-3.1c-1.7,0-2.8,1-2.8,3.1v6.2h-2.3v-11h2.3v1.3c0.7-0.9,2-1.4,3.3-1.4
				c2.6,0,4.5,1.6,4.5,4.7v6.5h-2.3V393.4z"/>
			<path class="st4" d="M613.4,390.4h-1.3v-1.9h1.3v-2.7h2.3v2.7h2.7v1.9h-2.7v6.1c0,0.8,0.3,1.2,1.3,1.2h1.4v1.9h-1.8
				c-2,0-3.2-0.8-3.2-3.1V390.4z"/>
			<path class="st4" d="M630.1,388.4c1.4,0,3,0.7,3.8,1.7v-5.3h2.3v14.8h-2.3v-1.7c-0.7,1-2,1.8-3.8,1.8c-2.9,0-5.2-2.3-5.2-5.7
				C624.9,390.6,627.2,388.4,630.1,388.4z M630.6,390.3c-1.7,0-3.3,1.3-3.3,3.7c0,2.4,1.6,3.8,3.3,3.8c1.7,0,3.3-1.3,3.3-3.7
				C633.9,391.7,632.3,390.3,630.6,390.3z"/>
			<path class="st4" d="M644,399.7c-3.2,0-5.5-2.2-5.5-5.7s2.2-5.7,5.5-5.7c3.1,0,5.4,2.2,5.4,5.4c0,0.4,0,0.7-0.1,1.1h-8.4
				c0.2,1.8,1.5,2.9,3.1,2.9c1.4,0,2.2-0.7,2.6-1.5h2.5C648.4,398.2,646.7,399.7,644,399.7z M640.9,393.1h6.1c0-1.7-1.4-2.8-3.1-2.8
				C642.3,390.3,641.1,391.3,640.9,393.1z"/>
			<path class="st4" d="M655.6,399.7c-2.6,0-4.5-1.6-4.6-3.6h2.4c0.1,0.9,0.9,1.6,2.2,1.6c1.3,0,2-0.6,2-1.3c0-2.2-6.4-0.9-6.4-5
				c0-1.8,1.6-3.2,4.2-3.2c2.5,0,4.1,1.3,4.3,3.5h-2.3c-0.1-1-0.8-1.6-2.1-1.6c-1.2,0-1.9,0.5-1.9,1.2c0,2.2,6.2,1,6.3,5
				C659.8,398.3,658.2,399.7,655.6,399.7z"/>
			<path class="st4" d="M662,385.6c0-0.8,0.6-1.5,1.5-1.5c0.8,0,1.4,0.6,1.4,1.5s-0.6,1.5-1.4,1.5C662.6,387.1,662,386.4,662,385.6z
				 M662.3,388.5h2.3v11h-2.3V388.5z"/>
			<path class="st4" d="M672,388.4c1.8,0,3.1,0.8,3.8,1.8v-1.6h2.3v11.2c0,3-1.9,5.3-5.4,5.3c-2.9,0-5.1-1.5-5.4-3.9h2.3
				c0.3,1.1,1.6,1.9,3.1,1.9c1.8,0,3.1-1.1,3.1-3.3v-1.8c-0.7,0.9-2,1.8-3.8,1.8c-2.9,0-5.2-2.3-5.2-5.7
				C666.8,390.6,669.1,388.4,672,388.4z M672.5,390.3c-1.7,0-3.3,1.3-3.3,3.7c0,2.4,1.6,3.8,3.3,3.8c1.7,0,3.3-1.3,3.3-3.7
				C675.8,391.7,674.2,390.3,672.5,390.3z"/>
			<path class="st4" d="M688.9,393.4c0-2-1.1-3.1-2.8-3.1c-1.7,0-2.8,1-2.8,3.1v6.2h-2.3v-11h2.3v1.3c0.7-0.9,2-1.4,3.3-1.4
				c2.6,0,4.5,1.6,4.5,4.7v6.5h-2.3V393.4z"/>
			<path class="st4" d="M703.7,388.4c1.9,0,3.1,0.9,3.8,1.8v-1.6h2.3v11h-2.3v-1.6c-0.7,0.9-2,1.8-3.9,1.8c-2.9,0-5.2-2.3-5.2-5.7
				C698.5,390.6,700.8,388.4,703.7,388.4z M704.2,390.3c-1.7,0-3.3,1.3-3.3,3.7c0,2.4,1.6,3.8,3.3,3.8c1.7,0,3.3-1.3,3.3-3.7
				C707.5,391.7,705.9,390.3,704.2,390.3z"/>
			<path class="st4" d="M716.8,399.7c-2.6,0-4.5-1.6-4.6-3.6h2.4c0.1,0.9,0.9,1.6,2.2,1.6c1.3,0,2-0.6,2-1.3c0-2.2-6.4-0.9-6.4-5
				c0-1.8,1.6-3.2,4.2-3.2c2.5,0,4.1,1.3,4.3,3.5h-2.3c-0.1-1-0.8-1.6-2.1-1.6c-1.2,0-1.9,0.5-1.9,1.2c0,2.2,6.2,1,6.3,5
				C721.1,398.3,719.4,399.7,716.8,399.7z"/>
			<path class="st4" d="M423.5,414.4c2.9,0,5.2,2.2,5.2,5.6c0,3.4-2.3,5.7-5.2,5.7c-1.8,0-3.1-0.9-3.8-1.8v6.8h-2.3v-16.3h2.3v1.6
				C420.4,415.2,421.7,414.4,423.5,414.4z M423,416.3c-1.7,0-3.3,1.3-3.3,3.7c0,2.4,1.6,3.7,3.3,3.7c1.7,0,3.4-1.4,3.4-3.8
				C426.4,417.6,424.7,416.3,423,416.3z"/>
			<path class="st4" d="M435.7,425.7c-3.2,0-5.5-2.2-5.5-5.7s2.2-5.7,5.5-5.7c3.1,0,5.4,2.2,5.4,5.4c0,0.4,0,0.7-0.1,1.1h-8.4
				c0.2,1.8,1.5,2.9,3.1,2.9c1.4,0,2.2-0.7,2.6-1.5h2.5C440.1,424.2,438.4,425.7,435.7,425.7z M432.6,419.1h6.1
				c0-1.7-1.4-2.8-3.1-2.8C434,416.3,432.8,417.3,432.6,419.1z"/>
			<path class="st4" d="M445.6,425.6h-2.3v-11h2.3v1.6c0.6-1.1,1.7-1.8,3.3-1.8v2.4h-0.6c-1.7,0-2.7,0.7-2.7,3V425.6z"/>
			<path class="st4" d="M456.5,416.4h-1.3v-1.9h1.3v-2.7h2.3v2.7h2.7v1.9h-2.7v6.1c0,0.8,0.3,1.2,1.3,1.2h1.4v1.9h-1.8
				c-2,0-3.2-0.8-3.2-3.1V416.4z"/>
			<path class="st4" d="M463.6,410.8h2.3v5.1c0.8-0.9,2-1.5,3.4-1.5c2.5,0,4.4,1.6,4.4,4.7v6.5h-2.3v-6.2c0-2-1.1-3.1-2.8-3.1
				c-1.7,0-2.8,1-2.8,3.1v6.2h-2.3V410.8z"/>
			<path class="st4" d="M481.3,425.7c-3.2,0-5.5-2.2-5.5-5.7s2.2-5.7,5.5-5.7c3.1,0,5.4,2.2,5.4,5.4c0,0.4,0,0.7-0.1,1.1h-8.4
				c0.2,1.8,1.5,2.9,3.1,2.9c1.4,0,2.2-0.7,2.6-1.5h2.5C485.8,424.2,484,425.7,481.3,425.7z M478.2,419.1h6.1c0-1.7-1.4-2.8-3.1-2.8
				C479.7,416.3,478.4,417.3,478.2,419.1z"/>
			<path class="st4" d="M496.4,425.6h-2.3v-11h2.3v1.6c0.6-1.1,1.7-1.8,3.3-1.8v2.4h-0.6c-1.7,0-2.7,0.7-2.7,3V425.6z"/>
			<path class="st4" d="M506.5,425.7c-3.2,0-5.5-2.2-5.5-5.7s2.2-5.7,5.5-5.7c3.1,0,5.4,2.2,5.4,5.4c0,0.4,0,0.7-0.1,1.1h-8.4
				c0.2,1.8,1.5,2.9,3.1,2.9c1.4,0,2.2-0.7,2.6-1.5h2.5C511,424.2,509.2,425.7,506.5,425.7z M503.4,419.1h6.1c0-1.7-1.4-2.8-3.1-2.8
				C504.9,416.3,503.7,417.3,503.4,419.1z"/>
			<path class="st4" d="M518.6,414.4c1.8,0,3.2,0.9,3.8,1.8v-1.6h2.3v16.3h-2.3V424c-0.6,0.9-2,1.8-3.9,1.8c-2.8,0-5.1-2.3-5.1-5.7
				C513.4,416.6,515.7,414.4,518.6,414.4z M519.1,416.3c-1.7,0-3.3,1.3-3.3,3.7c0,2.4,1.6,3.8,3.3,3.8c1.7,0,3.3-1.3,3.3-3.7
				C522.4,417.7,520.8,416.3,519.1,416.3z"/>
			<path class="st4" d="M537.7,425.6h-2.3v-1.3c-0.7,0.9-2,1.5-3.3,1.5c-2.6,0-4.5-1.6-4.5-4.7v-6.5h2.3v6.1c0,2,1.1,3.1,2.8,3.1
				c1.7,0,2.8-1,2.8-3.1v-6.1h2.3V425.6z"/>
			<path class="st4" d="M540.4,411.6c0-0.8,0.6-1.5,1.5-1.5c0.8,0,1.4,0.6,1.4,1.5s-0.6,1.5-1.4,1.5
				C541,413.1,540.4,412.4,540.4,411.6z M540.7,414.5h2.3v11h-2.3V414.5z"/>
			<path class="st4" d="M548.2,425.6H546v-11h2.3v1.6c0.6-1.1,1.7-1.8,3.3-1.8v2.4H551c-1.7,0-2.7,0.7-2.7,3V425.6z"/>
			<path class="st4" d="M558.4,425.7c-3.2,0-5.5-2.2-5.5-5.7s2.2-5.7,5.5-5.7c3.1,0,5.4,2.2,5.4,5.4c0,0.4,0,0.7-0.1,1.1h-8.4
				c0.2,1.8,1.5,2.9,3.1,2.9c1.4,0,2.2-0.7,2.6-1.5h2.5C562.8,424.2,561.1,425.7,558.4,425.7z M555.3,419.1h6.1
				c0-1.7-1.4-2.8-3.1-2.8C556.7,416.3,555.5,417.3,555.3,419.1z"/>
			<path class="st4" d="M581.6,419.4c0-2-1.1-3.1-2.8-3.1c-1.7,0-2.8,1-2.8,3.1v6.2h-2.3v-6.2c0-2-1.1-3.1-2.8-3.1
				c-1.7,0-2.8,1-2.8,3.1v6.2H566v-11h2.3v1.3c0.7-0.9,1.9-1.4,3.3-1.4c1.7,0,3.2,0.7,4,2.2c0.7-1.3,2.2-2.2,3.8-2.2
				c2.6,0,4.5,1.6,4.5,4.7v6.5h-2.3V419.4z"/>
			<path class="st4" d="M591.5,425.7c-3.2,0-5.5-2.2-5.5-5.7s2.2-5.7,5.5-5.7c3.1,0,5.4,2.2,5.4,5.4c0,0.4,0,0.7-0.1,1.1h-8.4
				c0.2,1.8,1.5,2.9,3.1,2.9c1.4,0,2.2-0.7,2.6-1.5h2.5C595.9,424.2,594.2,425.7,591.5,425.7z M588.4,419.1h6.1
				c0-1.7-1.4-2.8-3.1-2.8C589.9,416.3,588.6,417.3,588.4,419.1z"/>
			<path class="st4" d="M606.9,419.4c0-2-1.1-3.1-2.8-3.1c-1.7,0-2.8,1-2.8,3.1v6.2h-2.3v-11h2.3v1.3c0.7-0.9,2-1.4,3.3-1.4
				c2.6,0,4.5,1.6,4.5,4.7v6.5h-2.3V419.4z"/>
			<path class="st4" d="M612.4,416.4h-1.3v-1.9h1.3v-2.7h2.3v2.7h2.7v1.9h-2.7v6.1c0,0.8,0.3,1.2,1.3,1.2h1.4v1.9h-1.8
				c-2,0-3.2-0.8-3.2-3.1V416.4z"/>
		</g>
	</g>
</g>
<g id="_x33_">
	<rect x="360" y="139.3" class="st0" width="180" height="140"/>
	<g>
		<rect x="540" y="139.3" class="st1" width="26" height="180"/>
		<rect x="540" y="139.3" class="st1" width="185.4" height="40"/>
	</g>
	<path class="st2" d="M443.7,240.2l-7.6-2.2c-0.8-0.2-1.3-1.1-1-1.9l17.1-58.8c0.2-0.8,1.1-1.3,1.9-1l7.6,2.2c0.8,0.2,1.3,1.1,1,1.9
		l-17.1,58.8C445.3,240,444.5,240.4,443.7,240.2z M429.5,226.2l5.4-5.8c0.6-0.6,0.5-1.6-0.1-2.2l-11.3-10l11.3-10
		c0.6-0.6,0.7-1.5,0.1-2.2l-5.4-5.8c-0.6-0.6-1.5-0.6-2.1-0.1l-18,16.9c-0.6,0.6-0.6,1.6,0,2.2l18,16.9
		C428,226.8,428.9,226.8,429.5,226.2L429.5,226.2z M470.4,226.3l18-16.9c0.6-0.6,0.6-1.6,0-2.2l-18-16.9c-0.6-0.6-1.5-0.5-2.1,0.1
		l-5.4,5.8c-0.6,0.6-0.5,1.6,0.1,2.2l11.3,10l-11.3,10c-0.6,0.6-0.7,1.5-0.1,2.2l5.4,5.8C468.8,226.8,469.8,226.8,470.4,226.3
		L470.4,226.3z"/>
	<g id="Strong">
		<g>
			<path class="st3" d="M604.8,230c-4.1,0-7.2-2.1-7.3-5.8h4.2c0.1,1.6,1.1,2.6,3,2.6c1.8,0,2.9-1,2.9-2.4c0-4.2-10.1-1.7-10.1-8.8
				c0-3.5,2.9-5.7,6.9-5.7c4,0,6.7,2,7,5.6h-4.3c-0.1-1.3-1.1-2.3-2.8-2.3c-1.5-0.1-2.7,0.7-2.7,2.3c0,3.9,10,1.7,10,8.6
				C611.7,227.2,609.2,230,604.8,230z"/>
			<path class="st3" d="M615.7,217.5h-1.8v-3.2h1.8v-3.8h3.9v3.8h3.5v3.2h-3.5v7.5c0,1,0.4,1.5,1.7,1.5h1.8v3.3h-2.5
				c-3,0-5-1.3-5-4.8V217.5z"/>
			<path class="st3" d="M629.9,229.8H626v-15.5h3.9v2.4c1-1.6,2.6-2.6,4.8-2.6v4.1h-1c-2.3,0-3.7,0.9-3.7,3.9V229.8z"/>
			<path class="st3" d="M644.2,230c-4.5,0-7.9-3.1-7.9-8c0-4.9,3.5-8,8-8s8,3.1,8,8C652.3,226.9,648.7,230,644.2,230z M644.2,226.6
				c2.1,0,4.1-1.5,4.1-4.6c0-3.1-1.9-4.6-4-4.6s-3.9,1.5-3.9,4.6C640.3,225.1,642.1,226.6,644.2,226.6z"/>
			<path class="st3" d="M666,221.2c0-2.5-1.4-3.8-3.4-3.8c-2.1,0-3.5,1.3-3.5,3.8v8.6h-3.9v-15.5h3.9v1.9c1-1.3,2.7-2.2,4.7-2.2
				c3.6,0,6.2,2.4,6.2,6.6v9.1H666V221.2z"/>
			<path class="st3" d="M679.7,214c2.4,0,4.2,1.1,5.1,2.5v-2.2h3.9v15.6c0,4.2-2.6,7.5-7.7,7.5c-4.4,0-7.4-2.2-7.8-5.7h3.9
				c0.4,1.4,1.8,2.3,3.8,2.3c2.2,0,3.8-1.2,3.8-4.1v-2.4c-0.9,1.3-2.7,2.5-5.1,2.5c-3.9,0-7.1-3.2-7.1-8.1
				C672.6,217.1,675.8,214,679.7,214z M680.7,217.4c-2.1,0-4.1,1.6-4.1,4.5c0,2.9,2,4.6,4.1,4.6c2.2,0,4.1-1.6,4.1-4.6
				C684.8,219.1,682.9,217.4,680.7,217.4z"/>
			<path class="st3" d="M708.3,210c4.3,0,7.9,2.3,9.2,6.3h-4.5c-0.9-1.9-2.6-2.8-4.7-2.8c-3.4,0-5.9,2.5-5.9,6.5
				c0,3.9,2.4,6.5,5.9,6.5c2.1,0,3.8-0.9,4.7-2.8h4.5c-1.3,4-4.8,6.3-9.2,6.3c-5.6,0-9.9-4.1-9.9-10
				C698.3,214.1,702.6,210,708.3,210z"/>
			<path class="st3" d="M727.7,230c-4.5,0-7.9-3.1-7.9-8c0-4.9,3.5-8,8-8s8,3.1,8,8C735.8,226.9,732.2,230,727.7,230z M727.7,226.6
				c2.1,0,4.1-1.5,4.1-4.6c0-3.1-1.9-4.6-4-4.6s-3.9,1.5-3.9,4.6C723.8,225.1,725.6,226.6,727.7,226.6z"/>
			<path class="st3" d="M744.8,214c2,0,4,1,5.1,2.4v-7.4h4v20.7h-4v-2.3c-0.9,1.4-2.7,2.5-5.1,2.5c-3.9,0-7.1-3.2-7.1-8.1
				C737.7,217.1,740.8,214,744.8,214z M745.7,217.4c-2.1,0-4.1,1.6-4.1,4.5c0,2.9,2,4.6,4.1,4.6c2.2,0,4.1-1.6,4.1-4.6
				C749.9,219.1,747.9,217.4,745.7,217.4z"/>
			<path class="st3" d="M757.2,210.1c0-1.3,1-2.3,2.4-2.3c1.4,0,2.4,1,2.4,2.3s-1,2.3-2.4,2.3C758.2,212.4,757.2,211.4,757.2,210.1z
				 M757.6,214.3h3.9v15.5h-3.9V214.3z"/>
			<path class="st3" d="M776.3,221.2c0-2.5-1.4-3.8-3.4-3.8c-2.1,0-3.5,1.3-3.5,3.8v8.6h-3.9v-15.5h3.9v1.9c1-1.3,2.7-2.2,4.7-2.2
				c3.6,0,6.2,2.4,6.2,6.6v9.1h-3.9V221.2z"/>
			<path class="st3" d="M790,214c2.4,0,4.2,1.1,5.1,2.5v-2.2h3.9v15.6c0,4.2-2.6,7.5-7.7,7.5c-4.4,0-7.4-2.2-7.8-5.7h3.9
				c0.4,1.4,1.8,2.3,3.8,2.3c2.2,0,3.8-1.2,3.8-4.1v-2.4c-0.9,1.3-2.7,2.5-5.1,2.5c-3.9,0-7.1-3.2-7.1-8.1
				C782.9,217.1,786.1,214,790,214z M791,217.4c-2.1,0-4.1,1.6-4.1,4.5c0,2.9,2,4.6,4.1,4.6c2.2,0,4.1-1.6,4.1-4.6
				C795.1,219.1,793.2,217.4,791,217.4z"/>
		</g>
		<g>
			<path class="st4" d="M596.5,245.5h2.4l2.9,11.3l3.1-11.3h2.6l2.9,11.3l2.9-11.3h2.4l-4.1,13.9H609l-2.9-10.5l-3.1,10.5l-2.6,0
				L596.5,245.5z"/>
			<path class="st4" d="M619.9,259.4h-2.3v-11h2.3v1.6c0.6-1.1,1.7-1.8,3.3-1.8v2.4h-0.6c-1.7,0-2.7,0.7-2.7,3V259.4z"/>
			<path class="st4" d="M625,245.5c0-0.8,0.6-1.5,1.5-1.5c0.8,0,1.4,0.6,1.4,1.5c0,0.8-0.6,1.5-1.4,1.5
				C625.6,246.9,625,246.3,625,245.5z M625.3,248.4h2.3v11h-2.3V248.4z"/>
			<path class="st4" d="M630.9,250.3h-1.3v-1.9h1.3v-2.7h2.3v2.7h2.7v1.9h-2.7v6.1c0,0.8,0.3,1.2,1.3,1.2h1.4v1.9h-1.8
				c-2,0-3.2-0.8-3.2-3.1V250.3z"/>
			<path class="st4" d="M637.7,245.5c0-0.8,0.6-1.5,1.5-1.5c0.8,0,1.4,0.6,1.4,1.5c0,0.8-0.6,1.5-1.4,1.5
				C638.3,246.9,637.7,246.3,637.7,245.5z M638,248.4h2.3v11H638V248.4z"/>
			<path class="st4" d="M651.1,253.3c0-2-1.1-3.1-2.8-3.1c-1.7,0-2.8,1-2.8,3.1v6.2h-2.3v-11h2.3v1.3c0.7-0.9,2-1.4,3.3-1.4
				c2.6,0,4.5,1.6,4.5,4.7v6.5h-2.3V253.3z"/>
			<path class="st4" d="M660.7,248.2c1.8,0,3.1,0.8,3.8,1.8v-1.6h2.3v11.2c0,3-1.9,5.3-5.4,5.3c-2.9,0-5.1-1.5-5.4-3.9h2.3
				c0.3,1.1,1.6,1.9,3.1,1.9c1.8,0,3.1-1.1,3.1-3.3v-1.8c-0.7,0.9-2,1.8-3.8,1.8c-2.9,0-5.2-2.3-5.2-5.7
				C655.5,250.5,657.8,248.2,660.7,248.2z M661.2,250.2c-1.7,0-3.3,1.3-3.3,3.7c0,2.4,1.6,3.8,3.3,3.8c1.7,0,3.3-1.3,3.3-3.7
				C664.5,251.5,662.9,250.2,661.2,250.2z"/>
			<path class="st4" d="M679.6,259.6c-2.8,0-4.9-1.5-4.9-4h2.4c0.1,1.1,0.9,2.1,2.5,2.1c1.6,0,2.5-0.9,2.5-2c0-3.4-7.4-1.2-7.4-6.3
				c0-2.4,1.9-4,4.8-4c2.7,0,4.5,1.4,4.7,3.8h-2.5c-0.1-0.9-0.9-1.8-2.3-1.8c-1.3,0-2.3,0.6-2.3,1.9c0,3.1,7.4,1.2,7.4,6.3
				C684.4,257.6,682.7,259.6,679.6,259.6z"/>
			<path class="st4" d="M687.5,250.3h-1.3v-1.9h1.3v-2.7h2.3v2.7h2.7v1.9h-2.7v6.1c0,0.8,0.3,1.2,1.3,1.2h1.4v1.9h-1.8
				c-2,0-3.2-0.8-3.2-3.1V250.3z"/>
			<path class="st4" d="M699,248.2c1.9,0,3.1,0.9,3.8,1.8v-1.6h2.3v11h-2.3v-1.6c-0.7,0.9-2,1.8-3.9,1.8c-2.9,0-5.2-2.3-5.2-5.7
				C693.8,250.5,696.1,248.2,699,248.2z M699.5,250.2c-1.7,0-3.3,1.3-3.3,3.7c0,2.4,1.6,3.8,3.3,3.8c1.7,0,3.3-1.3,3.3-3.7
				C702.8,251.5,701.2,250.2,699.5,250.2z"/>
			<path class="st4" d="M715.9,253.3c0-2-1.1-3.1-2.8-3.1c-1.7,0-2.8,1-2.8,3.1v6.2h-2.3v-11h2.3v1.3c0.7-0.9,2-1.4,3.3-1.4
				c2.6,0,4.5,1.6,4.5,4.7v6.5h-2.3V253.3z"/>
			<path class="st4" d="M725.5,248.2c1.4,0,3,0.7,3.8,1.7v-5.3h2.3v14.8h-2.3v-1.7c-0.7,1-2,1.8-3.8,1.8c-2.9,0-5.2-2.3-5.2-5.7
				C720.3,250.5,722.6,248.2,725.5,248.2z M726,250.2c-1.7,0-3.3,1.3-3.3,3.7c0,2.4,1.6,3.8,3.3,3.8c1.7,0,3.3-1.3,3.3-3.7
				C729.3,251.5,727.7,250.2,726,250.2z"/>
			<path class="st4" d="M739.1,248.2c1.9,0,3.1,0.9,3.8,1.8v-1.6h2.3v11h-2.3v-1.6c-0.7,0.9-2,1.8-3.9,1.8c-2.9,0-5.2-2.3-5.2-5.7
				C733.9,250.5,736.2,248.2,739.1,248.2z M739.6,250.2c-1.7,0-3.3,1.3-3.3,3.7c0,2.4,1.6,3.8,3.3,3.8c1.7,0,3.3-1.3,3.3-3.7
				C742.9,251.5,741.3,250.2,739.6,250.2z"/>
			<path class="st4" d="M750.5,259.4h-2.3v-11h2.3v1.6c0.6-1.1,1.7-1.8,3.3-1.8v2.4h-0.6c-1.7,0-2.7,0.7-2.7,3V259.4z"/>
			<path class="st4" d="M760.3,248.2c1.4,0,3,0.7,3.8,1.7v-5.3h2.3v14.8h-2.3v-1.7c-0.7,1-2,1.8-3.8,1.8c-2.9,0-5.2-2.3-5.2-5.7
				C755.1,250.5,757.4,248.2,760.3,248.2z M760.8,250.2c-1.7,0-3.3,1.3-3.3,3.7c0,2.4,1.6,3.8,3.3,3.8c1.7,0,3.3-1.3,3.3-3.7
				C764.1,251.5,762.5,250.2,760.8,250.2z"/>
			<path class="st4" d="M779.3,248.2c2.7,0,4.5,1.3,5.1,3.7h-2.5c-0.4-1.1-1.3-1.7-2.6-1.7c-1.8,0-3.1,1.4-3.1,3.8
				c0,2.4,1.2,3.8,3.1,3.8c1.4,0,2.2-0.6,2.6-1.7h2.5c-0.6,2.2-2.4,3.7-5.1,3.7c-3.2,0-5.4-2.2-5.4-5.7
				C773.9,250.5,776.1,248.2,779.3,248.2z"/>
			<path class="st4" d="M791.4,259.6c-3.1,0-5.5-2.2-5.5-5.7c0-3.5,2.5-5.7,5.6-5.7s5.6,2.2,5.6,5.7
				C797.1,257.4,794.6,259.6,791.4,259.6z M791.4,257.6c1.7,0,3.4-1.2,3.4-3.7c0-2.5-1.6-3.7-3.3-3.7c-1.7,0-3.3,1.2-3.3,3.7
				C788.2,256.4,789.7,257.6,791.4,257.6z"/>
			<path class="st4" d="M803.9,248.2c1.4,0,3,0.7,3.8,1.7v-5.3h2.3v14.8h-2.3v-1.7c-0.7,1-2,1.8-3.8,1.8c-2.9,0-5.2-2.3-5.2-5.7
				C798.6,250.5,800.9,248.2,803.9,248.2z M804.3,250.2c-1.7,0-3.3,1.3-3.3,3.7c0,2.4,1.6,3.8,3.3,3.8c1.7,0,3.3-1.3,3.3-3.7
				C807.7,251.5,806,250.2,804.3,250.2z"/>
			<path class="st4" d="M817.7,259.6c-3.2,0-5.5-2.2-5.5-5.7c0-3.5,2.2-5.7,5.5-5.7c3.1,0,5.4,2.2,5.4,5.4c0,0.4,0,0.7-0.1,1.1h-8.4
				c0.2,1.8,1.5,2.9,3.1,2.9c1.4,0,2.2-0.7,2.6-1.5h2.5C822.1,258.1,820.4,259.6,817.7,259.6z M814.6,252.9h6.1
				c0-1.7-1.4-2.8-3.1-2.8C816.1,250.1,814.8,251.2,814.6,252.9z"/>
			<path class="st4" d="M829.2,248.4h2.3l2.3,8.9l2.3-8.9h2.4l2.2,8.8l2.3-8.8h2.2l-3.4,11h-2.4l-2.2-8.1l-2.2,8.1h-2.4L829.2,248.4
				z"/>
			<path class="st4" d="M846.7,245.5c0-0.8,0.6-1.5,1.5-1.5c0.8,0,1.4,0.6,1.4,1.5c0,0.8-0.6,1.5-1.4,1.5
				C847.3,246.9,846.7,246.3,846.7,245.5z M847,248.4h2.3v11H847V248.4z"/>
			<path class="st4" d="M852.6,250.3h-1.3v-1.9h1.3v-2.7h2.3v2.7h2.7v1.9h-2.7v6.1c0,0.8,0.3,1.2,1.3,1.2h1.4v1.9h-1.8
				c-2,0-3.2-0.8-3.2-3.1V250.3z"/>
			<path class="st4" d="M859.7,244.6h2.3v5.1c0.8-0.9,2-1.5,3.4-1.5c2.5,0,4.4,1.6,4.4,4.7v6.5h-2.3v-6.2c0-2-1.1-3.1-2.8-3.1
				c-1.7,0-2.8,1-2.8,3.1v6.2h-2.3V244.6z"/>
			<path class="st4" d="M603.7,274.2c2.9,0,5.2,2.2,5.2,5.6c0,3.4-2.3,5.7-5.2,5.7c-1.8,0-3.1-0.9-3.8-1.8v6.8h-2.3v-16.3h2.3v1.6
				C600.6,275.1,601.9,274.2,603.7,274.2z M603.2,276.2c-1.7,0-3.3,1.3-3.3,3.7c0,2.4,1.6,3.7,3.3,3.7c1.7,0,3.4-1.4,3.4-3.8
				C606.6,277.5,605,276.2,603.2,276.2z"/>
			<path class="st4" d="M613.5,285.4h-2.3v-11h2.3v1.6c0.6-1.1,1.7-1.8,3.3-1.8v2.4h-0.6c-1.7,0-2.7,0.7-2.7,3V285.4z"/>
			<path class="st4" d="M623.6,285.6c-3.1,0-5.5-2.2-5.5-5.7c0-3.5,2.5-5.7,5.6-5.7s5.6,2.2,5.6,5.7
				C629.4,283.4,626.8,285.6,623.6,285.6z M623.6,283.6c1.7,0,3.4-1.2,3.4-3.7c0-2.5-1.6-3.7-3.3-3.7c-1.7,0-3.3,1.2-3.3,3.7
				C620.4,282.4,621.9,283.6,623.6,283.6z"/>
			<path class="st4" d="M637.7,274.2c2.9,0,5.2,2.2,5.2,5.6c0,3.4-2.3,5.7-5.2,5.7c-1.8,0-3.1-0.9-3.8-1.8v6.8h-2.3v-16.3h2.3v1.6
				C634.6,275.1,635.9,274.2,637.7,274.2z M637.2,276.2c-1.7,0-3.3,1.3-3.3,3.7c0,2.4,1.6,3.7,3.3,3.7c1.7,0,3.4-1.4,3.4-3.8
				C640.6,277.5,639,276.2,637.2,276.2z"/>
			<path class="st4" d="M649.9,285.6c-3.2,0-5.5-2.2-5.5-5.7c0-3.5,2.2-5.7,5.5-5.7c3.1,0,5.4,2.2,5.4,5.4c0,0.4,0,0.7-0.1,1.1h-8.4
				c0.2,1.8,1.5,2.9,3.1,2.9c1.4,0,2.2-0.7,2.6-1.5h2.5C654.4,284.1,652.6,285.6,649.9,285.6z M646.8,278.9h6.1
				c0-1.7-1.4-2.8-3.1-2.8C648.3,276.1,647,277.2,646.8,278.9z"/>
			<path class="st4" d="M659.8,285.4h-2.3v-11h2.3v1.6c0.6-1.1,1.7-1.8,3.3-1.8v2.4h-0.6c-1.7,0-2.7,0.7-2.7,3V285.4z"/>
			<path class="st4" d="M675,274.2c2.7,0,4.5,1.3,5.1,3.7h-2.5c-0.4-1.1-1.3-1.7-2.6-1.7c-1.8,0-3.1,1.4-3.1,3.8
				c0,2.4,1.2,3.8,3.1,3.8c1.4,0,2.2-0.6,2.6-1.7h2.5c-0.6,2.2-2.4,3.7-5.1,3.7c-3.2,0-5.4-2.2-5.4-5.7
				C669.6,276.5,671.9,274.2,675,274.2z"/>
			<path class="st4" d="M687.2,285.6c-3.1,0-5.5-2.2-5.5-5.7c0-3.5,2.5-5.7,5.6-5.7s5.6,2.2,5.6,5.7
				C692.9,283.4,690.3,285.6,687.2,285.6z M687.2,283.6c1.7,0,3.4-1.2,3.4-3.7c0-2.5-1.6-3.7-3.3-3.7c-1.7,0-3.3,1.2-3.3,3.7
				C684,282.4,685.5,283.6,687.2,283.6z"/>
			<path class="st4" d="M710.8,279.3c0-2-1.1-3.1-2.8-3.1c-1.7,0-2.8,1-2.8,3.1v6.2H703v-6.2c0-2-1.1-3.1-2.8-3.1
				c-1.7,0-2.8,1-2.8,3.1v6.2h-2.3v-11h2.3v1.3c0.7-0.9,1.9-1.4,3.3-1.4c1.7,0,3.2,0.7,4,2.2c0.7-1.3,2.2-2.2,3.8-2.2
				c2.6,0,4.5,1.6,4.5,4.7v6.5h-2.3V279.3z"/>
			<path class="st4" d="M731.6,279.3c0-2-1.1-3.1-2.8-3.1c-1.7,0-2.8,1-2.8,3.1v6.2h-2.3v-6.2c0-2-1.1-3.1-2.8-3.1
				c-1.7,0-2.8,1-2.8,3.1v6.2h-2.3v-11h2.3v1.3c0.7-0.9,1.9-1.4,3.3-1.4c1.7,0,3.2,0.7,4,2.2c0.7-1.3,2.2-2.2,3.8-2.2
				c2.6,0,4.5,1.6,4.5,4.7v6.5h-2.3V279.3z"/>
			<path class="st4" d="M741.5,285.6c-3.2,0-5.5-2.2-5.5-5.7c0-3.5,2.2-5.7,5.5-5.7c3.1,0,5.4,2.2,5.4,5.4c0,0.4,0,0.7-0.1,1.1h-8.4
				c0.2,1.8,1.5,2.9,3.1,2.9c1.4,0,2.2-0.7,2.6-1.5h2.5C745.9,284.1,744.2,285.6,741.5,285.6z M738.3,278.9h6.1
				c0-1.7-1.4-2.8-3.1-2.8C739.8,276.1,738.6,277.2,738.3,278.9z"/>
			<path class="st4" d="M756.9,279.3c0-2-1.1-3.1-2.8-3.1c-1.7,0-2.8,1-2.8,3.1v6.2h-2.3v-11h2.3v1.3c0.7-0.9,2-1.4,3.3-1.4
				c2.6,0,4.5,1.6,4.5,4.7v6.5h-2.3V279.3z"/>
			<path class="st4" d="M762.4,276.3h-1.3v-1.9h1.3v-2.7h2.3v2.7h2.7v1.9h-2.7v6.1c0,0.8,0.3,1.2,1.3,1.2h1.4v1.9h-1.8
				c-2,0-3.2-0.8-3.2-3.1V276.3z"/>
			<path class="st4" d="M769.2,271.5c0-0.8,0.6-1.5,1.5-1.5c0.8,0,1.4,0.6,1.4,1.5c0,0.8-0.6,1.5-1.4,1.5
				C769.8,272.9,769.2,272.3,769.2,271.5z M769.5,274.4h2.3v11h-2.3V274.4z"/>
			<path class="st4" d="M782.6,279.3c0-2-1.1-3.1-2.8-3.1c-1.7,0-2.8,1-2.8,3.1v6.2h-2.3v-11h2.3v1.3c0.7-0.9,2-1.4,3.3-1.4
				c2.6,0,4.5,1.6,4.5,4.7v6.5h-2.3V279.3z"/>
			<path class="st4" d="M792.2,274.2c1.8,0,3.1,0.8,3.8,1.8v-1.6h2.3v11.2c0,3-1.9,5.3-5.4,5.3c-2.9,0-5.1-1.5-5.4-3.9h2.3
				c0.3,1.1,1.6,1.9,3.1,1.9c1.8,0,3.1-1.1,3.1-3.3v-1.8c-0.7,0.9-2,1.8-3.8,1.8c-2.9,0-5.2-2.3-5.2-5.7
				C787,276.5,789.3,274.2,792.2,274.2z M792.7,276.2c-1.7,0-3.3,1.3-3.3,3.7c0,2.4,1.6,3.8,3.3,3.8c1.7,0,3.3-1.3,3.3-3.7
				C796,277.5,794.4,276.2,792.7,276.2z"/>
		</g>
	</g>
</g>
<g id="_x34_">
	<rect x="726.9" y="420.1" class="st0" width="180" height="180"/>
	<g>
		<rect x="906.9" y="420.1" class="st1" width="26" height="180"/>
		<rect x="906.9" y="420.1" class="st1" width="186.7" height="40"/>
	</g>
	<path class="st2" d="M802.7,483.1v11.1c0,1.8-1.5,3.3-3.3,3.3h-14c-1.8,0-3.3-1.5-3.3-3.3v-11.1c0-1.8,1.5-3.3,3.3-3.3h14
		C801.2,479.8,802.7,481.2,802.7,483.1L802.7,483.1z M827.8,516.3v-11.1c0-1.8-1.5-3.3-3.3-3.3h-14c-1.8,0-3.3,1.5-3.3,3.3v11.1
		c0,1.8,1.5,3.3,3.3,3.3h14C826.3,519.6,827.8,518.1,827.8,516.3z M832.2,483.1v11.1c0,1.8,1.5,3.3,3.3,3.3h14
		c1.8,0,3.3-1.5,3.3-3.3v-11.1c0-1.8-1.5-3.3-3.3-3.3h-14C833.7,479.8,832.2,481.2,832.2,483.1z M827.8,494.1v-11.1
		c0-1.8-1.5-3.3-3.3-3.3h-14c-1.8,0-3.3,1.5-3.3,3.3v11.1c0,1.8,1.5,3.3,3.3,3.3h14C826.3,497.5,827.8,496,827.8,494.1z
		 M799.4,501.9h-14c-1.8,0-3.3,1.5-3.3,3.3v11.1c0,1.8,1.5,3.3,3.3,3.3h14c1.8,0,3.3-1.5,3.3-3.3v-11.1
		C802.7,503.4,801.2,501.9,799.4,501.9L799.4,501.9z M782,527.4v11.1c0,1.8,1.5,3.3,3.3,3.3h14c1.8,0,3.3-1.5,3.3-3.3v-11.1
		c0-1.8-1.5-3.3-3.3-3.3h-14C783.5,524,782,525.5,782,527.4z M835.6,519.6h14c1.8,0,3.3-1.5,3.3-3.3v-11.1c0-1.8-1.5-3.3-3.3-3.3
		h-14c-1.8,0-3.3,1.5-3.3,3.3v11.1C832.2,518.1,833.7,519.6,835.6,519.6z M835.6,541.8h14c1.8,0,3.3-1.5,3.3-3.3v-11.1
		c0-1.8-1.5-3.3-3.3-3.3h-14c-1.8,0-3.3,1.5-3.3,3.3v11.1C832.2,540.3,833.7,541.8,835.6,541.8z M807.1,527.4v11.1
		c0,1.8,1.5,3.3,3.3,3.3h14c1.8,0,3.3-1.5,3.3-3.3v-11.1c0-1.8-1.5-3.3-3.3-3.3h-14C808.6,524,807.1,525.5,807.1,527.4z"/>
	<g id="High">
		<g>
			<path class="st3" d="M977,502.5h-8.4v8.3h-3.9v-19.5h3.9v8h8.4v-8h3.9v19.5H977V502.5z"/>
			<path class="st3" d="M984.3,491.2c0-1.3,1-2.3,2.4-2.3c1.4,0,2.4,1,2.4,2.3s-1,2.3-2.4,2.3C985.3,493.5,984.3,492.4,984.3,491.2z
				 M984.7,495.3h3.9v15.5h-3.9V495.3z"/>
			<path class="st3" d="M998.6,495.1c2.4,0,4.2,1.1,5.1,2.5v-2.2h3.9v15.6c0,4.2-2.6,7.5-7.7,7.5c-4.4,0-7.4-2.2-7.8-5.7h3.9
				c0.4,1.4,1.8,2.3,3.8,2.3c2.2,0,3.8-1.2,3.8-4.1v-2.4c-0.9,1.3-2.7,2.5-5.1,2.5c-3.9,0-7.1-3.2-7.1-8.1
				C991.5,498.2,994.6,495.1,998.6,495.1z M999.6,498.5c-2.1,0-4.1,1.6-4.1,4.5c0,2.9,2,4.6,4.1,4.6c2.2,0,4.1-1.6,4.1-4.6
				C1003.7,500.1,1001.8,498.5,999.6,498.5z"/>
			<path class="st3" d="M1011.5,490.1h3.9v7.1c1-1.3,2.7-2.2,4.8-2.2c3.5,0,6,2.4,6,6.6v9.1h-3.9v-8.6c0-2.5-1.4-3.8-3.4-3.8
				c-2.1,0-3.5,1.3-3.5,3.8v8.6h-3.9V490.1z"/>
			<path class="st3" d="M1048,494.4h-7.4v4.9h6.6v3.1h-6.6v5.2h7.4v3.2h-11.3v-19.6h11.3V494.4z"/>
			<path class="st3" d="M1052,498.5h-1.8v-3.2h1.8v-0.8c0-3.8,2.2-5.6,6.5-5.5v3.3c-1.9-0.1-2.5,0.6-2.5,2.3v0.6h2.7v3.2h-2.7v12.3
				h-4V498.5z"/>
			<path class="st3" d="M1061.7,498.5h-1.8v-3.2h1.8v-0.8c0-3.8,2.2-5.6,6.5-5.5v3.3c-1.9-0.1-2.5,0.6-2.5,2.3v0.6h2.7v3.2h-2.7
				v12.3h-4V498.5z"/>
			<path class="st3" d="M1070.5,491.2c0-1.3,1-2.3,2.4-2.3c1.4,0,2.4,1,2.4,2.3s-1,2.3-2.4,2.3
				C1071.5,493.5,1070.5,492.4,1070.5,491.2z M1070.9,495.3h3.9v15.5h-3.9V495.3z"/>
			<path class="st3" d="M1085.3,495.1c3.9,0,6.5,2,7.3,5.5h-4.2c-0.4-1.3-1.5-2.2-3.1-2.2c-2.2,0-3.6,1.7-3.6,4.7
				c0,3,1.5,4.6,3.6,4.6c1.6,0,2.6-0.7,3.1-2.1h4.2c-0.8,3.3-3.4,5.5-7.3,5.5c-4.5,0-7.7-3.1-7.7-8S1080.9,495.1,1085.3,495.1z"/>
			<path class="st3" d="M1095.1,491.2c0-1.3,1-2.3,2.4-2.3c1.4,0,2.4,1,2.4,2.3s-1,2.3-2.4,2.3
				C1096.1,493.5,1095.1,492.4,1095.1,491.2z M1095.5,495.3h3.9v15.5h-3.9V495.3z"/>
			<path class="st3" d="M1110.1,511.1c-4.5,0-7.8-3.1-7.8-8c0-4.9,3.2-8,7.8-8c4.5,0,7.6,3.1,7.6,7.7c0,0.5,0,1-0.1,1.5h-11.3
				c0.2,2.3,1.8,3.6,3.7,3.6c1.7,0,2.6-0.8,3.1-1.9h4.2C1116.5,508.8,1113.9,511.1,1110.1,511.1z M1106.3,501.6h7.4
				c-0.1-2-1.7-3.3-3.7-3.3C1108.1,498.3,1106.6,499.5,1106.3,501.6z"/>
			<path class="st3" d="M1131.5,502.2c0-2.5-1.4-3.8-3.4-3.8c-2.1,0-3.5,1.3-3.5,3.8v8.6h-3.9v-15.5h3.9v1.9c1-1.3,2.7-2.2,4.7-2.2
				c3.6,0,6.2,2.4,6.2,6.6v9.1h-3.9V502.2z"/>
			<path class="st3" d="M1145.8,495.1c3.9,0,6.5,2,7.3,5.5h-4.2c-0.4-1.3-1.5-2.2-3.1-2.2c-2.2,0-3.6,1.7-3.6,4.7
				c0,3,1.5,4.6,3.6,4.6c1.6,0,2.6-0.7,3.1-2.1h4.2c-0.8,3.3-3.4,5.5-7.3,5.5c-4.5,0-7.7-3.1-7.7-8S1141.3,495.1,1145.8,495.1z"/>
			<path class="st3" d="M1166.6,495.3h4.2l-9.6,22.8h-4.2l3.4-7.7l-6.2-15.1h4.4l4,10.8L1166.6,495.3z"/>
		</g>
		<g>
			<path class="st4" d="M972.6,537.6h-5.8l-1,2.8h-2.4l5-13.9h2.6l5,13.9h-2.4L972.6,537.6z M969.7,529.3l-2.3,6.5h4.5L969.7,529.3z
				"/>
			<path class="st4" d="M984.3,529.3c2.9,0,5.2,2.2,5.2,5.6c0,3.4-2.3,5.7-5.2,5.7c-1.8,0-3.1-0.9-3.8-1.8v6.8h-2.3v-16.3h2.3v1.6
				C981.2,530.1,982.5,529.3,984.3,529.3z M983.8,531.2c-1.7,0-3.3,1.3-3.3,3.7c0,2.4,1.6,3.7,3.3,3.7c1.7,0,3.4-1.4,3.4-3.8
				C987.2,532.5,985.5,531.2,983.8,531.2z"/>
			<path class="st4" d="M997.9,529.3c2.9,0,5.2,2.2,5.2,5.6c0,3.4-2.3,5.7-5.2,5.7c-1.8,0-3.1-0.9-3.8-1.8v6.8h-2.3v-16.3h2.3v1.6
				C994.7,530.1,996.1,529.3,997.9,529.3z M997.4,531.2c-1.7,0-3.3,1.3-3.3,3.7c0,2.4,1.6,3.7,3.3,3.7c1.7,0,3.4-1.4,3.4-3.8
				C1000.7,532.5,999.1,531.2,997.4,531.2z"/>
			<path class="st4" d="M1007.6,540.5h-2.3v-11h2.3v1.6c0.6-1.1,1.7-1.8,3.3-1.8v2.4h-0.6c-1.7,0-2.7,0.7-2.7,3V540.5z"/>
			<path class="st4" d="M1017.8,540.6c-3.1,0-5.5-2.2-5.5-5.7c0-3.5,2.5-5.7,5.6-5.7s5.6,2.2,5.6,5.7
				C1023.5,538.4,1020.9,540.6,1017.8,540.6z M1017.8,538.7c1.7,0,3.4-1.2,3.4-3.7c0-2.5-1.6-3.7-3.3-3.7c-1.7,0-3.3,1.2-3.3,3.7
				C1014.5,537.4,1016,538.7,1017.8,538.7z"/>
			<path class="st4" d="M1030.2,529.3c1.9,0,3.1,0.9,3.8,1.8v-1.6h2.3v11h-2.3v-1.6c-0.7,0.9-2,1.8-3.9,1.8c-2.9,0-5.2-2.3-5.2-5.7
				C1025,531.5,1027.3,529.3,1030.2,529.3z M1030.6,531.2c-1.7,0-3.3,1.3-3.3,3.7c0,2.4,1.6,3.8,3.3,3.8c1.7,0,3.3-1.3,3.3-3.7
				C1034,532.6,1032.4,531.2,1030.6,531.2z"/>
			<path class="st4" d="M1043.9,529.3c2.7,0,4.5,1.3,5.1,3.7h-2.5c-0.4-1.1-1.3-1.7-2.6-1.7c-1.8,0-3.1,1.4-3.1,3.8
				c0,2.4,1.2,3.8,3.1,3.8c1.4,0,2.2-0.6,2.6-1.7h2.5c-0.6,2.2-2.4,3.7-5.1,3.7c-3.2,0-5.4-2.2-5.4-5.7
				C1038.5,531.5,1040.8,529.3,1043.9,529.3z"/>
			<path class="st4" d="M1051.3,525.7h2.3v5.1c0.8-0.9,2-1.5,3.4-1.5c2.5,0,4.4,1.6,4.4,4.7v6.5h-2.3v-6.2c0-2-1.1-3.1-2.8-3.1
				c-1.7,0-2.8,1-2.8,3.1v6.2h-2.3V525.7z"/>
			<path class="st4" d="M1069.7,532.3h8.2v1.9h-8.2V532.3z"/>
			<path class="st4" d="M1085.5,524.5h2.1l-0.2,4.1h-1.6L1085.5,524.5z M1088.6,524.5h2.1l-0.2,4.1h-1.6L1088.6,524.5z"/>
			<path class="st4" d="M1091.7,526.6h2.4l2.9,11.3l3.1-11.3h2.6l2.9,11.3l2.9-11.3h2.4l-4.1,13.9h-2.6l-2.9-10.5l-3.1,10.5l-2.6,0
				L1091.7,526.6z"/>
			<path class="st4" d="M1112.8,525.7h2.3v5.1c0.8-0.9,2-1.5,3.4-1.5c2.5,0,4.4,1.6,4.4,4.7v6.5h-2.3v-6.2c0-2-1.1-3.1-2.8-3.1
				c-1.7,0-2.8,1-2.8,3.1v6.2h-2.3V525.7z"/>
			<path class="st4" d="M1130.2,529.3c1.9,0,3.1,0.9,3.8,1.8v-1.6h2.3v11h-2.3v-1.6c-0.7,0.9-2,1.8-3.9,1.8c-2.9,0-5.2-2.3-5.2-5.7
				C1125,531.5,1127.3,529.3,1130.2,529.3z M1130.7,531.2c-1.7,0-3.3,1.3-3.3,3.7c0,2.4,1.6,3.8,3.3,3.8c1.7,0,3.3-1.3,3.3-3.7
				C1134,532.6,1132.4,531.2,1130.7,531.2z"/>
			<path class="st4" d="M1139.7,531.3h-1.3v-1.9h1.3v-2.7h2.3v2.7h2.7v1.9h-2.7v6.1c0,0.8,0.3,1.2,1.3,1.2h1.4v1.9h-1.8
				c-2,0-3.2-0.8-3.2-3.1V531.3z"/>
			<path class="st4" d="M1156.6,529.3c2.7,0,4.5,1.3,5.1,3.7h-2.5c-0.4-1.1-1.3-1.7-2.6-1.7c-1.8,0-3.1,1.4-3.1,3.8
				c0,2.4,1.2,3.8,3.1,3.8c1.4,0,2.2-0.6,2.6-1.7h2.5c-0.6,2.2-2.4,3.7-5.1,3.7c-3.2,0-5.4-2.2-5.4-5.7
				C1151.2,531.5,1153.5,529.3,1156.6,529.3z"/>
			<path class="st4" d="M1168.4,529.3c1.9,0,3.1,0.9,3.8,1.8v-1.6h2.3v11h-2.3v-1.6c-0.7,0.9-2,1.8-3.9,1.8c-2.9,0-5.2-2.3-5.2-5.7
				C1163.2,531.5,1165.5,529.3,1168.4,529.3z M1168.9,531.2c-1.7,0-3.3,1.3-3.3,3.7c0,2.4,1.6,3.8,3.3,3.8c1.7,0,3.3-1.3,3.3-3.7
				C1172.2,532.6,1170.6,531.2,1168.9,531.2z"/>
			<path class="st4" d="M1185.4,534.3c0-2-1.1-3.1-2.8-3.1c-1.7,0-2.8,1-2.8,3.1v6.2h-2.3v-11h2.3v1.3c0.7-0.9,2-1.4,3.3-1.4
				c2.6,0,4.5,1.6,4.5,4.7v6.5h-2.3V534.3z"/>
			<path class="st4" d="M1194.4,529.4h2.3l2.3,8.9l2.3-8.9h2.4l2.2,8.8l2.3-8.8h2.2l-3.4,11h-2.4l-2.2-8.1l-2.2,8.1h-2.4
				L1194.4,529.4z"/>
			<path class="st4" d="M1217,540.6c-3.2,0-5.5-2.2-5.5-5.7c0-3.5,2.2-5.7,5.5-5.7c3.1,0,5.4,2.2,5.4,5.4c0,0.4,0,0.7-0.1,1.1h-8.4
				c0.2,1.8,1.5,2.9,3.1,2.9c1.4,0,2.2-0.7,2.6-1.5h2.5C1221.4,539.1,1219.7,540.6,1217,540.6z M1213.8,534h6.1
				c0-1.7-1.4-2.8-3.1-2.8C1215.3,531.2,1214.1,532.2,1213.8,534z"/>
			<path class="st4" d="M1234.2,529.3c1.4,0,3,0.7,3.8,1.7v-5.3h2.3v14.8h-2.3v-1.7c-0.7,1-2,1.8-3.8,1.8c-2.9,0-5.2-2.3-5.2-5.7
				C1229,531.5,1231.3,529.3,1234.2,529.3z M1234.7,531.2c-1.7,0-3.3,1.3-3.3,3.7c0,2.4,1.6,3.8,3.3,3.8c1.7,0,3.3-1.3,3.3-3.7
				C1238,532.6,1236.4,531.2,1234.7,531.2z"/>
			<path class="st4" d="M1248.1,540.6c-3.1,0-5.5-2.2-5.5-5.7c0-3.5,2.5-5.7,5.6-5.7s5.6,2.2,5.6,5.7
				C1253.8,538.4,1251.3,540.6,1248.1,540.6z M1248.1,538.7c1.7,0,3.4-1.2,3.4-3.7c0-2.5-1.6-3.7-3.3-3.7c-1.7,0-3.3,1.2-3.3,3.7
				C1244.9,537.4,1246.4,538.7,1248.1,538.7z"/>
			<path class="st4" d="M1267.4,529.3c2.9,0,5.2,2.2,5.2,5.6c0,3.4-2.3,5.7-5.2,5.7c-1.8,0-3.1-0.8-3.8-1.8v1.6h-2.3v-14.8h2.3v5.4
				C1264.3,530.1,1265.7,529.3,1267.4,529.3z M1266.9,531.2c-1.7,0-3.3,1.3-3.3,3.7c0,2.4,1.6,3.7,3.3,3.7c1.7,0,3.4-1.4,3.4-3.8
				C1270.3,532.5,1268.6,531.2,1266.9,531.2z"/>
			<path class="st4" d="M1279.6,540.6c-3.2,0-5.5-2.2-5.5-5.7c0-3.5,2.2-5.7,5.5-5.7c3.1,0,5.4,2.2,5.4,5.4c0,0.4,0,0.7-0.1,1.1
				h-8.4c0.2,1.8,1.5,2.9,3.1,2.9c1.4,0,2.2-0.7,2.6-1.5h2.5C1284,539.1,1282.3,540.6,1279.6,540.6z M1276.5,534h6.1
				c0-1.7-1.4-2.8-3.1-2.8C1277.9,531.2,1276.7,532.2,1276.5,534z"/>
			<path class="st4" d="M1287.5,531.3h-1.3v-1.9h1.3v-2.7h2.3v2.7h2.7v1.9h-2.7v6.1c0,0.8,0.3,1.2,1.3,1.2h1.4v1.9h-1.8
				c-2,0-3.2-0.8-3.2-3.1V531.3z"/>
			<path class="st4" d="M1295,531.3h-1.3v-1.9h1.3v-2.7h2.3v2.7h2.7v1.9h-2.7v6.1c0,0.8,0.3,1.2,1.3,1.2h1.4v1.9h-1.8
				c-2,0-3.2-0.8-3.2-3.1V531.3z"/>
			<path class="st4" d="M1306.8,540.6c-3.2,0-5.5-2.2-5.5-5.7c0-3.5,2.2-5.7,5.5-5.7c3.1,0,5.4,2.2,5.4,5.4c0,0.4,0,0.7-0.1,1.1
				h-8.4c0.2,1.8,1.5,2.9,3.1,2.9c1.4,0,2.2-0.7,2.6-1.5h2.5C1311.2,539.1,1309.5,540.6,1306.8,540.6z M1303.7,534h6.1
				c0-1.7-1.4-2.8-3.1-2.8C1305.2,531.2,1303.9,532.2,1303.7,534z"/>
			<path class="st4" d="M1316.7,540.5h-2.3v-11h2.3v1.6c0.6-1.1,1.7-1.8,3.3-1.8v2.4h-0.6c-1.7,0-2.7,0.7-2.7,3V540.5z"/>
			<path class="st4" d="M968.7,555.3c1.9,0,3.1,0.9,3.8,1.8v-1.6h2.3v11h-2.3v-1.6c-0.7,0.9-2,1.8-3.9,1.8c-2.9,0-5.2-2.3-5.2-5.7
				C963.5,557.5,965.8,555.3,968.7,555.3z M969.2,557.2c-1.7,0-3.3,1.3-3.3,3.7c0,2.4,1.6,3.8,3.3,3.8c1.7,0,3.3-1.3,3.3-3.7
				C972.5,558.6,970.9,557.2,969.2,557.2z"/>
			<path class="st4" d="M985.6,560.3c0-2-1.1-3.1-2.8-3.1c-1.7,0-2.8,1-2.8,3.1v6.2h-2.3v-11h2.3v1.3c0.7-0.9,2-1.4,3.3-1.4
				c2.6,0,4.5,1.6,4.5,4.7v6.5h-2.3V560.3z"/>
			<path class="st4" d="M995.2,555.3c1.4,0,3,0.7,3.8,1.7v-5.3h2.3v14.8H999v-1.7c-0.7,1-2,1.8-3.8,1.8c-2.9,0-5.2-2.3-5.2-5.7
				C990,557.5,992.3,555.3,995.2,555.3z M995.7,557.2c-1.7,0-3.3,1.3-3.3,3.7c0,2.4,1.6,3.8,3.3,3.8c1.7,0,3.3-1.3,3.3-3.7
				C999,558.6,997.4,557.2,995.7,557.2z"/>
			<path class="st4" d="M1014,555.3c1.4,0,3,0.7,3.8,1.7v-5.3h2.3v14.8h-2.3v-1.7c-0.7,1-2,1.8-3.8,1.8c-2.9,0-5.2-2.3-5.2-5.7
				C1008.8,557.5,1011.1,555.3,1014,555.3z M1014.5,557.2c-1.7,0-3.3,1.3-3.3,3.7c0,2.4,1.6,3.8,3.3,3.8c1.7,0,3.3-1.3,3.3-3.7
				C1017.8,558.6,1016.2,557.2,1014.5,557.2z"/>
			<path class="st4" d="M1022.8,552.5c0-0.8,0.6-1.5,1.5-1.5c0.8,0,1.4,0.6,1.4,1.5c0,0.8-0.6,1.5-1.4,1.5
				C1023.4,554,1022.8,553.3,1022.8,552.5z M1023.1,555.4h2.3v11h-2.3V555.4z"/>
			<path class="st4" d="M1028.6,557.3h-1.3v-1.9h1.3v-0.8c0-2.5,1.3-3.6,4.2-3.6v1.9c-1.4,0-1.9,0.5-1.9,1.7v0.8h2v1.9h-2v9.2h-2.3
				V557.3z"/>
			<path class="st4" d="M1035.3,557.3h-1.3v-1.9h1.3v-0.8c0-2.5,1.3-3.6,4.2-3.6v1.9c-1.4,0-1.9,0.5-1.9,1.7v0.8h2v1.9h-2v9.2h-2.3
				V557.3z"/>
			<path class="st4" d="M1046.4,566.6c-3.2,0-5.5-2.2-5.5-5.7c0-3.5,2.2-5.7,5.5-5.7c3.1,0,5.4,2.2,5.4,5.4c0,0.4,0,0.7-0.1,1.1
				h-8.4c0.2,1.8,1.5,2.9,3.1,2.9c1.4,0,2.2-0.7,2.6-1.5h2.5C1050.8,565.1,1049.1,566.6,1046.4,566.6z M1043.3,560h6.1
				c0-1.7-1.4-2.8-3.1-2.8C1044.7,557.2,1043.5,558.2,1043.3,560z"/>
			<path class="st4" d="M1056.3,566.5h-2.3v-11h2.3v1.6c0.6-1.1,1.7-1.8,3.3-1.8v2.4h-0.6c-1.7,0-2.7,0.7-2.7,3V566.5z"/>
			<path class="st4" d="M1066.4,566.6c-3.2,0-5.5-2.2-5.5-5.7c0-3.5,2.2-5.7,5.5-5.7c3.1,0,5.4,2.2,5.4,5.4c0,0.4,0,0.7-0.1,1.1
				h-8.4c0.2,1.8,1.5,2.9,3.1,2.9c1.4,0,2.2-0.7,2.6-1.5h2.5C1070.8,565.1,1069.1,566.6,1066.4,566.6z M1063.3,560h6.1
				c0-1.7-1.4-2.8-3.1-2.8C1064.8,557.2,1063.5,558.2,1063.3,560z"/>
			<path class="st4" d="M1081.8,560.3c0-2-1.1-3.1-2.8-3.1c-1.7,0-2.8,1-2.8,3.1v6.2h-2.3v-11h2.3v1.3c0.7-0.9,2-1.4,3.3-1.4
				c2.6,0,4.5,1.6,4.5,4.7v6.5h-2.3V560.3z"/>
			<path class="st4" d="M1087.3,557.3h-1.3v-1.9h1.3v-2.7h2.3v2.7h2.7v1.9h-2.7v6.1c0,0.8,0.3,1.2,1.3,1.2h1.4v1.9h-1.8
				c-2,0-3.2-0.8-3.2-3.1V557.3z"/>
			<path class="st4" d="M1093.6,550.5h2.1l-0.2,4.1h-1.6L1093.6,550.5z M1096.6,550.5h2.1l-0.2,4.1h-1.6L1096.6,550.5z"/>
		</g>
	</g>
</g>
<g id="_x35_">
	<rect x="906.9" y="280.1" class="st0" width="180" height="140"/>
	<g>
		<rect x="1086.9" y="280.1" class="st1" width="26" height="180"/>
		<rect x="1086.9" y="280" class="st1" width="190.2" height="40"/>
	</g>
	<path class="st2" d="M995.9,336c-1.5,0-2.9,0.3-4.3,0.7c0.7,1.1,1,2.4,1,3.8c0,4.3-3.5,7.8-7.8,7.8c-1.3,0-2.6-0.4-3.8-1
		c-2.4,8.2,2.4,16.8,10.6,19.2c8.2,2.4,16.8-2.4,19.2-10.6c2.4-8.2-2.4-16.8-10.6-19.2C998.8,336.2,997.4,336,995.9,336z
		 M1035.4,349.6c-7.5-14.7-22.4-24.6-39.5-24.6s-32,10-39.5,24.6c-0.6,1.3-0.6,2.8,0,4c7.5,14.7,22.4,24.6,39.5,24.6
		s32-10,39.5-24.6C1036.1,352.4,1036.1,350.8,1035.4,349.6z M995.9,371.6c-13.7,0-26.3-7.6-33-20c6.8-12.4,19.3-20,33-20
		s26.3,7.6,33,20C1022.2,364,1009.6,371.6,995.9,371.6z"/>
	<g id="Mobile">
		<g>
			<path class="st3" d="M1144.7,351.1h4.5l6.2,14.5l6.2-14.5h4.4v19.5h-3.9V358l-5.2,12.7h-3l-5.3-12.7v12.7h-3.9V351.1z"/>
			<path class="st3" d="M1176.7,370.9c-4.5,0-7.9-3.1-7.9-8c0-4.9,3.5-8,8-8c4.5,0,8,3.1,8,8
				C1184.8,367.8,1181.2,370.9,1176.7,370.9z M1176.7,367.5c2.1,0,4.1-1.5,4.1-4.6c0-3.1-1.9-4.6-4-4.6c-2.1,0-3.9,1.5-3.9,4.6
				C1172.8,366,1174.6,367.5,1176.7,367.5z"/>
			<path class="st3" d="M1196.7,354.9c4,0,7.1,3.1,7.1,8c0,4.8-3.1,8.1-7.1,8.1c-2.4,0-4.2-1.1-5.1-2.5v2.2h-3.9V350h3.9v7.5
				C1192.6,356,1194.4,354.9,1196.7,354.9z M1195.7,358.4c-2.1,0-4.1,1.6-4.1,4.6c0,2.9,2,4.6,4.1,4.6c2.1,0,4.1-1.7,4.1-4.6
				C1199.8,359.9,1197.8,358.4,1195.7,358.4z"/>
			<path class="st3" d="M1206.3,351c0-1.3,1-2.3,2.4-2.3c1.4,0,2.4,1,2.4,2.3s-1,2.3-2.4,2.3C1207.3,353.3,1206.3,352.3,1206.3,351z
				 M1206.7,355.2h3.9v15.5h-3.9V355.2z"/>
			<path class="st3" d="M1214.5,350h3.9v20.7h-3.9V350z"/>
			<path class="st3" d="M1229,370.9c-4.5,0-7.8-3.1-7.8-8c0-4.9,3.2-8,7.8-8c4.5,0,7.6,3.1,7.6,7.7c0,0.5,0,1-0.1,1.5h-11.3
				c0.2,2.3,1.8,3.6,3.7,3.6c1.7,0,2.6-0.8,3.1-1.9h4.2C1235.4,368.7,1232.9,370.9,1229,370.9z M1225.2,361.5h7.4
				c-0.1-2-1.7-3.3-3.7-3.3C1227,358.1,1225.6,359.3,1225.2,361.5z"/>
			<path class="st3" d="M1246.2,351.1h12.1v3.2h-8.1v5h6.2v3.1h-6.2v8.3h-3.9V351.1z"/>
			<path class="st3" d="M1264.9,370.7h-3.9v-15.5h3.9v2.4c1-1.6,2.6-2.6,4.8-2.6v4.1h-1c-2.3,0-3.7,0.9-3.7,3.9V370.7z"/>
			<path class="st3" d="M1271.9,351c0-1.3,1-2.3,2.4-2.3c1.4,0,2.4,1,2.4,2.3s-1,2.3-2.4,2.3C1272.9,353.3,1271.9,352.3,1271.9,351z
				 M1272.3,355.2h3.9v15.5h-3.9V355.2z"/>
			<path class="st3" d="M1286.9,370.9c-4.5,0-7.8-3.1-7.8-8c0-4.9,3.2-8,7.8-8c4.5,0,7.6,3.1,7.6,7.7c0,0.5,0,1-0.1,1.5h-11.3
				c0.2,2.3,1.8,3.6,3.7,3.6c1.7,0,2.6-0.8,3.1-1.9h4.2C1293.3,368.7,1290.7,370.9,1286.9,370.9z M1283.1,361.5h7.4
				c-0.1-2-1.7-3.3-3.7-3.3C1284.9,358.1,1283.4,359.3,1283.1,361.5z"/>
			<path class="st3" d="M1308.3,362.1c0-2.5-1.4-3.8-3.4-3.8c-2.1,0-3.5,1.3-3.5,3.8v8.6h-3.9v-15.5h3.9v1.9c1-1.3,2.7-2.2,4.7-2.2
				c3.6,0,6.2,2.4,6.2,6.6v9.1h-3.9V362.1z"/>
			<path class="st3" d="M1322,354.9c2,0,4,1,5.1,2.4V350h4v20.7h-4v-2.3c-0.9,1.4-2.7,2.5-5.1,2.5c-3.9,0-7.1-3.2-7.1-8.1
				C1314.9,358,1318,354.9,1322,354.9z M1323,358.4c-2.1,0-4.1,1.6-4.1,4.5c0,2.9,2,4.6,4.1,4.6c2.2,0,4.1-1.6,4.1-4.6
				C1327.1,360,1325.1,358.4,1323,358.4z"/>
			<path class="st3" d="M1334.9,350h3.9v20.7h-3.9V350z"/>
			<path class="st3" d="M1353.3,355.2h4.2l-9.6,22.8h-4.2l3.4-7.7l-6.2-15.1h4.4l4,10.8L1353.3,355.2z"/>
		</g>
		<g>
			<path class="st4" d="M1151.9,388.3h-5.4v4.1h4.8v1.9h-4.8v4.3h5.4v1.9h-7.7v-13.9h7.7V388.3z"/>
			<path class="st4" d="M1159.2,389.1c1.9,0,3.1,0.9,3.8,1.8v-1.6h2.3v11h-2.3v-1.6c-0.7,0.9-2,1.8-3.9,1.8c-2.9,0-5.2-2.3-5.2-5.7
				C1153.9,391.4,1156.2,389.1,1159.2,389.1z M1159.6,391.1c-1.7,0-3.3,1.3-3.3,3.7c0,2.4,1.6,3.8,3.3,3.8c1.7,0,3.3-1.3,3.3-3.7
				C1163,392.5,1161.4,391.1,1159.6,391.1z"/>
			<path class="st4" d="M1172.3,400.5c-2.6,0-4.5-1.6-4.6-3.6h2.4c0.1,0.9,0.9,1.6,2.2,1.6c1.3,0,2-0.6,2-1.3c0-2.2-6.4-0.9-6.4-5
				c0-1.8,1.6-3.2,4.2-3.2c2.5,0,4.1,1.3,4.3,3.5h-2.3c-0.1-1-0.8-1.6-2.1-1.6c-1.2,0-1.9,0.5-1.9,1.2c0,2.2,6.2,1,6.3,5
				C1176.5,399.1,1174.9,400.5,1172.3,400.5z"/>
			<path class="st4" d="M1178.6,386.4c0-0.8,0.6-1.5,1.5-1.5c0.8,0,1.4,0.6,1.4,1.5c0,0.8-0.6,1.5-1.4,1.5
				C1179.3,387.8,1178.6,387.2,1178.6,386.4z M1178.9,389.3h2.3v11h-2.3V389.3z"/>
			<path class="st4" d="M1184.2,385.5h2.3v14.8h-2.3V385.5z"/>
			<path class="st4" d="M1197.1,389.3h2.4l-6.8,16.2h-2.4l2.2-5.4l-4.3-10.8h2.5l3.1,8.4L1197.1,389.3z"/>
			<path class="st4" d="M1207.5,389.3l3.1,9l3.1-9h2.4l-4.2,11h-2.7l-4.2-11H1207.5z"/>
			<path class="st4" d="M1217.6,386.4c0-0.8,0.6-1.5,1.5-1.5c0.8,0,1.4,0.6,1.4,1.5c0,0.8-0.6,1.5-1.4,1.5
				C1218.2,387.8,1217.6,387.2,1217.6,386.4z M1217.9,389.3h2.3v11h-2.3V389.3z"/>
			<path class="st4" d="M1227.9,400.5c-3.2,0-5.5-2.2-5.5-5.7c0-3.5,2.2-5.7,5.5-5.7c3.1,0,5.4,2.2,5.4,5.4c0,0.4,0,0.7-0.1,1.1
				h-8.4c0.2,1.8,1.5,2.9,3.1,2.9c1.4,0,2.2-0.7,2.6-1.5h2.5C1232.3,399,1230.6,400.5,1227.9,400.5z M1224.8,393.8h6.1
				c0-1.7-1.4-2.8-3.1-2.8C1226.2,391,1225,392.1,1224.8,393.8z"/>
			<path class="st4" d="M1234.2,389.3h2.3l2.3,8.9l2.3-8.9h2.4l2.2,8.8l2.3-8.8h2.2l-3.4,11h-2.4l-2.2-8.1l-2.2,8.1h-2.4
				L1234.2,389.3z"/>
			<path class="st4" d="M1256.4,389.1c1.9,0,3.1,0.9,3.8,1.8v-1.6h2.3v11h-2.3v-1.6c-0.7,0.9-2,1.8-3.9,1.8c-2.9,0-5.2-2.3-5.2-5.7
				C1251.2,391.4,1253.5,389.1,1256.4,389.1z M1256.9,391.1c-1.7,0-3.3,1.3-3.3,3.7c0,2.4,1.6,3.8,3.3,3.8c1.7,0,3.3-1.3,3.3-3.7
				C1260.3,392.5,1258.6,391.1,1256.9,391.1z"/>
			<path class="st4" d="M1271.7,389.1c2.9,0,5.2,2.2,5.2,5.6c0,3.4-2.3,5.7-5.2,5.7c-1.8,0-3.1-0.8-3.8-1.8v1.6h-2.3v-14.8h2.3v5.4
				C1268.5,390,1269.9,389.1,1271.7,389.1z M1271.2,391.1c-1.7,0-3.3,1.3-3.3,3.7c0,2.4,1.6,3.7,3.3,3.7c1.7,0,3.4-1.4,3.4-3.8
				C1274.5,392.4,1272.9,391.1,1271.2,391.1z"/>
			<path class="st4" d="M1279.1,385.5h2.3v14.8h-2.3V385.5z"/>
			<path class="st4" d="M1289.1,400.5c-3.2,0-5.5-2.2-5.5-5.7c0-3.5,2.2-5.7,5.5-5.7c3.1,0,5.4,2.2,5.4,5.4c0,0.4,0,0.7-0.1,1.1
				h-8.4c0.2,1.8,1.5,2.9,3.1,2.9c1.4,0,2.2-0.7,2.6-1.5h2.5C1293.6,399,1291.8,400.5,1289.1,400.5z M1286,393.8h6.1
				c0-1.7-1.4-2.8-3.1-2.8C1287.5,391,1286.2,392.1,1286,393.8z"/>
			<path class="st4" d="M1301.6,386.4c0-0.8,0.6-1.5,1.5-1.5c0.8,0,1.4,0.6,1.4,1.5c0,0.8-0.6,1.5-1.4,1.5
				C1302.3,387.8,1301.6,387.2,1301.6,386.4z M1301.9,389.3h2.3v11h-2.3V389.3z"/>
			<path class="st4" d="M1315,394.2c0-2-1.1-3.1-2.8-3.1c-1.7,0-2.8,1-2.8,3.1v6.2h-2.3v-11h2.3v1.3c0.7-0.9,2-1.4,3.3-1.4
				c2.6,0,4.5,1.6,4.5,4.7v6.5h-2.3V394.2z"/>
			<path class="st4" d="M1320.5,391.2h-1.3v-1.9h1.3v-2.7h2.3v2.7h2.7v1.9h-2.7v6.1c0,0.8,0.3,1.2,1.3,1.2h1.4v1.9h-1.8
				c-2,0-3.2-0.8-3.2-3.1V391.2z"/>
			<path class="st4" d="M1332.4,400.5c-3.2,0-5.5-2.2-5.5-5.7c0-3.5,2.2-5.7,5.5-5.7c3.1,0,5.4,2.2,5.4,5.4c0,0.4,0,0.7-0.1,1.1
				h-8.4c0.2,1.8,1.5,2.9,3.1,2.9c1.4,0,2.2-0.7,2.6-1.5h2.5C1336.8,399,1335.1,400.5,1332.4,400.5z M1329.2,393.8h6.1
				c0-1.7-1.4-2.8-3.1-2.8C1330.7,391,1329.5,392.1,1329.2,393.8z"/>
			<path class="st4" d="M1342.2,400.3h-2.3v-11h2.3v1.6c0.6-1.1,1.7-1.8,3.3-1.8v2.4h-0.6c-1.7,0-2.7,0.7-2.7,3V400.3z"/>
			<path class="st4" d="M1347.9,391.2h-1.3v-1.9h1.3v-0.8c0-2.5,1.3-3.6,4.2-3.6v1.9c-1.4,0-1.9,0.5-1.9,1.7v0.8h2v1.9h-2v9.2h-2.3
				V391.2z"/>
			<path class="st4" d="M1358.7,389.1c1.9,0,3.1,0.9,3.8,1.8v-1.6h2.3v11h-2.3v-1.6c-0.7,0.9-2,1.8-3.9,1.8c-2.9,0-5.2-2.3-5.2-5.7
				C1353.5,391.4,1355.8,389.1,1358.7,389.1z M1359.2,391.1c-1.7,0-3.3,1.3-3.3,3.7c0,2.4,1.6,3.8,3.3,3.8c1.7,0,3.3-1.3,3.3-3.7
				C1362.5,392.5,1360.9,391.1,1359.2,391.1z"/>
			<path class="st4" d="M1372.5,389.1c2.7,0,4.5,1.3,5.1,3.7h-2.5c-0.4-1.1-1.3-1.7-2.6-1.7c-1.8,0-3.1,1.4-3.1,3.8
				c0,2.4,1.2,3.8,3.1,3.8c1.4,0,2.2-0.6,2.6-1.7h2.5c-0.6,2.2-2.4,3.7-5.1,3.7c-3.2,0-5.4-2.2-5.4-5.7
				C1367.1,391.4,1369.3,389.1,1372.5,389.1z"/>
			<path class="st4" d="M1384.6,400.5c-3.2,0-5.5-2.2-5.5-5.7c0-3.5,2.2-5.7,5.5-5.7c3.1,0,5.4,2.2,5.4,5.4c0,0.4,0,0.7-0.1,1.1
				h-8.4c0.2,1.8,1.5,2.9,3.1,2.9c1.4,0,2.2-0.7,2.6-1.5h2.5C1389,399,1387.3,400.5,1384.6,400.5z M1381.5,393.8h6.1
				c0-1.7-1.4-2.8-3.1-2.8C1382.9,391,1381.7,392.1,1381.5,393.8z"/>
			<path class="st4" d="M1401.8,389.1c1.9,0,3.1,0.9,3.8,1.8v-1.6h2.3v11h-2.3v-1.6c-0.7,0.9-2,1.8-3.9,1.8c-2.9,0-5.2-2.3-5.2-5.7
				C1396.6,391.4,1398.9,389.1,1401.8,389.1z M1402.3,391.1c-1.7,0-3.3,1.3-3.3,3.7c0,2.4,1.6,3.8,3.3,3.8c1.7,0,3.3-1.3,3.3-3.7
				C1405.6,392.5,1404,391.1,1402.3,391.1z"/>
			<path class="st4" d="M1415.6,389.1c2.7,0,4.5,1.3,5.1,3.7h-2.5c-0.4-1.1-1.3-1.7-2.6-1.7c-1.8,0-3.1,1.4-3.1,3.8
				c0,2.4,1.2,3.8,3.1,3.8c1.4,0,2.2-0.6,2.6-1.7h2.5c-0.6,2.2-2.4,3.7-5.1,3.7c-3.2,0-5.4-2.2-5.4-5.7
				C1410.2,391.4,1412.4,389.1,1415.6,389.1z"/>
			<path class="st4" d="M1425.2,400.3h-2.3v-11h2.3v1.6c0.6-1.1,1.7-1.8,3.3-1.8v2.4h-0.6c-1.7,0-2.7,0.7-2.7,3V400.3z"/>
			<path class="st4" d="M1435.4,400.5c-3.1,0-5.5-2.2-5.5-5.7c0-3.5,2.5-5.7,5.6-5.7s5.6,2.2,5.6,5.7
				C1441.1,398.3,1438.6,400.5,1435.4,400.5z M1435.4,398.5c1.7,0,3.4-1.2,3.4-3.7c0-2.5-1.6-3.7-3.3-3.7c-1.7,0-3.3,1.2-3.3,3.7
				C1432.2,397.3,1433.7,398.5,1435.4,398.5z"/>
			<path class="st4" d="M1447.4,400.5c-2.6,0-4.5-1.6-4.6-3.6h2.4c0.1,0.9,0.9,1.6,2.2,1.6c1.3,0,2-0.6,2-1.3c0-2.2-6.4-0.9-6.4-5
				c0-1.8,1.6-3.2,4.2-3.2c2.5,0,4.1,1.3,4.3,3.5h-2.3c-0.1-1-0.8-1.6-2.1-1.6c-1.2,0-1.9,0.5-1.9,1.2c0,2.2,6.2,1,6.3,5
				C1451.6,399.1,1450,400.5,1447.4,400.5z"/>
			<path class="st4" d="M1458.1,400.5c-2.6,0-4.5-1.6-4.6-3.6h2.4c0.1,0.9,0.9,1.6,2.2,1.6c1.3,0,2-0.6,2-1.3c0-2.2-6.4-0.9-6.4-5
				c0-1.8,1.6-3.2,4.2-3.2c2.5,0,4.1,1.3,4.3,3.5h-2.3c-0.1-1-0.8-1.6-2.1-1.6c-1.2,0-1.9,0.5-1.9,1.2c0,2.2,6.2,1,6.3,5
				C1462.3,399.1,1460.7,400.5,1458.1,400.5z"/>
			<path class="st4" d="M1148.7,415.1c1.9,0,3.1,0.9,3.8,1.8v-1.6h2.3v11h-2.3v-1.6c-0.7,0.9-2,1.8-3.9,1.8c-2.9,0-5.2-2.3-5.2-5.7
				C1143.5,417.4,1145.8,415.1,1148.7,415.1z M1149.2,417.1c-1.7,0-3.3,1.3-3.3,3.7c0,2.4,1.6,3.8,3.3,3.8c1.7,0,3.3-1.3,3.3-3.7
				C1152.5,418.5,1150.9,417.1,1149.2,417.1z"/>
			<path class="st4" d="M1165.6,420.2c0-2-1.1-3.1-2.8-3.1c-1.7,0-2.8,1-2.8,3.1v6.2h-2.3v-11h2.3v1.3c0.7-0.9,2-1.4,3.3-1.4
				c2.6,0,4.5,1.6,4.5,4.7v6.5h-2.3V420.2z"/>
			<path class="st4" d="M1178.3,415.3h2.4l-6.8,16.2h-2.4l2.2-5.4l-4.3-10.8h2.5l3.1,8.4L1178.3,415.3z"/>
			<path class="st4" d="M1192.1,415.1c1.4,0,3,0.7,3.8,1.7v-5.3h2.3v14.8h-2.3v-1.7c-0.7,1-2,1.8-3.8,1.8c-2.9,0-5.2-2.3-5.2-5.7
				C1186.8,417.4,1189.1,415.1,1192.1,415.1z M1192.5,417.1c-1.7,0-3.3,1.3-3.3,3.7c0,2.4,1.6,3.8,3.3,3.8c1.7,0,3.3-1.3,3.3-3.7
				C1195.9,418.5,1194.3,417.1,1192.5,417.1z"/>
			<path class="st4" d="M1205.9,426.5c-3.2,0-5.5-2.2-5.5-5.7c0-3.5,2.2-5.7,5.5-5.7c3.1,0,5.4,2.2,5.4,5.4c0,0.4,0,0.7-0.1,1.1
				h-8.4c0.2,1.8,1.5,2.9,3.1,2.9c1.4,0,2.2-0.7,2.6-1.5h2.5C1210.4,425,1208.6,426.5,1205.9,426.5z M1202.8,419.8h6.1
				c0-1.7-1.4-2.8-3.1-2.8C1204.3,417,1203,418.1,1202.8,419.8z"/>
			<path class="st4" d="M1214.6,415.3l3.1,9l3.1-9h2.4l-4.2,11h-2.7l-4.2-11H1214.6z"/>
			<path class="st4" d="M1224.7,412.4c0-0.8,0.6-1.5,1.5-1.5c0.8,0,1.4,0.6,1.4,1.5c0,0.8-0.6,1.5-1.4,1.5
				C1225.4,413.8,1224.7,413.2,1224.7,412.4z M1225,415.3h2.3v11h-2.3V415.3z"/>
			<path class="st4" d="M1234.9,415.1c2.7,0,4.5,1.3,5.1,3.7h-2.5c-0.4-1.1-1.3-1.7-2.6-1.7c-1.8,0-3.1,1.4-3.1,3.8
				c0,2.4,1.2,3.8,3.1,3.8c1.4,0,2.2-0.6,2.6-1.7h2.5c-0.6,2.2-2.4,3.7-5.1,3.7c-3.2,0-5.4-2.2-5.4-5.7
				C1229.5,417.4,1231.8,415.1,1234.9,415.1z"/>
			<path class="st4" d="M1247,426.5c-3.2,0-5.5-2.2-5.5-5.7c0-3.5,2.2-5.7,5.5-5.7c3.1,0,5.4,2.2,5.4,5.4c0,0.4,0,0.7-0.1,1.1h-8.4
				c0.2,1.8,1.5,2.9,3.1,2.9c1.4,0,2.2-0.7,2.6-1.5h2.5C1251.5,425,1249.7,426.5,1247,426.5z M1243.9,419.8h6.1
				c0-1.7-1.4-2.8-3.1-2.8C1245.4,417,1244.2,418.1,1243.9,419.8z"/>
		</g>
	</g>
</g>
<g id="_x36_">
	<rect x="1086.9" y="140" class="st0" width="180" height="140"/>
	<g>
		<rect x="1266.9" y="140" class="st1" width="26" height="180"/>
		<rect x="1266.9" y="140" class="st1" width="184.3" height="40"/>
	</g>
	<path class="st2" d="M1210.2,197.3l-6.4,6.4c-0.6,0.6-1.7,0.6-2.4,0l-15.4-15.4c-0.6-0.6-0.6-1.7,0-2.4l6.4-6.4
		c2.6-2.6,6.8-2.6,9.4,0l8.3,8.3C1212.8,190.5,1212.8,194.7,1210.2,197.3z M1180.6,191.4l-36.4,36.4l-2.9,16.9
		c-0.4,2.3,1.6,4.2,3.9,3.9l16.9-3l36.4-36.4c0.6-0.6,0.6-1.7,0-2.4l-15.4-15.4C1182.3,190.8,1181.2,190.8,1180.6,191.4
		L1180.6,191.4z M1158.4,224.7c-0.8-0.8-0.8-2,0-2.7l21.4-21.4c0.8-0.8,2-0.8,2.7,0c0.8,0.8,0.8,2,0,2.7l-21.4,21.4
		C1160.4,225.5,1159.1,225.5,1158.4,224.7L1158.4,224.7z M1153.4,236.4h6.7v5l-8.9,1.6l-4.3-4.3l1.6-8.9h5V236.4z"/>
	<g id="Flexibility">
		<g>
			<path class="st3" d="M1324.7,211.1h12.1v3.2h-8.1v5h6.2v3.1h-6.2v8.3h-3.9V211.1z"/>
			<path class="st3" d="M1339.5,209.9h3.9v20.7h-3.9V209.9z"/>
			<path class="st3" d="M1354.1,230.9c-4.5,0-7.8-3.1-7.8-8c0-4.9,3.2-8,7.8-8c4.5,0,7.6,3.1,7.6,7.7c0,0.5,0,1-0.1,1.5h-11.3
				c0.2,2.3,1.8,3.6,3.7,3.6c1.7,0,2.6-0.8,3.1-1.9h4.2C1360.5,228.6,1357.9,230.9,1354.1,230.9z M1350.3,221.5h7.4
				c-0.1-2-1.7-3.3-3.7-3.3C1352.1,218.1,1350.6,219.3,1350.3,221.5z"/>
			<path class="st3" d="M1369.9,225.8l-2.8,4.8h-4.2l5.1-7.8l-5.1-7.7h4.4l3.2,4.8l2.9-4.8h4.2l-5.1,7.7l5.2,7.8h-4.4L1369.9,225.8z
				"/>
			<path class="st3" d="M1379.3,211c0-1.3,1-2.3,2.4-2.3c1.4,0,2.4,1,2.4,2.3s-1,2.3-2.4,2.3C1380.3,213.3,1379.3,212.3,1379.3,211z
				 M1379.7,215.2h3.9v15.5h-3.9V215.2z"/>
			<path class="st3" d="M1396.5,214.9c4,0,7.1,3.1,7.1,8c0,4.8-3.1,8.1-7.1,8.1c-2.4,0-4.2-1.1-5.1-2.5v2.2h-3.9v-20.7h3.9v7.5
				C1392.3,216,1394.2,214.9,1396.5,214.9z M1395.5,218.3c-2.1,0-4.1,1.6-4.1,4.6c0,2.9,2,4.6,4.1,4.6c2.1,0,4.1-1.7,4.1-4.6
				C1399.6,219.9,1397.6,218.3,1395.5,218.3z"/>
			<path class="st3" d="M1406,211c0-1.3,1-2.3,2.4-2.3c1.4,0,2.4,1,2.4,2.3s-1,2.3-2.4,2.3C1407,213.3,1406,212.3,1406,211z
				 M1406.4,215.2h3.9v15.5h-3.9V215.2z"/>
			<path class="st3" d="M1414.2,209.9h3.9v20.7h-3.9V209.9z"/>
			<path class="st3" d="M1421.6,211c0-1.3,1-2.3,2.4-2.3c1.4,0,2.4,1,2.4,2.3s-1,2.3-2.4,2.3C1422.6,213.3,1421.6,212.3,1421.6,211z
				 M1422,215.2h3.9v15.5h-3.9V215.2z"/>
			<path class="st3" d="M1430.4,218.4h-1.8v-3.2h1.8v-3.8h3.9v3.8h3.5v3.2h-3.5v7.5c0,1,0.4,1.5,1.7,1.5h1.8v3.3h-2.5
				c-3,0-5-1.3-5-4.8V218.4z"/>
			<path class="st3" d="M1451.3,215.2h4.2l-9.6,22.8h-4.2l3.4-7.7l-6.2-15.1h4.4l4,10.8L1451.3,215.2z"/>
		</g>
		<g>
			<path class="st4" d="M1324.2,246.4h8.2v1.9h-5.9v4.1h4.6v1.9h-4.6v6.1h-2.3V246.4z"/>
			<path class="st4" d="M1334.5,245.5h2.3v14.8h-2.3V245.5z"/>
			<path class="st4" d="M1344.6,260.5c-3.2,0-5.5-2.2-5.5-5.7c0-3.5,2.2-5.7,5.5-5.7c3.1,0,5.4,2.2,5.4,5.4c0,0.4,0,0.7-0.1,1.1
				h-8.4c0.2,1.8,1.5,2.9,3.1,2.9c1.4,0,2.2-0.7,2.6-1.5h2.5C1349,259,1347.3,260.5,1344.6,260.5z M1341.4,253.8h6.1
				c0-1.7-1.4-2.8-3.1-2.8C1342.9,251,1341.7,252.1,1341.4,253.8z"/>
			<path class="st4" d="M1355.5,256.6l-2.2,3.7h-2.4l3.6-5.4l-3.6-5.6h2.6l2.4,3.7l2.2-3.7h2.4l-3.6,5.4l3.6,5.6h-2.6L1355.5,256.6z
				"/>
			<path class="st4" d="M1361.8,246.4c0-0.8,0.6-1.5,1.5-1.5c0.8,0,1.4,0.6,1.4,1.5c0,0.8-0.6,1.5-1.4,1.5
				C1362.5,247.8,1361.8,247.2,1361.8,246.4z M1362.1,249.3h2.3v11h-2.3V249.3z"/>
			<path class="st4" d="M1373.5,249.1c2.9,0,5.2,2.2,5.2,5.6c0,3.4-2.3,5.7-5.2,5.7c-1.8,0-3.1-0.8-3.8-1.8v1.6h-2.3v-14.8h2.3v5.4
				C1370.4,249.9,1371.8,249.1,1373.5,249.1z M1373,251.1c-1.7,0-3.3,1.3-3.3,3.7c0,2.4,1.6,3.7,3.3,3.7c1.7,0,3.4-1.4,3.4-3.8
				C1376.4,252.4,1374.8,251.1,1373,251.1z"/>
			<path class="st4" d="M1381,245.5h2.3v14.8h-2.3V245.5z"/>
			<path class="st4" d="M1391,260.5c-3.2,0-5.5-2.2-5.5-5.7c0-3.5,2.2-5.7,5.5-5.7c3.1,0,5.4,2.2,5.4,5.4c0,0.4,0,0.7-0.1,1.1h-8.4
				c0.2,1.8,1.5,2.9,3.1,2.9c1.4,0,2.2-0.7,2.6-1.5h2.5C1395.4,259,1393.7,260.5,1391,260.5z M1387.9,253.8h6.1
				c0-1.7-1.4-2.8-3.1-2.8C1389.3,251,1388.1,252.1,1387.9,253.8z"/>
			<path class="st4" d="M1408.2,249.1c1.9,0,3.1,0.9,3.8,1.8v-1.6h2.3v11h-2.3v-1.6c-0.7,0.9-2,1.8-3.9,1.8c-2.9,0-5.2-2.3-5.2-5.7
				C1403,251.4,1405.3,249.1,1408.2,249.1z M1408.7,251.1c-1.7,0-3.3,1.3-3.3,3.7c0,2.4,1.6,3.8,3.3,3.8c1.7,0,3.3-1.3,3.3-3.7
				C1412.1,252.4,1410.4,251.1,1408.7,251.1z"/>
			<path class="st4" d="M1423.5,249.1c2.9,0,5.2,2.2,5.2,5.6c0,3.4-2.3,5.7-5.2,5.7c-1.8,0-3.1-0.9-3.8-1.8v6.8h-2.3v-16.3h2.3v1.6
				C1420.3,250,1421.7,249.1,1423.5,249.1z M1423,251.1c-1.7,0-3.3,1.3-3.3,3.7c0,2.4,1.6,3.7,3.3,3.7c1.7,0,3.4-1.4,3.4-3.8
				C1426.3,252.4,1424.7,251.1,1423,251.1z"/>
			<path class="st4" d="M1437,249.1c2.9,0,5.2,2.2,5.2,5.6c0,3.4-2.3,5.7-5.2,5.7c-1.8,0-3.1-0.9-3.8-1.8v6.8h-2.3v-16.3h2.3v1.6
				C1433.9,250,1435.2,249.1,1437,249.1z M1436.5,251.1c-1.7,0-3.3,1.3-3.3,3.7c0,2.4,1.6,3.7,3.3,3.7c1.7,0,3.4-1.4,3.4-3.8
				C1439.9,252.4,1438.3,251.1,1436.5,251.1z"/>
			<path class="st4" d="M1446.7,260.3h-2.3v-11h2.3v1.6c0.6-1.1,1.7-1.8,3.3-1.8v2.4h-0.6c-1.7,0-2.7,0.7-2.7,3V260.3z"/>
			<path class="st4" d="M1456.9,260.5c-3.1,0-5.5-2.2-5.5-5.7c0-3.5,2.5-5.7,5.6-5.7s5.6,2.2,5.6,5.7
				C1462.6,258.3,1460.1,260.5,1456.9,260.5z M1456.9,258.5c1.7,0,3.4-1.2,3.4-3.7c0-2.5-1.6-3.7-3.3-3.7c-1.7,0-3.3,1.2-3.3,3.7
				C1453.7,257.3,1455.2,258.5,1456.9,258.5z"/>
			<path class="st4" d="M1469.3,249.1c1.9,0,3.1,0.9,3.8,1.8v-1.6h2.3v11h-2.3v-1.6c-0.7,0.9-2,1.8-3.9,1.8c-2.9,0-5.2-2.3-5.2-5.7
				C1464.1,251.4,1466.4,249.1,1469.3,249.1z M1469.8,251.1c-1.7,0-3.3,1.3-3.3,3.7c0,2.4,1.6,3.8,3.3,3.8c1.7,0,3.3-1.3,3.3-3.7
				C1473.2,252.4,1471.5,251.1,1469.8,251.1z"/>
			<path class="st4" d="M1483.1,249.1c2.7,0,4.5,1.3,5.1,3.7h-2.5c-0.4-1.1-1.3-1.7-2.6-1.7c-1.8,0-3.1,1.4-3.1,3.8
				c0,2.4,1.2,3.8,3.1,3.8c1.4,0,2.2-0.6,2.6-1.7h2.5c-0.6,2.2-2.4,3.7-5.1,3.7c-3.2,0-5.4-2.2-5.4-5.7
				C1477.7,251.4,1479.9,249.1,1483.1,249.1z"/>
			<path class="st4" d="M1490.5,245.5h2.3v5.1c0.8-0.9,2-1.5,3.4-1.5c2.5,0,4.4,1.6,4.4,4.7v6.5h-2.3v-6.2c0-2-1.1-3.1-2.8-3.1
				c-1.7,0-2.8,1-2.8,3.1v6.2h-2.3V245.5z"/>
			<path class="st4" d="M1509,251.2h-1.3v-1.9h1.3v-2.7h2.3v2.7h2.7v1.9h-2.7v6.1c0,0.8,0.3,1.2,1.3,1.2h1.4v1.9h-1.8
				c-2,0-3.2-0.8-3.2-3.1V251.2z"/>
			<path class="st4" d="M1520.9,260.5c-3.1,0-5.5-2.2-5.5-5.7c0-3.5,2.5-5.7,5.6-5.7s5.6,2.2,5.6,5.7
				C1526.6,258.3,1524,260.5,1520.9,260.5z M1520.9,258.5c1.7,0,3.4-1.2,3.4-3.7c0-2.5-1.6-3.7-3.3-3.7c-1.7,0-3.3,1.2-3.3,3.7
				C1517.7,257.3,1519.1,258.5,1520.9,258.5z"/>
			<path class="st4" d="M1538.5,249.1c1.9,0,3.1,0.9,3.8,1.8v-1.6h2.3v11h-2.3v-1.6c-0.7,0.9-2,1.8-3.9,1.8c-2.9,0-5.2-2.3-5.2-5.7
				C1533.3,251.4,1535.6,249.1,1538.5,249.1z M1539,251.1c-1.7,0-3.3,1.3-3.3,3.7c0,2.4,1.6,3.8,3.3,3.8c1.7,0,3.3-1.3,3.3-3.7
				C1542.3,252.4,1540.7,251.1,1539,251.1z"/>
			<path class="st4" d="M1552.2,249.1c2.7,0,4.5,1.3,5.1,3.7h-2.5c-0.4-1.1-1.3-1.7-2.6-1.7c-1.8,0-3.1,1.4-3.1,3.8
				c0,2.4,1.2,3.8,3.1,3.8c1.4,0,2.2-0.6,2.6-1.7h2.5c-0.6,2.2-2.4,3.7-5.1,3.7c-3.2,0-5.4-2.2-5.4-5.7
				C1546.8,251.4,1549.1,249.1,1552.2,249.1z"/>
			<path class="st4" d="M1559.6,245.5h2.3v5.1c0.8-0.9,2-1.5,3.4-1.5c2.5,0,4.4,1.6,4.4,4.7v6.5h-2.3v-6.2c0-2-1.1-3.1-2.8-3.1
				c-1.7,0-2.8,1-2.8,3.1v6.2h-2.3V245.5z"/>
			<path class="st4" d="M1572.3,246.4c0-0.8,0.6-1.5,1.5-1.5c0.8,0,1.4,0.6,1.4,1.5c0,0.8-0.6,1.5-1.4,1.5
				C1572.9,247.8,1572.3,247.2,1572.3,246.4z M1572.6,249.3h2.3v11h-2.3V249.3z"/>
			<path class="st4" d="M1582.6,260.5c-3.2,0-5.5-2.2-5.5-5.7c0-3.5,2.2-5.7,5.5-5.7c3.1,0,5.4,2.2,5.4,5.4c0,0.4,0,0.7-0.1,1.1
				h-8.4c0.2,1.8,1.5,2.9,3.1,2.9c1.4,0,2.2-0.7,2.6-1.5h2.5C1587,259,1585.3,260.5,1582.6,260.5z M1579.5,253.8h6.1
				c0-1.7-1.4-2.8-3.1-2.8C1581,251,1579.7,252.1,1579.5,253.8z"/>
			<path class="st4" d="M1591.3,249.3l3.1,9l3.1-9h2.4l-4.2,11h-2.7l-4.2-11H1591.3z"/>
			<path class="st4" d="M1606.5,260.5c-3.2,0-5.5-2.2-5.5-5.7c0-3.5,2.2-5.7,5.5-5.7c3.1,0,5.4,2.2,5.4,5.4c0,0.4,0,0.7-0.1,1.1
				h-8.4c0.2,1.8,1.5,2.9,3.1,2.9c1.4,0,2.2-0.7,2.6-1.5h2.5C1610.9,259,1609.2,260.5,1606.5,260.5z M1603.3,253.8h6.1
				c0-1.7-1.4-2.8-3.1-2.8C1604.8,251,1603.6,252.1,1603.3,253.8z"/>
			<path class="st4" d="M1328.9,275.1c2.7,0,4.5,1.3,5.1,3.7h-2.5c-0.4-1.1-1.3-1.7-2.6-1.7c-1.8,0-3.1,1.4-3.1,3.8
				c0,2.4,1.2,3.8,3.1,3.8c1.4,0,2.2-0.6,2.6-1.7h2.5c-0.6,2.2-2.4,3.7-5.1,3.7c-3.2,0-5.4-2.2-5.4-5.7
				C1323.5,277.4,1325.7,275.1,1328.9,275.1z"/>
			<path class="st4" d="M1346.2,286.3h-2.3V285c-0.7,0.9-2,1.5-3.3,1.5c-2.6,0-4.5-1.6-4.5-4.7v-6.5h2.3v6.1c0,2,1.1,3.1,2.8,3.1
				c1.7,0,2.8-1,2.8-3.1v-6.1h2.3V286.3z"/>
			<path class="st4" d="M1353.2,286.5c-2.6,0-4.5-1.6-4.6-3.6h2.4c0.1,0.9,0.9,1.6,2.2,1.6c1.3,0,2-0.6,2-1.3c0-2.2-6.4-0.9-6.4-5
				c0-1.8,1.6-3.2,4.2-3.2c2.5,0,4.1,1.3,4.3,3.5h-2.3c-0.1-1-0.8-1.6-2.1-1.6c-1.2,0-1.9,0.5-1.9,1.2c0,2.2,6.2,1,6.3,5
				C1357.4,285.1,1355.8,286.5,1353.2,286.5z"/>
			<path class="st4" d="M1360.2,277.2h-1.3v-1.9h1.3v-2.7h2.3v2.7h2.7v1.9h-2.7v6.1c0,0.8,0.3,1.2,1.3,1.2h1.4v1.9h-1.8
				c-2,0-3.2-0.8-3.2-3.1V277.2z"/>
			<path class="st4" d="M1372.1,286.5c-3.1,0-5.5-2.2-5.5-5.7c0-3.5,2.5-5.7,5.6-5.7s5.6,2.2,5.6,5.7
				C1377.8,284.3,1375.3,286.5,1372.1,286.5z M1372.1,284.5c1.7,0,3.4-1.2,3.4-3.7c0-2.5-1.6-3.7-3.3-3.7c-1.7,0-3.3,1.2-3.3,3.7
				C1368.9,283.3,1370.4,284.5,1372.1,284.5z"/>
			<path class="st4" d="M1395.7,280.2c0-2-1.1-3.1-2.8-3.1c-1.7,0-2.8,1-2.8,3.1v6.2h-2.3v-6.2c0-2-1.1-3.1-2.8-3.1
				c-1.7,0-2.8,1-2.8,3.1v6.2h-2.3v-11h2.3v1.3c0.7-0.9,1.9-1.4,3.3-1.4c1.7,0,3.2,0.7,4,2.2c0.7-1.3,2.2-2.2,3.8-2.2
				c2.6,0,4.5,1.6,4.5,4.7v6.5h-2.3V280.2z"/>
			<path class="st4" d="M1405.6,286.5c-3.2,0-5.5-2.2-5.5-5.7c0-3.5,2.2-5.7,5.5-5.7c3.1,0,5.4,2.2,5.4,5.4c0,0.4,0,0.7-0.1,1.1
				h-8.4c0.2,1.8,1.5,2.9,3.1,2.9c1.4,0,2.2-0.7,2.6-1.5h2.5C1410.1,285,1408.3,286.5,1405.6,286.5z M1402.5,279.8h6.1
				c0-1.7-1.4-2.8-3.1-2.8C1404,277,1402.7,278.1,1402.5,279.8z"/>
			<path class="st4" d="M1415.5,286.3h-2.3v-11h2.3v1.6c0.6-1.1,1.7-1.8,3.3-1.8v2.4h-0.6c-1.7,0-2.7,0.7-2.7,3V286.3z"/>
			<path class="st4" d="M1430.5,275.1c1.8,0,3.1,0.8,3.8,1.8v-1.6h2.3v11.2c0,3-1.9,5.3-5.4,5.3c-2.9,0-5.1-1.5-5.4-3.9h2.3
				c0.3,1.1,1.6,1.9,3.1,1.9c1.8,0,3.1-1.1,3.1-3.3v-1.8c-0.7,0.9-2,1.8-3.8,1.8c-2.9,0-5.2-2.3-5.2-5.7
				C1425.3,277.4,1427.6,275.1,1430.5,275.1z M1431,277.1c-1.7,0-3.3,1.3-3.3,3.7c0,2.4,1.6,3.8,3.3,3.8c1.7,0,3.3-1.3,3.3-3.7
				C1434.3,278.4,1432.7,277.1,1431,277.1z"/>
			<path class="st4" d="M1441.9,286.3h-2.3v-11h2.3v1.6c0.6-1.1,1.7-1.8,3.3-1.8v2.4h-0.6c-1.7,0-2.7,0.7-2.7,3V286.3z"/>
			<path class="st4" d="M1451.8,275.1c1.9,0,3.1,0.9,3.8,1.8v-1.6h2.3v11h-2.3v-1.6c-0.7,0.9-2,1.8-3.9,1.8c-2.9,0-5.2-2.3-5.2-5.7
				C1446.6,277.4,1448.9,275.1,1451.8,275.1z M1452.2,277.1c-1.7,0-3.3,1.3-3.3,3.7c0,2.4,1.6,3.8,3.3,3.8c1.7,0,3.3-1.3,3.3-3.7
				C1455.6,278.4,1454,277.1,1452.2,277.1z"/>
			<path class="st4" d="M1461.2,277.2h-1.3v-1.9h1.3v-2.7h2.3v2.7h2.7v1.9h-2.7v6.1c0,0.8,0.3,1.2,1.3,1.2h1.4v1.9h-1.8
				c-2,0-3.2-0.8-3.2-3.1V277.2z"/>
			<path class="st4" d="M1468,272.4c0-0.8,0.6-1.5,1.5-1.5c0.8,0,1.4,0.6,1.4,1.5c0,0.8-0.6,1.5-1.4,1.5
				C1468.7,273.8,1468,273.2,1468,272.4z M1468.3,275.3h2.3v11h-2.3V275.3z"/>
			<path class="st4" d="M1473.9,277.2h-1.3v-1.9h1.3v-0.8c0-2.5,1.3-3.6,4.2-3.6v1.9c-1.4,0-1.9,0.5-1.9,1.7v0.8h2v1.9h-2v9.2h-2.3
				V277.2z"/>
			<path class="st4" d="M1479.9,272.4c0-0.8,0.6-1.5,1.5-1.5c0.8,0,1.4,0.6,1.4,1.5c0,0.8-0.6,1.5-1.4,1.5
				C1480.6,273.8,1479.9,273.2,1479.9,272.4z M1480.2,275.3h2.3v11h-2.3V275.3z"/>
			<path class="st4" d="M1490.2,275.1c2.7,0,4.5,1.3,5.1,3.7h-2.5c-0.4-1.1-1.3-1.7-2.6-1.7c-1.8,0-3.1,1.4-3.1,3.8
				c0,2.4,1.2,3.8,3.1,3.8c1.4,0,2.2-0.6,2.6-1.7h2.5c-0.6,2.2-2.4,3.7-5.1,3.7c-3.2,0-5.4-2.2-5.4-5.7
				C1484.8,277.4,1487,275.1,1490.2,275.1z"/>
			<path class="st4" d="M1502,275.1c1.9,0,3.1,0.9,3.8,1.8v-1.6h2.3v11h-2.3v-1.6c-0.7,0.9-2,1.8-3.9,1.8c-2.9,0-5.2-2.3-5.2-5.7
				C1496.8,277.4,1499.1,275.1,1502,275.1z M1502.4,277.1c-1.7,0-3.3,1.3-3.3,3.7c0,2.4,1.6,3.8,3.3,3.8c1.7,0,3.3-1.3,3.3-3.7
				C1505.8,278.4,1504.2,277.1,1502.4,277.1z"/>
			<path class="st4" d="M1511.4,277.2h-1.3v-1.9h1.3v-2.7h2.3v2.7h2.7v1.9h-2.7v6.1c0,0.8,0.3,1.2,1.3,1.2h1.4v1.9h-1.8
				c-2,0-3.2-0.8-3.2-3.1V277.2z"/>
			<path class="st4" d="M1518.2,272.4c0-0.8,0.6-1.5,1.5-1.5c0.8,0,1.4,0.6,1.4,1.5c0,0.8-0.6,1.5-1.4,1.5
				C1518.9,273.8,1518.2,273.2,1518.2,272.4z M1518.5,275.3h2.3v11h-2.3V275.3z"/>
			<path class="st4" d="M1528.6,286.5c-3.1,0-5.5-2.2-5.5-5.7c0-3.5,2.5-5.7,5.6-5.7s5.6,2.2,5.6,5.7
				C1534.3,284.3,1531.7,286.5,1528.6,286.5z M1528.6,284.5c1.7,0,3.4-1.2,3.4-3.7c0-2.5-1.6-3.7-3.3-3.7c-1.7,0-3.3,1.2-3.3,3.7
				C1525.4,283.3,1526.9,284.5,1528.6,284.5z"/>
			<path class="st4" d="M1544.4,280.2c0-2-1.1-3.1-2.8-3.1c-1.7,0-2.8,1-2.8,3.1v6.2h-2.3v-11h2.3v1.3c0.7-0.9,2-1.4,3.3-1.4
				c2.6,0,4.5,1.6,4.5,4.7v6.5h-2.3V280.2z"/>
		</g>
	</g>
</g>
<g id="_x37_">
	<rect x="1266.9" y="0" class="st0" width="180" height="140"/>
	<g>
		<rect x="1446.9" y="0" class="st1" width="26" height="180"/>
		<rect x="1446.9" class="st1" width="180" height="40"/>
	</g>
	<path class="st2" d="M1392.5,34.6H1325c-3.7,0-6.8,3-6.8,6.8v45c0,3.7,3,6.8,6.8,6.8h27l-2.3,6.8h-10.1c-1.9,0-3.4,1.5-3.4,3.4
		c0,1.9,1.5,3.4,3.4,3.4h38.3c1.9,0,3.4-1.5,3.4-3.4c0-1.9-1.5-3.4-3.4-3.4h-10.1l-2.3-6.8h27c3.7,0,6.8-3,6.8-6.8v-45
		C1399.2,37.6,1396.2,34.6,1392.5,34.6z M1390.2,84.1h-63V43.6h63V84.1z"/>
	<g id="TImely">
		<g>
			<path class="st3" d="M1503.6,71.1h14.3v3.2h-5.2v16.4h-3.9V74.3h-5.2V71.1z"/>
			<path class="st3" d="M1520.4,71c0-1.3,1-2.3,2.4-2.3c1.4,0,2.4,1,2.4,2.3s-1,2.3-2.4,2.3C1521.4,73.3,1520.4,72.3,1520.4,71z
				 M1520.8,75.1h3.9v15.5h-3.9V75.1z"/>
			<path class="st3" d="M1550.3,82.1c0-2.5-1.4-3.8-3.4-3.8c-2.1,0-3.5,1.3-3.5,3.8v8.6h-3.9v-8.6c0-2.5-1.4-3.8-3.4-3.8
				c-2.1,0-3.5,1.3-3.5,3.8v8.6h-3.9V75.1h3.9V77c1-1.3,2.6-2.1,4.6-2.1c2.4,0,4.4,1,5.5,3c1-1.8,3.1-3,5.3-3c3.7,0,6.4,2.4,6.4,6.6
				v9.1h-3.9V82.1z"/>
			<path class="st3" d="M1564.7,90.9c-4.5,0-7.8-3.1-7.8-8c0-4.9,3.2-8,7.8-8c4.5,0,7.6,3.1,7.6,7.7c0,0.5,0,1-0.1,1.5h-11.3
				c0.2,2.3,1.8,3.6,3.7,3.6c1.7,0,2.6-0.8,3.1-1.9h4.2C1571.1,88.6,1568.6,90.9,1564.7,90.9z M1560.9,81.4h7.4
				c-0.1-2-1.7-3.3-3.7-3.3C1562.7,78.1,1561.2,79.3,1560.9,81.4z"/>
			<path class="st3" d="M1575.2,69.9h3.9v20.7h-3.9V69.9z"/>
			<path class="st3" d="M1593.7,75.1h4.2l-9.6,22.8h-4.2l3.4-7.7l-6.2-15.1h4.4l4,10.8L1593.7,75.1z"/>
			<path class="st3" d="M1623.7,80.9c0,5.9-4.1,9.7-10.3,9.7h-6.8V71.1h6.8C1619.7,71.1,1623.7,75,1623.7,80.9z M1613.3,87.3
				c4.1,0,6.4-2.4,6.4-6.4c0-4.1-2.3-6.5-6.4-6.5h-2.8v12.9H1613.3z"/>
			<path class="st3" d="M1633.5,90.9c-4.5,0-7.8-3.1-7.8-8c0-4.9,3.2-8,7.8-8c4.5,0,7.6,3.1,7.6,7.7c0,0.5,0,1-0.1,1.5h-11.3
				c0.2,2.3,1.8,3.6,3.7,3.6c1.7,0,2.6-0.8,3.1-1.9h4.2C1639.9,88.6,1637.3,90.9,1633.5,90.9z M1629.7,81.4h7.4
				c-0.1-2-1.7-3.3-3.7-3.3C1631.5,78.1,1630,79.3,1629.7,81.4z"/>
			<path class="st3" d="M1644,69.9h3.9v20.7h-3.9V69.9z"/>
			<path class="st3" d="M1651.3,71c0-1.3,1-2.3,2.4-2.3c1.4,0,2.4,1,2.4,2.3s-1,2.3-2.4,2.3C1652.3,73.3,1651.3,72.3,1651.3,71z
				 M1651.7,75.1h3.9v15.5h-3.9V75.1z"/>
			<path class="st3" d="M1662.1,75.1L1666,87l3.9-11.9h4.2l-5.7,15.5h-4.8l-5.7-15.5H1662.1z"/>
			<path class="st3" d="M1683.1,90.9c-4.5,0-7.8-3.1-7.8-8c0-4.9,3.2-8,7.8-8c4.5,0,7.6,3.1,7.6,7.7c0,0.5,0,1-0.1,1.5h-11.3
				c0.2,2.3,1.8,3.6,3.7,3.6c1.7,0,2.6-0.8,3.1-1.9h4.2C1689.5,88.6,1686.9,90.9,1683.1,90.9z M1679.3,81.4h7.4
				c-0.1-2-1.7-3.3-3.7-3.3C1681.1,78.1,1679.6,79.3,1679.3,81.4z"/>
			<path class="st3" d="M1697.5,90.6h-3.9V75.1h3.9v2.4c1-1.6,2.6-2.6,4.8-2.6V79h-1c-2.3,0-3.7,0.9-3.7,3.9V90.6z"/>
			<path class="st3" d="M1715.6,75.1h4.2l-9.6,22.8h-4.2l3.4-7.7l-6.2-15.1h4.4l4,10.8L1715.6,75.1z"/>
		</g>
		<g>
			<path class="st4" d="M1503.1,106.4h2.4l2.9,11.3l3.1-11.3h2.6l2.9,11.3l2.9-11.3h2.4l-4.1,13.9h-2.6l-2.9-10.5l-3.1,10.5l-2.6,0
				L1503.1,106.4z"/>
			<path class="st4" d="M1523.9,106.4c0-0.8,0.6-1.5,1.5-1.5c0.8,0,1.4,0.6,1.4,1.5c0,0.8-0.6,1.5-1.4,1.5
				C1524.6,107.8,1523.9,107.2,1523.9,106.4z M1524.2,109.3h2.3v11h-2.3V109.3z"/>
			<path class="st4" d="M1529.8,111.1h-1.3v-1.9h1.3v-2.7h2.3v2.7h2.7v1.9h-2.7v6.1c0,0.8,0.3,1.2,1.3,1.2h1.4v1.9h-1.8
				c-2,0-3.2-0.8-3.2-3.1V111.1z"/>
			<path class="st4" d="M1536.9,105.5h2.3v5.1c0.8-0.9,2-1.5,3.4-1.5c2.5,0,4.4,1.6,4.4,4.7v6.5h-2.3v-6.2c0-2-1.1-3.1-2.8-3.1
				c-1.7,0-2.8,1-2.8,3.1v6.2h-2.3V105.5z"/>
			<path class="st4" d="M1559.8,120.5c-3.2,0-5.5-2.2-5.5-5.7c0-3.5,2.2-5.7,5.5-5.7c3.1,0,5.4,2.2,5.4,5.4c0,0.4,0,0.7-0.1,1.1
				h-8.4c0.2,1.8,1.5,2.9,3.1,2.9c1.4,0,2.2-0.7,2.6-1.5h2.5C1564.3,118.9,1562.6,120.5,1559.8,120.5z M1556.7,113.8h6.1
				c0-1.7-1.4-2.8-3.1-2.8C1558.2,111,1557,112.1,1556.7,113.8z"/>
			<path class="st4" d="M1567.7,111.1h-1.3v-1.9h1.3v-0.8c0-2.5,1.3-3.6,4.2-3.6v1.9c-1.4,0-1.9,0.5-1.9,1.7v0.8h2v1.9h-2v9.2h-2.3
				V111.1z"/>
			<path class="st4" d="M1574.4,111.1h-1.3v-1.9h1.3v-0.8c0-2.5,1.3-3.6,4.2-3.6v1.9c-1.4,0-1.9,0.5-1.9,1.7v0.8h2v1.9h-2v9.2h-2.3
				V111.1z"/>
			<path class="st4" d="M1585.5,120.5c-3.2,0-5.5-2.2-5.5-5.7c0-3.5,2.2-5.7,5.5-5.7c3.1,0,5.4,2.2,5.4,5.4c0,0.4,0,0.7-0.1,1.1
				h-8.4c0.2,1.8,1.5,2.9,3.1,2.9c1.4,0,2.2-0.7,2.6-1.5h2.5C1589.9,118.9,1588.2,120.5,1585.5,120.5z M1582.3,113.8h6.1
				c0-1.7-1.4-2.8-3.1-2.8C1583.8,111,1582.6,112.1,1582.3,113.8z"/>
			<path class="st4" d="M1597.7,109.1c2.7,0,4.5,1.3,5.1,3.7h-2.5c-0.4-1.1-1.3-1.7-2.6-1.7c-1.8,0-3.1,1.4-3.1,3.8
				c0,2.4,1.2,3.8,3.1,3.8c1.4,0,2.2-0.6,2.6-1.7h2.5c-0.6,2.2-2.4,3.7-5.1,3.7c-3.2,0-5.4-2.2-5.4-5.7
				C1592.3,111.3,1594.5,109.1,1597.7,109.1z"/>
			<path class="st4" d="M1605.4,111.1h-1.3v-1.9h1.3v-2.7h2.3v2.7h2.7v1.9h-2.7v6.1c0,0.8,0.3,1.2,1.3,1.2h1.4v1.9h-1.8
				c-2,0-3.2-0.8-3.2-3.1V111.1z"/>
			<path class="st4" d="M1612.2,106.4c0-0.8,0.6-1.5,1.5-1.5c0.8,0,1.4,0.6,1.4,1.5c0,0.8-0.6,1.5-1.4,1.5
				C1612.8,107.8,1612.2,107.2,1612.2,106.4z M1612.5,109.3h2.3v11h-2.3V109.3z"/>
			<path class="st4" d="M1618.9,109.3l3.1,9l3.1-9h2.4l-4.2,11h-2.7l-4.2-11H1618.9z"/>
			<path class="st4" d="M1634,120.5c-3.2,0-5.5-2.2-5.5-5.7c0-3.5,2.2-5.7,5.5-5.7c3.1,0,5.4,2.2,5.4,5.4c0,0.4,0,0.7-0.1,1.1h-8.4
				c0.2,1.8,1.5,2.9,3.1,2.9c1.4,0,2.2-0.7,2.6-1.5h2.5C1638.5,118.9,1636.7,120.5,1634,120.5z M1630.9,113.8h6.1
				c0-1.7-1.4-2.8-3.1-2.8C1632.4,111,1631.2,112.1,1630.9,113.8z"/>
			<path class="st4" d="M1653,109.1c2.9,0,5.2,2.2,5.2,5.6c0,3.4-2.3,5.7-5.2,5.7c-1.8,0-3.1-0.9-3.8-1.8v6.8h-2.3v-16.3h2.3v1.6
				C1649.8,110,1651.2,109.1,1653,109.1z M1652.5,111.1c-1.7,0-3.3,1.3-3.3,3.7c0,2.4,1.6,3.7,3.3,3.7c1.7,0,3.4-1.4,3.4-3.8
				C1655.8,112.4,1654.2,111.1,1652.5,111.1z"/>
			<path class="st4" d="M1662.7,120.3h-2.3v-11h2.3v1.6c0.6-1.1,1.7-1.8,3.3-1.8v2.4h-0.6c-1.7,0-2.7,0.7-2.7,3V120.3z"/>
			<path class="st4" d="M1672.9,120.5c-3.1,0-5.5-2.2-5.5-5.7c0-3.5,2.5-5.7,5.6-5.7s5.6,2.2,5.6,5.7
				C1678.6,118.2,1676,120.5,1672.9,120.5z M1672.9,118.5c1.7,0,3.4-1.2,3.4-3.7c0-2.5-1.6-3.7-3.3-3.7c-1.7,0-3.3,1.2-3.3,3.7
				C1669.7,117.3,1671.1,118.5,1672.9,118.5z"/>
			<path class="st4" d="M1683.1,109.3v13.2c0,2.2-1.2,3.1-3.2,3.1h-1.2v-1.9h0.8c1,0,1.3-0.3,1.3-1.2v-13.2H1683.1z M1680.5,106.4
				c0-0.8,0.6-1.5,1.5-1.5c0.8,0,1.4,0.6,1.4,1.5c0,0.8-0.6,1.5-1.4,1.5C1681.2,107.8,1680.5,107.2,1680.5,106.4z"/>
			<path class="st4" d="M1690.9,120.5c-3.2,0-5.5-2.2-5.5-5.7c0-3.5,2.2-5.7,5.5-5.7c3.1,0,5.4,2.2,5.4,5.4c0,0.4,0,0.7-0.1,1.1
				h-8.4c0.2,1.8,1.5,2.9,3.1,2.9c1.4,0,2.2-0.7,2.6-1.5h2.5C1695.3,118.9,1693.6,120.5,1690.9,120.5z M1687.7,113.8h6.1
				c0-1.7-1.4-2.8-3.1-2.8C1689.2,111,1688,112.1,1687.7,113.8z"/>
			<path class="st4" d="M1703.1,109.1c2.7,0,4.5,1.3,5.1,3.7h-2.5c-0.4-1.1-1.3-1.7-2.6-1.7c-1.8,0-3.1,1.4-3.1,3.8
				c0,2.4,1.2,3.8,3.1,3.8c1.4,0,2.2-0.6,2.6-1.7h2.5c-0.6,2.2-2.4,3.7-5.1,3.7c-3.2,0-5.4-2.2-5.4-5.7
				C1697.7,111.3,1699.9,109.1,1703.1,109.1z"/>
			<path class="st4" d="M1710.8,111.1h-1.3v-1.9h1.3v-2.7h2.3v2.7h2.7v1.9h-2.7v6.1c0,0.8,0.3,1.2,1.3,1.2h1.4v1.9h-1.8
				c-2,0-3.2-0.8-3.2-3.1V111.1z"/>
			<path class="st4" d="M1738.7,114.1c0-2-1.1-3.1-2.8-3.1c-1.7,0-2.8,1-2.8,3.1v6.2h-2.3v-6.2c0-2-1.1-3.1-2.8-3.1
				c-1.7,0-2.8,1-2.8,3.1v6.2h-2.3v-11h2.3v1.3c0.7-0.9,1.9-1.4,3.3-1.4c1.7,0,3.2,0.7,4,2.2c0.7-1.3,2.2-2.2,3.8-2.2
				c2.6,0,4.5,1.6,4.5,4.7v6.5h-2.3V114.1z"/>
			<path class="st4" d="M1748.3,109.1c1.9,0,3.1,0.9,3.8,1.8v-1.6h2.3v11h-2.3v-1.6c-0.7,0.9-2,1.8-3.9,1.8c-2.9,0-5.2-2.3-5.2-5.7
				C1743.1,111.3,1745.4,109.1,1748.3,109.1z M1748.8,111.1c-1.7,0-3.3,1.3-3.3,3.7c0,2.4,1.6,3.8,3.3,3.8c1.7,0,3.3-1.3,3.3-3.7
				C1752.1,112.4,1750.5,111.1,1748.8,111.1z"/>
			<path class="st4" d="M1765.3,114.1c0-2-1.1-3.1-2.8-3.1c-1.7,0-2.8,1-2.8,3.1v6.2h-2.3v-11h2.3v1.3c0.7-0.9,2-1.4,3.3-1.4
				c2.6,0,4.5,1.6,4.5,4.7v6.5h-2.3V114.1z"/>
			<path class="st4" d="M1774.9,109.1c1.9,0,3.1,0.9,3.8,1.8v-1.6h2.3v11h-2.3v-1.6c-0.7,0.9-2,1.8-3.9,1.8c-2.9,0-5.2-2.3-5.2-5.7
				C1769.7,111.3,1772,109.1,1774.9,109.1z M1775.3,111.1c-1.7,0-3.3,1.3-3.3,3.7c0,2.4,1.6,3.8,3.3,3.8c1.7,0,3.3-1.3,3.3-3.7
				C1778.7,112.4,1777.1,111.1,1775.3,111.1z"/>
			<path class="st4" d="M1788.4,109.1c1.8,0,3.1,0.8,3.8,1.8v-1.6h2.3v11.2c0,3-1.9,5.3-5.4,5.3c-2.9,0-5.1-1.5-5.4-3.9h2.3
				c0.3,1.1,1.6,1.9,3.1,1.9c1.8,0,3.1-1.1,3.1-3.3v-1.8c-0.7,0.9-2,1.8-3.8,1.8c-2.9,0-5.2-2.3-5.2-5.7
				C1783.2,111.3,1785.5,109.1,1788.4,109.1z M1788.9,111.1c-1.7,0-3.3,1.3-3.3,3.7c0,2.4,1.6,3.8,3.3,3.8c1.7,0,3.3-1.3,3.3-3.7
				C1792.2,112.4,1790.6,111.1,1788.9,111.1z"/>
			<path class="st4" d="M1802.3,120.5c-3.2,0-5.5-2.2-5.5-5.7c0-3.5,2.2-5.7,5.5-5.7c3.1,0,5.4,2.2,5.4,5.4c0,0.4,0,0.7-0.1,1.1
				h-8.4c0.2,1.8,1.5,2.9,3.1,2.9c1.4,0,2.2-0.7,2.6-1.5h2.5C1806.7,118.9,1805,120.5,1802.3,120.5z M1799.2,113.8h6.1
				c0-1.7-1.4-2.8-3.1-2.8C1800.6,111,1799.4,112.1,1799.2,113.8z"/>
			<path class="st4" d="M1825.5,114.1c0-2-1.1-3.1-2.8-3.1c-1.7,0-2.8,1-2.8,3.1v6.2h-2.3v-6.2c0-2-1.1-3.1-2.8-3.1
				c-1.7,0-2.8,1-2.8,3.1v6.2h-2.3v-11h2.3v1.3c0.7-0.9,1.9-1.4,3.3-1.4c1.7,0,3.2,0.7,4,2.2c0.7-1.3,2.2-2.2,3.8-2.2
				c2.6,0,4.5,1.6,4.5,4.7v6.5h-2.3V114.1z"/>
			<path class="st4" d="M1835.4,120.5c-3.2,0-5.5-2.2-5.5-5.7c0-3.5,2.2-5.7,5.5-5.7c3.1,0,5.4,2.2,5.4,5.4c0,0.4,0,0.7-0.1,1.1
				h-8.4c0.2,1.8,1.5,2.9,3.1,2.9c1.4,0,2.2-0.7,2.6-1.5h2.5C1839.8,118.9,1838.1,120.5,1835.4,120.5z M1832.3,113.8h6.1
				c0-1.7-1.4-2.8-3.1-2.8C1833.8,111,1832.5,112.1,1832.3,113.8z"/>
			<path class="st4" d="M1850.8,114.1c0-2-1.1-3.1-2.8-3.1c-1.7,0-2.8,1-2.8,3.1v6.2h-2.3v-11h2.3v1.3c0.7-0.9,2-1.4,3.3-1.4
				c2.6,0,4.5,1.6,4.5,4.7v6.5h-2.3V114.1z"/>
			<path class="st4" d="M1856.3,111.1h-1.3v-1.9h1.3v-2.7h2.3v2.7h2.7v1.9h-2.7v6.1c0,0.8,0.3,1.2,1.3,1.2h1.4v1.9h-1.8
				c-2,0-3.2-0.8-3.2-3.1V111.1z"/>
			<path class="st4" d="M1504.6,137.1h-1.3v-1.9h1.3v-2.7h2.3v2.7h2.7v1.9h-2.7v6.1c0,0.8,0.3,1.2,1.3,1.2h1.4v1.9h-1.8
				c-2,0-3.2-0.8-3.2-3.1V137.1z"/>
			<path class="st4" d="M1516.5,146.5c-3.1,0-5.5-2.2-5.5-5.7c0-3.5,2.5-5.7,5.6-5.7s5.6,2.2,5.6,5.7
				C1522.2,144.2,1519.6,146.5,1516.5,146.5z M1516.5,144.5c1.7,0,3.4-1.2,3.4-3.7c0-2.5-1.6-3.7-3.3-3.7c-1.7,0-3.3,1.2-3.3,3.7
				C1513.3,143.3,1514.7,144.5,1516.5,144.5z"/>
			<path class="st4" d="M1529.2,146.5c-3.1,0-5.5-2.2-5.5-5.7c0-3.5,2.5-5.7,5.6-5.7s5.6,2.2,5.6,5.7
				C1534.9,144.2,1532.4,146.5,1529.2,146.5z M1529.2,144.5c1.7,0,3.4-1.2,3.4-3.7c0-2.5-1.6-3.7-3.3-3.7c-1.7,0-3.3,1.2-3.3,3.7
				C1526,143.3,1527.5,144.5,1529.2,144.5z"/>
			<path class="st4" d="M1537.2,131.5h2.3v14.8h-2.3V131.5z"/>
			<path class="st4" d="M1546.5,146.5c-2.6,0-4.5-1.6-4.6-3.6h2.4c0.1,0.9,0.9,1.6,2.2,1.6c1.3,0,2-0.6,2-1.3c0-2.2-6.4-0.9-6.4-5
				c0-1.8,1.6-3.2,4.2-3.2c2.5,0,4.1,1.3,4.3,3.5h-2.3c-0.1-1-0.8-1.6-2.1-1.6c-1.2,0-1.9,0.5-1.9,1.2c0,2.2,6.2,1,6.3,5
				C1550.7,145.1,1549.1,146.5,1546.5,146.5z"/>
			<path class="st4" d="M1557,135.3h2.3l2.3,8.9l2.3-8.9h2.4l2.2,8.8l2.3-8.8h2.2l-3.4,11h-2.4l-2.2-8.1l-2.2,8.1h-2.4L1557,135.3z"
				/>
			<path class="st4" d="M1579.6,146.5c-3.2,0-5.5-2.2-5.5-5.7c0-3.5,2.2-5.7,5.5-5.7c3.1,0,5.4,2.2,5.4,5.4c0,0.4,0,0.7-0.1,1.1
				h-8.4c0.2,1.8,1.5,2.9,3.1,2.9c1.4,0,2.2-0.7,2.6-1.5h2.5C1584,144.9,1582.3,146.5,1579.6,146.5z M1576.5,139.8h6.1
				c0-1.7-1.4-2.8-3.1-2.8C1577.9,137,1576.7,138.1,1576.5,139.8z"/>
			<path class="st4" d="M1596.8,135.1c1.9,0,3.1,0.9,3.8,1.8v-1.6h2.3v11h-2.3v-1.6c-0.7,0.9-2,1.8-3.9,1.8c-2.9,0-5.2-2.3-5.2-5.7
				C1591.6,137.3,1593.9,135.1,1596.8,135.1z M1597.3,137.1c-1.7,0-3.3,1.3-3.3,3.7c0,2.4,1.6,3.8,3.3,3.8c1.7,0,3.3-1.3,3.3-3.7
				C1600.7,138.4,1599,137.1,1597.3,137.1z"/>
			<path class="st4" d="M1610.6,135.1c2.7,0,4.5,1.3,5.1,3.7h-2.5c-0.4-1.1-1.3-1.7-2.6-1.7c-1.8,0-3.1,1.4-3.1,3.8
				c0,2.4,1.2,3.8,3.1,3.8c1.4,0,2.2-0.6,2.6-1.7h2.5c-0.6,2.2-2.4,3.7-5.1,3.7c-3.2,0-5.4-2.2-5.4-5.7
				C1605.2,137.3,1607.4,135.1,1610.6,135.1z"/>
			<path class="st4" d="M1617.9,131.5h2.3v5.1c0.8-0.9,2-1.5,3.4-1.5c2.5,0,4.4,1.6,4.4,4.7v6.5h-2.3v-6.2c0-2-1.1-3.1-2.8-3.1
				c-1.7,0-2.8,1-2.8,3.1v6.2h-2.3V131.5z"/>
			<path class="st4" d="M1630.6,132.4c0-0.8,0.6-1.5,1.5-1.5c0.8,0,1.4,0.6,1.4,1.5c0,0.8-0.6,1.5-1.4,1.5
				C1631.3,133.8,1630.6,133.2,1630.6,132.4z M1630.9,135.3h2.3v11h-2.3V135.3z"/>
			<path class="st4" d="M1640.9,146.5c-3.2,0-5.5-2.2-5.5-5.7c0-3.5,2.2-5.7,5.5-5.7c3.1,0,5.4,2.2,5.4,5.4c0,0.4,0,0.7-0.1,1.1
				h-8.4c0.2,1.8,1.5,2.9,3.1,2.9c1.4,0,2.2-0.7,2.6-1.5h2.5C1645.4,144.9,1643.6,146.5,1640.9,146.5z M1637.8,139.8h6.1
				c0-1.7-1.4-2.8-3.1-2.8C1639.3,137,1638.1,138.1,1637.8,139.8z"/>
			<path class="st4" d="M1649.7,135.3l3.1,9l3.1-9h2.4l-4.2,11h-2.7l-4.2-11H1649.7z"/>
			<path class="st4" d="M1664.8,146.5c-3.2,0-5.5-2.2-5.5-5.7c0-3.5,2.2-5.7,5.5-5.7c3.1,0,5.4,2.2,5.4,5.4c0,0.4,0,0.7-0.1,1.1
				h-8.4c0.2,1.8,1.5,2.9,3.1,2.9c1.4,0,2.2-0.7,2.6-1.5h2.5C1669.2,144.9,1667.5,146.5,1664.8,146.5z M1661.7,139.8h6.1
				c0-1.7-1.4-2.8-3.1-2.8C1663.2,137,1661.9,138.1,1661.7,139.8z"/>
			<path class="st4" d="M1678,137.1h-1.3v-1.9h1.3v-2.7h2.3v2.7h2.7v1.9h-2.7v6.1c0,0.8,0.3,1.2,1.3,1.2h1.4v1.9h-1.8
				c-2,0-3.2-0.8-3.2-3.1V137.1z"/>
			<path class="st4" d="M1684.7,132.4c0-0.8,0.6-1.5,1.5-1.5c0.8,0,1.4,0.6,1.4,1.5c0,0.8-0.6,1.5-1.4,1.5
				C1685.4,133.8,1684.7,133.2,1684.7,132.4z M1685,135.3h2.3v11h-2.3V135.3z"/>
			<path class="st4" d="M1705.9,140.1c0-2-1.1-3.1-2.8-3.1c-1.7,0-2.8,1-2.8,3.1v6.2h-2.3v-6.2c0-2-1.1-3.1-2.8-3.1
				c-1.7,0-2.8,1-2.8,3.1v6.2h-2.3v-11h2.3v1.3c0.7-0.9,1.9-1.4,3.3-1.4c1.7,0,3.2,0.7,4,2.2c0.7-1.3,2.2-2.2,3.8-2.2
				c2.6,0,4.5,1.6,4.5,4.7v6.5h-2.3V140.1z"/>
			<path class="st4" d="M1715.8,146.5c-3.2,0-5.5-2.2-5.5-5.7c0-3.5,2.2-5.7,5.5-5.7c3.1,0,5.4,2.2,5.4,5.4c0,0.4,0,0.7-0.1,1.1
				h-8.4c0.2,1.8,1.5,2.9,3.1,2.9c1.4,0,2.2-0.7,2.6-1.5h2.5C1720.3,144.9,1718.5,146.5,1715.8,146.5z M1712.7,139.8h6.1
				c0-1.7-1.4-2.8-3.1-2.8C1714.2,137,1713,138.1,1712.7,139.8z"/>
			<path class="st4" d="M1723.4,131.5h2.3v14.8h-2.3V131.5z"/>
			<path class="st4" d="M1728.4,132.4c0-0.8,0.6-1.5,1.5-1.5c0.8,0,1.4,0.6,1.4,1.5c0,0.8-0.6,1.5-1.4,1.5
				C1729.1,133.8,1728.4,133.2,1728.4,132.4z M1728.7,135.3h2.3v11h-2.3V135.3z"/>
			<path class="st4" d="M1741.8,140.1c0-2-1.1-3.1-2.8-3.1c-1.7,0-2.8,1-2.8,3.1v6.2h-2.3v-11h2.3v1.3c0.7-0.9,2-1.4,3.3-1.4
				c2.6,0,4.5,1.6,4.5,4.7v6.5h-2.3V140.1z"/>
			<path class="st4" d="M1751.7,146.5c-3.2,0-5.5-2.2-5.5-5.7c0-3.5,2.2-5.7,5.5-5.7c3.1,0,5.4,2.2,5.4,5.4c0,0.4,0,0.7-0.1,1.1
				h-8.4c0.2,1.8,1.5,2.9,3.1,2.9c1.4,0,2.2-0.7,2.6-1.5h2.5C1756.2,144.9,1754.4,146.5,1751.7,146.5z M1748.6,139.8h6.1
				c0-1.7-1.4-2.8-3.1-2.8C1750.1,137,1748.8,138.1,1748.6,139.8z"/>
			<path class="st4" d="M1763.3,146.5c-2.6,0-4.5-1.6-4.6-3.6h2.4c0.1,0.9,0.9,1.6,2.2,1.6c1.3,0,2-0.6,2-1.3c0-2.2-6.4-0.9-6.4-5
				c0-1.8,1.6-3.2,4.2-3.2c2.5,0,4.1,1.3,4.3,3.5h-2.3c-0.1-1-0.8-1.6-2.1-1.6c-1.2,0-1.9,0.5-1.9,1.2c0,2.2,6.2,1,6.3,5
				C1767.5,145.1,1765.9,146.5,1763.3,146.5z"/>
			<path class="st4" d="M1774,146.5c-2.6,0-4.5-1.6-4.6-3.6h2.4c0.1,0.9,0.9,1.6,2.2,1.6c1.3,0,2-0.6,2-1.3c0-2.2-6.4-0.9-6.4-5
				c0-1.8,1.6-3.2,4.2-3.2c2.5,0,4.1,1.3,4.3,3.5h-2.3c-0.1-1-0.8-1.6-2.1-1.6c-1.2,0-1.9,0.5-1.9,1.2c0,2.2,6.2,1,6.3,5
				C1778.2,145.1,1776.6,146.5,1774,146.5z"/>
			<path class="st4" d="M1785.6,132.4c0-0.8,0.6-1.5,1.5-1.5c0.8,0,1.4,0.6,1.4,1.5c0,0.8-0.6,1.5-1.4,1.5
				C1786.2,133.8,1785.6,133.2,1785.6,132.4z M1785.9,135.3h2.3v11h-2.3V135.3z"/>
			<path class="st4" d="M1799,140.1c0-2-1.1-3.1-2.8-3.1c-1.7,0-2.8,1-2.8,3.1v6.2h-2.3v-11h2.3v1.3c0.7-0.9,2-1.4,3.3-1.4
				c2.6,0,4.5,1.6,4.5,4.7v6.5h-2.3V140.1z"/>
			<path class="st4" d="M1813.8,135.1c1.4,0,3,0.7,3.8,1.7v-5.3h2.3v14.8h-2.3v-1.7c-0.7,1-2,1.8-3.8,1.8c-2.9,0-5.2-2.3-5.2-5.7
				C1808.6,137.3,1810.9,135.1,1813.8,135.1z M1814.3,137.1c-1.7,0-3.3,1.3-3.3,3.7c0,2.4,1.6,3.8,3.3,3.8c1.7,0,3.3-1.3,3.3-3.7
				C1817.6,138.4,1816,137.1,1814.3,137.1z"/>
			<path class="st4" d="M1827.6,146.5c-3.2,0-5.5-2.2-5.5-5.7c0-3.5,2.2-5.7,5.5-5.7c3.1,0,5.4,2.2,5.4,5.4c0,0.4,0,0.7-0.1,1.1
				h-8.4c0.2,1.8,1.5,2.9,3.1,2.9c1.4,0,2.2-0.7,2.6-1.5h2.5C1832.1,144.9,1830.3,146.5,1827.6,146.5z M1824.5,139.8h6.1
				c0-1.7-1.4-2.8-3.1-2.8C1826,137,1824.8,138.1,1824.5,139.8z"/>
			<path class="st4" d="M1835.2,131.5h2.3v14.8h-2.3V131.5z"/>
			<path class="st4" d="M1840.2,132.4c0-0.8,0.6-1.5,1.5-1.5c0.8,0,1.4,0.6,1.4,1.5c0,0.8-0.6,1.5-1.4,1.5
				C1840.9,133.8,1840.2,133.2,1840.2,132.4z M1840.5,135.3h2.3v11h-2.3V135.3z"/>
			<path class="st4" d="M1846.9,135.3l3.1,9l3.1-9h2.4l-4.2,11h-2.7l-4.2-11H1846.9z"/>
			<path class="st4" d="M1862.1,146.5c-3.2,0-5.5-2.2-5.5-5.7c0-3.5,2.2-5.7,5.5-5.7c3.1,0,5.4,2.2,5.4,5.4c0,0.4,0,0.7-0.1,1.1
				h-8.4c0.2,1.8,1.5,2.9,3.1,2.9c1.4,0,2.2-0.7,2.6-1.5h2.5C1866.5,144.9,1864.8,146.5,1862.1,146.5z M1858.9,139.8h6.1
				c0-1.7-1.4-2.8-3.1-2.8C1860.4,137,1859.2,138.1,1858.9,139.8z"/>
			<path class="st4" d="M1871.9,146.3h-2.3v-11h2.3v1.6c0.6-1.1,1.7-1.8,3.3-1.8v2.4h-0.6c-1.7,0-2.7,0.7-2.7,3V146.3z"/>
			<path class="st4" d="M1884.9,135.3h2.4l-6.8,16.2h-2.4l2.2-5.4l-4.3-10.8h2.5l3.1,8.4L1884.9,135.3z"/>
		</g>
	</g>
</g>
<g class="st5">
	<g class="st6">
		<path class="st3" d="M443,725.9v2.1l-5.3,12.5h-2.8l5.4-12.1h-6.8v-2.4H443z"/>
		<path class="st3" d="M449.4,728.5l2.2-1.7l1,1.8l-2.6,0.9l2.6,0.9l-1,1.9l-2.2-1.8l0.5,2.8h-2.1l0.4-2.8l-2.1,1.8l-1.1-1.9
			l2.6-0.9l-2.6-0.9l1-1.8l2.2,1.8l-0.5-2.8h2.1L449.4,728.5z"/>
		<path class="st3" d="M454.9,738.2c3.3-2.8,6.8-5.4,6.8-8.1c0-1.3-0.6-2.2-2-2.2c-1.3,0-2.1,1-2.1,2.5h-2.7
			c0.1-3.3,2.2-4.9,4.9-4.9c3.1,0,4.7,1.9,4.7,4.4c0,3.4-3.3,6-5.6,8h5.9v2.3h-9.9V738.2z"/>
		<path class="st3" d="M473.4,737.6h-7v-2.2l6.5-9.4h3.3v9.1h1.8v2.4h-1.8v2.8h-2.8V737.6z M473.6,735.2V729l-4.1,6.1H473.6z"/>
		<path class="st3" d="M489.6,740.6c-2.9,0-5.1-1.5-5.2-4.2h3c0.1,1.1,0.8,1.9,2.1,1.9c1.3,0,2.1-0.7,2.1-1.7c0-3-7.2-1.2-7.2-6.3
			c0-2.5,2-4,4.9-4c2.9,0,4.8,1.5,5,4h-3.1c-0.1-0.9-0.8-1.6-2-1.7c-1.1,0-1.9,0.5-1.9,1.6c0,2.8,7.2,1.2,7.2,6.2
			C494.6,738.6,492.8,740.6,489.6,740.6z"/>
		<path class="st3" d="M507.4,740.4h-2.8V739c-0.7,0.9-1.9,1.5-3.3,1.5c-2.6,0-4.4-1.7-4.4-4.7v-6.5h2.8v6.1c0,1.8,1,2.7,2.5,2.7
			c1.5,0,2.5-1,2.5-2.7v-6.1h2.8V740.4z"/>
		<path class="st3" d="M516.7,729.2c2.8,0,5.1,2.2,5.1,5.7s-2.2,5.8-5.1,5.8c-1.7,0-3-0.9-3.7-1.8v6.9h-2.8v-16.4h2.8v1.6
			C513.7,730,514.9,729.2,516.7,729.2z M515.9,731.6c-1.5,0-2.9,1.2-2.9,3.3s1.4,3.3,2.9,3.3c1.5,0,2.9-1.2,2.9-3.3
			S517.4,731.6,515.9,731.6z"/>
		<path class="st3" d="M530.2,729.2c2.8,0,5.1,2.2,5.1,5.7s-2.2,5.8-5.1,5.8c-1.7,0-3-0.9-3.7-1.8v6.9h-2.8v-16.4h2.8v1.6
			C527.2,730,528.5,729.2,530.2,729.2z M529.5,731.6c-1.5,0-2.9,1.2-2.9,3.3s1.4,3.3,2.9,3.3c1.5,0,2.9-1.2,2.9-3.3
			S531,731.6,529.5,731.6z"/>
		<path class="st3" d="M542.2,740.6c-3.2,0-5.6-2.2-5.6-5.7c0-3.5,2.5-5.7,5.7-5.7s5.7,2.2,5.7,5.7
			C548,738.4,545.5,740.6,542.2,740.6z M542.2,738.2c1.5,0,2.9-1.1,2.9-3.3c0-2.2-1.4-3.3-2.9-3.3s-2.8,1.1-2.8,3.3
			C539.5,737.1,540.7,738.2,542.2,738.2z"/>
		<path class="st3" d="M552.9,740.4h-2.8v-11.1h2.8v1.7c0.7-1.1,1.9-1.9,3.4-1.9v2.9h-0.7c-1.7,0-2.7,0.6-2.7,2.8V740.4z"/>
		<path class="st3" d="M558.6,731.7h-1.3v-2.3h1.3v-2.7h2.8v2.7h2.5v2.3h-2.5v5.4c0,0.7,0.3,1.1,1.2,1.1h1.3v2.4h-1.8
			c-2.1,0-3.5-0.9-3.5-3.4V731.7z"/>
	</g>
	<g class="st6">
		<path class="st4" d="M438.9,758.8c2.4,0,4.3,1.2,5.2,3.4h-1.7c-0.6-1.3-1.8-2.1-3.4-2.1c-2.3,0-4.1,1.7-4.1,4.4
			c0,2.7,1.7,4.4,4.1,4.4c1.6,0,2.8-0.8,3.4-2.1h1.7c-0.8,2.1-2.8,3.3-5.2,3.3c-3.1,0-5.6-2.3-5.6-5.7
			C433.3,761.2,435.8,758.8,438.9,758.8z"/>
		<path class="st4" d="M450,770.2c-2.5,0-4.4-1.8-4.4-4.5c0-2.8,2-4.5,4.4-4.5c2.5,0,4.4,1.7,4.4,4.5
			C454.5,768.5,452.5,770.2,450,770.2z M450,768.9c1.5,0,3-1,3-3.3c0-2.2-1.5-3.3-3-3.3c-1.5,0-2.9,1-2.9,3.3
			C447.2,767.9,448.5,768.9,450,768.9z"/>
		<path class="st4" d="M462.9,765.1c0-1.8-1-2.7-2.4-2.7c-1.5,0-2.5,0.9-2.5,2.8v4.8h-1.5v-8.8h1.5v1.2c0.6-0.9,1.6-1.4,2.8-1.4
			c2,0,3.6,1.2,3.6,3.8v5.2h-1.4V765.1z"/>
		<path class="st4" d="M467,762.5h-1.1v-1.2h1.1v-2.2h1.5v2.2h2.3v1.2h-2.3v5.2c0,0.9,0.3,1.2,1.2,1.2h1.1v1.2h-1.3
			c-1.6,0-2.4-0.6-2.4-2.4V762.5z"/>
		<path class="st4" d="M472.3,758.9c0-0.6,0.4-1,1-1c0.5,0,1,0.4,1,1s-0.4,1-1,1C472.7,759.9,472.3,759.5,472.3,758.9z M472.5,761.3
			h1.5v8.8h-1.5V761.3z"/>
		<path class="st4" d="M482.9,765.1c0-1.8-1-2.7-2.4-2.7c-1.5,0-2.5,0.9-2.5,2.8v4.8h-1.5v-8.8h1.5v1.2c0.6-0.9,1.6-1.4,2.8-1.4
			c2,0,3.6,1.2,3.6,3.8v5.2h-1.4V765.1z"/>
		<path class="st4" d="M490.5,770.2c-2.5,0-4.4-1.8-4.4-4.5c0-2.8,2-4.5,4.4-4.5c2.5,0,4.4,1.7,4.4,4.5
			C495,768.5,493,770.2,490.5,770.2z M490.5,768.9c1.5,0,3-1,3-3.3c0-2.2-1.5-3.3-3-3.3c-1.5,0-2.9,1-2.9,3.3
			C487.6,767.9,489,768.9,490.5,768.9z"/>
		<path class="st4" d="M504.7,770.1h-1.5v-1.3c-0.6,0.9-1.6,1.4-2.8,1.4c-2,0-3.6-1.2-3.6-3.8v-5.1h1.4v4.9c0,1.8,1,2.7,2.4,2.7
			c1.5,0,2.5-0.9,2.5-2.8v-4.8h1.5V770.1z"/>
		<path class="st4" d="M510.3,770.2c-2,0-3.5-1.1-3.6-2.7h1.5c0.1,0.8,0.8,1.5,2.1,1.5c1.2,0,1.8-0.6,1.8-1.3c0-2-5.2-0.8-5.2-4.1
			c0-1.3,1.3-2.4,3.2-2.4c1.9,0,3.2,1,3.3,2.8h-1.5c-0.1-0.9-0.7-1.5-1.9-1.5c-1.1,0-1.7,0.5-1.7,1.2c0,2.1,5.1,0.9,5.2,4.1
			C513.5,769.1,512.2,770.2,510.3,770.2z"/>
		<path class="st4" d="M522.9,770.2c-2,0-3.5-1.1-3.6-2.7h1.5c0.1,0.8,0.8,1.5,2.1,1.5c1.2,0,1.8-0.6,1.8-1.3c0-2-5.2-0.8-5.2-4.1
			c0-1.3,1.3-2.4,3.2-2.4c1.9,0,3.2,1,3.3,2.8h-1.5c-0.1-0.9-0.7-1.5-1.9-1.5c-1.1,0-1.7,0.5-1.7,1.2c0,2.1,5.1,0.9,5.2,4.1
			C526.1,769.1,524.8,770.2,522.9,770.2z"/>
		<path class="st4" d="M535.9,770.1h-1.5v-1.3c-0.6,0.9-1.6,1.4-2.8,1.4c-2,0-3.6-1.2-3.6-3.8v-5.1h1.4v4.9c0,1.8,1,2.7,2.4,2.7
			c1.5,0,2.5-0.9,2.5-2.8v-4.8h1.5V770.1z"/>
		<path class="st4" d="M543.1,761.2c2.4,0,4.2,1.8,4.2,4.5c0,2.7-1.8,4.6-4.2,4.6c-1.6,0-2.7-0.9-3.3-1.8v5.8h-1.5v-12.9h1.5v1.6
			C540.4,762,541.5,761.2,543.1,761.2z M542.8,762.4c-1.6,0-3,1.2-3,3.3c0,2.1,1.4,3.3,3,3.3c1.6,0,3-1.2,3-3.3
			C545.8,763.6,544.4,762.4,542.8,762.4z"/>
		<path class="st4" d="M553.9,761.2c2.4,0,4.2,1.8,4.2,4.5c0,2.7-1.8,4.6-4.2,4.6c-1.6,0-2.7-0.9-3.3-1.8v5.8h-1.5v-12.9h1.5v1.6
			C551.2,762,552.3,761.2,553.9,761.2z M553.6,762.4c-1.6,0-3,1.2-3,3.3c0,2.1,1.4,3.3,3,3.3c1.6,0,3-1.2,3-3.3
			C556.6,763.6,555.3,762.4,553.6,762.4z"/>
		<path class="st4" d="M563.8,770.2c-2.5,0-4.4-1.8-4.4-4.5c0-2.8,2-4.5,4.4-4.5c2.5,0,4.4,1.7,4.4,4.5
			C568.3,768.5,566.3,770.2,563.8,770.2z M563.8,768.9c1.5,0,3-1,3-3.3c0-2.2-1.5-3.3-3-3.3c-1.5,0-2.9,1-2.9,3.3
			C561,767.9,562.3,768.9,563.8,768.9z"/>
		<path class="st4" d="M571.7,770.1h-1.5v-8.8h1.5v1.4c0.5-1,1.4-1.6,2.8-1.6v1.5h-0.4c-1.4,0-2.4,0.6-2.4,2.7V770.1z"/>
		<path class="st4" d="M576.6,762.5h-1.1v-1.2h1.1v-2.2h1.5v2.2h2.3v1.2H578v5.2c0,0.9,0.3,1.2,1.2,1.2h1.1v1.2H579
			c-1.6,0-2.4-0.6-2.4-2.4V762.5z"/>
		<path class="st4" d="M585.3,761.3h1.5l2,7.4l2.2-7.4h1.5l2.1,7.4l2-7.4h1.4l-2.7,8.8h-1.5l-2.1-7l-2.1,7H588L585.3,761.3z"/>
		<path class="st4" d="M599.4,758.2h1.5v4.3c0.6-0.9,1.7-1.4,2.9-1.4c2,0,3.5,1.2,3.5,3.8v5.2h-1.4v-5c0-1.8-1-2.7-2.4-2.7
			c-1.5,0-2.5,0.9-2.5,2.8v4.8h-1.5V758.2z"/>
		<path class="st4" d="M613.5,770.2c-2.5,0-4.3-1.8-4.3-4.5c0-2.8,1.8-4.5,4.3-4.5c2.5,0,4.2,1.8,4.2,4.2c0,0.3,0,0.6,0,0.9h-7
			c0.1,1.8,1.4,2.8,2.8,2.8c1.3,0,2.1-0.7,2.5-1.6h1.6C617.1,769,615.7,770.2,613.5,770.2z M610.6,765.1h5.5c0-1.7-1.3-2.7-2.8-2.7
			C612,762.4,610.8,763.3,610.6,765.1z"/>
		<path class="st4" d="M626,765.1c0-1.8-1-2.7-2.4-2.7c-1.5,0-2.5,0.9-2.5,2.8v4.8h-1.5v-8.8h1.5v1.2c0.6-0.9,1.6-1.4,2.8-1.4
			c2,0,3.6,1.2,3.6,3.8v5.2H626V765.1z"/>
		<path class="st4" d="M633.6,770.2c-2.5,0-4.3-1.8-4.3-4.5c0-2.8,1.8-4.5,4.3-4.5c2.5,0,4.2,1.8,4.2,4.2c0,0.3,0,0.6,0,0.9h-7
			c0.1,1.8,1.4,2.8,2.8,2.8c1.3,0,2.1-0.7,2.5-1.6h1.6C637.2,769,635.8,770.2,633.6,770.2z M630.8,765.1h5.5c0-1.7-1.3-2.7-2.8-2.7
			C632.2,762.4,631,763.3,630.8,765.1z"/>
		<path class="st4" d="M640.3,761.3l2.7,7.4l2.7-7.4h1.6l-3.4,8.8h-1.7l-3.4-8.8H640.3z"/>
		<path class="st4" d="M652.5,770.2c-2.5,0-4.3-1.8-4.3-4.5c0-2.8,1.8-4.5,4.3-4.5c2.5,0,4.2,1.8,4.2,4.2c0,0.3,0,0.6,0,0.9h-7
			c0.1,1.8,1.4,2.8,2.8,2.8c1.3,0,2.1-0.7,2.5-1.6h1.6C656.1,769,654.7,770.2,652.5,770.2z M649.7,765.1h5.5c0-1.7-1.3-2.7-2.8-2.7
			C651,762.4,649.9,763.3,649.7,765.1z"/>
		<path class="st4" d="M660.1,770.1h-1.5v-8.8h1.5v1.4c0.5-1,1.4-1.6,2.8-1.6v1.5h-0.4c-1.4,0-2.4,0.6-2.4,2.7V770.1z"/>
		<path class="st4" d="M675,761.3h1.5l-5.3,12.9h-1.5l1.7-4.2l-3.5-8.7h1.6l2.8,7.1L675,761.3z"/>
		<path class="st4" d="M681.7,770.2c-2.5,0-4.4-1.8-4.4-4.5c0-2.8,2-4.5,4.4-4.5c2.5,0,4.4,1.7,4.4,4.5
			C686.2,768.5,684.2,770.2,681.7,770.2z M681.7,768.9c1.5,0,3-1,3-3.3c0-2.2-1.5-3.3-3-3.3c-1.5,0-2.9,1-2.9,3.3
			C678.9,767.9,680.2,768.9,681.7,768.9z"/>
		<path class="st4" d="M695.9,770.1h-1.5v-1.3c-0.6,0.9-1.6,1.4-2.8,1.4c-2,0-3.6-1.2-3.6-3.8v-5.1h1.4v4.9c0,1.8,1,2.7,2.4,2.7
			c1.5,0,2.5-0.9,2.5-2.8v-4.8h1.5V770.1z"/>
		<path class="st4" d="M709.1,765.1c0-1.8-1-2.7-2.4-2.7c-1.5,0-2.5,0.9-2.5,2.8v4.8h-1.5v-8.8h1.5v1.2c0.6-0.9,1.6-1.4,2.8-1.4
			c2,0,3.6,1.2,3.6,3.8v5.2h-1.4V765.1z"/>
		<path class="st4" d="M716.7,770.2c-2.5,0-4.3-1.8-4.3-4.5c0-2.8,1.8-4.5,4.3-4.5c2.5,0,4.2,1.8,4.2,4.2c0,0.3,0,0.6,0,0.9h-7
			c0.1,1.8,1.4,2.8,2.8,2.8c1.3,0,2.1-0.7,2.5-1.6h1.6C720.3,769,718.9,770.2,716.7,770.2z M713.9,765.1h5.5c0-1.7-1.3-2.7-2.8-2.7
			C715.2,762.4,714,763.3,713.9,765.1z"/>
		<path class="st4" d="M726.6,770.2c-2.5,0-4.3-1.8-4.3-4.5c0-2.8,1.8-4.5,4.3-4.5c2.5,0,4.2,1.8,4.2,4.2c0,0.3,0,0.6,0,0.9h-7
			c0.1,1.8,1.4,2.8,2.8,2.8c1.3,0,2.1-0.7,2.5-1.6h1.6C730.2,769,728.8,770.2,726.6,770.2z M723.8,765.1h5.5c0-1.7-1.3-2.7-2.8-2.7
			C725.1,762.4,723.9,763.3,723.8,765.1z"/>
		<path class="st4" d="M736.4,761.2c1.4,0,2.6,0.7,3.2,1.7v-4.6h1.5v11.8h-1.5v-1.6c-0.5,1-1.7,1.8-3.3,1.8c-2.4,0-4.2-1.8-4.2-4.6
			C732.2,762.9,734,761.2,736.4,761.2z M736.6,762.4c-1.6,0-3,1.2-3,3.2c0,2.1,1.4,3.3,3,3.3s3-1.2,3-3.3
			C739.6,763.6,738.2,762.4,736.6,762.4z"/>
		<path class="st4" d="M755.6,770.1h-1.5v-1.3c-0.6,0.9-1.6,1.4-2.8,1.4c-2,0-3.6-1.2-3.6-3.8v-5.1h1.4v4.9c0,1.8,1,2.7,2.4,2.7
			c1.5,0,2.5-0.9,2.5-2.8v-4.8h1.5V770.1z"/>
		<path class="st4" d="M761.2,770.2c-2,0-3.5-1.1-3.6-2.7h1.5c0.1,0.8,0.8,1.5,2.1,1.5c1.2,0,1.8-0.6,1.8-1.3c0-2-5.2-0.8-5.2-4.1
			c0-1.3,1.3-2.4,3.2-2.4c1.9,0,3.2,1,3.3,2.8h-1.5c-0.1-0.9-0.7-1.5-1.9-1.5c-1.1,0-1.7,0.5-1.7,1.2c0,2.1,5.1,0.9,5.2,4.1
			C764.4,769.1,763.1,770.2,761.2,770.2z"/>
	</g>
</g>
</svg>
