<svg xmlns="http://www.w3.org/2000/svg" width="37" height="37" viewBox="0 0 37 37">
  <g id="icon_iblinfotech_technology_javascript_angular_js" transform="translate(-295 -17)">
    <rect id="Rectangle_845" data-name="Rectangle 845" width="37" height="37" transform="translate(295 17)" fill="none"/>
    <g id="Group_12851" data-name="Group 12851" transform="translate(286 -263)">
      <path id="Path_5770" data-name="Path 5770" d="M16.541,47.913,1.08,53.354,3.523,73.61l13.034,7.164,13.1-7.26L32.1,53.258Z" transform="translate(10.92 234.087)" fill="#00bcff"/>
      <path id="Path_5771" data-name="Path 5771" d="M30.236,54.392,16.183,49.6V79.026L27.96,72.508Z" transform="translate(11.242 234.123)" fill="#073865"/>
      <path id="Path_5772" data-name="Path 5772" d="M2.778,54.479,4.873,72.594l11.6,6.431V49.6Z" transform="translate(10.956 234.123)" fill="#1e73bc"/>
      <path id="Path_5773" data-name="Path 5773" d="M20.252,65.243l-3.869,1.809H12.3l-1.917,4.794-3.564.065,9.559-21.265,3.87,14.6Zm-.375-.911-3.468-6.867-2.845,6.749h2.82Z" transform="translate(11.043 234.145)" fill="#fff"/>
      <path id="Path_5774" data-name="Path 5774" d="M16.183,50.646l.025,6.818,3.229,6.755H16.189l-.006,2.828,4.489,0,2.1,4.861,3.411.063Z" transform="translate(11.242 234.145)" fill="#fff"/>
    </g>
  </g>
</svg>
