<svg xmlns="http://www.w3.org/2000/svg" xmlns:xlink="http://www.w3.org/1999/xlink" width="37" height="37" viewBox="0 0 37 37">
  <defs>
    <linearGradient id="linear-gradient" x1="0.5" y1="-0.195" x2="0.5" y2="1.296" gradientUnits="objectBoundingBox">
      <stop offset="0" stop-color="#073865"/>
      <stop offset="0.464" stop-color="#1e73bc"/>
      <stop offset="0.577" stop-color="#1e73bc"/>
      <stop offset="0.849" stop-color="#127bca"/>
      <stop offset="1" stop-color="#073865"/>
    </linearGradient>
  </defs>
  <g id="icon_iblinfotech_technology_dot_net_asp_net" transform="translate(-152 -167)">
    <rect id="Rectangle_868" data-name="Rectangle 868" width="37" height="37" transform="translate(152 167)" fill="none"/>
    <g id="Group_12874" data-name="Group 12874" transform="translate(21.823 -193)">
      <path id="Path_5796" data-name="Path 5796" d="M88.5,17.8c1.178,3.6,1.624,10.025,5.067,10.025a4.237,4.237,0,0,0,.793-.076c-3.13-.73-3.5-7.084-5.411-10.375q-.229.208-.449.426" transform="translate(55.027 356.857)" fill="url(#linear-gradient)"/>
      <path id="Path_5797" data-name="Path 5797" d="M91.992,15.053C93.9,18.343,94.273,24.7,97.4,25.427a4.965,4.965,0,0,0,.739-.2c-2.81-1.377-3.586-7.547-5.756-10.517q-.2.168-.4.343" transform="translate(51.983 359.18)" fill="url(#linear-gradient)"/>
      <path id="Path_5798" data-name="Path 5798" d="M94.473,2.145a4.25,4.25,0,0,0-.793.076,6.074,6.074,0,0,0-2.118.885,5.256,5.256,0,0,1,.555.653,7.608,7.608,0,0,1,2.165-1.315,4.827,4.827,0,0,1,.808-.224,2.488,2.488,0,0,0-.616-.075" transform="translate(52.254 370.131)" fill="url(#linear-gradient)"/>
      <path id="Path_5799" data-name="Path 5799" d="M123.178,13.045q.449-.359.864-.757c-1.2-3.584-1.625-10.1-5.093-10.1a4.1,4.1,0,0,0-.748.069c3.159.786,3.563,7.658,4.977,10.788" transform="translate(29.14 370.094)" fill="url(#linear-gradient)"/>
      <path id="Path_5800" data-name="Path 5800" d="M114.836,2.219a2.49,2.49,0,0,0-.616-.075l1.364.005a4.06,4.06,0,0,0-.748.07" transform="translate(32.507 370.132)" fill="url(#linear-gradient)"/>
      <path id="Path_5801" data-name="Path 5801" d="M142.8,89.747a5.135,5.135,0,0,1-.391-.422,7.172,7.172,0,0,1-1.742.93,2.683,2.683,0,0,0,.65.221,2.753,2.753,0,0,0,.553.055,3.629,3.629,0,0,0,1.6-.286,3.031,3.031,0,0,1-.666-.5" transform="translate(9.455 294.153)" fill="url(#linear-gradient)"/>
      <path id="Path_5802" data-name="Path 5802" d="M111.917,2.952c2.829,1.48,3.075,8.181,5.333,10.9q.23-.163.451-.339c-1.413-3.13-1.817-10-4.975-10.788a4.891,4.891,0,0,0-.808.225" transform="translate(34.618 369.623)" fill="url(#linear-gradient)"/>
      <path id="Path_5803" data-name="Path 5803" d="M95.067,5.8c2.169,2.97,2.946,9.141,5.756,10.517a7.17,7.17,0,0,0,1.742-.93c-2.257-2.721-2.5-9.422-5.333-10.9A7.6,7.6,0,0,0,95.067,5.8" transform="translate(49.303 368.095)" fill="url(#linear-gradient)"/>
      <path id="Path_5804" data-name="Path 5804" d="M70.188,14.08a32.348,32.348,0,0,0-1.107,3.1,23.031,23.031,0,0,1,2.5-3.011,9.03,9.03,0,0,0-.368-.962,12.431,12.431,0,0,0-1.019.875" transform="translate(71.95 360.492)" fill="url(#linear-gradient)"/>
      <path id="Path_5805" data-name="Path 5805" d="M86.746,11.479q-.152.108-.3.222a9.045,9.045,0,0,1,.368.962q.221-.217.449-.426a5.964,5.964,0,0,0-.515-.758" transform="translate(56.713 361.996)" fill="url(#linear-gradient)"/>
      <path id="Path_5806" data-name="Path 5806" d="M89.144,9.629q-.181.115-.356.237a5.989,5.989,0,0,1,.516.758q.194-.176.4-.343a5.243,5.243,0,0,0-.555-.653" transform="translate(54.671 363.608)" fill="url(#linear-gradient)"/>
      <path id="Path_5807" data-name="Path 5807" d="M183.763,0c-1.6,6.171-4.942,11.127-7.744,12.377h-.005c-.051.023-.1.044-.151.065a.123.123,0,0,1-.019.007l-.043.016a.114.114,0,0,1-.019.008c-.024.008-.047.016-.07.025l-.029.01-.035.011-.034.012-.03.01-.06.018a.108.108,0,0,0-.025.007l-.041.011a.124.124,0,0,1-.027.008l-.044.011-.054.012a1.141,1.141,0,0,0,.4.07c2.657,0,5.336-4.761,9.768-12.679h-1.74Z" transform="translate(-20.651 372)" fill="url(#linear-gradient)"/>
      <path id="Path_5808" data-name="Path 5808" d="M8.454,2.378s0,0,0,0,.005,0,.006,0h0l.043-.016a.008.008,0,0,0,.008,0s.007,0,.011,0l.046-.016h0c.035-.011.068-.024.1-.036,0,0,.01,0,.015,0s.029-.01.044-.013a.081.081,0,0,1,.02-.006L8.8,2.256c.006,0,.012,0,.017,0l.146-.038c.007,0,.013,0,.02,0A.282.282,0,0,1,9.03,2.2a.075.075,0,0,1,.021-.006c.014,0,.028,0,.043-.008H9.1l.089-.016h.018a.375.375,0,0,1,.041-.007c.008,0,.016,0,.023,0a.319.319,0,0,0,.039-.006.041.041,0,0,0,.022,0c.031,0,.063-.006.1-.008q-.141-.014-.283-.015c-2.992,0-7.115,5.552-8.972,12.741H.535c.594-1.06,1.128-2.062,1.616-3C3.452,6.77,6.1,3.3,8.454,2.377" transform="translate(132 370.148)" fill="url(#linear-gradient)"/>
      <path id="Path_5809" data-name="Path 5809" d="M78.509,10.9a12.429,12.429,0,0,1,1.019-.875,4.815,4.815,0,0,0-.243-.469,5.752,5.752,0,0,0-.777,1.344" transform="translate(63.629 363.675)" fill="url(#linear-gradient)"/>
      <path id="Path_5810" data-name="Path 5810" d="M80.165,4.29a2.553,2.553,0,0,1,.531.66c.05-.062.1-.119.154-.173a3,3,0,0,0-.723-.506l.032.015s0,0,.006,0" transform="translate(62.219 368.278)" fill="url(#linear-gradient)"/>
      <path id="Path_5811" data-name="Path 5811" d="M15.54,13.578c2.728-5.258,4.021-8.585,6.3-9.486-2.353.921-5,4.394-6.3,9.486" transform="translate(118.611 368.434)" fill="url(#linear-gradient)"/>
      <path id="Path_5812" data-name="Path 5812" d="M84.705,8.208c-.053.054-.1.111-.154.173a4.881,4.881,0,0,1,.243.469q.149-.113.3-.222a4.1,4.1,0,0,0-.39-.42" transform="translate(58.363 364.847)" fill="url(#linear-gradient)"/>
      <path id="Path_5813" data-name="Path 5813" d="M23.7,51.434a.342.342,0,0,1-.049.006h-.009c-.014,0-.029,0-.042,0h-.007c-.034,0-.068,0-.1.007h-.011a4.486,4.486,0,0,0,4.65-3.465c.476-1.52.867-2.8,1.21-3.875a54.891,54.891,0,0,0-3.487,5.743A2.86,2.86,0,0,1,23.7,51.432" transform="translate(111.693 333.558)" fill="url(#linear-gradient)"/>
      <path id="Path_5814" data-name="Path 5814" d="M25.179,30.425a2.858,2.858,0,0,0,2.154-1.579A55.18,55.18,0,0,1,30.82,23.1,32.262,32.262,0,0,1,31.927,20c-2.3,2.192-4.615,5.838-6.748,10.419" transform="translate(110.211 354.565)" fill="url(#linear-gradient)"/>
      <path id="Path_5815" data-name="Path 5815" d="M5.386,77.916c-.488.941-1.022,1.944-1.616,3H4.811a25.443,25.443,0,0,1,.576-3" transform="translate(128.765 304.096)" fill="url(#linear-gradient)"/>
      <path id="Path_5816" data-name="Path 5816" d="M18.84,2.3c-.008,0-.015,0-.022,0a.171.171,0,0,1-.039.006.045.045,0,0,0-.023,0c-.014,0-.027,0-.041.007a.027.027,0,0,0-.018,0l-.089.016H18.6a.336.336,0,0,1-.043.008.074.074,0,0,1-.022.006.393.393,0,0,1-.042.008.04.04,0,0,1-.02,0l-.146.038c-.005,0-.011,0-.017.005l-.044.013a.059.059,0,0,1-.02.006l-.044.013c-.006,0-.01,0-.016,0-.034.013-.067.025-.1.036l-.046.016a.092.092,0,0,1-.019.008l-.043.016a.069.069,0,0,1-.014.007c-2.282.9-3.574,4.228-6.3,9.486a25.332,25.332,0,0,0-.575,3h.146c.411,0,.528,0,1,0h.459c.033,0,.066,0,.1-.007H12.8c.014,0,.028,0,.042,0h.01c.015,0,.033,0,.049-.006,2.133-4.581,4.445-8.227,6.748-10.419a5.765,5.765,0,0,1,.776-1.344,2.546,2.546,0,0,0-.53-.66s-.005,0-.006,0l-.033-.015-.032-.016-.031-.015a.319.319,0,0,1-.037-.016L19.724,2.5l-.06-.025-.026-.01-.045-.018a.137.137,0,0,0-.024-.008l-.062-.021H19.5c-.024-.008-.048-.014-.072-.021a.031.031,0,0,0-.016-.005l-.061-.017c-.005,0-.01,0-.014,0q-.075-.019-.152-.033c-.005,0-.01,0-.016,0L19.1,2.322a.018.018,0,0,0-.013,0l-.078-.01H19c-.021,0-.04,0-.06-.007s-.065.006-.1.009" transform="translate(122.495 369.995)" fill="url(#linear-gradient)"/>
      <path id="Path_5817" data-name="Path 5817" d="M183.341,5.281c-.525,1.682-.95,3.069-1.32,4.21a45.716,45.716,0,0,0,4.21-7.353,4.328,4.328,0,0,0-2.89,3.143" transform="translate(-26.478 370.137)" fill="url(#linear-gradient)"/>
      <path id="Path_5818" data-name="Path 5818" d="M180.887,12.283c-.073.038-.147.073-.22.105,2.8-1.25,6.144-6.206,7.744-12.377h-.324c-3.676,6.567-4.859,10.963-7.2,12.272" transform="translate(-25.298 371.99)" fill="url(#linear-gradient)"/>
      <path id="Path_5819" data-name="Path 5819" d="M165.035,63.458a13.525,13.525,0,0,0,1.784-4.094,20.49,20.49,0,0,1-2.357,2.751s0,0,0,.007a7.174,7.174,0,0,0,.575,1.336" transform="translate(-11.276 320.264)" fill="url(#linear-gradient)"/>
      <path id="Path_5820" data-name="Path 5820" d="M163.288,91.223a2.5,2.5,0,0,1-.672.589c-.054.031-.108.06-.163.087a2.361,2.361,0,0,0,.855.269l.14.012h.008a.378.378,0,0,1,.067,0h.228a.056.056,0,0,0,.026,0,.2.2,0,0,0,.05,0h.025c.017,0,.036,0,.055-.006h0c.006,0,.011,0,.017,0s.04-.006.058-.009H164l.066-.011h.011c.044-.008.087-.017.131-.028a1.9,1.9,0,0,1-.925-.889" transform="translate(-9.53 292.498)" fill="url(#linear-gradient)"/>
      <path id="Path_5821" data-name="Path 5821" d="M128.746,96.84a4.206,4.206,0,0,0,.793-.077,4.916,4.916,0,0,0,.739-.2,2.688,2.688,0,0,0,.649.221,2.757,2.757,0,0,0,.554.055Z" transform="translate(19.847 287.844)" fill="url(#linear-gradient)"/>
      <path id="Path_5822" data-name="Path 5822" d="M150.021,96.772a3.625,3.625,0,0,0,1.6-.286,2.362,2.362,0,0,0,.855.27l.14.012h.008a.367.367,0,0,1,.067,0h-2.666Z" transform="translate(1.307 287.912)" fill="url(#linear-gradient)"/>
      <path id="Path_5823" data-name="Path 5823" d="M171.408,98.24h.15a.056.056,0,0,0,.026,0,.212.212,0,0,0,.051,0h.025c.017,0,.036,0,.054-.006h0c.006,0,.011,0,.016,0s.039-.006.058-.009a.03.03,0,0,0,.018,0l.066-.01h.011c.044-.008.087-.017.131-.028a1.142,1.142,0,0,0,.4.07l-1.01,0Z" transform="translate(-17.333 286.444)" fill="url(#linear-gradient)"/>
      <path id="Path_5824" data-name="Path 5824" d="M155.55,80.794v0q-.414.4-.864.757-.221.176-.451.339a5.115,5.115,0,0,0,.391.423,3.032,3.032,0,0,0,.666.5c.055-.027.109-.056.162-.087a2.491,2.491,0,0,0,.672-.589,7.191,7.191,0,0,1-.575-1.336" transform="translate(-2.367 301.591)" fill="url(#linear-gradient)"/>
      <path id="Path_5825" data-name="Path 5825" d="M176.128.011H174.5c-.088,0-.174.007-.258.013-.04.086-.081.171-.12.258a45.708,45.708,0,0,1-4.21,7.353,13.515,13.515,0,0,1-1.784,4.094,1.908,1.908,0,0,0,.924.89.162.162,0,0,1,.028-.006h.006c.006,0,.013,0,.02,0l.045-.011a.225.225,0,0,1,.027-.008l.04-.01a.094.094,0,0,1,.025-.007l.06-.018a.171.171,0,0,1,.03-.01.357.357,0,0,0,.034-.012c.012,0,.024-.006.035-.011l.028-.011.07-.025c.006,0,.013-.006.02-.007l.043-.017a.052.052,0,0,1,.018-.007c.049-.021.1-.042.151-.065h.005q.111-.049.219-.105c2.342-1.308,3.525-5.7,7.2-12.272h-1.026Z" transform="translate(-14.366 371.99)" fill="url(#linear-gradient)"/>
      <path id="Path_5826" data-name="Path 5826" d="M73.009,2.233a.025.025,0,0,1,.017,0,.134.134,0,0,1,.043,0h.014l.078.01a.016.016,0,0,1,.013,0l.066.011s.011,0,.016,0c.05.01.1.021.151.034,0,0,.01,0,.014,0l.061.017c.006,0,.011,0,.017.005.025.006.048.013.072.021,0,0,0,0,.005,0l.063.021a.127.127,0,0,0,.024.008l.045.019a.092.092,0,0,1,.026.009l.06.025.03.013a.25.25,0,0,0,.036.015l.032.015.032.016A3.014,3.014,0,0,1,74.647,3a2.348,2.348,0,0,1,.256-.233,2.822,2.822,0,0,0-1.672-.541c-.074,0-.147,0-.222.01" transform="translate(68.422 370.057)" fill="url(#linear-gradient)"/>
      <path id="Path_5827" data-name="Path 5827" d="M85.753,6.628a4.1,4.1,0,0,1,.39.42q.175-.123.356-.238a3.759,3.759,0,0,0-.49-.416,2.3,2.3,0,0,0-.256.233" transform="translate(57.316 366.427)" fill="url(#linear-gradient)"/>
      <path id="Path_5828" data-name="Path 5828" d="M70.28-6.381c.075-.006.148-.009.222-.009a2.825,2.825,0,0,1,1.672.541A3.025,3.025,0,0,1,74.168-6.4H70c.1,0,.19.006.283.014" transform="translate(71.151 378.671)" fill="url(#linear-gradient)"/>
      <path id="Path_5829" data-name="Path 5829" d="M88.931-9.63a3.025,3.025,0,0,0-1.994.546,3.789,3.789,0,0,1,.49.416,6.078,6.078,0,0,1,2.119-.886,4.3,4.3,0,0,1,.793-.076H88.931Z" transform="translate(56.388 381.906)" fill="url(#linear-gradient)"/>
      <path id="Path_5830" data-name="Path 5830" d="M166.039,7.746c.37-1.142.795-2.529,1.321-4.211A4.326,4.326,0,0,1,170.249.392c.042-.085.081-.172.121-.257A4.392,4.392,0,0,0,166,3.53c-1.057,3.379-1.7,5.569-2.313,6.965a20.534,20.534,0,0,0,2.356-2.749" transform="translate(-10.497 371.883)" fill="url(#linear-gradient)"/>
    </g>
  </g>
</svg>
