<?xml version="1.0" encoding="utf-8"?>
<!-- Generator: Adobe illustrator 23.0.2, SVG Export Plug-In . SVG Version: 6.00 Build 0)  -->
<svg version="1.1" id="Layer_1" xmlns="http://www.w3.org/2000/svg" xmlns:xlink="http://www.w3.org/1999/xlink" x="0px" y="0px"
	 viewBox="0 0 58.79 61.77" style="enable-background:new 0 0 58.79 61.77;" xml:space="preserve">
<style type="text/css">
	.st0{display:none;fill:#FFFFFF;}
	.st1{fill:#173A64;}
	.st2{fill:#2374BB;}
	.st3{fill:#FFFFFF;}
</style>
<path class="st0" d="M29.57,61.68c-10.06,0-20.12,0-30.17,0.01c-0.4,0-0.49-0.07-0.49-0.49c0.01-20.16,0.01-40.31,0-60.47
	c0-0.47,0.14-0.51,0.54-0.51c20.14,0.01,40.27,0.01,60.41,0c0.42,0,0.53,0.08,0.53,0.52c-0.01,20.14-0.01,40.27,0,60.41
	c0,0.48-0.14,0.54-0.56,0.54C49.72,61.68,39.64,61.68,29.57,61.68z"/>
<path class="st1" d="M0.48,27.35c0-5.94,0.07-11.88-0.04-17.82C0.4,7.24,1.37,5.74,3.14,4.54c2.2-1.49,4.66-2.35,7.21-2.97
	c5.16-1.24,10.38-1.5,15.65-0.89c3.51,0.41,6.93,1.18,10.14,2.69c1.34,0.63,2.6,1.41,3.64,2.49c0.84,0.87,1.28,1.87,1.27,3.12
	c-0.03,8.38-0.02,16.76,0,25.14c0,0.65-0.18,0.8-0.8,0.87c-4.87,0.54-8.52,2.96-10.92,7.24c-0.19,0.33-0.4,0.37-0.72,0.34
	c-3.39-0.24-6.26,0.86-8.52,3.4c-2,2.25-2.85,4.91-2.51,7.92c0.03,0.29,0.06,0.49-0.36,0.46c-4.42-0.4-8.74-1.2-12.73-3.29
	c-1.14-0.6-2.18-1.33-3.02-2.32c-0.69-0.81-1.02-1.73-1.02-2.8C0.48,39.75,0.48,33.55,0.48,27.35z"/>
<path class="st2" d="M40.88,61.56c-4.32,0-8.64,0-12.96,0c-4.63,0-8.35-3.13-8.93-7.72c-0.78-6.22,4.8-10.84,10.32-9.73
	c0.47,0.09,0.68,0.01,0.9-0.45c2.15-4.43,5.67-6.96,10.59-7.3c5.87-0.41,10.97,3.11,12.81,8.7c0.61,1.85,0.76,3.76,0.44,5.68
	c-0.07,0.41,0,0.55,0.42,0.61c2.29,0.35,4.16,2.4,4.3,4.66c0.14,2.46-1.42,4.81-3.63,5.48c-0.24,0.07-0.47,0.06-0.71,0.06
	C49.92,61.56,45.4,61.56,40.88,61.56z"/>
<path class="st3" d="M20.74,3.34c3.69-0.01,7.34,0.28,10.87,1.46c1.01,0.34,1.98,0.75,2.79,1.47c1.08,0.96,1.07,2.01-0.05,2.94
	c-1.05,0.88-2.31,1.34-3.6,1.7c-4.26,1.19-8.62,1.39-13.01,1.12c-2.96-0.18-5.88-0.59-8.66-1.7c-0.74-0.3-1.45-0.67-2.05-1.22
	C6.08,8.24,6.07,7.25,7,6.36c0.8-0.76,1.79-1.19,2.82-1.54c2.92-1,5.95-1.36,9.01-1.48C19.46,3.32,20.1,3.34,20.74,3.34z"/>
<path class="st3" d="M23.45,34.37c1.2,1.02,2.34,1.99,3.47,2.96c-0.07,0.21-0.24,0.12-0.36,0.12c-1.08,0.01-2.16-0.01-3.24,0.01
	c-0.31,0-0.52-0.09-0.72-0.32c-0.57-0.64-1.18-1.25-1.74-1.9c-0.23-0.26-0.49-0.38-0.82-0.43c-2.99-0.47-4.88-2.97-4.54-6.01
	c0.48-4.3,4.61-6.48,8.41-4.4c1.36,0.74,2.13,1.98,2.38,3.49c0.39,2.36-0.08,4.45-2.09,5.99C24,34.05,23.75,34.18,23.45,34.37z"/>
<path class="st3" d="M6.93,31.39c0.73,0.42,1.39,0.77,2.13,0.95c0.45,0.11,0.9,0.19,1.36,0.07c0.31-0.08,0.56-0.22,0.64-0.55
	c0.08-0.35-0.05-0.64-0.34-0.83c-0.26-0.18-0.56-0.31-0.84-0.44c-0.34-0.16-0.7-0.29-1.04-0.45c-1.43-0.68-2.19-1.88-2.06-3.2
	c0.16-1.59,1.07-2.63,2.68-3.05c1.45-0.38,2.89-0.27,4.32,0.09c0.23,0.06,0.41,0.11,0.4,0.41c-0.02,0.7-0.01,1.4,0,2.1
	c0.01,0.35-0.15,0.28-0.36,0.18c-0.66-0.31-1.34-0.53-2.07-0.54c-0.22,0-0.44,0-0.65,0.03c-0.37,0.05-0.71,0.18-0.78,0.61
	c-0.07,0.42,0.18,0.68,0.52,0.85c0.66,0.32,1.35,0.59,2,0.94c1.99,1.08,2.55,3.15,1.3,4.82c-0.62,0.84-1.53,1.21-2.5,1.39
	c-1.42,0.27-2.82,0.14-4.21-0.24c-0.36-0.1-0.51-0.27-0.5-0.67C6.95,33.06,6.93,32.26,6.93,31.39z"/>
<path class="st3" d="M27.97,29.26c0-1.62,0.02-3.24-0.01-4.85c-0.01-0.49,0.15-0.61,0.61-0.59c0.74,0.03,1.48,0.03,2.22,0
	c0.41-0.02,0.5,0.14,0.5,0.52c-0.01,2.4,0.01,4.79-0.02,7.19c-0.01,0.5,0.13,0.65,0.63,0.63c0.9-0.04,1.8,0,2.7-0.02
	c0.34-0.01,0.45,0.1,0.44,0.44c-0.03,0.56-0.03,1.12,0,1.68c0.02,0.39-0.14,0.46-0.48,0.45c-2.04-0.01-4.07-0.01-6.11,0
	c-0.36,0-0.48-0.1-0.47-0.47C27.98,32.58,27.97,30.92,27.97,29.26z"/>
<path class="st3" d="M40.46,60.14c-4.36,0-8.72,0.05-13.08-0.02c-3.18-0.05-5.97-2.32-6.77-5.33c-0.87-3.24,0.36-6.52,3.12-8.26
	c2.04-1.29,4.22-1.53,6.48-0.73c0.5,0.18,0.66,0.09,0.83-0.4c1.61-4.72,5.79-7.72,10.67-7.7c5.53,0.02,10.22,4.16,10.98,9.65
	c0.22,1.57,0.1,3.11-0.32,4.63c-0.23,0.86-0.23,0.85,0.64,0.74c1.38-0.17,2.58,0.22,3.48,1.31c0.97,1.17,1.17,2.5,0.56,3.87
	c-0.63,1.41-1.75,2.22-3.33,2.23c-3.88,0.02-7.76,0.01-11.64,0.01C41.54,60.14,41,60.14,40.46,60.14z"/>
<path class="st1" d="M22.97,29.17c-0.03,0.98-0.14,1.67-0.6,2.24c-0.77,0.97-2.27,0.93-2.89-0.14c-0.74-1.28-0.7-2.64-0.03-3.94
	c0.32-0.63,0.95-0.9,1.65-0.88c0.7,0.02,1.17,0.41,1.49,1.03C22.91,28.1,22.96,28.76,22.97,29.17z"/>
</svg>
