<svg xmlns="http://www.w3.org/2000/svg" xmlns:xlink="http://www.w3.org/1999/xlink" width="37" height="37" viewBox="0 0 37 37">
  <defs>
    <linearGradient id="linear-gradient" y1="0.442" x2="1.032" y2="0.452" gradientUnits="objectBoundingBox">
      <stop offset="0" stop-color="#1e73bc"/>
      <stop offset="1" stop-color="#073865"/>
    </linearGradient>
  </defs>
  <g id="icon_iblinfotech_technology_html_css_bootstrap" transform="translate(-392 -120)">
    <rect id="Rectangle_865" data-name="Rectangle 865" width="37" height="37" transform="translate(392 120)" fill="none"/>
    <g id="Group_12865" data-name="Group 12865" transform="translate(18.531 -207)">
      <path id="Bootstrap" d="M29.733,18.295a8.968,8.968,0,0,0-2.549-.226H23.2v5.952h4.292a8.569,8.569,0,0,0,1.569-.13,3.752,3.752,0,0,0,1.331-.5,2.557,2.557,0,0,0,.879-.98,3.057,3.057,0,0,0,.345-1.473,2.8,2.8,0,0,0-.5-1.663,2.581,2.581,0,0,0-1.384-.98Zm-.612-2.563a2.477,2.477,0,0,0,1.325-.894,2.536,2.536,0,0,0,.446-1.534,2.825,2.825,0,0,0-.416-1.534,2.1,2.1,0,0,0-1.188-.9,9.983,9.983,0,0,0-2.65-.241H23.2v5.356h3.722a7.888,7.888,0,0,0,2.2-.254ZM42.543,6.2a4.2,4.2,0,0,0-4.2-4.2H15.2A4.2,4.2,0,0,0,11,6.2V29.339a4.2,4.2,0,0,0,4.2,4.2H38.339a4.2,4.2,0,0,0,4.2-4.2Zm-9.055,17a4.405,4.405,0,0,1-1.277,1.622,5.391,5.391,0,0,1-1.907.922,11.314,11.314,0,0,1-2.81.351H20.82V8.547h6.566a8.077,8.077,0,0,1,3.2.537,4.13,4.13,0,0,1,1.89,1.632,4.3,4.3,0,0,1,.683,2.3,3.958,3.958,0,0,1-.606,2.1,4.326,4.326,0,0,1-1.83,1.593,4.551,4.551,0,0,1,2.43,1.581A4.234,4.234,0,0,1,34,20.933a5.087,5.087,0,0,1-.517,2.275Z" transform="translate(365.469 328)" fill="url(#linear-gradient)"/>
    </g>
  </g>
</svg>
