<svg xmlns="http://www.w3.org/2000/svg" xmlns:xlink="http://www.w3.org/1999/xlink" width="37" height="37" viewBox="0 0 37 37">
  <defs>
    <linearGradient id="linear-gradient" x1="1" y1="0.644" x2="0" y2="0.629" gradientUnits="objectBoundingBox">
      <stop offset="0" stop-color="#073865"/>
      <stop offset="1" stop-color="#1e73bc"/>
    </linearGradient>
  </defs>
  <g id="icon_iblinfotech_technology_php_codeigniter" transform="translate(-62 -17)">
    <rect id="Rectangle_840" data-name="Rectangle 840" width="37" height="37" transform="translate(62 17)" fill="none"/>
    <path id="codeigniter" d="M37.16,32.1a6.149,6.149,0,0,1-3.73-5.11,7.182,7.182,0,0,1,3.349-5.678,2.564,2.564,0,0,0,.208,2.372,2.243,2.243,0,0,0,2.268.858c1.989-.435,2.08-2.622.9-3.9s-2.294-2.687-1.85-4.517a4.705,4.705,0,0,1,1.5-2.39c-.548,1.441,1.01,2.862,2.037,3.57a54.564,54.564,0,0,1,5.373,3.6,7,7,0,0,1,2.738,5.932c-.278,2.572-2.322,4.361-4.615,5.264,4.844-1.069,9.85-4.829,9.952-10.2.085-4.42-2.947-7.822-6.7-9.769l-.2-.107a1.6,1.6,0,0,1,.133.653,2.285,2.285,0,0,0,.063-.434,2.114,2.114,0,0,1-.069.524l.006-.09a2.2,2.2,0,0,1-.278.663l.055-.059a2.357,2.357,0,0,1-3.78.226c-1.611-2.07.034-4.3.264-6.494C45.072,4.263,43.349,1.6,41.212,0c1.177,1.9-.374,4.421-1.614,5.829-1.2,1.365-2.665,2.5-3.993,3.744a33.279,33.279,0,0,0-3.969,4.3c-2.344,3.128-3.78,7.063-2.725,10.966S33.345,31.22,37.16,32.1Z" transform="translate(38.44 19)" fill="url(#linear-gradient)"/>
  </g>
</svg>
