<?xml version="1.0" encoding="utf-8"?>
<!-- Generator: Adobe illustrator 23.0.2, SVG Export Plug-In . SVG Version: 6.00 Build 0)  -->
<svg version="1.1" id="Layer_1" xmlns="http://www.w3.org/2000/svg" xmlns:xlink="http://www.w3.org/1999/xlink" x="0px" y="0px"
	 viewBox="0 0 46.06 50.47" style="enable-background:new 0 0 46.06 50.47;" xml:space="preserve">
<style type="text/css">
	.st0{fill:#173A64;}
	.st1{fill:#FEFEFE;}
</style>
<path class="st0" d="M0.24,25.21c0-3.36,0-6.72,0-10.08c0-1.79,0.79-3.14,2.34-4.02c4.79-2.7,9.58-5.39,14.38-8.08
	c1.25-0.7,2.49-1.42,3.76-2.11c1.49-0.81,3.02-0.82,4.5,0c3.7,2.06,7.39,4.15,11.09,6.22c2.32,1.3,4.63,2.61,6.95,3.9
	c0.91,0.51,1.62,1.19,2.05,2.15c0.25,0.55,0.39,1.13,0.39,1.73c0,6.86,0.01,13.72-0.01,20.58c-0.01,1.68-0.83,2.97-2.29,3.79
	c-6.05,3.41-12.1,6.82-18.16,10.2c-1.52,0.85-3.07,0.82-4.59-0.03c-5.22-2.93-10.44-5.86-15.66-8.8c-0.88-0.5-1.78-0.97-2.64-1.5
	c-1.21-0.75-1.9-1.84-2.07-3.26c-0.02-0.19-0.03-0.38-0.03-0.57C0.24,31.96,0.24,28.58,0.24,25.21z"/>
<path class="st1" d="M33.29,17.36c-0.43,0.25-0.86,0.5-1.29,0.75c-1.11,0.64-2.21,1.28-3.32,1.92c-0.1,0.06-0.15,0.06-0.24-0.03
	c-1.04-1.09-2.29-1.83-3.75-2.15c-2.45-0.55-4.67-0.02-6.61,1.59c-1.35,1.12-2.21,2.55-2.54,4.27c-0.46,2.4,0.1,4.56,1.67,6.43
	c1.04,1.24,2.36,2.07,3.94,2.43c2.81,0.64,5.24-0.1,7.28-2.13c0.09-0.09,0.15-0.09,0.25-0.03c1.48,0.86,2.97,1.72,4.45,2.58
	c0.12,0.07,0.13,0.11,0.04,0.21c-2.02,2.54-4.61,4.18-7.81,4.76c-3.92,0.72-7.48-0.18-10.58-2.67c-2.58-2.07-4.16-4.77-4.65-8.04
	c-0.67-4.49,0.68-8.35,3.94-11.5c1.93-1.87,4.27-3.01,6.93-3.37c4.5-0.61,8.34,0.75,11.48,4.05c0.25,0.26,0.48,0.55,0.71,0.84
	C33.24,17.3,33.26,17.32,33.29,17.36z"/>
<path class="st1" d="M37.03,28.46c-0.32,0-0.63,0-0.95,0c-0.11,0-0.13,0.03-0.13,0.13c0,0.63,0,1.25,0.01,1.88
	c0,0.12-0.02,0.16-0.15,0.16c-0.63-0.01-1.25-0.01-1.88,0c-0.11,0-0.14-0.03-0.14-0.14c0.01-0.6,0-1.21,0.01-1.81
	c0-0.17-0.03-0.23-0.21-0.22c-0.6,0.01-1.21,0-1.81,0.01c-0.12,0-0.15-0.03-0.15-0.15c0.01-0.63,0.01-1.25,0-1.88
	c0-0.12,0.04-0.15,0.15-0.15c0.63,0.01,1.25,0,1.88,0c0.11,0,0.14-0.02,0.14-0.14c-0.01-0.63-0.01-1.26,0-1.89
	c0-0.11-0.03-0.14-0.14-0.14c-0.63,0-1.25,0-1.88,0c-0.11,0-0.15-0.02-0.15-0.15c0.01-0.63,0.01-1.25,0-1.88
	c0-0.12,0.03-0.15,0.15-0.15c0.6,0.01,1.21,0,1.81,0.01c0.16,0,0.22-0.02,0.21-0.2c-0.01-0.6,0-1.21-0.01-1.81
	c0-0.13,0.03-0.16,0.16-0.16c0.62,0.01,1.24,0.01,1.86,0c0.13,0,0.16,0.04,0.15,0.16c-0.01,0.62,0,1.24-0.01,1.86
	c0,0.12,0.03,0.15,0.15,0.15c0.63-0.01,1.25-0.01,1.88,0c0.12,0,0.15-0.04,0.15-0.15c-0.01-0.63,0-1.25,0-1.88
	c0-0.11,0.02-0.14,0.14-0.14c0.63,0.01,1.26,0.01,1.89,0c0.11,0,0.14,0.03,0.14,0.14c-0.01,0.6,0,1.21-0.01,1.81
	c0,0.17,0.03,0.23,0.21,0.22c0.6-0.01,1.21,0,1.81-0.01c0.12,0,0.15,0.03,0.15,0.15c-0.01,0.63-0.01,1.25,0,1.88
	c0,0.12-0.04,0.15-0.15,0.15c-0.63-0.01-1.25,0-1.88,0c-0.11,0-0.14,0.02-0.14,0.14c0.01,0.63,0.01,1.26,0,1.89
	c0,0.11,0.03,0.14,0.14,0.14c0.63,0,1.25,0,1.88,0c0.11,0,0.15,0.02,0.15,0.15c-0.01,0.63-0.01,1.25,0,1.88
	c0,0.12-0.03,0.15-0.15,0.15c-0.6-0.01-1.21,0-1.81-0.01c-0.16,0-0.22,0.02-0.21,0.2c0.01,0.6,0,1.21,0.01,1.81
	c0,0.13-0.03,0.16-0.16,0.16c-0.62-0.01-1.24-0.01-1.86,0c-0.13,0-0.16-0.04-0.15-0.16c0.01-0.62,0-1.24,0.01-1.86
	c0-0.12-0.03-0.15-0.15-0.15C37.66,28.47,37.34,28.46,37.03,28.46z"/>
<path class="st0" d="M37.04,24.14c0.32,0,0.64,0,0.96,0c0.1,0,0.12,0.03,0.12,0.12c0,0.64,0,1.28,0,1.92c0,0.1-0.03,0.12-0.12,0.12
	c-0.64,0-1.28,0-1.92,0c-0.1,0-0.12-0.03-0.12-0.12c0-0.64,0-1.28,0-1.92c0-0.1,0.03-0.12,0.12-0.12
	C36.39,24.14,36.71,24.14,37.04,24.14z"/>
</svg>
