<svg xmlns="http://www.w3.org/2000/svg" width="37" height="37" viewBox="0 0 37 37">
  <g id="icon_iblinfotech_technology_cloud_digital_ocean" transform="translate(-198 -120)">
    <rect id="Rectangle_861" data-name="Rectangle 861" width="37" height="37" transform="translate(198 120)" fill="none"/>
    <g id="Group_12867" data-name="Group 12867" transform="translate(-16.257 2.226)">
      <g id="Group_12866" data-name="Group 12866" transform="translate(216.257 119.774)">
        <path id="Path_5906" data-name="Path 5906" d="M16.249,32.628V26.28a10,10,0,0,0,9.327-13.658A9.46,9.46,0,0,0,19.9,6.95,10.028,10.028,0,0,0,6.346,16.277H0A16.416,16.416,0,0,1,21.537.793,15.722,15.722,0,0,1,31.826,11.083,16.434,16.434,0,0,1,16.249,32.628Z" transform="translate(0 0.001)" fill="#073865"/>
        <path id="Path_5907" data-name="Path 5907" d="M21.187,62.265H14.841V56.013h6.346M14.841,67.171H10.033V62.265h4.807v4.906m-4.807-4.906H6V58.226h4.033" transform="translate(-4.842 -35.984)" fill="#1e73bc"/>
      </g>
    </g>
  </g>
</svg>
