<svg xmlns="http://www.w3.org/2000/svg" xmlns:xlink="http://www.w3.org/1999/xlink" width="37" height="37" viewBox="0 0 37 37">
  <defs>
    <linearGradient id="linear-gradient" y1="0.573" x2="1.052" y2="0.5" gradientUnits="objectBoundingBox">
      <stop offset="0" stop-color="#1e73bc"/>
      <stop offset="1" stop-color="#073865"/>
    </linearGradient>
  </defs>
  <g id="icon_iblinfotech_technology_cloud_docker" transform="translate(-48 -120)">
    <rect id="Rectangle_858" data-name="Rectangle 858" width="37" height="37" transform="translate(48 120)" fill="none"/>
    <g id="Group_12857" data-name="Group 12857" transform="translate(-858.46 -818)">
      <path id="Docker" d="M2.635,23.567l.027.054c2.139,3.627,5.874,5.143,9.962,5.143,7.9,0,14.428-3.546,17.406-10.99,2,.108,4.06-.487,5.035-2.409l.244-.487-.487-.271a5.274,5.274,0,0,0-4.006-.379,5.472,5.472,0,0,0-2.166-3.492l-.433-.352-.352.433a4.664,4.664,0,0,0-.839,3.33,4.527,4.527,0,0,0,.812,2.247,8.362,8.362,0,0,1-1.164.65,7.416,7.416,0,0,1-2.409.541H22.45V13.767H18.931V7H14.87v3.248H8.1v3.519H4.584v3.79H1.552l-.054.406a9.95,9.95,0,0,0,.812,5.008l.325.6Zm16.3-8.987h2.978v2.978H18.931ZM15.412,7.541h2.978v2.978H15.412Zm0,3.519h2.978v2.978H15.412Zm0,3.519h2.978v2.978H15.412ZM11.893,11.06H14.87v2.978H11.893Zm0,3.519H14.87v2.978H11.893Zm.3,8.446a.839.839,0,1,1-.839-.839A.862.862,0,0,1,12.19,23.025ZM8.644,11.06h2.707v2.978H8.644Zm0,3.519h2.707v2.978H8.644Zm-3.519,0H8.1v2.978H5.125Zm.65,10.287c.433,0,.866,0,1.272-.027a12.43,12.43,0,0,0,2.734-.406,7.359,7.359,0,0,0,3.79,3.736l-.947.027a10.93,10.93,0,0,1-8.473-3.357C4.719,24.866,5.26,24.866,5.775,24.866Zm5.576-1.245a.6.6,0,0,0,.6-.6.51.51,0,0,0-.054-.217.243.243,0,0,1-.46-.108.334.334,0,0,1,.108-.217.316.316,0,0,0-.189-.054.6.6,0,0,0-.6.6.619.619,0,0,0,.6.6Z" transform="translate(907 939)" fill="url(#linear-gradient)"/>
    </g>
  </g>
</svg>
