<svg xmlns="http://www.w3.org/2000/svg" xmlns:xlink="http://www.w3.org/1999/xlink" width="37" height="37" viewBox="0 0 37 37">
  <defs>
    <linearGradient id="linear-gradient" x1="1" y1="0.946" x2="0.091" y2="0.793" gradientUnits="objectBoundingBox">
      <stop offset="0" stop-color="#073865"/>
      <stop offset="1" stop-color="#1e73bc"/>
    </linearGradient>
  </defs>
  <g id="icon_iblinfotech_technology_python_flask" transform="translate(-48 -167)">
    <rect id="Rectangle_866" data-name="Rectangle 866" width="37" height="37" transform="translate(48 167)" fill="none"/>
    <g id="iblinfotech_ico_flask_technology" transform="translate(-834.678 -1816)">
      <path id="flask" d="M9.562,25.419a15.429,15.429,0,0,1-3.407-3.172,25.741,25.741,0,0,1-4.294-7.7c-.6-1.806-.8-3.743-1.566-5.479-.8-1.261.138-2.639,1.52-3.04.615-.119,1.7-.7.391-.283-1.171.858-1.283-.78-.083-.884a.951.951,0,0,0,.84-1.382c-.879-.574,2.132-1.2.617-2.059C2-.286,5.786-.613,4.852,1.321,4.629,2.807,7.5,1.047,6.832,2.765c.677.825,2.534.188,2.487,1.345.986.068,1.324.9,2.248.96.96.433,2.7.774,3.023,1.855-.951.753-3.153-1.555-3.26.529.288,3.08.214,6.252,1.341,9.185a13.431,13.431,0,0,0,2.991,4.556,13.09,13.09,0,0,0,4.17,3.111,17.2,17.2,0,0,0,4.283,1.326c.6-.457,1.653-2.156,2.584-1.44.045.806-1.85,1.684-.089,1.595,1.035-.312,1.752.8,2.6-.2.785.93,3.261-.593,2.7,1.306-.755.487-1.856.193-2.612.863-1.247-.623-2.239.557-3.62.408a26.583,26.583,0,0,1-4.646.387,28.23,28.23,0,0,1-7.578-1.174,15.359,15.359,0,0,1-3.9-1.953Zm2.153.933a15.169,15.169,0,0,0,4.1,1.368c2.32.322,4.715.819,7.043.366-1.054-.476-2.143.185-3.193-.34a11.693,11.693,0,0,1-3.89-.237,35.725,35.725,0,0,1-4.388-1.936c-1.7-.622.88.8,1.34.913,1.064.6-1.171-.31-1.486-.561-.892-.5-1.005-.4-.088.112.185.108.367.222.561.314ZM9.177,24.559c1.293.479-.006-.909-.6-.829-.262-.455-1-.743-.481-.988-.939.326-.984-1.24-1.425-1.016-.994-.314-.387-1.426-1.571-2.109-.108-.719-1.176-1.343-1.516-2.428-.15-.556-1.207-2.15-.558-.666A20.946,20.946,0,0,0,5.361,20.4a8,8,0,0,0,2.513,3.107c.386.37.758.937,1.3,1.053ZM5.453,20.469C5.5,20.274,5.689,20.892,5.453,20.469Zm5.273,4.663C11.012,25,10.314,24.971,10.726,25.132Zm.7.256C11.354,25.035,11.107,25.586,11.427,25.388Zm.879.366C12.723,25.356,11.661,25.5,12.306,25.755Zm1.506.839C14.065,26.219,13,26.452,13.811,26.594ZM10.92,24.578C11.569,24.158,10.081,24.572,10.92,24.578Zm.659.329C11.56,24.685,11.344,25.006,11.579,24.907Zm3.293,2.056c.53.334,3.092.732,1.488.137C16.091,27.156,13.385,26.334,14.872,26.962ZM9.644,22.89C9.593,22.668,8.822,22.644,9.644,22.89Zm1.533.894C11.576,23.506,10.349,23.57,11.177,23.785Zm1.29.79C13.04,24.359,11.538,24.358,12.467,24.575ZM9.02,22.211c.621.476,2.506.061.951-.284-.707-.377-2.3-.635-1.214.227Zm4.321,2.637C13.6,24.407,12.255,24.6,13.341,24.848ZM12.028,23.8c1.519.429-1.278-.961-.375-.158l.2.091Zm2.632,1.521C16.1,25.34,13.36,25.128,14.66,25.326ZM8.467,21.379C8.41,21.111,8.112,21.4,8.467,21.379Zm8.627,5.312C17.132,26.207,16.624,27.052,17.093,26.691Zm-6.171-3.809C10.834,22.627,10.472,22.871,10.922,22.882ZM8.6,21.211C9.429,21.161,7.472,20.847,8.6,21.211ZM5.856,19.435C5.753,19.039,4.957,18.723,5.856,19.435Zm7.212,4.577C12.916,23.839,13,24.049,13.068,24.012Zm4.488,2.755C17.542,26.5,17.311,26.866,17.556,26.766ZM12.67,23.6C12.751,23.261,11.966,23.5,12.67,23.6ZM9.326,21.482C9.941,21.417,8.341,21.067,9.326,21.482ZM14.983,25C15.941,24.617,14.049,24.812,14.983,25Zm-2.942-2c1.1.142-1.314-.751-.243-.08Zm3.835,2.358c1.031-.615.691,1.443,1.749.174,1.043-.762-.9.942.384.136.93-.622,2.3.295,3.171.593.624-.03,1.23.539,1.87.193,1.231-.332-2.408-.492-1.454-1.08a2.334,2.334,0,0,1-2.513-1.112,5.176,5.176,0,0,1-3.355-2.056c-.257-.419.371.06-.222-.627a9.168,9.168,0,0,1-1.652-2.269c-.611-.325-.683-1.284-.744-.032,0-.791-.737-1.323-.919-1.1,0-.761.795-.379.236-.942-.12-.789-.516-1.611-.634-2.5-.184-.429-.026-1.349-.631-.377-.22,1.028-.073-1.262.27-.507.45-.77-.162-.679-.186-.573.293-.65.186-1.572-.077-1.22.156-.689.247-2.536-.233-2.208.291-.721.552-3.3-.712-2.315a5.365,5.365,0,0,0-1.817.394c1.314.724-.132.262-.668.146-.069.67-.6.381-1.261.387,1.058.131-.515,1.081-1.121.712-.788.376.679,1.316.016,1.607.082.437-1.206-.158-1.106.854-.764-.322-.1,1.2.278.685,1.3.352.916,1.154.948,1.917-.212.444-1.046-1.044-.186-.975-.679-1.1-.751-.4-1.315.113-.131.037,1.439.729.454,1.071.866.134.892.893,1.068,1.372.521.542.413-.6,1.037.053-.395-.581-2.089-1.637-.725-1.3-.007-.584-.247-1.056.172-1.045.414-.75-.434,1.849.5.9.258-.113.323-.75.787.061.674.664.244,1.144-.708.536.17.578,1.273.784,1.065,1.687.22.794.527.5.8.456.21.772.33.2.339-.163.962.206.736.775,1.038,1.172.663.3-.949-2.028.189-.7,1.2,1.081.45,1.532-.625,1.359.68-.055.9.92,1.75.885.776.369,1.3,1.787-.036,1.2-.464-.419-2.106-.934-.764-.139a31.725,31.725,0,0,1,3.416,1.636c.854.61,1.223,1.308,1.547,1.447-.718.343-2.164-.274-1.09-.463-.67-.122-1.424-.461-.782.374.546.456,1.933.408,2.183.459-.211.464-.573.5.008.537-.648.346.209.4.268.6ZM14.55,21.614c-.395-.413-.5-1.185-.07-.514C14.7,21.189,15.181,22.363,14.55,21.614Zm4.318,2.743C19.115,24.34,18.876,24.544,18.869,24.357ZM13.928,20.6C13.912,19.978,14.07,21.083,13.928,20.6Zm-.429-.577C13,19.066,14.124,20.3,13.5,20.025Zm-5.2-3.59C8.588,16.357,8.44,16.933,8.3,16.435Zm4.14,2.244C12.616,18.006,12.647,19.243,12.437,18.678ZM9.512,16.645C9.306,16.274,9.943,16.993,9.512,16.645Zm2.509.8c-.47-1.053.333-.576.1.173ZM7.693,14.563a3.343,3.343,0,0,1-.445-1.669c.1.5,1.072,2.169.476.69-.658-1.24.787.4.936.712.069.307-.406-.084-.084.638C7.988,14.112,8.229,15.387,7.693,14.563Zm-1.337-.922C6.411,12.837,6.662,14.192,6.356,13.641Zm.6.208C7.245,13.242,7.444,14.694,6.958,13.848ZM5.51,12.729c-.5-.5-.858-.951.024-.307.339.013-.755-1.037.082-.333.879.16.434,1.443-.106.641Zm.76-.02C6.56,12.422,6.424,12.991,6.27,12.709Zm.468.149C6.3,12.037,7.271,13.2,6.739,12.859Zm-.93-.888c-1.447-1.289,1.819.673.236.238ZM9.957,14.38C9.33,14,9.79,11.736,10,13.287c.609-.2-.034.8.42.792C10.353,14.709,10.15,14.936,9.957,14.38Zm1.534.907C11.552,14.6,11.62,15.755,11.491,15.287Zm-.266-.264C11.293,14.731,11.231,15.367,11.224,15.023ZM6.092,11.547c-.93-1.283,2.7,1.3.6.325C6.468,11.814,6.2,11.794,6.092,11.547Zm2.955,1.566C8.959,12.032,9.243,13.292,9.047,13.113Zm2.243,1.439C11.463,13.937,11.3,14.959,11.29,14.552ZM6.235,11.057c.553-.118,2.29.97.695.311-.177-.2-.556-.107-.695-.311Zm4.746,2.365c.059-1.1.33-.66,0,.159l0-.159Zm-4.335-2.75c.225-.33-.6-1.493.118-.417.31.246.9.412.378.516C7.958,11.49,6.945,10.966,6.646,10.672Zm4.1,2.405C10.9,11.819,10.884,13.815,10.747,13.078ZM6.175,9.51C6.348,9.436,6.267,9.739,6.175,9.51Zm1.07.637C7.521,9.569,7.753,10.791,7.245,10.147Zm3.017,1.678C10.26,11.6,10.319,12.148,10.262,11.825Zm-.175-.386C9.669,10.4,10.477,11.985,10.087,11.438ZM9.83,10.76C9.76,10.334,10.069,11.3,9.83,10.76Zm.418-.68c-.288-.506.363-2.231.436-1.161-.3.834-.088,1.3.123.182.391-.88-.084,1.737-.559.98Zm.43-2.566C10.8,7.361,10.707,7.7,10.679,7.515ZM9.961,21.666C9.791,21.517,9.983,21.76,9.961,21.666Zm1.479.748c.823.212.819-.128.075-.229-.4-.372-1.663-.767-.532-.046C11.058,22.329,11.294,22.324,11.44,22.414ZM8.519,20.473c.453.339,1.707.958.646.129.358-.416-.685-.638-.339-.916-.88-.539-.7-.491-.078-.473-1.058-.473.153-.437.1-.68-.408-.08-2.026-.72-1.074.052-.968-.493-.231.184-.523.113-.99-.27.881.754-.157.5.567.449,1.528,1.153.24.476-.169.244.922.615,1.19.8Zm1.547.889C11.947,21.968,9.143,20.621,10.066,21.363Zm7.92,4.8C18.011,25.787,17.73,26.479,17.986,26.161Zm.814.343c.434-.42.018.67.719-.1.007-.553-.021-.88-.806-.208-.217.12-.313.629.087.311ZM5.878,18.388C5.744,17.864,4.943,17.866,5.878,18.388Zm.869.569C6.424,18.422,5.595,18.473,6.747,18.957Zm4.946,2.983c.483.429,2.218.315.586.053C12.038,21.636,10.745,21.722,11.693,21.94Zm6.8,4.2C19.234,25.515,17.771,26.417,18.491,26.139ZM20.036,27.2C20.041,27,19.716,27.288,20.036,27.2Zm0-.28C20.862,26.049,19.242,26.972,20.039,26.92ZM3.739,16.6c-.7-1-.436-1.45-1.112-2.267-.129-.625-1.161-2.043-.534-.541.574.879.744,2.239,1.646,2.809ZM19.781,26.643C21.3,25.664,19.159,26.217,19.781,26.643Zm1.156.453C21.695,26.445,20.457,26.96,20.936,27.1ZM5.62,17.281C5.837,16.958,5.06,17.24,5.62,17.281ZM20.7,26.787c.734-.473-.169-.4-.133.043Zm-9.962-6.279C10.708,20.187,10.345,20.535,10.733,20.508Zm.616.354C11.152,20.466,11.048,20.924,11.348,20.862Zm10.525,6.245c.941-.679-.57-.13-.2.129Zm-.36-.174C22.279,26.291,20.7,27.217,21.513,26.932Zm1.841,1.225C23.868,27.813,22.728,28.046,23.353,28.157ZM6.092,17.048c.689.154,2.755,1.7,1.537.107-.624-.185-.25-1.711-.887-1.441.427.714.351,1.017-.546.568-1.127-.551-.633.272-.413.5-.3.069.4.261.309.266ZM2.951,14.568c.123-.511-1.137-2.809-.6-1.152C2.551,13.763,2.531,14.421,2.951,14.568Zm5.766,3.555C8.361,17.826,8.7,18.08,8.716,18.122Zm.874.2C9.59,17.785,8.624,18.106,9.59,18.326ZM17.167,23.1C17.023,22.732,16.6,23.094,17.167,23.1Zm.364.265C17.477,23.161,17.321,23.408,17.531,23.368Zm3,1.892C20.823,25.047,20.174,25.232,20.534,25.26ZM4.519,14.968C5.346,14.649,3.634,14.74,4.519,14.968ZM16.5,22.516C16.491,21.981,15.973,22.649,16.5,22.516ZM4.193,14.207C4.724,14.029,3.7,14.09,4.193,14.207Zm1.54.746C5.724,14.778,5.57,15.021,5.733,14.954ZM24.521,26.474c.682-.138,2.238.347,2.489-.181-.829-.021-2.867-.585-2.963.134l.182.029.293.018Zm-18.3-11.4C6.235,14.535,5.8,15.057,6.223,15.077ZM2.174,12.268C1.99,11.235,1.474,12.111,2.174,12.268Zm.965.243C3.151,12.179,2.255,12.212,3.139,12.51Zm.552.271C3.531,12.653,3.566,12.944,3.691,12.782Zm3.473,2.227C7.327,14.859,6.776,14.9,7.164,15.009ZM3.324,12.17C3.23,11.391,2.2,12.054,3.324,12.17ZM1.343,10.885C1.315,10.526,1.15,11.021,1.343,10.885Zm.295-.222C1.59,10.236,1.385,10.717,1.638,10.663Zm1.627.971c.688-.27-1.253-.559-.141-.051ZM25.043,25.087C25.484,24.683,24.484,24.962,25.043,25.087Zm2.631,1.363C27.851,25.929,27.229,26.519,27.674,26.45ZM3.431,10.782C3.5,10.277,2.885,10.882,3.431,10.782ZM1.116,9.23C.991,8.518,1.009,7.266,2.2,7.689.61,8,3.3,9.663,2.958,8.353c.668.033,1.306-.395.955.253,1.316-.145,2.227-1.286,3.5-1.125a13.863,13.863,0,0,0,3.139-.629c.877-.063,1.721-1.007,1.241-1.567a13.569,13.569,0,0,0-3.77.311c-1.465.3-2.8.883-4.273,1.131-1.441.194.289.533-.123.609-.751.261.9.436-.1.712-.614-.117-1.253-.328-.991-.975-1.38.18-2.593.752-1.5,2.156h.081ZM4.442,7.537c.323-1.192,1.733.981.53.159A.75.75,0,0,0,4.442,7.537ZM4.5,6.959C4.971,6.611,4.752,7.154,4.5,6.959Zm.593.01c.043-.548,1.358.29.217.2l-.217-.2Zm.811-.326C6.2,6.3,5.994,6.95,5.908,6.643ZM6.116,6.5c.494-.593,2.793-.379,1.11-.058-.451-.34-.8.2-1.11.058Zm3-.463C9.043,4.422,10.609,6.616,9.117,6.041Zm.852-.005c.311-.816,1.209-.328.145-.164C10.136,5.959,10.082,6.294,9.969,6.036ZM3.1,10.363C4.025,9.793,2.108,9.869,3.1,10.363Zm.688.19C4.11,10.207,3.074,10.413,3.784,10.554ZM1.757,9.116C2.288,8.707,1.127,8.961,1.757,9.116ZM29.227,26.3C29.243,25.827,28.821,26.514,29.227,26.3ZM26.436,24.4C26.515,23.851,26.077,24.443,26.436,24.4Zm3.559,2.089c.743,0,2.252-.231.635-.231C30.375,26.294,29.151,26.286,29.995,26.485ZM4.389,10.219c.6-.041.941-.663-.117-.628-1.639-.169,1.446.562-.21.352C3.839,10.091,4.375,10.26,4.389,10.219Zm.53.268C4.855,10.1,4.732,10.692,4.918,10.487Zm.629-1.676C5.807,8.488,5.185,8.725,5.547,8.812Zm-2-3.344c1.074-.365,2.542-.775,3.049.18-.516-.62-.208-1.232.279-.324.689.918,1.034-.418.586-.726.511.634,1.091.934.342.04.815-.98-1.631.128-2.186.117-.267.12-2.761.636-2.069.713Zm.629-1.2c.612-.462,2.118.275,1.152-.459C5.232,3.721,3.212,4.361,4.175,4.263Zm2.232.092c.716.018-.309-.963.544-.518-.14-.458-.994-.543-1.411-.727C5.3,3.529,6.021,4.361,6.407,4.356ZM4.567,2.329C4.814,1.993,4.132,2.5,4.567,2.329Zm.913.218c1.155-.153-.295-.5-.233-.012l.233.012Zm-1.7-1.332c-.813-1.062,1.529.178.7-.933C3.783-.272,3.115.905,3.775,1.215Zm10.434,5.62c.373-.661-1.539-.891-.251-.234C14.077,6.64,14.05,6.88,14.209,6.835Z" transform="translate(884.679 1987)" fill="url(#linear-gradient)"/>
    </g>
  </g>
</svg>
