<svg xmlns="http://www.w3.org/2000/svg" width="37" height="37" viewBox="0 0 37 37">
  <g id="icon_iblinfotech_technology_html_css_html_five" transform="translate(-298 -120)">
    <rect id="Rectangle_863" data-name="Rectangle 863" width="37" height="37" transform="translate(298 120)" fill="none"/>
    <g id="Group_12868" data-name="Group 12868" transform="translate(302 123)">
      <path id="Path_21" data-name="Path 21" d="M28.661,70.766l-2.571,28.8-11.555,3.2-11.523-3.2L.445,70.766Z" transform="translate(-0.445 -70.766)" fill="#073865"/>
      <path id="Path_22" data-name="Path 22" d="M128,119.254l9.337-2.588,2.2-24.608H128Z" transform="translate(-113.892 -89.702)" fill="#1e73bc"/>
      <path id="Path_23" data-name="Path 23" d="M51.777,127.527h5V124H47.917l.085.948.868,9.734h7.9v-3.532H52.1Zm.8,8.916H49.028l.495,5.546L56.758,144l.016,0v-3.675l-.015,0-3.934-1.062Z" transform="translate(-42.666 -118.108)" fill="#ebebeb"/>
      <path id="Path_24" data-name="Path 24" d="M127.889,134.677h4.35l-.41,4.581-3.94,1.063V144l7.242-2.007.053-.6.83-9.3.086-.949h-8.211Zm0-7.158v.009h8.532l.071-.794.161-1.791.084-.948h-8.848v3.524Z" transform="translate(-113.793 -118.108)" fill="#fff"/>
    </g>
  </g>
</svg>
