<svg xmlns="http://www.w3.org/2000/svg" width="37" height="37" viewBox="0 0 37 37">
  <g id="icon_iblinfotech_technology_mobile_ionic" transform="translate(-343 -120)">
    <rect id="Rectangle_864" data-name="Rectangle 864" width="37" height="37" transform="translate(343 120)" fill="none"/>
    <g id="Group_12869" data-name="Group 12869" transform="translate(-1 -1)">
      <ellipse id="Ellipse_6" data-name="Ellipse 6" cx="6.439" cy="6.439" rx="6.439" ry="6.439" transform="translate(356.332 133.332)" fill="#073865"/>
      <path id="Path_5841" data-name="Path 5841" d="M29.014,4.845a2.212,2.212,0,0,0-3.664-1.671,15.785,15.785,0,1,0,3.121,3.12,2.2,2.2,0,0,0,.543-1.449ZM15.873,31.012A15.241,15.241,0,1,1,24.993,3.567a2.212,2.212,0,0,0,3.084,3.084,15.234,15.234,0,0,1-12.2,24.361Z" transform="translate(346.898 124)" fill="#00bcff" stroke="#1e73bc" stroke-width="1"/>
    </g>
  </g>
</svg>
