<svg xmlns="http://www.w3.org/2000/svg" xmlns:xlink="http://www.w3.org/1999/xlink" width="37" height="37" viewBox="0 0 37 37">
  <defs>
    <linearGradient id="linear-gradient" x1="-0.055" y1="0.575" x2="1.023" y2="0.579" gradientUnits="objectBoundingBox">
      <stop offset="0" stop-color="#1e73bc"/>
      <stop offset="1" stop-color="#073865"/>
    </linearGradient>
  </defs>
  <g id="icon_iblinfotech_technology_mobile_ios" transform="translate(-75 -66)">
    <rect id="Rectangle_856" data-name="Rectangle 856" width="37" height="37" transform="translate(75 66)" fill="none"/>
    <path id="ipad-apple" d="M50.252,45.674a7.379,7.379,0,0,1,3.518-6.217A7.635,7.635,0,0,0,47.8,36.229c-2.543-.254-4.958,1.5-6.247,1.505s-3.281-1.454-5.388-1.411a7.988,7.988,0,0,0-6.748,4.1c-2.87,5-.719,12.394,2.091,16.442,1.374,1.979,3.01,4.207,5.157,4.123,2.067-.083,2.847-1.34,5.344-1.343s3.2,1.332,5.389,1.287c2.225-.042,3.631-2.025,4.989-4.014a17.988,17.988,0,0,0,2.254-4.645,7.214,7.214,0,0,1-4.389-6.6m-4.1-12.116a7.184,7.184,0,0,0,1.7-5.211,7.322,7.322,0,0,0-4.808,2.473,6.831,6.831,0,0,0-1.731,5.049,6.058,6.058,0,0,0,4.841-2.31" transform="translate(51.942 39.654)" fill="url(#linear-gradient)"/>
  </g>
</svg>
