<svg xmlns="http://www.w3.org/2000/svg" width="37" height="37" viewBox="0 0 37 37">
  <g id="icon_iblinfotech_technology_html_css_jquery" transform="translate(-207 -66)">
    <rect id="Rectangle_854" data-name="Rectangle 854" width="37" height="37" transform="translate(207 66)" fill="none"/>
    <g id="Group_12861" data-name="Group 12861" transform="translate(72.702 -82)">
      <g id="Group_12859" data-name="Group 12859" transform="translate(137.298 152)">
        <path id="Path_35" data-name="Path 35" d="M1.949,24.948c-2.717,3.906-2.379,8.987-.3,13.137.049.1.1.2.152.3.033.062.063.126.1.187.019.037.04.073.061.108.035.066.072.129.108.193.064.114.13.227.2.34.037.062.075.124.113.186.075.121.152.24.23.36.033.051.064.1.1.151q.162.242.333.481l.009.013c.018.025.038.05.056.075.1.136.2.271.3.4l.114.145q.191.239.388.473t.4.454a.171.171,0,0,1,.015.017q.407.442.842.858c.044.041.087.084.13.123q.217.2.441.4l.076.065c.129.112.262.224.394.333l.164.13q.163.131.329.257l.176.134q.183.134.369.265c.046.033.089.064.135.1l.037.026c.118.081.238.159.359.237.052.034.1.07.156.1.185.117.372.232.562.344l.155.088c.14.081.279.159.422.237.077.041.156.08.233.12.1.052.2.106.3.157l.07.034.123.06q.287.138.579.267.276.12.557.231l.136.053q.294.114.592.218c.194.068.39.13.587.192l.142.042a5.682,5.682,0,0,0,.605.171c13.142,2.4,16.959-7.9,16.959-7.9-3.206,4.177-8.9,5.278-14.289,4.052-.2-.046-.4-.11-.6-.169q-.367-.109-.729-.234l-.08-.029q-.257-.091-.511-.189l-.143-.056q-.278-.11-.552-.229l-.11-.049q-.3-.137-.6-.281c-.121-.059-.24-.122-.36-.183-.08-.042-.161-.082-.24-.126q-.218-.117-.431-.242c-.048-.027-.1-.053-.145-.081q-.284-.168-.562-.344c-.051-.033-.1-.067-.152-.1q-.2-.13-.4-.266c-.044-.029-.086-.061-.129-.09-.127-.09-.253-.181-.378-.273l-.168-.127q-.249-.191-.493-.388-.215-.176-.424-.358l-.047-.039q-.226-.2-.446-.406l-.126-.121q-.163-.155-.321-.315l-.126-.126q-.2-.205-.393-.416l-.02-.021q-.2-.223-.4-.454l-.1-.124q-.146-.176-.287-.355l-.105-.131c-.113-.147-.224-.293-.332-.442-2.994-4.083-4.069-9.715-1.677-14.34" transform="translate(0 -18.18)" fill="#073865"/>
        <path id="Path_36" data-name="Path 36" d="M28.8,15.731a9.448,9.448,0,0,0-.325,9.6,12.5,12.5,0,0,0,.869,1.451,6.905,6.905,0,0,0,1.012,1.263c.142.156.29.308.441.458.038.039.077.076.116.115.147.142.3.283.451.419l.018.016s0,0,0,0c.171.15.347.294.526.435l.119.093c.179.138.363.273.55.4L32.6,30c.083.057.167.111.251.166.04.026.078.054.119.079.134.086.27.17.408.25l.058.034c.119.068.24.136.361.2.042.024.085.045.128.067.083.044.167.088.252.13l.038.018c.173.085.348.168.526.245.038.017.078.032.116.048.143.061.287.12.431.175l.185.068c.131.049.263.093.4.138l.179.057a4.389,4.389,0,0,0,.572.166c10.147,1.681,12.489-6.131,12.489-6.131-2.112,3.041-6.2,4.492-10.564,3.36q-.377-.1-.747-.222-.295-.1-.584-.206-.218-.083-.433-.174c-.039-.017-.078-.032-.116-.049q-.267-.117-.529-.246c-.09-.044-.178-.09-.265-.135l-.153-.079q-.169-.092-.336-.189l-.081-.045q-.206-.121-.407-.248c-.041-.026-.081-.055-.123-.082q-.133-.086-.264-.174-.279-.194-.548-.4l-.124-.1a12.235,12.235,0,0,1-4.144-5.906,9.164,9.164,0,0,1,.715-7.352" transform="translate(-18.417 -12.253)" fill="#1e73bc"/>
        <path id="Path_5905" data-name="Path 5905" d="M51.574,10.4a5.914,5.914,0,0,0-.468,5.705,8.035,8.035,0,0,0,4.612,4.31c.083.031.167.059.252.088.037.011.074.024.111.035a3.154,3.154,0,0,0,.361.1c5.6,1.082,7.122-2.875,7.527-3.457-1.331,1.917-3.568,2.377-6.313,1.711q-.337-.086-.664-.205a8.034,8.034,0,0,1-2.171-1.171c-2.456-1.863-3.982-5.419-2.379-8.314" transform="translate(-34.096 -9.209)" fill="#00bcff"/>
      </g>
    </g>
  </g>
</svg>
