<svg xmlns="http://www.w3.org/2000/svg" xmlns:xlink="http://www.w3.org/1999/xlink" width="37" height="37" viewBox="0 0 37 37">
  <defs>
    <linearGradient id="linear-gradient" y1="0.448" x2="1" y2="0.412" gradientUnits="objectBoundingBox">
      <stop offset="0" stop-color="#1e73bc"/>
      <stop offset="1" stop-color="#073865"/>
    </linearGradient>
  </defs>
  <g id="icon_iblinfotech_technology_php_laravel" transform="translate(-110 -17)">
    <rect id="Rectangle_841" data-name="Rectangle 841" width="37" height="37" transform="translate(110 17)" fill="none"/>
    <path id="laravel-2" d="M32.077,7.475a.523.523,0,0,1,.018.135V14.7a.517.517,0,0,1-.26.449l-5.953,3.427v6.793a.518.518,0,0,1-.259.449L13.2,32.972a.555.555,0,0,1-.09.037c-.012,0-.023.011-.035.014a.52.52,0,0,1-.265,0c-.014,0-.027-.012-.041-.017a.538.538,0,0,1-.085-.035L.26,25.819A.518.518,0,0,1,0,25.371V4.094a.529.529,0,0,1,.018-.136c0-.015.013-.028.018-.043a.51.51,0,0,1,.033-.08A.484.484,0,0,1,.1,3.789a.527.527,0,0,1,.046-.06A.5.5,0,0,1,.2,3.69a.422.422,0,0,1,.057-.045h0L6.471.069a.518.518,0,0,1,.517,0L13.2,3.646h0a.634.634,0,0,1,.057.044.611.611,0,0,1,.05.039.6.6,0,0,1,.047.061.477.477,0,0,1,.035.046.54.54,0,0,1,.034.08c.005.015.014.028.018.044a.523.523,0,0,1,.018.135V17.383l5.176-2.98V7.609a.522.522,0,0,1,.018-.134c0-.016.013-.029.018-.044a.583.583,0,0,1,.034-.08c.01-.017.024-.03.035-.046a.532.532,0,0,1,.047-.06.5.5,0,0,1,.05-.039.522.522,0,0,1,.057-.045h0l6.212-3.576a.518.518,0,0,1,.517,0l6.212,3.576a.57.57,0,0,1,.058.044c.016.013.035.025.05.039a.6.6,0,0,1,.047.061.39.39,0,0,1,.035.046.513.513,0,0,1,.034.08.37.37,0,0,1,.018.044ZM31.06,14.4v-5.9L28.886,9.757l-3,1.729v5.9l5.178-2.98ZM24.848,25.071v-5.9l-2.954,1.687-8.435,4.814v5.957ZM1.036,4.989V25.071l11.388,6.556V25.672L6.474,22.3h0a24.082,24.082,0,0,0-.1-.08v0a.493.493,0,0,1-.043-.054.552.552,0,0,1-.039-.05v0a.412.412,0,0,1-.027-.065.383.383,0,0,1-.025-.058h0a.5.5,0,0,1-.01-.076.448.448,0,0,1-.008-.058V7.97l-3-1.73L1.036,4.99ZM6.73,1.115,1.555,4.094,6.729,7.073,11.9,4.094,6.729,1.115ZM9.422,19.708l3-1.728V4.989L10.25,6.241l-3,1.729V20.96ZM25.366,4.631,20.191,7.61l5.175,2.979,5.174-2.98Zm-.518,6.855-3-1.729L19.671,8.505v5.9l3,1.728,2.174,1.252ZM12.941,24.776l7.59-4.333,3.794-2.165L19.154,15.3,13.2,18.728,7.774,21.852Z" transform="translate(112 19)" fill="url(#linear-gradient)"/>
  </g>
</svg>
