<svg width="150" height="150" viewBox="0 0 150 150" fill="none" xmlns="http://www.w3.org/2000/svg">
<path d="M126.562 112.5C124.474 112.51 122.415 112.99 120.539 113.906L100.383 93.75H84.375V103.125H96.4969L113.911 120.539C112.994 122.415 112.512 124.474 112.5 126.563C112.5 129.344 113.325 132.063 114.87 134.375C116.415 136.688 118.611 138.49 121.181 139.555C123.751 140.619 126.578 140.897 129.306 140.355C132.034 139.812 134.54 138.473 136.506 136.506C138.473 134.54 139.812 132.034 140.355 129.306C140.897 126.578 140.619 123.751 139.555 121.181C138.49 118.611 136.688 116.415 134.375 114.87C132.063 113.325 129.344 112.5 126.562 112.5ZM126.562 131.25C125.635 131.25 124.729 130.975 123.958 130.46C123.187 129.945 122.587 129.213 122.232 128.356C121.877 127.5 121.784 126.557 121.965 125.648C122.146 124.739 122.592 123.904 123.248 123.248C123.903 122.592 124.739 122.146 125.648 121.965C126.557 121.784 127.5 121.877 128.356 122.232C129.213 122.587 129.945 123.187 130.46 123.958C130.975 124.729 131.25 125.635 131.25 126.563C131.25 127.806 130.756 128.998 129.877 129.877C128.998 130.756 127.806 131.25 126.562 131.25ZM126.562 60.9375C123.664 60.9461 120.838 61.8519 118.475 63.5305C116.111 65.2091 114.326 67.5782 113.363 70.3125H84.375V79.6875H113.363C114.226 82.1118 115.739 84.252 117.737 85.8744C119.735 87.4968 122.14 88.5388 124.69 88.8867C127.239 89.2346 129.836 88.875 132.195 87.8471C134.554 86.8191 136.586 85.1625 138.067 83.0582C139.549 80.9539 140.423 78.4829 140.595 75.9152C140.767 73.3475 140.23 70.7819 139.043 68.4987C137.855 66.2156 136.063 64.3028 133.862 62.9693C131.661 61.6358 129.136 60.9329 126.562 60.9375ZM126.562 79.6875C125.635 79.6875 124.729 79.4126 123.958 78.8975C123.187 78.3825 122.587 77.6504 122.232 76.7938C121.877 75.9373 121.784 74.9948 121.965 74.0855C122.146 73.1762 122.592 72.341 123.248 71.6854C123.903 71.0299 124.739 70.5834 125.648 70.4026C126.557 70.2217 127.5 70.3145 128.356 70.6693C129.213 71.0241 129.945 71.6249 130.46 72.3958C130.975 73.1666 131.25 74.0729 131.25 75C131.25 76.2432 130.756 77.4355 129.877 78.3146C128.998 79.1936 127.806 79.6875 126.562 79.6875ZM126.562 9.37501C122.834 9.37873 119.259 10.8615 116.623 13.4979C113.986 16.1344 112.504 19.709 112.5 23.4375C112.516 25.6831 113.076 27.8914 114.131 29.8734L96.5438 46.875H84.375V56.25H100.331L120.956 36.3188C122.872 37.1542 124.95 37.5519 127.039 37.483C129.128 37.414 131.176 36.88 133.032 35.92C134.889 34.96 136.508 33.598 137.772 31.9332C139.036 30.2685 139.913 28.3429 140.338 26.2965C140.764 24.2502 140.728 22.1347 140.233 20.1039C139.738 18.0732 138.797 16.1784 137.477 14.5575C136.158 12.9366 134.493 11.6303 132.605 10.7338C130.717 9.83729 128.653 9.37309 126.562 9.37501ZM126.562 28.125C125.635 28.125 124.729 27.8501 123.958 27.335C123.187 26.8199 122.587 26.0879 122.232 25.2313C121.877 24.3748 121.784 23.4323 121.965 22.523C122.146 21.6137 122.592 20.7785 123.248 20.1229C123.903 19.4674 124.739 19.0209 125.648 18.8401C126.557 18.6592 127.5 18.752 128.356 19.1068C129.213 19.4616 129.945 20.0624 130.46 20.8333C130.975 21.6041 131.25 22.5104 131.25 23.4375C131.25 24.6807 130.756 25.873 129.877 26.7521C128.998 27.6311 127.806 28.125 126.562 28.125Z" fill="url(#paint0_angular_31_29)"/>
<path d="M84.375 28.125H93.75V18.75H84.375C81.7037 18.7589 79.0655 19.342 76.6392 20.4597C74.213 21.5774 72.0553 23.2036 70.3125 25.2281C68.5697 23.2036 66.4121 21.5774 63.9858 20.4597C61.5595 19.342 58.9213 18.7589 56.25 18.75H51.5625C40.3775 18.7624 29.6541 23.2111 21.7451 31.1201C13.8361 39.0291 9.38741 49.7525 9.375 60.9375V89.0625C9.38741 100.248 13.8361 110.971 21.7451 118.88C29.6541 126.789 40.3775 131.238 51.5625 131.25H56.25C58.9213 131.241 61.5595 130.658 63.9858 129.54C66.4121 128.423 68.5697 126.796 70.3125 124.772C72.0553 126.796 74.213 128.423 76.6392 129.54C79.0655 130.658 81.7037 131.241 84.375 131.25H93.75V121.875H84.375C81.8894 121.873 79.5062 120.884 77.7486 119.126C75.991 117.369 75.0025 114.986 75 112.5V37.5C75.0025 35.0144 75.991 32.6312 77.7486 30.8736C79.5062 29.116 81.8894 28.1275 84.375 28.125ZM56.25 121.875H51.5625C43.6802 121.861 36.066 119.012 30.1105 113.848C24.1551 108.684 20.2559 101.551 19.125 93.75H28.125V84.375H18.75V65.625H32.8125C36.541 65.6213 40.1157 64.1385 42.7521 61.5021C45.3885 58.8657 46.8713 55.291 46.875 51.5625V42.1875H37.5V51.5625C37.5 52.8057 37.0061 53.998 36.1271 54.8771C35.248 55.7561 34.0557 56.25 32.8125 56.25H19.125C20.2559 48.4492 24.1551 41.3155 30.1105 36.1519C36.066 30.9882 43.6802 28.1391 51.5625 28.125H56.25C58.7356 28.1275 61.1188 29.116 62.8764 30.8736C64.634 32.6312 65.6225 35.0144 65.625 37.5V56.25H56.25V65.625H65.625V84.375H56.25C52.5215 84.3787 48.9468 85.8615 46.3104 88.4979C43.674 91.1343 42.1912 94.709 42.1875 98.4375V107.812H51.5625V98.4375C51.5625 97.1943 52.0564 96.002 52.9354 95.1229C53.8145 94.2439 55.0068 93.75 56.25 93.75H65.625V112.5C65.6225 114.986 64.634 117.369 62.8764 119.126C61.1188 120.884 58.7356 121.873 56.25 121.875Z" fill="url(#paint1_angular_31_29)"/>
<defs>
<radialGradient id="paint0_angular_31_29" cx="0" cy="0" r="1" gradientUnits="userSpaceOnUse" gradientTransform="translate(112.504 75) rotate(90) scale(65.625 28.1291)">
<stop stop-color="#1E72BB"/>
<stop offset="1" stop-color="#073865"/>
</radialGradient>
<radialGradient id="paint1_angular_31_29" cx="0" cy="0" r="1" gradientUnits="userSpaceOnUse" gradientTransform="translate(51.5625 75) rotate(90) scale(56.25 42.1875)">
<stop stop-color="#1E72BB"/>
<stop offset="1" stop-color="#073865"/>
</radialGradient>
</defs>
</svg>
