<svg xmlns="http://www.w3.org/2000/svg" xmlns:xlink="http://www.w3.org/1999/xlink" width="37" height="37" viewBox="0 0 37 37">
  <defs>
    <linearGradient id="linear-gradient" x1="0.092" y1="0.546" x2="0.958" y2="0.882" gradientUnits="objectBoundingBox">
      <stop offset="0" stop-color="#1e73bc"/>
      <stop offset="1" stop-color="#073865"/>
    </linearGradient>
  </defs>
  <g id="icon_iblinfotech_technology_database_mysql" transform="translate(-197 -167)">
    <rect id="Rectangle_869" data-name="Rectangle 869" width="37" height="37" transform="translate(197 167)" fill="none"/>
    <g id="Group_12871" data-name="Group 12871" transform="translate(-414.211 -162.081)">
      <path id="Path_5857" data-name="Path 5857" d="M731.632,355.32a9.218,9.218,0,0,0-3.865.558c-.3.119-.777.119-.817.5.159.159.179.418.319.638a4.673,4.673,0,0,0,1.036,1.215c.418.318.837.637,1.275.916.777.478,1.653.757,2.411,1.235.438.279.877.638,1.315.936.219.159.359.418.638.518v-.06c-.139-.179-.18-.438-.319-.637-.2-.2-.4-.379-.6-.578a9.452,9.452,0,0,0-2.072-2.013c-.637-.438-2.032-1.036-2.291-1.773l-.04-.04a8.069,8.069,0,0,0,1.375-.319c.677-.179,1.295-.139,1.992-.318.318-.08.637-.18.956-.279v-.18c-.359-.359-.618-.837-1-1.175a26.546,26.546,0,0,0-3.287-2.45c-.618-.4-1.415-.658-2.072-1-.239-.12-.638-.179-.777-.379A8.05,8.05,0,0,1,725,349.1c-.578-1.1-1.136-2.311-1.634-3.467a21.29,21.29,0,0,0-1.016-2.271,20.083,20.083,0,0,0-7.71-7.451,9.566,9.566,0,0,0-2.55-.817c-.5-.02-1-.06-1.495-.08a7.965,7.965,0,0,1-.916-.7c-1.135-.717-4.064-2.271-4.9-.219-.538,1.295.8,2.57,1.255,3.227a9.437,9.437,0,0,1,1.016,1.494c.139.339.179.7.318,1.056a23.9,23.9,0,0,0,1.036,2.67,9.681,9.681,0,0,0,.737,1.235c.159.219.438.319.5.677a5.711,5.711,0,0,0-.458,1.494,8.779,8.779,0,0,0,.578,6.694c.319.5,1.076,1.594,2.092,1.175.9-.359.7-1.494.957-2.49.06-.239.02-.4.139-.558v.04c.279.558.558,1.1.817,1.654a11.38,11.38,0,0,0,2.59,2.67c.478.359.857.976,1.454,1.2v-.06h-.04a2.212,2.212,0,0,0-.458-.4,9.667,9.667,0,0,1-1.036-1.2,25.6,25.6,0,0,1-2.231-3.626c-.319-.618-.6-1.295-.856-1.912-.12-.239-.12-.6-.319-.717a7.477,7.477,0,0,0-.956,1.355,11.212,11.212,0,0,0-.558,3.008c-.08.02-.04,0-.08.04-.637-.159-.856-.817-1.1-1.374a8.619,8.619,0,0,1-.179-5.319c.139-.418.737-1.733.5-2.132-.12-.379-.518-.6-.737-.9a8.047,8.047,0,0,1-.717-1.275c-.478-1.115-.717-2.351-1.235-3.466a10.555,10.555,0,0,0-1-1.534,9.846,9.846,0,0,1-1.1-1.554c-.1-.219-.239-.578-.079-.817a.317.317,0,0,1,.278-.259c.259-.219,1,.06,1.255.179a10.177,10.177,0,0,1,1.972,1c.279.2.578.578.936.677h.418c.638.14,1.355.04,1.953.219a12.751,12.751,0,0,1,2.869,1.375,17.672,17.672,0,0,1,6.216,6.814c.239.458.339.877.558,1.355.418.976.936,1.972,1.355,2.929a13.1,13.1,0,0,0,1.414,2.67c.3.418,1.495.637,2.032.856a14.145,14.145,0,0,1,1.375.558c.677.418,1.355.9,1.992,1.355.319.239,1.315.737,1.375,1.135Z" transform="translate(-89.439 0)" fill-rule="evenodd" fill="url(#linear-gradient)"/>
      <path id="Path_5858" data-name="Path 5858" d="M718.554,344.114a3.151,3.151,0,0,0-.817.1v.04h.04a6.4,6.4,0,0,0,.637.817c.159.319.3.638.458.956l.04-.04a1.125,1.125,0,0,0,.418-1,4.459,4.459,0,0,1-.239-.418c-.119-.2-.379-.3-.537-.458Z" transform="translate(-96.682 -6.107)" fill-rule="evenodd" fill="url(#linear-gradient)"/>
    </g>
  </g>
</svg>
