<svg xmlns="http://www.w3.org/2000/svg" width="37" height="37" viewBox="0 0 37 37">
  <g id="icon_iblinfotech_technology_dot_net_core" transform="translate(-67 -87)">
    <rect id="Rectangle_868" data-name="Rectangle 868" width="37" height="37" transform="translate(67 87)" fill="none"/>
    <g id="NET_Core_Logo" transform="translate(69 89)">
      <circle id="Ellipse_8" data-name="Ellipse 8" cx="16.5" cy="16.5" r="16.5" fill="#073865"/>
      <path id="Path_5908" data-name="Path 5908" d="M4.632,9a16.5,16.5,0,1,0,23.3,23.3Z" transform="translate(0.948 -4.875)" fill="#1e73bc" opacity="0.34"/>
      <path id="Path_5909" data-name="Path 5909" d="M6.717,35.869a.7.7,0,0,1-.516-.217.712.712,0,0,1-.211-.516.722.722,0,0,1,.211-.516.691.691,0,0,1,.516-.222.706.706,0,0,1,.516.222.717.717,0,0,1,.217.516.74.74,0,0,1-.732.732Z" transform="translate(-2.901 -16.662)" fill="#fff"/>
      <path id="Path_5910" data-name="Path 5910" d="M20.159,28.17H18.808l-4.831-7.5a3.094,3.094,0,0,1-.3-.588h-.041a9.653,9.653,0,0,1,.052,1.289v6.8h-1.1v-9.4h1.428l4.7,7.363q.294.459.382.629h.026a9.941,9.941,0,0,1-.067-1.382V18.77h1.1Z" transform="translate(-6.098 -9.092)" fill="#fff"/>
      <path id="Path_5911" data-name="Path 5911" d="M37,28.17H32v-9.4h4.764v1h-3.64V22.89h3.393v.99H33.124v3.259H37Z" transform="translate(-15.5 -9.092)" fill="#fff"/>
      <path id="Path_5912" data-name="Path 5912" d="M49.863,19.765H47.13v8.4h-1.1v-8.4h-2.7v-1h6.533Z" transform="translate(-20.988 -9.092)" fill="#fff"/>
      <path id="Path_5913" data-name="Path 5913" d="M23.081,45.446a2.542,2.542,0,0,1-1.2.253,1.928,1.928,0,0,1-1.48-.593,2.2,2.2,0,0,1-.557-1.547,2.3,2.3,0,0,1,.624-1.681,2.124,2.124,0,0,1,1.588-.639,2.542,2.542,0,0,1,1.031.18v.516a2.062,2.062,0,0,0-1.031-.258,1.578,1.578,0,0,0-1.212.516,1.877,1.877,0,0,0-.464,1.33,1.789,1.789,0,0,0,.433,1.263,1.475,1.475,0,0,0,1.14.469,2.135,2.135,0,0,0,1.129-.289Z" transform="translate(-9.613 -19.974)" fill="#f2f2f2"/>
      <path id="Path_5914" data-name="Path 5914" d="M28.793,46.822a1.433,1.433,0,0,1-1.1-.459,1.6,1.6,0,0,1-.407-1.15A1.671,1.671,0,0,1,27.715,44a1.547,1.547,0,0,1,1.15-.438,1.387,1.387,0,0,1,1.078.428,1.691,1.691,0,0,1,.387,1.181,1.66,1.66,0,0,1-.418,1.186,1.464,1.464,0,0,1-1.119.469ZM28.829,44a.944.944,0,0,0-.753.325,1.335,1.335,0,0,0-.278.9,1.263,1.263,0,0,0,.278.866.954.954,0,0,0,.753.32.907.907,0,0,0,.737-.309,1.351,1.351,0,0,0,.258-.887,1.372,1.372,0,0,0-.258-.892A.9.9,0,0,0,28.829,44Z" transform="translate(-13.216 -21.098)" fill="#f2f2f2"/>
      <path id="Path_5915" data-name="Path 5915" d="M36.339,44.2a.608.608,0,0,0-.376-.1.634.634,0,0,0-.516.3,1.382,1.382,0,0,0-.211.815v1.578H34.72V43.7h.516v.645h0a1.083,1.083,0,0,1,.325-.516.737.737,0,0,1,.485-.18.81.81,0,0,1,.294.041Z" transform="translate(-16.818 -21.142)" fill="#f2f2f2"/>
      <path id="Path_5916" data-name="Path 5916" d="M41.169,45.351H38.988a1.155,1.155,0,0,0,.263.794.959.959,0,0,0,.732.278,1.547,1.547,0,0,0,.959-.345v.464a1.794,1.794,0,0,1-1.078.294,1.31,1.31,0,0,1-1.031-.423,1.727,1.727,0,0,1-.376-1.186,1.691,1.691,0,0,1,.407-1.176A1.315,1.315,0,0,1,39.9,43.6a1.165,1.165,0,0,1,.938.392,1.64,1.64,0,0,1,.33,1.093Zm-.516-.418a1.031,1.031,0,0,0-.206-.665.706.706,0,0,0-.567-.237.8.8,0,0,0-.593.253,1.14,1.14,0,0,0-.3.655Z" transform="translate(-18.626 -21.117)" fill="#f2f2f2"/>
    </g>
  </g>
</svg>
