<svg xmlns="http://www.w3.org/2000/svg" width="37" height="37" viewBox="0 0 37 37">
  <g id="icon_iblinfotech_technology_javascript_node_js" transform="translate(-347 -17)">
    <rect id="Rectangle_846" data-name="Rectangle 846" width="37" height="37" transform="translate(347 17)" fill="none"/>
    <g id="Group_12853" data-name="Group 12853" transform="translate(250 -290)">
      <path id="Path_5832" data-name="Path 5832" d="M108.153,66.826a.591.591,0,0,1-.3-.08l-.947-.56c-.141-.079-.073-.107-.026-.123a1.921,1.921,0,0,0,.428-.195.072.072,0,0,1,.07.005l.727.432a.093.093,0,0,0,.088,0l2.835-1.636a.089.089,0,0,0,.044-.077V61.321a.091.091,0,0,0-.044-.078L108.2,59.608a.091.091,0,0,0-.088,0l-2.833,1.635a.092.092,0,0,0-.045.078v3.272a.087.087,0,0,0,.045.076l.776.449c.421.21.68-.037.68-.287V61.6a.082.082,0,0,1,.082-.081h.36a.082.082,0,0,1,.082.081v3.231a.785.785,0,0,1-.839.885,1.214,1.214,0,0,1-.653-.177l-.743-.428a.6.6,0,0,1-.3-.517V61.321a.6.6,0,0,1,.3-.516l2.835-1.638a.622.622,0,0,1,.6,0l2.835,1.638a.6.6,0,0,1,.3.516v3.272a.6.6,0,0,1-.3.517l-2.835,1.637a.59.59,0,0,1-.3.08m.876-2.254c-1.241,0-1.5-.57-1.5-1.047a.082.082,0,0,1,.082-.082h.366a.082.082,0,0,1,.081.069c.055.373.22.561.971.561.6,0,.851-.135.851-.452,0-.183-.072-.318-1-.409-.776-.077-1.255-.248-1.255-.869,0-.572.482-.913,1.29-.913.908,0,1.358.315,1.414.992a.082.082,0,0,1-.081.089h-.368a.081.081,0,0,1-.08-.064c-.089-.393-.3-.518-.885-.518-.652,0-.728.228-.728.4,0,.206.089.266.97.383s1.285.278,1.285.891-.515.973-1.413.973" transform="translate(7.849 269.059)" fill="#00bcff"/>
      <g id="Group_12852" data-name="Group 12852" transform="translate(99 316)">
        <path id="Path_5833" data-name="Path 5833" d="M86.214,62.576a.364.364,0,0,0,.181-.314v-.841a.363.363,0,0,0-.181-.314l-2.987-1.734a.363.363,0,0,0-.364,0l-3.006,1.735a.363.363,0,0,0-.181.314v3.47a.363.363,0,0,0,.184.316l2.987,1.7a.362.362,0,0,0,.356,0l1.807-1a.181.181,0,0,0,0-.316l-3.025-1.736a.181.181,0,0,1-.091-.157V62.61a.181.181,0,0,1,.091-.157l.942-.543a.18.18,0,0,1,.181,0l.942.543a.181.181,0,0,1,.091.157v.856a.181.181,0,0,0,.273.157l1.8-1.047" transform="translate(-52.67 -54.948)" fill="#073865"/>
        <path id="Path_5834" data-name="Path 5834" d="M87.883,67.958a.071.071,0,0,1,.07,0l.577.333a.07.07,0,0,1,.035.06v.666a.07.07,0,0,1-.035.06l-.577.333a.069.069,0,0,1-.07,0l-.576-.333a.069.069,0,0,1-.035-.06v-.666a.07.07,0,0,1,.035-.06l.576-.333" transform="translate(-57.554 -60.493)" fill="#1e73bc"/>
        <path id="Path_5835" data-name="Path 5835" d="M59.01,55.925a.091.091,0,0,1-.045.079l-1.032.6a.09.09,0,0,1-.091,0L56.81,56a.091.091,0,0,1-.045-.079V54.733a.092.092,0,0,1,.045-.079l1.032-.6a.089.089,0,0,1,.091,0l1.033.6a.092.092,0,0,1,.045.079v1.192Zm.279-8.828a.182.182,0,0,0-.27.159v4.613a.127.127,0,0,1-.19.11l-.753-.434a.363.363,0,0,0-.363,0L54.707,53.28a.364.364,0,0,0-.182.315v3.471a.364.364,0,0,0,.181.315l3.007,1.736a.363.363,0,0,0,.363,0l3.007-1.736a.364.364,0,0,0,.181-.315V48.412a.364.364,0,0,0-.186-.317l-1.79-1" transform="translate(-36.503 -47.074)" fill="#073865"/>
        <path id="Path_5836" data-name="Path 5836" d="M32.5,59.319a.362.362,0,0,1,.363,0l3.007,1.735a.364.364,0,0,1,.181.315v3.472a.364.364,0,0,1-.181.315l-3.006,1.736a.364.364,0,0,1-.363,0L29.5,65.156a.364.364,0,0,1-.181-.315V61.368a.364.364,0,0,1,.181-.314L32.5,59.319" transform="translate(-20.297 -54.914)" fill="#1e73bc"/>
        <path id="Path_5837" data-name="Path 5837" d="M10.8,61.3a.362.362,0,0,0-.181-.315l-3.006-1.73a.353.353,0,0,0-.166-.048H7.42a.355.355,0,0,0-.166.048l-3.006,1.73a.365.365,0,0,0-.182.315l.006,4.657a.178.178,0,0,0,.091.157.174.174,0,0,0,.18,0L6.13,65.089a.366.366,0,0,0,.182-.315V62.6a.362.362,0,0,1,.181-.315l.761-.438a.36.36,0,0,1,.363,0l.76.438a.363.363,0,0,1,.182.315v2.176a.367.367,0,0,0,.182.315l1.786,1.023a.176.176,0,0,0,.181,0,.181.181,0,0,0,.09-.157L10.8,61.3" transform="translate(-4.067 -54.872)" fill="#073865"/>
      </g>
    </g>
  </g>
</svg>
