<svg width="16" height="16" viewBox="0 0 16 16" fill="none" xmlns="http://www.w3.org/2000/svg">
<g clip-path="url(#clip0_1_24)">
<path d="M11.753 1H10.417C10.2914 0.999934 10.1679 1.0314 10.0576 1.0915C9.94736 1.1516 9.85397 1.23842 9.786 1.344L8 4.122L6.214 1.344C6.14612 1.23857 6.05288 1.15183 5.94282 1.09174C5.83276 1.03164 5.70939 1.0001 5.584 1H0.749997C0.61782 0.999931 0.487973 1.03479 0.373607 1.10106C0.25924 1.16732 0.164416 1.26263 0.0987402 1.37734C0.0330639 1.49204 -0.00113224 1.62207 -0.000384731 1.75424C0.000362774 1.88642 0.0360274 2.01605 0.102997 2.13L7.353 14.481C7.41915 14.5938 7.51367 14.6874 7.62717 14.7524C7.74066 14.8175 7.86919 14.8517 8 14.8517C8.1308 14.8517 8.25933 14.8175 8.37283 14.7524C8.48632 14.6874 8.58084 14.5938 8.647 14.481L15.897 2.13C15.964 2.01605 15.9996 1.88642 16.0004 1.75424C16.0011 1.62207 15.9669 1.49204 15.9013 1.37734C15.8356 1.26263 15.7408 1.16732 15.6264 1.10106C15.512 1.03479 15.3822 0.999931 15.25 1H11.753ZM3.81 2.5L8 9.683L12.19 2.5H13.94L8 12.62L2.06 2.5H3.81Z" fill="url(#paint0_angular_1_24)"/>
</g>
<defs>
<radialGradient id="paint0_angular_1_24" cx="0" cy="0" r="1" gradientUnits="userSpaceOnUse" gradientTransform="translate(8 7.92584) rotate(90) scale(6.92584 8.00039)">
<stop stop-color="#2994D0"/>
<stop offset="1" stop-color="#00456C"/>
</radialGradient>
<clipPath id="clip0_1_24">
<rect width="16" height="16" fill="white"/>
</clipPath>
</defs>
</svg>
