<?xml version="1.0" encoding="utf-8"?>
<!-- Generator: Adobe illustrator 23.0.2, SVG Export Plug-In . SVG Version: 6.00 Build 0)  -->
<svg version="1.1" id="Layer_1" xmlns="http://www.w3.org/2000/svg" xmlns:xlink="http://www.w3.org/1999/xlink" x="0px" y="0px"
	 viewBox="0 0 150 20" style="enable-background:new 0 0 150 20;" xml:space="preserve">
<style type="text/css">
	.st0{fill:#073865;}
</style>
<g id="layer1" transform="translate(-702.6538,-712.5837)">
	<g id="g16337">
		<path id="path16197" class="st0" d="M764.68,725.45h9.43l-4.99-8.02l-9.15,14.5h-4.16l11.13-17.42c0.48-0.7,1.29-1.13,2.19-1.13
			c0.87,0,1.67,0.41,2.14,1.1l11.17,17.45h-4.16l-1.97-3.24h-9.55L764.68,725.45z M807.95,728.69v-15.13h-3.53v16.62
			c0,0.45,0.18,0.89,0.51,1.23c0.34,0.34,0.79,0.53,1.29,0.53h16.12l2.08-3.24H807.95z M749.48,725.98c3.43,0,6.22-2.77,6.22-6.2
			c0-3.43-2.79-6.22-6.22-6.22h-15.46v18.38h3.53V716.8h11.69c1.64,0,2.96,1.33,2.96,2.98c0,1.64-1.32,2.98-2.96,2.98l-9.96-0.01
			l10.55,9.2h5.13l-7.1-5.95H749.48z M712.27,731.93c-5.07,0-9.19-4.11-9.19-9.18s4.12-9.2,9.19-9.2h10.68
			c5.07,0,9.19,4.12,9.19,9.2s-4.11,9.18-9.19,9.18H712.27z M722.71,728.69c3.29,0,5.95-2.65,5.95-5.94c0-3.28-2.66-5.95-5.95-5.95
			H712.5c-3.29,0-5.95,2.67-5.95,5.95c0,3.29,2.66,5.94,5.95,5.94H722.71z M789.82,731.93c-5.07,0-9.2-4.11-9.2-9.18
			s4.12-9.2,9.2-9.2h12.69l-2.07,3.24h-10.38c-3.29,0-5.95,2.67-5.95,5.95c0,3.29,2.67,5.94,5.95,5.94h12.74l-2.08,3.24H789.82z
			 M833.04,728.69c-2.71,0-5.02-1.82-5.72-4.33h15.11l2.08-3.24h-17.19c0.7-2.49,3.01-4.33,5.72-4.33h10.37l2.1-3.24h-12.7
			c-5.07,0-9.2,4.12-9.2,9.2s4.12,9.18,9.2,9.18h10.9l2.08-3.24H833.04"/>
		<path id="path16199" class="st0" d="M847.4,715.51c0-0.89,0.72-1.61,1.61-1.61c0.91,0,1.63,0.72,1.63,1.61
			c0,0.91-0.72,1.63-1.63,1.63C848.11,717.14,847.4,716.42,847.4,715.51z M849.01,717.59c1.14,0,2.07-0.92,2.07-2.07
			c0-1.14-0.92-2.07-2.07-2.07c-1.13,0-2.05,0.92-2.05,2.07C846.96,716.67,847.88,717.59,849.01,717.59z M848.82,714.29
			c0.32,0,0.45,0.01,0.6,0.07c0.41,0.13,0.45,0.5,0.45,0.65c0,0.03,0,0.1-0.03,0.19c-0.01,0.09-0.07,0.26-0.28,0.4
			c-0.03,0.01-0.04,0.03-0.1,0.06l0.53,0.95h-0.51l-0.47-0.88h-0.32v0.88h-0.45v-2.32H848.82z M848.98,715.35
			c0.15-0.01,0.29-0.01,0.38-0.15c0.04-0.06,0.06-0.12,0.06-0.21c0-0.12-0.07-0.22-0.18-0.28c-0.1-0.04-0.21-0.04-0.43-0.04h-0.13
			v0.67H848.98"/>
	</g>
</g>
</svg>
