<svg xmlns="http://www.w3.org/2000/svg" xmlns:xlink="http://www.w3.org/1999/xlink" width="37" height="37" viewBox="0 0 37 37">
  <defs>
    <linearGradient id="linear-gradient" x1="0.159" y1="0.21" x2="1" y2="0.657" gradientUnits="objectBoundingBox">
      <stop offset="0" stop-color="#1e73bc"/>
      <stop offset="1" stop-color="#073865"/>
    </linearGradient>
  </defs>
  <g id="icon_iblinfotech_technology_database_postgre_sql" transform="translate(-102 -167)">
    <rect id="Rectangle_867" data-name="Rectangle 867" width="37" height="37" transform="translate(102 167)" fill="none"/>
    <g id="Group_12872" data-name="Group 12872" transform="translate(-12.924 -241.218)">
      <path id="Path_5899" data-name="Path 5899" d="M40.192,30.049c.205-1.707.144-1.957,1.415-1.681l.323.029a7.354,7.354,0,0,0,3.008-.506c1.617-.75,2.576-2,.982-1.674-3.638.75-3.888-.481-3.888-.481,3.842-5.7,5.448-12.934,4.062-14.706C42.312,6.2,35.768,8.483,35.659,8.542l-.035.007A12.93,12.93,0,0,0,33.2,8.3a6,6,0,0,0-3.843,1.15S17.68,4.636,18.223,15.494c.115,2.31,3.311,17.478,7.122,12.9,1.393-1.675,2.739-3.092,2.739-3.092a3.534,3.534,0,0,0,2.308.589l.065-.055a2.524,2.524,0,0,0,.026.652c-.982,1.1-.693,1.29-2.656,1.694-1.986.409-.819,1.138-.058,1.328a4.034,4.034,0,0,0,4.5-1.463l-.057.231c.385.308.359,2.215.414,3.577a12.869,12.869,0,0,0,.424,3.383c.278.749.605,2.68,3.185,2.127,2.156-.463,3.8-1.128,3.954-7.313" transform="translate(101.104 404.515)"/>
      <path id="Path_5900" data-name="Path 5900" d="M32.788,36.094a3.286,3.286,0,0,1-2.335-.867,4.478,4.478,0,0,1-1.112-1.965l-.07-.207a13.317,13.317,0,0,1-.5-3.766c-.01-.244-.017-.5-.024-.763-.006-.195-.012-.439-.022-.7a4.915,4.915,0,0,1-1.3.41,6.239,6.239,0,0,1-2.57-.133,3,3,0,0,1-1.673-1,2.685,2.685,0,0,1-2.715.641,5.413,5.413,0,0,1-2.754-2.883,25.9,25.9,0,0,1-1.734-4.425,41.687,41.687,0,0,1-1.613-7.494c-.169-3.381.741-5.8,2.7-7.186,3.1-2.189,7.793-.9,9.5-.317a7.44,7.44,0,0,1,4.031-1.006,14.714,14.714,0,0,1,2.329.215A13.4,13.4,0,0,1,36.9,4.1a9.376,9.376,0,0,1,7.561,3.556c1.278,1.633.646,5.062.156,6.961A31.118,31.118,0,0,1,41.236,22.6a8.862,8.862,0,0,0,1.818-.217c1.639-.339,2.118.54,2.248.934.521,1.578-1.744,2.771-2.451,3.1a8.578,8.578,0,0,1-3.59.621l-.053,0L38.891,27l-.031.265-.03.259c-.081,3.134-.529,5.119-1.45,6.43a5.192,5.192,0,0,1-3.49,2.014,5.236,5.236,0,0,1-1.1.124Zm-2.4-11.407c.736.589.8,1.7.858,3.77.007.258.014.5.023.732a13.531,13.531,0,0,0,.347,3c.036.1.068.2.1.3.283.867.425,1.3,1.648,1.039a2.753,2.753,0,0,0,1.968-1.006c.6-.855.937-2.575,1-5.113l1.249.03-1.241-.149.036-.31c.119-1.021.2-1.759.887-2.247a2.119,2.119,0,0,1,1.669-.264,1.867,1.867,0,0,1-.737-1.1l-.1-.513.293-.435A28.468,28.468,0,0,0,42.2,13.987c.759-2.939.527-4.5.3-4.795-3.063-3.915-8.376-2.3-8.931-2.115l-.094.051L33,7.216l-.241-.05a11.8,11.8,0,0,0-2.192-.227,4.745,4.745,0,0,0-3.066.9l-.57.432L26.269,8c-1.413-.578-5.566-1.74-7.757-.188-1.216.861-1.77,2.549-1.647,5.017a40.355,40.355,0,0,0,1.507,6.89c1.262,4.133,2.409,5.506,2.887,5.666.083.028.3-.14.516-.4,1.4-1.687,2.737-3.094,2.793-3.153l.724-.761.875.581a2.313,2.313,0,0,0,1.141.392l2.086-1.779-.3,3.084a1.268,1.268,0,0,0,.017.339l.091.585-.393.44-.045.051,1.146.529Z" transform="translate(103.713 407.124)" fill="#00bcff"/>
      <path id="Path_5901" data-name="Path 5901" d="M45.919,26.215c-3.638.75-3.888-.481-3.888-.481,3.841-5.7,5.447-12.935,4.061-14.706C42.312,6.2,35.768,8.482,35.658,8.542l-.035.006A12.988,12.988,0,0,0,33.2,8.3a6,6,0,0,0-3.843,1.15S17.679,4.636,18.222,15.494c.115,2.31,3.311,17.478,7.122,12.9,1.393-1.675,2.739-3.092,2.739-3.092a3.533,3.533,0,0,0,2.308.589l.065-.055a2.552,2.552,0,0,0,.026.652c-.982,1.1-.694,1.29-2.656,1.694-1.986.409-.819,1.138-.057,1.328a4.033,4.033,0,0,0,4.5-1.463l-.058.231c.385.308.655,2,.61,3.542a9.745,9.745,0,0,0,.228,3.418c.3.824.605,2.68,3.185,2.127,2.156-.462,3.273-1.66,3.429-3.656.11-1.42.36-1.21.376-2.48l.2-.6c.231-1.925.037-2.546,1.365-2.257l.323.028a7.35,7.35,0,0,0,3.008-.506c1.617-.751,2.577-2,.982-1.674Z" transform="translate(101.104 404.515)" fill="url(#linear-gradient)"/>
      <path id="Path_5902" data-name="Path 5902" d="M34.6,36.972a3.254,3.254,0,0,1-3.111-2.4c-.408-1.02-.5-4.981-.405-8.23a.417.417,0,0,1,.834.023c-.1,3.746.044,7.141.346,7.9a2.46,2.46,0,0,0,3.207,1.776c1.919-.412,2.637-1.139,2.957-2.994.246-1.424.731-5.473.791-6.272a.417.417,0,0,1,.831.062c-.062.832-.546,4.874-.8,6.352-.378,2.191-1.355,3.185-3.6,3.667a5.015,5.015,0,0,1-1.045.118ZM22.943,28.654a1.733,1.733,0,0,1-.553-.091c-1.4-.466-2.727-2.741-3.955-6.762a40.791,40.791,0,0,1-1.578-7.294c-.154-3.078.639-5.256,2.356-6.473,3.4-2.408,9.114-.115,9.356-.016a.417.417,0,0,1-.315.772h0c-.055-.023-5.537-2.219-8.56-.074-1.469,1.041-2.143,2.976-2,5.75a40.481,40.481,0,0,0,1.543,7.092c1.1,3.59,2.343,5.855,3.421,6.214.169.057.684.228,1.421-.657,1.386-1.667,2.659-3,2.671-3.011a.417.417,0,0,1,.6.577c-.013.013-1.266,1.324-2.632,2.967a2.326,2.326,0,0,1-1.773,1.006Zm18.138-3.512a.417.417,0,0,1-.345-.65c3.883-5.762,5.246-12.723,4.078-14.214a7.644,7.644,0,0,0-6.167-2.914,11.571,11.571,0,0,0-3.738.54l-.063.026a.418.418,0,0,1-.357-.751l.112-.046-.006,0,.006,0a12.1,12.1,0,0,1,3.937-.6,8.574,8.574,0,0,1,6.932,3.236c.773.987.774,3.262,0,6.24a30.208,30.208,0,0,1-4.049,8.954.416.416,0,0,1-.346.184Zm.2,2.667a3.369,3.369,0,0,1-1.613-.307.835.835,0,0,1-.445-.675c-.1-1.753.867-2.058,1.361-2.2-.069-.1-.167-.226-.268-.352a6.213,6.213,0,0,1-.985-1.588c-.047-.115-.2-.382-.369-.692-.935-1.677-2.881-5.165-1.631-6.952.579-.827,1.73-1.152,3.427-.97C40.258,12.555,37.88,7.8,32.24,7.7a5.449,5.449,0,0,0-4.134,1.549c-2.341,2.364-2.256,6.642-2.255,6.684a.417.417,0,0,1-.833.022c-.005-.19-.093-4.678,2.5-7.293a6.252,6.252,0,0,1,4.739-1.8A9.546,9.546,0,0,1,39.5,10.293a9.6,9.6,0,0,1,2.191,4.117.464.464,0,0,1-.35.561l-.15,0c-1.666-.267-2.734-.082-3.176.55-.951,1.358.89,4.659,1.676,6.068.2.359.345.619.412.78a5.415,5.415,0,0,0,.865,1.385,2.358,2.358,0,0,1,.518.858c.034.06.52.778,3.4.183.722-.149,1.155-.021,1.288.379.26.788-1.2,1.706-2.01,2.082a7.561,7.561,0,0,1-2.884.55Zm-1.226-1.05a2.581,2.581,0,0,0,1.5.211,6.628,6.628,0,0,0,2.264-.467,4.77,4.77,0,0,0,1.372-.912l-.131.024c-1.843.38-3.146.33-3.873-.151a1.564,1.564,0,0,1-.141-.1,2.04,2.04,0,0,1-.2.066c-.413.116-.84.235-.783,1.333Zm-11.9,2.328a5.9,5.9,0,0,1-1.431-.186c-.51-.127-1.369-.511-1.356-1.141.015-.707,1.043-.92,1.431-1,1.4-.288,1.49-.4,1.927-.958.127-.162.286-.363.5-.6a1.4,1.4,0,0,1,1.043-.541,1.561,1.561,0,0,1,.61.146,1.792,1.792,0,0,1,.972,1.167,1.5,1.5,0,0,1-.186,1.308,4.16,4.16,0,0,1-3.512,1.81ZM26.263,27.8a1.96,1.96,0,0,0,.657.3,5.1,5.1,0,0,0,1.229.161,3.317,3.317,0,0,0,2.834-1.461.706.706,0,0,0,.063-.594.992.992,0,0,0-.489-.626.812.812,0,0,0-.291-.082c-.046,0-.186,0-.422.264-.2.222-.342.4-.469.565-.544.691-.794.926-2.414,1.259a2.623,2.623,0,0,0-.7.219Zm3.205-1.923a.417.417,0,0,1-.412-.354,1.954,1.954,0,0,1-.021-.209,4.075,4.075,0,0,1-2.864-1.287,4.659,4.659,0,0,1-1.228-3.9,18.4,18.4,0,0,0,.094-3.717c-.012-.208-.021-.358-.02-.462,0-.132,0-.482,1.173-1.074a6.518,6.518,0,0,1,2.161-.673,2.321,2.321,0,0,1,2.8,1.893c.8,3.717.064,5.361-.477,6.561-.1.223-.2.435-.272.639l-.067.181a4.477,4.477,0,0,0-.456,1.921.417.417,0,0,1-.349.475l-.064,0Zm-3.614-9.813.017.3a19.156,19.156,0,0,1-.1,3.882,3.831,3.831,0,0,0,1,3.207,3.241,3.241,0,0,0,2.336,1.031h.018a11.463,11.463,0,0,1,.429-1.3L29.623,23c.086-.231.187-.454.293-.691.52-1.156,1.168-2.595.422-6.043a1.4,1.4,0,0,0-1.095-1.209A5.052,5.052,0,0,0,25.854,16.061Zm2.516-.177c-.021.147.27.541.649.593a.7.7,0,0,0,.723-.4c.02-.148-.27-.31-.649-.363S28.39,15.736,28.37,15.884Zm.736.739L29,16.615a1,1,0,0,1-.635-.4.543.543,0,0,1-.132-.354c.027-.192.261-.307.627-.307a1.887,1.887,0,0,1,.253.018,1.543,1.543,0,0,1,.523.162c.238.133.255.281.245.358A.813.813,0,0,1,29.106,16.623Zm-.6-.714a.733.733,0,0,0,.53.431l.068,0a.6.6,0,0,0,.5-.283.839.839,0,0,0-.529-.211,1.531,1.531,0,0,0-.214-.016A.6.6,0,0,0,28.508,15.909ZM39.9,15.583c.02.148-.27.541-.649.594a.7.7,0,0,1-.724-.4c-.02-.147.271-.31.649-.362S39.879,15.436,39.9,15.583Zm-.736.669a.75.75,0,0,1-.705-.468c-.03-.221.334-.389.709-.441a1.738,1.738,0,0,1,.243-.018c.323,0,.537.1.559.248a.564.564,0,0,1-.193.39.91.91,0,0,1-.515.282Zm.246-.787a1.667,1.667,0,0,0-.224.016c-.377.052-.6.2-.59.285a.645.645,0,0,0,.568.348l.078-.006a.775.775,0,0,0,.434-.24.481.481,0,0,0,.156-.275C39.824,15.542,39.685,15.465,39.41,15.465Zm1.036,8.58A.417.417,0,0,1,40.1,23.4a5.425,5.425,0,0,0,.568-3.985,11.243,11.243,0,0,1-.118-1.686,11.731,11.731,0,0,1,.16-1.492,7.62,7.62,0,0,0,.128-1.648.417.417,0,1,1,.833-.045,8.4,8.4,0,0,1-.137,1.82,11.057,11.057,0,0,0-.151,1.391,10.523,10.523,0,0,0,.113,1.559,6.169,6.169,0,0,1-.7,4.548A.417.417,0,0,1,40.446,24.045Z" transform="translate(102.027 405.478)" fill="#fff"/>
      <path id="Path_5903" data-name="Path 5903" d="M13.924,17.211" transform="translate(104 398.249)" fill="none" stroke="#fff" stroke-linecap="round" stroke-linejoin="round" stroke-width="3"/>
    </g>
  </g>
</svg>
