<svg xmlns="http://www.w3.org/2000/svg" xmlns:xlink="http://www.w3.org/1999/xlink" width="37" height="37" viewBox="0 0 37 37">
  <defs>
    <linearGradient id="linear-gradient" y1="0.519" x2="1" y2="0.5" gradientUnits="objectBoundingBox">
      <stop offset="0" stop-color="#1e73bc"/>
      <stop offset="1" stop-color="#073865"/>
    </linearGradient>
  </defs>
  <g id="icon_iblinfotech_technology_javascript_react" transform="translate(-392 -17)">
    <rect id="Rectangle_847" data-name="Rectangle 847" width="37" height="37" transform="translate(392 17)" fill="none"/>
    <path id="Union_1" data-name="Union 1" d="M17.729,28.022c-2.543,2.464-5.051,3.943-7.071,3.873a3.471,3.471,0,0,1-1.811-.458C7.071,30.416,6.409,27.741,7,23.974c.1-.669.244-1.338.418-2.042A15.806,15.806,0,0,1,5.468,21.3C1.95,19.96,0,18.059,0,15.947,0,13.87,1.95,11.969,5.468,10.6c.627-.211,1.254-.422,1.951-.634C7.245,9.258,7.106,8.59,7,7.921,6.374,4.154,7.036,1.514,8.847.458A3.471,3.471,0,0,1,10.658,0c2.02,0,4.528,1.479,7.036,3.978C20.237,1.479,22.779,0,24.764,0a3.471,3.471,0,0,1,1.811.458c1.811,1.056,2.473,3.732,1.881,7.569-.1.669-.244,1.338-.418,2.042a15.805,15.805,0,0,1,1.951.634c3.518,1.338,5.468,3.239,5.468,5.351,0,2.077-1.95,3.978-5.468,5.351-.627.211-1.254.422-1.951.634.174.7.313,1.373.418,2.042.627,3.767-.035,6.407-1.846,7.463A3.471,3.471,0,0,1,24.8,32C22.779,32,20.271,30.521,17.729,28.022ZM21.8,23.129a36.87,36.87,0,0,1-2.961,3.7c2.09,2.112,4.215,3.52,5.921,3.52a1.873,1.873,0,0,0,1.01-.246c1.184-.669,1.567-2.816,1.08-5.808a18.389,18.389,0,0,0-.383-1.9A31.566,31.566,0,0,1,21.8,23.129ZM8.6,24.291c-.487,2.992-.1,5.14,1.08,5.808a1.955,1.955,0,0,0,1.01.246c1.707,0,3.831-1.443,5.921-3.52a32.5,32.5,0,0,1-2.96-3.7,44.776,44.776,0,0,1-4.667-.739C8.847,23.058,8.708,23.692,8.6,24.291Zm9.126,1.338c.662-.739,1.323-1.514,1.95-2.359-.627.035-1.289.035-1.95.035s-1.324,0-1.951-.035C16.405,24.114,17.067,24.889,17.729,25.628Zm-3.17-15.243c-.592.915-1.184,1.831-1.707,2.746-.557.95-1.045,1.9-1.5,2.851.453.95.94,1.9,1.5,2.851.523.915,1.08,1.831,1.707,2.746,1.01.07,2.055.106,3.17.106,1.08,0,2.124-.035,3.17-.106.592-.915,1.184-1.831,1.707-2.746.557-.95,1.045-1.9,1.5-2.851-.453-.95-.94-1.9-1.5-2.851-.523-.915-1.08-1.83-1.707-2.746-1.01-.07-2.055-.106-3.17-.106C16.649,10.279,15.6,10.315,14.559,10.385ZM9.439,20.841c.975.211,1.985.387,3.065.528-.383-.563-.7-1.126-1.045-1.725-.349-.563-.662-1.162-.94-1.725C10.1,18.9,9.753,19.89,9.439,20.841Zm14.594-1.232c-.348.6-.7,1.162-1.045,1.725,1.08-.141,2.09-.317,3.065-.528-.313-.95-.662-1.936-1.08-2.922C24.66,18.482,24.347,19.08,24.033,19.608Zm1.846-3.626a37.243,37.243,0,0,1,1.707,4.436c.627-.176,1.254-.387,1.811-.6,2.821-1.091,4.423-2.464,4.423-3.837,0-1.584-2.334-3.309-6.235-4.436A32.067,32.067,0,0,1,25.879,15.982ZM6.06,12.145c-2.821,1.091-4.423,2.464-4.423,3.837,0,1.584,2.334,3.309,6.235,4.436a33.867,33.867,0,0,1,1.707-4.436,37.2,37.2,0,0,1-1.707-4.436C7.245,11.723,6.618,11.934,6.06,12.145Zm3.379-.986a23.692,23.692,0,0,0,1.08,2.957c.278-.6.592-1.162.94-1.76s.7-1.162,1.045-1.725C11.424,10.772,10.414,10.948,9.439,11.159Zm14.594,1.162.94,1.76c.418-.986.766-1.971,1.08-2.957-.975-.211-1.985-.387-3.065-.528C23.371,11.159,23.685,11.723,24.033,12.321ZM18.878,5.14a32.5,32.5,0,0,1,2.961,3.7,44.719,44.719,0,0,1,4.667.739c.139-.669.278-1.3.383-1.9.487-3.027.07-5.14-1.08-5.808a1.955,1.955,0,0,0-1.01-.246C23.093,1.619,20.968,3.063,18.878,5.14Zm-9.2-3.274C8.5,2.57,8.116,4.682,8.6,7.674a18.389,18.389,0,0,0,.383,1.9,31.564,31.564,0,0,1,4.667-.739,36.824,36.824,0,0,1,2.96-3.7c-2.09-2.112-4.214-3.52-5.921-3.52A1.873,1.873,0,0,0,9.683,1.866Zm10,6.829c-.627-.81-1.289-1.619-1.95-2.358-.662.739-1.324,1.514-1.951,2.358.627-.035,1.289-.035,1.951-.035S19.052,8.66,19.679,8.7Zm-5.19,7.287a3.239,3.239,0,1,1,3.239,3.274A3.257,3.257,0,0,1,14.489,15.982Z" transform="translate(393 20)" fill="url(#linear-gradient)"/>
  </g>
</svg>
