<svg xmlns="http://www.w3.org/2000/svg" xmlns:xlink="http://www.w3.org/1999/xlink" width="37" height="37" viewBox="0 0 37 37">
  <defs>
    <linearGradient id="linear-gradient" y1="0.672" x2="1" y2="0.693" gradientUnits="objectBoundingBox">
      <stop offset="0" stop-color="#1e73bc"/>
      <stop offset="1" stop-color="#0f3a5e"/>
    </linearGradient>
  </defs>
  <g id="icon_iblinfotech_technology_html_css_sass" transform="translate(-152 -120)">
    <rect id="Rectangle_860" data-name="Rectangle 860" width="37" height="37" transform="translate(152 120)" fill="none"/>
    <path id="Sass" d="M1.219,27.531a1.489,1.489,0,0,0,.087.435,5.348,5.348,0,0,0,1.159,2.083A13.735,13.735,0,0,0,5.034,32.3c.8.578,1.624,1.142,2.43,1.716.139.1.269.212.42.332-.129.07-.237.132-.349.188A18.67,18.67,0,0,0,4.5,36.419a6.2,6.2,0,0,0-1.508,1.526,3.283,3.283,0,0,0-.381,3.163,1.867,1.867,0,0,0,.637.821.941.941,0,0,0,.313.161c.285.067.574.111.863.164h.816a5.075,5.075,0,0,0,2.465-.9A5.409,5.409,0,0,0,9.983,38.1a5.738,5.738,0,0,0-.034-3c-.027-.093-.06-.183-.1-.273s-.076-.177-.125-.288l1.849-1.063.028.024c-.034.11-.069.22-.1.331a7.489,7.489,0,0,0-.313,2.452,4.705,4.705,0,0,0,.823,2.46,1.193,1.193,0,0,0,1.868.02,4.307,4.307,0,0,0,.427-.676c.3-.623.581-1.256.869-1.886l.05-.115c-.021.3-.045.56-.056.822a3.132,3.132,0,0,0,.147,1.2.832.832,0,0,0,.7.626.886.886,0,0,0,.661-.241,2.793,2.793,0,0,0,.724-.86c.511-.939,1.036-1.872,1.5-2.835.5-1.041.94-2.113,1.405-3.171l.077-.188c.11.432.187.856.328,1.256a11.873,11.873,0,0,0,.588,1.36.407.407,0,0,1-.052.519c-.607.732-1.2,1.472-1.8,2.212a4.969,4.969,0,0,0-.374.508,1,1,0,0,0-.129.367.467.467,0,0,0,.372.53,2.6,2.6,0,0,0,.728.052,4.266,4.266,0,0,0,2.258-.849,2.367,2.367,0,0,0,.935-2.555,5.937,5.937,0,0,0-.255-.827.305.305,0,0,1,.033-.322,26.316,26.316,0,0,0,1.834-3.111.641.641,0,0,1,.082-.13,8.08,8.08,0,0,0,.928,2.634c-.245.236-.488.451-.708.687a4.735,4.735,0,0,0-1.122,1.774,2.1,2.1,0,0,0-.125.916.772.772,0,0,0,.953.7,4.331,4.331,0,0,0,2.585-1.594,2.1,2.1,0,0,0,.3-1.913c-.051-.185-.111-.367-.175-.579.256-.079.505-.175.763-.233a6.763,6.763,0,0,1,3.954.231,2.984,2.984,0,0,1,1.723,1.5,1.728,1.728,0,0,1-.659,2.345,1.47,1.47,0,0,0-.237.163.234.234,0,0,0-.055.18c.006.033.093.075.143.074a1.311,1.311,0,0,0,.729-.3,2.246,2.246,0,0,0,1.036-1.564l.017-.051-.021-.438c-.008-.025.006-.05,0-.069a3.438,3.438,0,0,0-1.4-2.337,5.114,5.114,0,0,0-3.025-1.019,6.831,6.831,0,0,0-2.626.4c-.241.087-.48.191-.723.289-.033-.059-.068-.115-.1-.174a4.915,4.915,0,0,1-.618-1.582,3.541,3.541,0,0,1-.007-1.241c.095-.4.219-.783.335-1.173a.286.286,0,0,0-.174-.4.768.768,0,0,0-.211-.069,3.256,3.256,0,0,0-1.391.1.4.4,0,0,0-.314.316c-.02.1-.062.2-.091.3a7.547,7.547,0,0,1-.4,1.249c-.482,1-1.033,1.971-1.6,2.931-.061.1-.125.205-.2.331a4.335,4.335,0,0,1-.473-1.222,3.749,3.749,0,0,1-.007-1.474c.091-.365.21-.723.32-1.083a.251.251,0,0,0-.127-.351.747.747,0,0,0-.255-.1,3.131,3.131,0,0,0-1.44.118.389.389,0,0,0-.267.292,11.275,11.275,0,0,1-.427,1.322c-.746,1.711-1.514,3.412-2.28,5.113-.16.355-.347.7-.528,1.044a2.424,2.424,0,0,1-.169.247.2.2,0,0,1-.063-.128,3.541,3.541,0,0,1,.017-.655c.126-.64.271-1.276.424-1.909.126-.523.274-1.042.414-1.562a.49.49,0,0,0-.077-.483.722.722,0,0,0-.909-.11l-.115.065.022-.186a2.891,2.891,0,0,0-.043-1.186.944.944,0,0,0-.991-.754,2.129,2.129,0,0,0-.7.134,5.314,5.314,0,0,0-2.228,1.766.7.7,0,0,1-.2.176c-.778.431-1.559.857-2.339,1.285l-.868.476c-.233-.222-.445-.453-.685-.648-.733-.6-1.479-1.181-2.217-1.773a8.739,8.739,0,0,1-1.774-1.764,3.158,3.158,0,0,1-.616-1.72,4.037,4.037,0,0,1,.617-2.249,8.627,8.627,0,0,1,2.047-2.24A18.963,18.963,0,0,1,9.176,21.5,20.3,20.3,0,0,1,13.3,19.676a11.409,11.409,0,0,1,4.563-.519,4.688,4.688,0,0,1,1.755.51,1.811,1.811,0,0,1,.922,1,2.5,2.5,0,0,1,.044,1.4,5.343,5.343,0,0,1-1.4,2.434,9.442,9.442,0,0,1-3.86,2.445,10.617,10.617,0,0,1-2.626.56,4.946,4.946,0,0,1-2.148-.259,2.794,2.794,0,0,1-1.183-.8c-.058-.067-.131-.14-.239-.077a.2.2,0,0,0-.088.263,2.579,2.579,0,0,0,.2.494,2.816,2.816,0,0,0,.937.887,4.583,4.583,0,0,0,2.329.639,11.717,11.717,0,0,0,3.672-.468A9.009,9.009,0,0,0,20.6,25.523a6.769,6.769,0,0,0,1.861-3.878,3.754,3.754,0,0,0-.351-2.137,3.862,3.862,0,0,0-1.685-1.647A7.133,7.133,0,0,0,17.1,17H15.946a12,12,0,0,0-4.073.881A27.976,27.976,0,0,0,8.95,19.145a18.9,18.9,0,0,0-5.571,3.989,8.32,8.32,0,0,0-1.838,2.9c-.112.324-.219.672-.3,1.007M8.73,36.73a4.275,4.275,0,0,1-1.521,2.959,3.461,3.461,0,0,1-1.74.869,1.277,1.277,0,0,1-.725-.051.739.739,0,0,1-.416-.757,2.738,2.738,0,0,1,.409-1.395,4.986,4.986,0,0,1,1.275-1.4A19.541,19.541,0,0,1,8.5,35.275l.065-.027A4.375,4.375,0,0,1,8.73,36.73ZM15.5,31.518a9.048,9.048,0,0,1-.254,1.137,33.531,33.531,0,0,1-1.421,3.758,6.481,6.481,0,0,1-.369.65.454.454,0,0,1-.076.09c-.155.154-.3.146-.381-.055a4.235,4.235,0,0,1-.2-.73,3.871,3.871,0,0,1-.035-.51,6.4,6.4,0,0,1,1-3.33,3.113,3.113,0,0,1,.968-1.09,1.686,1.686,0,0,1,.429-.19c.229-.064.369.041.331.271ZM20.112,37.4l1.659-1.937C21.84,36.181,20.617,37.617,20.112,37.4Zm5.3-1.3c-.117.067-.245.116-.365.178s-.146,0-.15-.1a.641.641,0,0,1,.025-.194,4.171,4.171,0,0,1,1.25-2.013l.043-.022a1.777,1.777,0,0,1-.8,2.147Z" transform="translate(152.781 109)" fill-rule="evenodd" fill="url(#linear-gradient)"/>
  </g>
</svg>
