<?xml version="1.0" encoding="utf-8"?>
<!-- Generator: Adobe illustrator 18.1.1, SVG Export Plug-In . SVG Version: 6.00 Build 0)  -->
<svg version="1.1" id="Layer_1" xmlns="http://www.w3.org/2000/svg" xmlns:xlink="http://www.w3.org/1999/xlink" x="0px" y="0px"
	 viewBox="0 0 37 37" enable-background="new 0 0 37 37" xml:space="preserve">
<rect fill="none" width="37" height="37"/>
<path id="Shopify_1_" fill="#183A64" d="M20.4,5.7c0-0.1,0-0.2,0-0.4c0-1.2-0.2-2.1-0.4-2.9c1.1,0.1,1.7,1.3,2.2,2.7
	C21.6,5.3,21,5.5,20.4,5.7z M18,17.4c0,0-1.2-0.7-2.7-0.7c-2.2,0-2.3,1.4-2.3,1.7c0,1.9,5,2.7,5,7.1c0,3.5-2.2,5.8-5.2,5.8
	c-3.6,0-5.4-2.3-5.4-2.3l1-3.2c0,0,1.9,1.6,3.5,1.6c1,0,1.5-0.8,1.5-1.4c0-2.5-4.1-2.6-4.1-6.7c0-3.5,2.5-6.8,7.4-6.8
	c1.9,0,2.9,0.6,2.9,0.6L18,17.4z M17.2,1.3c0.2,0,0.4,0.1,0.6,0.2C16.3,2.2,14.7,4,14,7.6c-1,0.3-2,0.6-2.9,0.9
	C11.9,5.8,13.8,1.3,17.2,1.3z M19.1,5.8c0,0.1,0,0.1,0,0.2c-1.2,0.4-2.4,0.8-3.7,1.1c0.7-2.7,2-4.1,3.2-4.6
	C18.9,3.4,19.1,4.4,19.1,5.8z M24.6,4.4c-0.1,0-0.1,0-0.2,0c0,0-0.4,0.1-1.1,0.3c-0.7-1.9-1.8-3.6-3.9-3.6c-0.1,0-0.1,0-0.2,0
	C18.7,0.3,18,0,17.4,0c-4.7,0-7,6-7.7,9c-1.8,0.6-3.2,1-3.3,1c-1,0.3-1.1,0.4-1.2,1.3C5,12.1,2.3,33,2.3,33l21,4l0,0L24.6,4.4z
	 M26.1,5.4c0.6,0.6,1.3,1.3,1.3,1.3s2.8,0.2,3,0.2c0.1,0,0.3,0.1,0.3,0.3c0,0.2,4,27.3,4,27.3l-9.8,2.1L26.1,5.4z"/>
</svg>
