<svg xmlns="http://www.w3.org/2000/svg" xmlns:xlink="http://www.w3.org/1999/xlink" width="37" height="37" viewBox="0 0 37 37">
  <defs>
    <linearGradient id="linear-gradient" x1="-4.183" y1="0.143" x2="-3.174" y2="0.794" gradientUnits="objectBoundingBox">
      <stop offset="0" stop-color="#073865"/>
      <stop offset="1" stop-color="#1e73bc"/>
    </linearGradient>
    <linearGradient id="linear-gradient-3" x1="-4.183" y1="0.143" x2="-3.174" y2="0.794" gradientUnits="objectBoundingBox">
      <stop offset="0" stop-color="#073865"/>
      <stop offset="1" stop-color="#073865"/>
    </linearGradient>
  </defs>
  <g id="icon_iblinfotech_technology_database_sql_server" transform="translate(-298 -167)">
    <rect id="Rectangle_871" data-name="Rectangle 871" width="37" height="37" transform="translate(298 167)" fill="none"/>
    <g id="Group_12876" data-name="Group 12876" transform="translate(200 -126)">
      <path id="Path_38" data-name="Path 38" d="M350.971,463.277l-6.408,2.093-5.575,2.461-1.56.412c-.4.378-.814.761-1.264,1.148-.494.426-.954.814-1.308,1.095a9.76,9.76,0,0,0-1.269,1.259,5.709,5.709,0,0,0-.94,1.589,2.667,2.667,0,0,0,.378,2.4,8.493,8.493,0,0,0,3.5,2.63,22.253,22.253,0,0,0,3.081,1.032,40.8,40.8,0,0,0,6.568.935,7.528,7.528,0,0,0,.848,0,11.541,11.541,0,0,0,.625-1.187,30,30,0,0,0,2.272-6.011,28.487,28.487,0,0,0,.581-4.166c.034-.47.048-2.044.019-2.577a18.094,18.094,0,0,0-.242-2.272.524.524,0,0,1-.015-.2,8.364,8.364,0,0,1,.867-.262l-.16-.378h0Zm-1.463.857a15.685,15.685,0,0,1,.252,2.427,1.3,1.3,0,0,1,0,.329c-.039,0-.819-.46-1.376-.809-.484-.305-1.4-.916-1.55-1.032-.049-.034-.044-.039.354-.174C347.857,464.648,349.455,464.134,349.509,464.134Zm-3.265,1.075a1.606,1.606,0,0,1,.421.228,30.016,30.016,0,0,0,2.935,1.632c.179.078.2.048-.213.329a21.114,21.114,0,0,1-3.328,1.787c-.237.107-.436.189-.441.189a1.259,1.259,0,0,1,.058-.266,14.282,14.282,0,0,0,.518-3.405c0-.484,0-.484.048-.5C346.234,465.21,346.239,465.21,346.244,465.21Zm-.673.257a10.437,10.437,0,0,1-.029,1.41,12.328,12.328,0,0,1-.446,2.107,3.23,3.23,0,0,1-.111.339,8.523,8.523,0,0,1-.9-.877,6.554,6.554,0,0,1-.891-1.3,4.084,4.084,0,0,1-.271-.659C343,466.435,345.551,465.447,345.57,465.466Zm-3.168,1.245a.018.018,0,0,1,.015,0,.907.907,0,0,1,.073.174,6.545,6.545,0,0,0,.8,1.439,8.2,8.2,0,0,0,1.119,1.206c.116.1.223.189.237.2s.039.024-.751.325c-.915.349-1.913.7-3.056,1.066l-.818.266c-.044.015-.029-.01.1-.208a27.237,27.237,0,0,0,1.913-3.856c.082-.213.165-.426.179-.475a.175.175,0,0,1,.107-.126A.471.471,0,0,1,342.4,466.711Zm-.969.4a10.835,10.835,0,0,1-.475,1c-.47.915-.983,1.816-1.671,2.911-.116.189-.228.363-.242.383s-.034.024-.111-.126a4.441,4.441,0,0,1-.373-1.124,4.522,4.522,0,0,1,.024-1.443c.063-.3.058-.3.2-.368C339.409,468.034,341.415,467.094,341.434,467.113Zm8.356.339v.2a26.35,26.35,0,0,1-.286,3.643c-.029.189-.053.344-.058.349s-.14-.039-.305-.087a12.5,12.5,0,0,1-2.228-.954,9.87,9.87,0,0,1-1.133-.7s.208-.111.446-.237a28.529,28.529,0,0,0,2.65-1.555c.3-.2.741-.518.838-.605Zm-12.013,1.434c.019,0,.014.039-.015.213-.019.126-.044.358-.053.518a3.584,3.584,0,0,0,.426,1.947,4.032,4.032,0,0,1,.17.368c-.034.029-3.241.969-4.248,1.245l-.581.16c-.034.01-.039,0-.024-.077a5.09,5.09,0,0,1,1.41-2.427,6.266,6.266,0,0,1,1.594-1.221c.494-.281,1.255-.7,1.313-.722,0,0,0,0,.01,0Zm7.556,1.351a1.957,1.957,0,0,1,.262.141,14.591,14.591,0,0,0,3.71,1.443l.111.024-.155.087c-.644.358-2.761,1.24-4.926,2.049-.315.116-.625.232-.683.257a.348.348,0,0,1-.111.034s.087-.174.2-.383a23.9,23.9,0,0,0,1.526-3.473c.039-.092.063-.174.068-.179Zm-.77.252a1.394,1.394,0,0,1-.082.223A30.676,30.676,0,0,1,342.8,474.1c-.179.32-.329.576-.334.576s-.15-.087-.325-.194a9.962,9.962,0,0,1-2.533-2.156l-.087-.107.441-.121a31.635,31.635,0,0,0,4.253-1.468C344.4,470.553,344.558,470.49,344.563,470.49Zm4.786,1.671h0c0,.111-.242,1.109-.446,1.831-.17.605-.315,1.08-.581,1.918-.116.368-.218.673-.223.673a.32.32,0,0,1-.063-.014,20.246,20.246,0,0,1-3.938-1.109c-.339-.136-.823-.354-.853-.378a5.655,5.655,0,0,1,.649-.305c2.2-.964,4.49-2.059,5.275-2.528A.632.632,0,0,1,349.349,472.161Zm-11.049.378c.01.01-.605.9-1.468,2.1-.3.421-.649.915-.78,1.1s-.329.475-.441.649l-.2.315-.218-.184a8.063,8.063,0,0,1-.9-.92,3.975,3.975,0,0,1-.809-1.564c-.053-.233-.053-.349,0-.363.073-.019,1.366-.325,2.577-.606.673-.155,1.453-.339,1.734-.407S338.3,472.538,338.3,472.538Zm.62.237.155.174a9.1,9.1,0,0,0,2.272,1.86,1.271,1.271,0,0,1,.262.17c-.034.024-2.993,1.075-4.364,1.55-.77.271-1.4.489-1.409.489a.826.826,0,0,1-.1-.063l-.087-.063.14-.2c.455-.659,1.027-1.38,2.272-2.882l.857-1.032Zm3.865,2.766s.218.073.479.17a15.5,15.5,0,0,0,1.8.557,19.889,19.889,0,0,0,2.717.47c.107.01.165.019.145.034s-.746.257-1.269.421c-.833.262-3.376,1.012-5.449,1.608-.383.111-.712.2-.731.208a.384.384,0,0,1-.208-.053,3.506,3.506,0,0,1,.257-.325,28.753,28.753,0,0,0,1.967-2.645C342.65,475.745,342.785,475.546,342.785,475.542Zm-.853.024s-.339.557-.94,1.506c-.257.4-.543.857-.644,1.017s-.242.4-.324.533l-.141.247-.073-.019c-.174-.048-1.4-.48-1.724-.61a11.994,11.994,0,0,1-1.129-.518,4.721,4.721,0,0,1-.833-.528c.01,0,.673-.184,1.473-.4,2.122-.577,3.3-.911,4.069-1.153A1.932,1.932,0,0,1,341.933,475.566Zm6.031,1.414h0c.019.048-.765,2.228-1.051,2.916-.063.155-.087.194-.121.189-.082,0-1.221-.165-1.913-.266-1.206-.184-3.231-.538-3.739-.654l-.116-.024.722-.165c1.55-.349,2.3-.538,3.052-.77a21.569,21.569,0,0,0,2.853-1.1A2.331,2.331,0,0,1,347.963,476.98Z" transform="translate(-230.513 -152.338)" fill="url(#linear-gradient)"/>
      <path id="Path_39" data-name="Path 39" d="M463.242,82.734a30.793,30.793,0,0,0-2.935,1.056,18.329,18.329,0,0,0-3.376,1.7,2.561,2.561,0,0,0-.654.654.453.453,0,0,0-.029.165l.649.615,1.545.494,3.676.659,4.2.722.044-.363c-.014,0-.024,0-.039,0l-.552-.087-.111-.2c-.572-1.008-1.2-2.257-1.569-3.1a16.032,16.032,0,0,1-.707-1.952c-.082-.329-.092-.349-.145-.354h0Zm-.078.247h.005s.024.141.044.3a10.12,10.12,0,0,0,.47,2.039c.179.533.179.5-.029.441-.494-.136-2.708-.518-4.311-.741-.257-.034-.475-.068-.475-.073-.019-.019,1.158-.635,1.676-.877C461.208,83.766,463.029,83.006,463.164,82.982Zm-4.669,2.17.189.063a28.874,28.874,0,0,0,5.033.959l.3.029a2.243,2.243,0,0,1-.305.16c-.688.344-1.443.765-1.967,1.09a2.01,2.01,0,0,1-.315.174c-.019,0-.121-.019-.228-.034l-.194-.029-.484-.475c-.853-.828-1.521-1.468-1.778-1.71Zm-.194.15.683.853c.373.47.751.93.833,1.032a1.591,1.591,0,0,1,.145.189c-.019.015-.988-.174-1.5-.291s-.746-.179-1.07-.281l-.266-.087v-.068c0-.325.417-.809,1.114-1.3Zm5.8,1.163c.019,0,.044.044.1.174.165.363.678,1.342.8,1.531.039.063.107.068-.576-.044-1.642-.266-2.17-.354-2.17-.363a.5.5,0,0,1,.111-.073,9.455,9.455,0,0,0,1.477-1.022c.111-.092.213-.179.232-.194S464.1,86.459,464.1,86.464Z" transform="translate(-349.39 213.266)" fill="url(#linear-gradient)"/>
      <path id="Path_40" data-name="Path 40" d="M395.377,167.757a.483.483,0,0,0,0,.421,1.914,1.914,0,0,0,.455.538s2.155,2.1,2.417,2.4a6.734,6.734,0,0,1,1.758,4.6,7.451,7.451,0,0,1-.765,3.483c-1.008,2.2-3.134,4.626-6.413,7.319l.48-.16a15.4,15.4,0,0,1,1.72-1.022,61.3,61.3,0,0,1,8-3.58,99.738,99.738,0,0,1,16.232-4.35l.441-.068-.068-.107a14.929,14.929,0,0,0-.974-1.371A11.639,11.639,0,0,0,415.213,173a25.505,25.505,0,0,0-7.464-2.5c-.586-.116-1.875-.339-2.921-.5-2.219-.344-3.652-.581-5.231-.852-.567-.1-1.414-.242-1.976-.363a12.556,12.556,0,0,1-1.284-.344c-.349-.136-.853-.271-.959-.683Zm1.25,1.211a1.35,1.35,0,0,1,.184.058c.184.063.421.136.7.213q.319.088.639.17c.291.073.533.14.538.14.034.034.523,1.6.688,2.2.063.228.111.421.107.421a.978.978,0,0,1-.121-.189,10.082,10.082,0,0,0-2.5-2.824A2.066,2.066,0,0,1,396.627,168.968Zm2.383.659a1.9,1.9,0,0,1,.262.044c.823.184,2.3.465,3.245.625a1.186,1.186,0,0,1,.286.063.49.49,0,0,1-.131.082c-.16.082-.8.465-1.017.61a9.279,9.279,0,0,0-1.371,1.095c-.14.141-.262.257-.262.257s-.029-.082-.053-.184a15.694,15.694,0,0,0-.867-2.373,2.083,2.083,0,0,1-.1-.223C399.005,169.632,399.005,169.627,399.01,169.627Zm4.195.8a1.864,1.864,0,0,1,.174.538,7.93,7.93,0,0,1,.233,2.219c-.01.2-.019.392-.029.417l-.015.048-.252-.082c-.518-.165-1.361-.412-2.083-.615-.412-.111-.746-.213-.746-.223a11.451,11.451,0,0,1,.857-.857A22.477,22.477,0,0,1,403.2,170.426Zm.334.048c.015-.014,2.005.329,2.911.5.673.131,1.652.334,1.71.358.029.01-.073.068-.4.213a21.027,21.027,0,0,0-3.173,1.724c-.247.165-.455.3-.46.3a2.639,2.639,0,0,1-.01-.31,6.766,6.766,0,0,0-.523-2.635A.736.736,0,0,1,403.539,170.474Zm5.149,1.017a3.643,3.643,0,0,1-.107.639,12.144,12.144,0,0,1-1.221,2.8,3.188,3.188,0,0,1-.2.329,2.068,2.068,0,0,1-.291-.155,15.772,15.772,0,0,0-1.9-.93c-.194-.082-.363-.15-.368-.16-.034-.029,1.526-1.061,2.349-1.555C407.6,172.063,408.669,171.472,408.688,171.492Zm.368.058c.044,0,.925.242,1.385.378a28.577,28.577,0,0,1,3.3,1.206l.354.16-.247.058a36.106,36.106,0,0,0-5.585,1.729c-.141.058-.266.107-.276.107a1.249,1.249,0,0,1,.1-.247,9.81,9.81,0,0,0,.935-3.226C409.027,171.622,409.042,171.55,409.056,171.55Zm-8.777,2.015c.015-.015.688.145,1.051.247.552.155,1.724.547,1.724.576,0,0-.131.116-.286.252-.635.528-1.245,1.085-1.976,1.792-.218.208-.4.378-.412.378s-.014-.029-.01-.068a10.921,10.921,0,0,0-.068-2.921C400.289,173.686,400.274,173.57,400.279,173.565Zm14.149.015a9.3,9.3,0,0,1-.513.8c-.291.417-.717.969-1.681,2.18-.509.639-1.08,1.361-1.269,1.6s-.354.446-.359.446a1.672,1.672,0,0,1-.136-.194,10.01,10.01,0,0,0-1.962-2.165c-.145-.121-.305-.252-.358-.291a.54.54,0,0,1-.1-.082c0-.014.823-.368,1.448-.62,1.095-.446,2.586-.978,3.706-1.322C413.793,173.749,414.418,173.57,414.428,173.579Zm.373.1a1.115,1.115,0,0,1,.276.136,16.429,16.429,0,0,1,3.241,2.432c.257.252.891.911.882.915s-.223.019-.484.039a47.744,47.744,0,0,0-7.159,1.192c-.169.039-.32.073-.329.073s.179-.189.417-.417a12.393,12.393,0,0,0,2.94-3.914c.111-.237.208-.441.218-.455Zm-10.787,1.1c.068.014.7.31,1.172.547.436.218,1.09.567,1.124.6,0,0-.228.126-.513.266-.911.455-1.691.886-2.5,1.38-.232.141-.426.257-.431.257s-.015-.019.116-.257a10.115,10.115,0,0,0,.983-2.669C403.98,174.829,404,174.781,404.014,174.781Zm-.63.116a9.248,9.248,0,0,1-.252.935,11.922,11.922,0,0,1-.857,1.967c-.078.136-.194.334-.257.446l-.121.194-.271-.262a3.559,3.559,0,0,0-.9-.664,1.3,1.3,0,0,1-.233-.136c0-.039.828-.79,1.463-1.332C402.41,175.653,403.37,174.882,403.384,174.9Zm3.851,1.584.237.155a18.417,18.417,0,0,1,1.671,1.235c.276.228.809.707.915.823l.058.063-.392.111c-2.219.615-3.933,1.162-5.934,1.9-.223.082-.412.15-.426.15s-.053.024.446-.436a21.265,21.265,0,0,0,3.255-3.739Zm-1.012.252c.01.01-.654.944-1.051,1.472-.475.63-1.318,1.686-1.9,2.373-.242.286-.45.523-.46.528s-.019-.068-.019-.179a4.06,4.06,0,0,0-.412-1.744c-.111-.223-.131-.276-.107-.3.092-.082,1.5-.886,2.393-1.366C405.268,177.2,406.208,176.723,406.223,176.733Zm-6.123,1.5a2.143,2.143,0,0,1,.252.126,5.318,5.318,0,0,1,.833.562,1.443,1.443,0,0,1-.281.232c-.46.329-1.158.857-1.565,1.182-.426.339-.441.349-.392.276A8.311,8.311,0,0,0,400,178.481.822.822,0,0,1,400.1,178.234Zm1.632,1.279c.024,0,.053.039.184.233a3.5,3.5,0,0,1,.543,1.41l.01.1-.664.257c-1.187.46-2.281.915-3.023,1.254-.208.1-.572.271-.809.388s-.431.213-.431.208.15-.116.334-.252a19.531,19.531,0,0,0,3.643-3.357c.1-.121.194-.233.2-.237Zm-.751.184a10.236,10.236,0,0,1-.911,1.027,16.067,16.067,0,0,1-3.008,2.427l-.291.184c-.034.019.01-.029.513-.576.32-.344.562-.635.838-.993a1.637,1.637,0,0,1,.484-.46C399.32,180.792,400.962,179.678,400.982,179.7Z" transform="translate(-288.457 131.581)" fill="url(#linear-gradient-3)"/>
    </g>
  </g>
</svg>
