<svg xmlns="http://www.w3.org/2000/svg" width="37" height="37" viewBox="0 0 37 37">
  <g id="icon_iblinfotech_technology_html_css_three" transform="translate(-251 -120)">
    <rect id="Rectangle_862" data-name="Rectangle 862" width="37" height="37" transform="translate(251 120)" fill="none"/>
    <g id="Group_2" data-name="Group 2" transform="translate(255 123)">
      <path id="Path_9" data-name="Path 9" d="M2.568,520.2,0,491.4H28.217l-2.572,28.8-11.555,3.2Z" transform="translate(0 -491.4)" fill="#073865"/>
      <path id="Path_10" data-name="Path 10" d="M885.5,666.452l9.231-2.594L896.9,639.2H885.5Z" transform="translate(-871.231 -636.872)" fill="#1e73bc"/>
      <path id="Path_11" data-name="Path 11" d="M885.5,852.567h4.622l.318-3.576H885.5V845.5h8.758l-.083.937-.859,9.625H885.5Z" transform="translate(-871.318 -839.826)" fill="#fff"/>
      <path id="Path_12" data-name="Path 12" d="M408.257,1630.236h-.016l-3.889-1.051-.249-2.785h-3.5l.49,5.484,7.155,1.991h.02v-3.639Z" transform="translate(-394.19 -1608.253)" fill="#ebebeb"/>
      <path id="Path_13" data-name="Path 13" d="M890.416,1506.2l-.421,4.674-3.9,1.051v3.639l7.16-1.985.052-.591.608-6.789h-3.5Z" transform="translate(-871.919 -1489.954)" fill="#fff"/>
      <path id="Path_14" data-name="Path 14" d="M339.649,845.5v3.492h-8.434l-.072-.784-.159-1.771-.083-.937Zm-.013,7.067v3.492h-3.845l-.068-.784-.159-1.771-.083-.937h4.154Z" transform="translate(-325.6 -839.826)" fill="#ebebeb"/>
    </g>
  </g>
</svg>
