<svg xmlns="http://www.w3.org/2000/svg" xmlns:xlink="http://www.w3.org/1999/xlink" width="37" height="37" viewBox="0 0 37 37">
  <defs>
    <linearGradient id="linear-gradient" x1="1.016" y1="0.463" x2="0" y2="0.443" gradientUnits="objectBoundingBox">
      <stop offset="0" stop-color="#073865"/>
      <stop offset="1" stop-color="#1e73bc"/>
    </linearGradient>
  </defs>
  <g id="icon_iblinfotech_technology_php_wordpress" transform="translate(-202 -17)">
    <rect id="Rectangle_843" data-name="Rectangle 843" width="37" height="37" transform="translate(202 17)" fill="none"/>
    <path id="Path_5763" data-name="Path 5763" d="M31.921,1.39A15.5,15.5,0,1,0,47,16.884,15.545,15.545,0,0,0,31.921,1.39Zm-.37,30.22a14.735,14.735,0,1,1,14.7-14.474,14.728,14.728,0,0,1-14.7,14.474Zm7.852-19.1a7.865,7.865,0,0,1-.894-1.614,4.633,4.633,0,0,1-.268-2.054A2.161,2.161,0,0,1,40.434,7.07c-6.316-5.862-16.242-3.764-19.9,2.606,1.408-.065,2.752-.151,4.1-.169a.918.918,0,0,1,.736.411c.134.446-.241.6-.639.632l-1.325.1,4.807,14.321a2.455,2.455,0,0,0,.184-.3c.889-2.657,1.783-5.312,2.65-7.977A1.373,1.373,0,0,0,31,15.876c-.458-1.323-1.007-2.618-1.409-3.957-.275-.917-.64-1.51-1.724-1.4-.185.018-.41-.379-.617-.585.25-.149.5-.424.751-.427q3.311-.05,6.622,0c.253,0,.5.286.752.439-.219.2-.408.5-.664.577a7.048,7.048,0,0,1-1.358.144l4.813,14.318c.729-2.422,1.408-4.646,2.067-6.875a6.711,6.711,0,0,0-.826-5.6ZM27.884,29.313a2.211,2.211,0,0,0-.054.324,13.464,13.464,0,0,0,8.124-.22L31.78,17.984c-1.336,3.883-2.617,7.606-3.9,11.329Zm-2.1-.517L19.492,11.545C16.655,17.087,18.813,25.542,25.78,28.8ZM43.307,10.964a16.357,16.357,0,0,1-.3,3.013c-.651,2.3-1.447,4.564-2.214,6.833-.833,2.466-1.7,4.92-2.551,7.38a12.7,12.7,0,0,0,6.553-10.479C44.992,15.091,44.088,11.463,43.307,10.964Z" transform="translate(188.904 18.613)" fill-rule="evenodd" fill="url(#linear-gradient)"/>
  </g>
</svg>
