<svg xmlns="http://www.w3.org/2000/svg" xmlns:xlink="http://www.w3.org/1999/xlink" width="37" height="37" viewBox="0 0 37 37">
  <defs>
    <linearGradient id="linear-gradient" x1="0.092" y1="0.349" x2="1" y2="0.379" gradientUnits="objectBoundingBox">
      <stop offset="0" stop-color="#0073bb"/>
      <stop offset="0.523" stop-color="#00609c"/>
      <stop offset="1" stop-color="#003a5e"/>
    </linearGradient>
  </defs>
  <g id="icon_iblinfotech_technology_php_yiiframework" transform="translate(-248 -17)">
    <rect id="Rectangle_844" data-name="Rectangle 844" width="37" height="37" transform="translate(248 17)" fill="none"/>
    <path id="Path_5764" data-name="Path 5764" d="M45.535,1.858c-3.633.136-8.049,4.7-6.538,8.954,1.6,4.222,2.625,7.226,2.839,11.936,3.839-3.863,7.367-8.057,7.651-12.923.093-3.949-1.776-6.859-3.952-7.968ZM41.282,23.546a12.876,12.876,0,0,0-5.326-4.156,23.228,23.228,0,0,1-2.194,3.193,15.281,15.281,0,0,0-3.329,11.275C38.531,32.964,41.06,26.886,41.282,23.546Zm-13.91-7.731c2.714.8,4.616,1.3,6.674,2.046a15.078,15.078,0,0,1,7.244,4.9,25.871,25.871,0,0,0-4.781-12.6C32.62,4.872,25.883,2.334,19.624,4.811a10.235,10.235,0,0,0,7.748,11Z" transform="translate(232.407 18.142)" fill="url(#linear-gradient)"/>
  </g>
</svg>
