<svg xmlns="http://www.w3.org/2000/svg" width="32" height="32" viewBox="0 0 32 32">
  <g id="reactjs" transform="translate(-658 -181)">
    <rect id="Rectangle_19" data-name="Rectangle 19" width="32" height="32" transform="translate(658 181)" opacity="0"/>
    <g id="reactjs-icon" transform="translate(658.965 183.989)">
      <circle id="Ellipse_17" data-name="Ellipse 17" cx="2.719" cy="2.719" r="2.719" transform="translate(11.891 10.161)" fill="#00d8ff"/>
      <g id="Group_49" data-name="Group 49" transform="translate(0.035 0.011)">
        <path id="Path_358" data-name="Path 358" d="M14.61,7.725a30.507,30.507,0,0,1,9.6,1.4c3.081,1.061,4.975,2.668,4.975,4.124,0,1.517-2.008,3.225-5.316,4.321a30.633,30.633,0,0,1-9.258,1.261,30.533,30.533,0,0,1-9.447-1.27C1.963,16.472.035,14.742.035,13.254c0-1.444,1.809-3.039,4.846-4.1a30.774,30.774,0,0,1,9.728-1.43Z" transform="translate(-0.035 -0.385)" fill="none" stroke="#00d8ff" stroke-width="1.367" fill-rule="evenodd"/>
        <path id="Path_359" data-name="Path 359" d="M10.1,10.132a30.508,30.508,0,0,1,6.012-7.614c2.458-2.139,4.8-2.977,6.058-2.25,1.314.758,1.791,3.35,1.088,6.764a30.616,30.616,0,0,1-3.533,8.65,30.525,30.525,0,0,1-5.82,7.549c-2.546,2.226-5.008,3.031-6.3,2.288-1.251-.721-1.729-3.085-1.129-6.246A30.785,30.785,0,0,1,10.1,10.132Z" transform="translate(-0.335 -0.011)" fill="none" stroke="#00d8ff" stroke-width="1.367" fill-rule="evenodd"/>
        <path id="Path_360" data-name="Path 360" d="M10.1,15.692A30.516,30.516,0,0,1,6.508,6.681c-.626-3.2-.183-5.643,1.077-6.372,1.313-.76,3.8.122,6.4,2.436a30.631,30.631,0,0,1,5.73,7.381,30.527,30.527,0,0,1,3.633,8.812c.657,3.318.125,5.853-1.163,6.6-1.25.723-3.537-.042-5.975-2.141a30.776,30.776,0,0,1-6.112-7.7Z" transform="translate(-0.335 -0.013)" fill="none" stroke="#00d8ff" stroke-width="1.367" fill-rule="evenodd"/>
      </g>
    </g>
  </g>
</svg>
