<svg
                    xmlns="http://www.w3.org/2000/svg"
                    width="99"
                    height="70"
                    viewBox="0 0 99 70"
                  >
                    <path
                      d="M78.5,70H20.5A20.364,20.364,0,0,1,.584,53.58l0,0c-.043-.219-.088-.443-.133-.66v0A16.718,16.718,0,0,1,0,49.583,19.94,19.94,0,0,1,3.267,38.7,20.993,20.993,0,0,1,11.8,31.218a20.578,20.578,0,0,1,.73-4.672,20.187,20.187,0,0,1,4.464-8.126,20.706,20.706,0,0,1,3.589-3.152,20.34,20.34,0,0,1,5.5-2.7,19.866,19.866,0,0,1,5.951-.907,21.556,21.556,0,0,1,6.685,1.086A26.27,26.27,0,0,1,54.386.891,25.8,25.8,0,0,1,61.1,0a26.207,26.207,0,0,1,26.1,26.25,26.64,26.64,0,0,1-.431,4.774,21.5,21.5,0,0,1,8.881,7.582A19.815,19.815,0,0,1,99,49.583a20.1,20.1,0,0,1-1.628,7.939,20.469,20.469,0,0,1-1.905,3.468,20.753,20.753,0,0,1-9.038,7.4A20.306,20.306,0,0,1,78.5,70ZM38.03,45.585,33.1,50.541,38.03,55.5l2.041-2.053-1.457-1.465a13.03,13.03,0,0,0,10.963-7.069,12.953,12.953,0,0,0,11.547,7.083,13.063,13.063,0,0,0,.584-26.113l1.457-1.465-2.041-2.053L56.2,27.317l4.93,4.955,2.041-2.053-1.424-1.432A10.127,10.127,0,1,1,54.2,31.53l1.051-1-1.979-2.114-1.051,1a13.011,13.011,0,0,0-2.642,3.536A12.952,12.952,0,0,0,38.03,25.865a13.016,13.016,0,0,0-8.9,22.577l1.051.995,1.979-2.114-1.051-.995a10.11,10.11,0,0,1,6.924-17.56,10.17,10.17,0,0,1,4.329,19.34,9.957,9.957,0,0,1-3.712.962l1.424-1.432L38.03,45.585Zm20.283-3.348h0a4.306,4.306,0,0,0,1.368.8v1.7h2.887v-1.7a4.309,4.309,0,0,0,1.368-.8l1.467.852,1.443-2.514-1.465-.851a4.334,4.334,0,0,0,0-1.591l1.465-.851L65.4,34.769l-1.467.852a4.309,4.309,0,0,0-1.368-.8v-1.7H59.681v1.7a4.309,4.309,0,0,0-1.368.8l-1.467-.852L55.4,37.283l1.465.851a4.334,4.334,0,0,0,0,1.591l-1.465.851,1.444,2.514,1.467-.852Zm-23.094,0h0a4.3,4.3,0,0,0,1.368.8v1.7h2.887v-1.7a4.309,4.309,0,0,0,1.368-.8l1.467.852,1.443-2.514-1.465-.851a4.323,4.323,0,0,0,0-1.591l1.465-.851-1.443-2.514-1.467.852a4.309,4.309,0,0,0-1.368-.8v-1.7H36.587v1.7a4.306,4.306,0,0,0-1.368.8l-1.467-.852-1.444,2.514,1.465.851a4.324,4.324,0,0,0,0,1.591l-1.465.851,1.444,2.514,1.467-.852ZM61.124,40.38a1.451,1.451,0,1,1,1.444-1.451A1.449,1.449,0,0,1,61.124,40.38Zm-23.094,0a1.451,1.451,0,1,1,1.444-1.451A1.449,1.449,0,0,1,38.03,40.38Z"
                      fill="#333"
                    />
                  </svg>