<svg
                    xmlns="http://www.w3.org/2000/svg"
                    width="70"
                    height="70"
                    viewBox="0 0 70 70"
                  >
                    <path
                      d="M0,14.347H70V0H0ZM46.684,5.123H65.133v4.1H46.684Zm-23.409,0h4.612v4.1H23.275Zm-9.224,0h4.612v4.1H14.051Zm-9.224,0H9.439v4.1H4.827Z"
                      fill="#333"
                    />
                    <ellipse
                      cx="6.844"
                      cy="6.844"
                      rx="6.844"
                      ry="6.844"
                      transform="translate(28.156 32.768)"
                      fill="#333"
                    />
                    <path
                      d="M0,474.531H70v5.123H0Z"
                      transform="translate(0 -409.654)"
                      fill="#333"
                    />
                    <path
                      d="M0,177.265H70V134.938H0Zm19.319-23.214H24.25a10.887,10.887,0,0,1,1.7-4.1l-3.489-3.489,2.9-2.9,3.489,3.489a10.886,10.886,0,0,1,4.1-1.7V140.42h4.1v4.931a10.886,10.886,0,0,1,4.1,1.7l3.489-3.489,2.9,2.9-3.489,3.489a10.886,10.886,0,0,1,1.7,4.1h4.931v4.1H45.75a10.887,10.887,0,0,1-1.7,4.1l3.489,3.489-2.9,2.9-3.489-3.489a10.887,10.887,0,0,1-4.1,1.7v4.931h-4.1v-4.931a10.888,10.888,0,0,1-4.1-1.7l-3.489,3.489-2.9-2.9,3.489-3.489a10.887,10.887,0,0,1-1.7-4.1H19.318v-4.1Z"
                      transform="translate(0 -116.489)"
                      fill="#333"
                    />
                  </svg>