<svg
                    xmlns="http://www.w3.org/2000/svg"
                    width="56.549"
                    height="68.723"
                    viewBox="0 0 56.549 68.723"
                  >
                    <path
                      d="M80.841,54.358H48.819V8.432H80.832v3.436h4.3V7.494A7.521,7.521,0,0,0,77.638,0H52.019a7.518,7.518,0,0,0-7.5,7.494V61.227a7.517,7.517,0,0,0,7.5,7.5H77.638a7.524,7.524,0,0,0,7.5-7.5V54.279h-4.3S80.841,54.358,80.841,54.358ZM64.824,64.972a3.434,3.434,0,1,1,3.439-3.433A3.43,3.43,0,0,1,64.824,64.972Z"
                      transform="translate(-44.522)"
                      fill="#333"
                    />
                    <rect
                      width="9.605"
                      height="5.857"
                      transform="translate(7.966 13.041)"
                      fill="#333"
                    />
                    <rect
                      width="9.605"
                      height="5.857"
                      transform="translate(7.966 28.037)"
                      fill="#333"
                    />
                    <rect
                      width="9.605"
                      height="5.854"
                      transform="translate(7.966 43.733)"
                      fill="#333"
                    />
                    <path
                      d="M229.33,127.63a12.976,12.976,0,0,0-2-4.854l3.445-3.447-3.518-3.507-3.439,3.442a12.913,12.913,0,0,0-4.851-2v-4.881h-4.978v4.881a13.053,13.053,0,0,0-4.854,2l-3.433-3.442-3.518,3.509,3.439,3.448a13.02,13.02,0,0,0-1.994,4.851h-4.875v4.975h4.875a13.108,13.108,0,0,0,2,4.851l-3.442,3.442,3.518,3.5,3.442-3.439A13.026,13.026,0,0,0,214,142.968v4.872h4.978v-4.875a13.043,13.043,0,0,0,4.851-2l3.439,3.439,3.518-3.507-3.445-3.442a13.043,13.043,0,0,0,2-4.854h4.878V127.63Zm-12.846,7.9a5.42,5.42,0,1,1,5.415-5.415A5.417,5.417,0,0,1,216.484,135.531Z"
                      transform="translate(-177.668 -97.018)"
                      fill="#333"
                    />
                  </svg>