<svg
                    xmlns="http://www.w3.org/2000/svg"
                    width="70"
                    height="70"
                    viewBox="0 0 70 70"
                  >
                    <path
                      d="M6.565,2A4.574,4.574,0,0,0,2,6.565V52.217a4.574,4.574,0,0,0,4.565,4.565h60.87A4.574,4.574,0,0,0,72,52.217V6.565A4.574,4.574,0,0,0,67.435,2ZM9.609,9.609H64.391V49.174H9.609ZM28.3,16.124,16.124,28.3l-1.046,1.094,1.046,1.094L28.3,42.659l2.188-2.187L19.4,29.391l11.08-11.08Zm17.4,0-2.187,2.188L54.6,29.391l-11.08,11.08L45.7,42.659,57.876,30.485l1.046-1.094L57.876,28.3ZM29.391,58.3v6.087H44.609V58.3ZM14.174,59.826a1.55,1.55,0,0,0-1.189.523L5.376,69.48a1.593,1.593,0,0,0-.19,1.664A1.505,1.505,0,0,0,6.565,72h60.87a1.506,1.506,0,0,0,1.379-.856,1.606,1.606,0,0,0-.19-1.664l-7.609-9.13a1.55,1.55,0,0,0-1.189-.523H47.652v7.609h-21.3V59.826Z"
                      transform="translate(-2 -2)"
                      fill="#333"
                    />
                  </svg>