<svg
                    xmlns="http://www.w3.org/2000/svg"
                    width="70"
                    height="70"
                    viewBox="0 0 70 70"
                  >
                    <path
                      d="M197.1,161H178.178l-1.367,4.1h21.653Z"
                      transform="translate(-152.638 -138.988)"
                      fill="#333"
                    />
                    <path
                      d="M188.773,221v6.152a2.051,2.051,0,0,1-2.051,2.051h-8.2a2.051,2.051,0,0,1-2.051-2.051V221H171v15.039h23.242V221Z"
                      transform="translate(-147.621 -190.785)"
                      fill="#333"
                    />
                    <path
                      d="M241,221h4.1v4.1H241Z"
                      transform="translate(-208.051 -190.785)"
                      fill="#333"
                    />
                    <path
                      d="M68.734,39.156,64.99,37.6a29.935,29.935,0,0,0,0-5.209l3.746-1.551a2.051,2.051,0,0,0,1.11-2.679L64.472,15.2a2.051,2.051,0,0,0-2.679-1.11l-3.746,1.552a29.947,29.947,0,0,0-3.682-3.685l1.551-3.744a2.051,2.051,0,0,0-1.11-2.679L41.836.157a2.051,2.051,0,0,0-2.679,1.11L37.605,5.011a29.937,29.937,0,0,0-5.209,0L30.845,1.267A2.051,2.051,0,0,0,28.165.157L15.2,5.529a2.051,2.051,0,0,0-1.11,2.679l1.552,3.746a29.937,29.937,0,0,0-3.684,3.682L8.208,14.086A2.051,2.051,0,0,0,5.529,15.2L.157,28.165a2.051,2.051,0,0,0,1.11,2.679L5.011,32.4a29.937,29.937,0,0,0,0,5.209L1.267,39.156a2.051,2.051,0,0,0-1.11,2.679L5.529,54.8a2.051,2.051,0,0,0,2.679,1.11l3.746-1.552a29.945,29.945,0,0,0,3.682,3.684l-1.551,3.744a2.051,2.051,0,0,0,1.11,2.679l12.97,5.372a2.051,2.051,0,0,0,2.679-1.11L32.4,64.989a29.922,29.922,0,0,0,5.209,0l1.552,3.746a2.051,2.051,0,0,0,2.679,1.11l12.97-5.372a2.051,2.051,0,0,0,1.11-2.679l-1.552-3.746a29.947,29.947,0,0,0,3.684-3.682l3.744,1.551a2.051,2.051,0,0,0,2.679-1.11l5.372-12.97a2.051,2.051,0,0,0-1.11-2.679ZM50.723,47.3a2.051,2.051,0,0,1-2.051,2.051H21.328A2.051,2.051,0,0,1,19.278,47.3V28.164a2.051,2.051,0,0,1,.105-.649l2.734-8.2a2.051,2.051,0,0,1,1.946-1.4H45.938a2.051,2.051,0,0,1,1.946,1.4l2.734,8.2a2.051,2.051,0,0,1,.105.649Z"
                      transform="translate(0 0)"
                      fill="#333"
                    />
                  </svg>