<svg xmlns="http://www.w3.org/2000/svg" width="70" height="49.66" viewBox="0 0 70 49.66"><g transform="translate(0 -74.387)"><g transform="translate(31.949 89.437)"><g transform="translate(0 0)"><path d="M236.491,184.793a.942.942,0,0,0-.672-.364h-2.2v2.836h2.3a.8.8,0,0,0,.625-.373,1.671,1.671,0,0,0,.289-1.045A1.5,1.5,0,0,0,236.491,184.793Z" transform="translate(-233.617 -184.429)" fill="#333"></path></g></g><g transform="translate(4.665 74.386)"><g transform="translate(0 0)"><path d="M34.332,74.386v38.876H95V74.386Zm21.4,23.368a5.786,5.786,0,0,1-1.391.97,7.4,7.4,0,0,1-1.673.6,7.756,7.756,0,0,1-1.738.205,6.22,6.22,0,0,1-2.716-.588,6.877,6.877,0,0,1-2.124-1.558,7.078,7.078,0,0,1-1.381-2.2,6.726,6.726,0,0,1-.489-2.5,6.583,6.583,0,0,1,1.8-4.5,6.727,6.727,0,0,1,5.018-2.09,6.769,6.769,0,0,1,3.355.793,5.19,5.19,0,0,1,2.114,2.1l-2.8,1.978a2.341,2.341,0,0,0-.5-.8,2.532,2.532,0,0,0-.686-.5,2.973,2.973,0,0,0-.78-.261,4.311,4.311,0,0,0-.78-.075,2.839,2.839,0,0,0-1.362.308,2.8,2.8,0,0,0-.94.8,3.452,3.452,0,0,0-.545,1.12,4.5,4.5,0,0,0-.179,1.241,4.243,4.243,0,0,0,.207,1.325,3.443,3.443,0,0,0,.6,1.12,2.932,2.932,0,0,0,.968.774A2.814,2.814,0,0,0,51,96.3a3.7,3.7,0,0,0,.771-.084,2.88,2.88,0,0,0,.761-.28,2.571,2.571,0,0,0,.658-.5,2.234,2.234,0,0,0,.46-.756l2.988,1.773A3.78,3.78,0,0,1,55.731,97.754Zm9.594,1.661h0l-2.349-4.068H61.6v4.068H57.939V86.166h6.127a4.079,4.079,0,0,1,1.8.4,4.686,4.686,0,0,1,1.419,1.045,4.878,4.878,0,0,1,.93,1.474,4.395,4.395,0,0,1,.338,1.67,4.688,4.688,0,0,1-.507,2.155,4.4,4.4,0,0,1-1.41,1.633l2.819,4.87H65.325Zm15.391,0V92.436L78.48,97.344H76.526l-2.237-4.908v6.979H70.624V86.166h4L77.5,92.4,80.4,86.166h3.984V99.415Z" transform="translate(-34.332 -74.386)" fill="#333"></path></g></g><g transform="translate(0 117.826)"><g transform="translate(0 0)"><rect width="70" height="6.22" fill="#333"></rect></g></g></g></svg>