<svg xmlns="http://www.w3.org/2000/svg" width="50" height="50" viewBox="0 0 50 50">
  <g id="sharepoint" transform="translate(-93 -164)">
    <rect id="Rectangle_26" data-name="Rectangle 26" width="50" height="50" transform="translate(93 164)" fill="#c8c8c8" opacity="0"/>
    <path id="sharepoint-1" d="M0,4.921,27.505,0q.014,23.562,0,47.124C18.343,45.5,9.181,43.846,0,42.221ZM9.162,15.557A6.364,6.364,0,0,0,7.9,20.421,5.9,5.9,0,0,0,10,24.18c1.02.869,2.324,1.4,3.24,2.418a2.244,2.244,0,0,1,.17,2.862,2.366,2.366,0,0,1-2.267.576,5.55,5.55,0,0,1-3.268-1.965l.009,4.071a7.261,7.261,0,0,0,4.458,1.294,5.4,5.4,0,0,0,3.126-.954,5.088,5.088,0,0,0,1.936-3.523,6.192,6.192,0,0,0-1.02-4.6A11.346,11.346,0,0,0,13.2,21.781a5.245,5.245,0,0,1-1.691-1.426,2.286,2.286,0,0,1,.255-2.758,2.855,2.855,0,0,1,2.352-.548A5.278,5.278,0,0,1,16.794,18.2V14.159a8.911,8.911,0,0,0-4.043-.472,5.573,5.573,0,0,0-3.589,1.87ZM30.169,7.9A4.515,4.515,0,0,1,37.8,9.937a4.955,4.955,0,0,1,.085,2.106,12.372,12.372,0,0,1,6.735,6.942,4.473,4.473,0,0,1,3.807,1.058,4.806,4.806,0,0,1,1.058,5.724,4.556,4.556,0,0,1-4.874,2.409A12.29,12.29,0,0,1,37.9,35.1a4.863,4.863,0,0,1-1.3,4.25,4.464,4.464,0,0,1-4.543,1.086,4.393,4.393,0,0,1-1.87-1.209V32.738a4.524,4.524,0,0,1,3.438-1.426,4.634,4.634,0,0,1,3.174,1.5,9.909,9.909,0,0,0,5.592-5.79A5,5,0,0,1,40.965,24.1a4.872,4.872,0,0,1,1.426-3.977,9.923,9.923,0,0,0-5.62-5.818,4.516,4.516,0,0,1-2.919,1.521,4.585,4.585,0,0,1-3.684-1.4Z" transform="translate(93 165)" fill="#0072c6"/>
  </g>
</svg>
