<svg xmlns="http://www.w3.org/2000/svg" width="30" height="30" viewBox="0 0 30 30">
  <g id="Ecommerce_Marketplace" data-name="Ecommerce Marketplace" transform="translate(-18 -322)">
    <rect id="Rectangle_22" data-name="Rectangle 22" width="30" height="30" transform="translate(18 322)" fill="rgba(20,7,7,0)"/>
    <g id="shopping-cart" transform="translate(18 322)">
      <path id="Path_183" data-name="Path 183" d="M210.3,24.59a1.328,1.328,0,0,0-.457,2.175l3.475,3.477a2.379,2.379,0,0,0,3.366,0l3.475-3.477a1.327,1.327,0,0,0-.938-2.264h-1.467c0-.458,0-5.167,0-5.625A1.877,1.877,0,0,0,215.881,17h-1.756a1.877,1.877,0,0,0-1.874,1.874c0,4,0-2.572,0,5.626C210.7,24.5,210.61,24.47,210.3,24.59Z" transform="translate(-197.184 -16.004)" fill="#f13733"/>
      <path id="Path_184" data-name="Path 184" d="M29.121,23.535c-24.356,0-23.27,0-23.272-.008a16.471,16.471,0,0,1-.239-2c11.688-.061-16.259,0,21.567,0a2.71,2.71,0,0,0,2.764-2.777V6.841a2.1,2.1,0,0,0-2.093-2.1L22.33,4.734V6.752A3.086,3.086,0,0,1,24.221,12L20.746,15.48a4.135,4.135,0,0,1-5.853,0L11.418,12a3.086,3.086,0,0,1,1.891-5.251V4.719l-6.047-.01L6.676,1.486A1.808,1.808,0,0,0,4.9,0H.879a.879.879,0,1,0,0,1.758H4.9c.193,0,2.033,12.094,2.956,18L5.6,19.766a1.768,1.768,0,0,0-1.747,1.986L4.1,23.745a1.77,1.77,0,0,0,1.753,1.548h1.56a3.232,3.232,0,1,0,5.75,0h8.371a3.232,3.232,0,1,0,5.75,0h1.832a.879.879,0,1,0,0-1.758Z" fill="#f13733"/>
    </g>
  </g>
</svg>
