<svg xmlns="http://www.w3.org/2000/svg" width="30" height="30" viewBox="0 0 30 30">
  <g id="On_Demand_Taxi_Booking_01" data-name="On Demand Taxi Booking_01" transform="translate(-18 -322)">
    <rect id="Rectangle_22" data-name="Rectangle 22" width="30" height="30" transform="translate(18 322)" fill="rgba(0,0,0,0)"/>
    <g id="cab_1_" data-name="cab (1)" transform="translate(19 308.906)">
      <g id="Group_28" data-name="Group 28" transform="translate(0 15.094)">
        <path id="Path_233" data-name="Path 233" d="M27.9,33.327V30.252a3.6,3.6,0,0,0-1.07-2.562l-1.28-1.265-1.234-6.191a3.6,3.6,0,0,0-3.533-2.9H19.721V16.67a1.576,1.576,0,0,0-1.576-1.576H10.674A1.576,1.576,0,0,0,9.1,16.67v.666H8.035a3.6,3.6,0,0,0-3.533,2.9L3.269,26.425l-1.28,1.265a3.6,3.6,0,0,0-1.07,2.562v3.075A2.365,2.365,0,0,0,0,35.2v1.527a2.371,2.371,0,0,0,2.368,2.368h.681v1.933a.712.712,0,0,0,.712.712h3a.712.712,0,0,0,.712-.712V39.093H21.348v1.933a.712.712,0,0,0,.712.712h3a.712.712,0,0,0,.712-.712V39.093h.68a2.371,2.371,0,0,0,2.368-2.368V35.2A2.37,2.37,0,0,0,27.9,33.327ZM23.775,31.7a1.908,1.908,0,0,1-1.243,1.788H21.2A1.908,1.908,0,1,1,23.775,31.7ZM11.527,17.107a.2.2,0,0,1,.2-.2H12.6v-.874a.2.2,0,0,1,.2-.2h1.073a.2.2,0,0,1,.2.2v.875h.676v-.875a.2.2,0,0,1,.2-.2h1.073a.2.2,0,0,1,.2.2v.875h.875a.2.2,0,0,1,.2.2V18.18a.2.2,0,0,1-.2.2H16.019a.2.2,0,0,1-.2-.2v-.875h-.676v.875a.2.2,0,0,1-.2.2H13.873a.2.2,0,0,1-.2-.2v-.875H13v.875a.2.2,0,0,1-.2.2H11.726a.2.2,0,0,1-.2-.2V17.107ZM7.414,21.357a2.17,2.17,0,0,1,2.128-1.746h9.733A2.17,2.17,0,0,1,21.4,21.357l.743,3.73H6.671ZM17.79,32.175a1.44,1.44,0,0,1-.845,1.311H11.874a1.44,1.44,0,0,1,.6-2.752h3.879A1.441,1.441,0,0,1,17.79,32.175ZM6.951,29.79a1.908,1.908,0,0,1,.664,3.7H6.287a1.908,1.908,0,0,1,.664-3.7Zm19.517,6.935a.018.018,0,0,1-.018.017H2.368a.018.018,0,0,1-.018-.017V35.2a.018.018,0,0,1,.018-.017H26.451a.018.018,0,0,1,.018.017v1.527Z" transform="translate(0 -15.094)" fill="#22b573"/>
      </g>
    </g>
  </g>
</svg>
