<svg xmlns="http://www.w3.org/2000/svg" width="30" height="30" viewBox="0 0 30 30">
  <g id="On_Demand_Service_Provider" data-name="On Demand Service Provider" transform="translate(-17 -322)">
    <rect id="Rectangle_22" data-name="Rectangle 22" width="30" height="30" transform="translate(17 322)" fill="rgba(20,7,7,0)"/>
    <g id="help_1_" data-name="help (1)" transform="translate(5.391 322)">
      <path id="Path_207" data-name="Path 207" d="M143.5,9.559l-1.329,1.329,1.243,1.243,1.329-1.329a4.916,4.916,0,0,0,1.938.8v1.878h1.757V11.606a4.916,4.916,0,0,0,1.938-.8l1.329,1.329,1.243-1.243-1.329-1.329a4.916,4.916,0,0,0,.8-1.938h1.878V5.864h-1.878a4.915,4.915,0,0,0-.8-1.938L152.953,2.6,151.71,1.353l-1.329,1.329a4.916,4.916,0,0,0-1.938-.8V0h-1.757V1.878a4.916,4.916,0,0,0-1.938.8l-1.329-1.329L142.175,2.6,143.5,3.925a4.917,4.917,0,0,0-.8,1.938h-1.878V7.621H142.7a4.917,4.917,0,0,0,.8,1.938Zm4.059-6a3.186,3.186,0,1,1-3.187,3.187,3.19,3.19,0,0,1,3.187-3.187Z" transform="translate(-120.703)" fill="#e76d27"/>
      <path id="Path_208" data-name="Path 208" d="M39.552,224.968a3.937,3.937,0,0,0-5.532-.028l-6.482,6.482H23.084v-1.757H26.81l2.7-2.7H21.158a4.7,4.7,0,0,0-3.891,2.06l-4.658,6.85,7.187,4.837,2.952-3.607h7.831l10.553-10.553Z" transform="translate(0 -210.708)" fill="#e76d27"/>
    </g>
  </g>
</svg>
