<svg xmlns="http://www.w3.org/2000/svg" width="32" height="32" viewBox="0 0 32 32">
  <g id="laravel" transform="translate(-529 -181)">
    <rect id="Rectangle_17" data-name="Rectangle 17" width="32" height="32" transform="translate(529 181)" fill="rgba(0,0,0,0.47)" opacity="0"/>
    <g id="laravel-seeklogo.com" transform="translate(529 181)">
      <path id="Path_266" data-name="Path 266" d="M135.921,146.267c.25.361.4.333.6.25s10.195-3.458,10.5-3.569.208-.208.111-.361-3.43-4.68-3.6-4.944-.25-.208-.514-.125l-10.6,2.758s3.253,5.63,3.5,5.992Z" transform="translate(-115.865 -120.267)" fill="#f35045"/>
      <path id="Path_267" data-name="Path 267" d="M232.924,134.017v-5.3l-3.3.878c.9,1.2,2.3,3.083,3.3,4.422Z" transform="translate(-200.924 -112.627)" fill="#f35045"/>
      <path id="Path_268" data-name="Path 268" d="M200.492,83.327c-.163.037-3.781.691-4,.72s-.148.156-.059.282l3.183,4.368s3.892-.966,4.13-1.018l.056-.013v-.578c-.707-.9-2.635-3.34-2.8-3.568-.2-.275-.342-.23-.505-.193Z" transform="translate(-171.799 -72.887)" fill="#f35045"/>
      <path id="Path_269" data-name="Path 269" d="M8.18,3.579c.783-.036.855.143,1.2.653l8.646,14.455,10.872-2.6c-.6-.854-3.337-4.731-3.6-5.1-.3-.416.007-.609.49-.691s4.642-.78,5-.832.639-.178,1.218.52c.3.357,1.3,1.609,2.245,2.782V6a5.779,5.779,0,0,0-1.76-4.24A5.779,5.779,0,0,0,28.248,0h-20a5.779,5.779,0,0,0-4.24,1.76A5.894,5.894,0,0,0,2.569,4.017c1.96-.161,5.063-.413,5.611-.437Z" transform="translate(-2.248 0)" fill="#f35045"/>
      <path id="Path_270" data-name="Path 270" d="M21.036,92.39c-.917.278-1.328.416-1.925-.418-.447-.624-2.866-4.98-4.052-7.128-2.244.588-6.352,1.66-7.536,1.944a1.459,1.459,0,0,1-1.84-.843c-.133-.3-3.522-7.607-5.683-12.3V90.444a5.779,5.779,0,0,0,1.76,4.24A5.779,5.779,0,0,0,6,96.444H26a6.01,6.01,0,0,0,6-6V88.472c-2.455.9-10.346,3.731-10.964,3.918Z" transform="translate(0 -64.444)" fill="#f35045"/>
      <path id="Path_271" data-name="Path 271" d="M7.59,52.773c.325-.074,6.414-1.532,6.544-1.56s.213-.1.074-.343L6.092,36.859c-.074-.126-.053-.168-.253-.158-.178.009-4.692.412-5.737.5a6.38,6.38,0,0,0-.058.666C1.1,40.038,7.194,52.6,7.228,52.7s.037.149.362.074Z" transform="translate(-0.039 -32.112)" fill="#f35045"/>
    </g>
  </g>
</svg>
