<svg xmlns="http://www.w3.org/2000/svg" xmlns:xlink="http://www.w3.org/1999/xlink" width="32" height="32" viewBox="0 0 32 32">
  <defs>
    <linearGradient id="linear-gradient" x1="0.5" y1="-0.195" x2="0.5" y2="1.296" gradientUnits="objectBoundingBox">
      <stop offset="0" stop-color="#0994dc"/>
      <stop offset="0.35" stop-color="#66cef5"/>
      <stop offset="0.846" stop-color="#127bca"/>
      <stop offset="1" stop-color="#127bca"/>
    </linearGradient>
    <linearGradient id="linear-gradient-2" x1="0.5" y1="-0.195" x2="0.5" y2="1.296" gradientUnits="objectBoundingBox">
      <stop offset="0" stop-color="#0e76bc"/>
      <stop offset="0.36" stop-color="#36aee8"/>
      <stop offset="0.846" stop-color="#00adef"/>
      <stop offset="1" stop-color="#00adef"/>
    </linearGradient>
    <linearGradient id="linear-gradient-3" x1="0.5" y1="1.109" x2="0.5" y2="-0.062" gradientUnits="objectBoundingBox">
      <stop offset="0" stop-color="#1c63b7"/>
      <stop offset="0.5" stop-color="#33bdf2"/>
      <stop offset="1" stop-color="#33bdf2" stop-opacity="0.42"/>
    </linearGradient>
    <linearGradient id="linear-gradient-4" x1="0.5" y1="-0.195" x2="0.5" y2="1.296" gradientUnits="objectBoundingBox">
      <stop offset="0" stop-color="#166ab8"/>
      <stop offset="0.4" stop-color="#36aee8"/>
      <stop offset="0.846" stop-color="#0798dd"/>
      <stop offset="1" stop-color="#0798dd"/>
    </linearGradient>
    <linearGradient id="linear-gradient-5" x1="0.5" y1="-0.195" x2="0.5" y2="1.296" gradientUnits="objectBoundingBox">
      <stop offset="0" stop-color="#124379"/>
      <stop offset="0.39" stop-color="#1487cb"/>
      <stop offset="0.78" stop-color="#165197"/>
      <stop offset="1" stop-color="#165197"/>
    </linearGradient>
    <linearGradient id="linear-gradient-6" y1="0.5" x2="1" y2="0.5" gradientUnits="objectBoundingBox">
      <stop offset="0" stop-color="#33bdf2" stop-opacity="0.698"/>
      <stop offset="1" stop-color="#1dacd8"/>
    </linearGradient>
    <linearGradient id="linear-gradient-7" x1="0.5" y1="0.947" x2="0.5" y2="-0.03" gradientUnits="objectBoundingBox">
      <stop offset="0" stop-color="#136ab4"/>
      <stop offset="0.6" stop-color="#59caf5" stop-opacity="0.549"/>
      <stop offset="1" stop-color="#59caf5" stop-opacity="0.235"/>
    </linearGradient>
    <linearGradient id="linear-gradient-8" y1="0.5" x2="1" y2="0.5" gradientUnits="objectBoundingBox">
      <stop offset="0" stop-color="#05a1e6" stop-opacity="0.247"/>
      <stop offset="1" stop-color="#05a1e6"/>
    </linearGradient>
    <linearGradient id="linear-gradient-9" x1="0.5" y1="1.243" x2="0.5" y2="-0.094" gradientUnits="objectBoundingBox">
      <stop offset="0" stop-color="#318ed5"/>
      <stop offset="1" stop-color="#38a7e4"/>
    </linearGradient>
    <linearGradient id="linear-gradient-10" x1="0.5" y1="0.912" x2="0.5" y2="-0.768" gradientUnits="objectBoundingBox">
      <stop offset="0" stop-color="#05a1e6"/>
      <stop offset="1" stop-color="#05a1e6" stop-opacity="0.549"/>
    </linearGradient>
    <linearGradient id="linear-gradient-11" x1="0.5" y1="1" x2="0.5" gradientUnits="objectBoundingBox">
      <stop offset="0" stop-color="#1959a6"/>
      <stop offset="0.5" stop-color="#05a1e6"/>
      <stop offset="0.918" stop-color="#7ec5ea"/>
      <stop offset="1" stop-color="#7ec5ea"/>
    </linearGradient>
    <linearGradient id="linear-gradient-12" x1="0.598" y1="0.946" x2="0.385" y2="0.058" gradientUnits="objectBoundingBox">
      <stop offset="0" stop-color="#165096"/>
      <stop offset="1" stop-color="#0d82ca"/>
    </linearGradient>
    <linearGradient id="linear-gradient-13" x1="0.5" y1="0.77" x2="0.5" y2="-0.033" gradientUnits="objectBoundingBox">
      <stop offset="0" stop-color="#05a1e6"/>
      <stop offset="0.874" stop-color="#0495d6"/>
      <stop offset="1" stop-color="#0495d6"/>
    </linearGradient>
    <linearGradient id="linear-gradient-14" x1="0.653" y1="-0.042" x2="0.343" y2="1.058" gradientUnits="objectBoundingBox">
      <stop offset="0" stop-color="#38a7e4" stop-opacity="0.329"/>
      <stop offset="0.962" stop-color="#0e88d3"/>
      <stop offset="1" stop-color="#0e88d3"/>
    </linearGradient>
    <linearGradient id="linear-gradient-15" x1="0.5" y1="-0.003" x2="0.5" y2="1.019" gradientUnits="objectBoundingBox">
      <stop offset="0" stop-color="#168cd4"/>
      <stop offset="0.5" stop-color="#1c87cc"/>
      <stop offset="1" stop-color="#154b8d"/>
    </linearGradient>
    <linearGradient id="linear-gradient-16" x1="0.167" y1="-1.056" x2="0.878" y2="1.198" gradientUnits="objectBoundingBox">
      <stop offset="0" stop-color="#97d6ee"/>
      <stop offset="0.703" stop-color="#55c1ea"/>
      <stop offset="1" stop-color="#55c1ea"/>
    </linearGradient>
    <linearGradient id="linear-gradient-17" x1="0.069" y1="0.937" x2="0.758" y2="-0.168" gradientUnits="objectBoundingBox">
      <stop offset="0" stop-color="#7accec"/>
      <stop offset="1" stop-color="#3fb7ed"/>
    </linearGradient>
    <linearGradient id="linear-gradient-18" x1="0.5" y1="0.064" x2="0.5" y2="1.28" gradientUnits="objectBoundingBox">
      <stop offset="0" stop-color="#1da7e7"/>
      <stop offset="1" stop-color="#37abe7" stop-opacity="0"/>
    </linearGradient>
  </defs>
  <g id="_.net" data-name=".net" transform="translate(-430 -181)">
    <rect id="Rectangle_16" data-name="Rectangle 16" width="32" height="32" transform="translate(430 181)" fill="rgba(1,65,133,0.9)" opacity="0"/>
    <g id="net-seeklogo.com" transform="translate(429.19 182)">
      <g id="Group_34" data-name="Group 34" transform="translate(4.137 14.756)">
        <path id="Path_272" data-name="Path 272" d="M181.156,7.694a.143.143,0,0,0-.045-.118.282.282,0,0,0-.173-.042h-.117v.321h.141c.13,0,.194-.054.194-.161Zm.182.669h-.16l-.1-.226c-.052-.113-.108-.17-.168-.17h-.087v.4h-.132V7.422h.265a.393.393,0,0,1,.267.079.226.226,0,0,1,.077.177.232.232,0,0,1-.063.165.318.318,0,0,1-.176.093v0c.052.012.1.07.156.174l.124.25Zm.293-.461a.628.628,0,0,0-.189-.465.657.657,0,1,0-.463,1.122.647.647,0,0,0,.652-.656Zm.089,0a.7.7,0,0,1-.215.523.774.774,0,0,1-1.057.006.752.752,0,0,1,0-1.045.77.77,0,0,1,1.052-.01.7.7,0,0,1,.216.526Z" transform="translate(-157.641 -6.353)"/>
        <path id="Path_273" data-name="Path 273" d="M4.5,6.81H4.042V4.2c0-.206.014-.457.038-.753H4.07a2.471,2.471,0,0,1-.116.376L2.628,6.81H2.405L1.077,3.845a2.168,2.168,0,0,1-.116-.4H.951c.014.156.022.408.022.759V6.81H.533V2.923h.6L2.327,5.634A3.506,3.506,0,0,1,2.5,6.1h.019c.078-.212.139-.372.186-.477l1.218-2.7H4.5V6.81Z" transform="translate(-0.533 -2.641)"/>
        <path id="Path_274" data-name="Path 274" d="M39.712,5.626h-.443V2.85h.443V5.626Zm.077-3.771a.278.278,0,0,1-.086.206.282.282,0,0,1-.207.084.287.287,0,0,1-.2-.081.3.3,0,0,1,0-.413.3.3,0,0,1,.411,0,.275.275,0,0,1,.086.2Z" transform="translate(-34.344 -1.457)"/>
        <path id="Path_275" data-name="Path 275" d="M50.784,13.936a1.427,1.427,0,0,1-.761.2,1.252,1.252,0,0,1-.963-.4,1.4,1.4,0,0,1-.357-.992,1.547,1.547,0,0,1,.392-1.1,1.368,1.368,0,0,1,1.053-.42,1.417,1.417,0,0,1,.642.141v.456a1.127,1.127,0,0,0-.661-.218.889.889,0,0,0-.691.3,1.146,1.146,0,0,0-.28.807,1.1,1.1,0,0,0,.257.767.883.883,0,0,0,.687.282,1.121,1.121,0,0,0,.683-.239v.422Z" transform="translate(-42.646 -9.896)"/>
        <path id="Path_276" data-name="Path 276" d="M72.051,11.873a.594.594,0,0,0-.795.154,1.217,1.217,0,0,0-.209.756V14.2H70.6V11.422h.444v.572h.011a.975.975,0,0,1,.3-.469.665.665,0,0,1,.425-.152.72.72,0,0,1,.266.038v.461Z" transform="translate(-61.792 -10.03)"/>
        <path id="Path_277" data-name="Path 277" d="M85.981,12.679a1.213,1.213,0,0,0-.241-.813.82.82,0,0,0-.654-.268.856.856,0,0,0-.663.272,1.178,1.178,0,0,0-.263.821,1.122,1.122,0,0,0,.251.779.86.86,0,0,0,.675.281.812.812,0,0,0,.669-.284,1.217,1.217,0,0,0,.225-.786m.456-.016a1.5,1.5,0,0,1-.374,1.064,1.315,1.315,0,0,1-1.009.4,1.275,1.275,0,0,1-.991-.4,1.446,1.446,0,0,1-.358-1.021,1.489,1.489,0,0,1,.407-1.12,1.38,1.38,0,0,1,1.007-.369,1.248,1.248,0,0,1,.97.385,1.531,1.531,0,0,1,.348,1.061" transform="translate(-73.245 -9.893)"/>
        <path id="Path_278" data-name="Path 278" d="M111.1,13.32a.722.722,0,0,1-.255.566,1.118,1.118,0,0,1-.762.244,1.362,1.362,0,0,1-.689-.167v-.478a1.117,1.117,0,0,0,.721.266q.528,0,.528-.388a.343.343,0,0,0-.117-.268,1.849,1.849,0,0,0-.456-.255,1.461,1.461,0,0,1-.5-.315.766.766,0,0,1,.1-1.076,1.058,1.058,0,0,1,.705-.23,1.317,1.317,0,0,1,.594.13V11.8a1.047,1.047,0,0,0-.63-.2.545.545,0,0,0-.353.108.346.346,0,0,0-.134.28.371.371,0,0,0,.112.287,1.546,1.546,0,0,0,.417.23,1.6,1.6,0,0,1,.513.308.685.685,0,0,1,.2.509" transform="translate(-95.706 -9.894)"/>
        <path id="Path_279" data-name="Path 279" d="M128.723,12.679a1.211,1.211,0,0,0-.241-.813.819.819,0,0,0-.653-.268.86.86,0,0,0-.664.272,1.18,1.18,0,0,0-.262.821,1.129,1.129,0,0,0,.25.779.867.867,0,0,0,.676.281.811.811,0,0,0,.669-.284,1.218,1.218,0,0,0,.225-.786m.457-.016a1.5,1.5,0,0,1-.375,1.064,1.311,1.311,0,0,1-1.008.4,1.276,1.276,0,0,1-.992-.4,1.445,1.445,0,0,1-.358-1.021,1.494,1.494,0,0,1,.406-1.12,1.381,1.381,0,0,1,1.008-.369,1.244,1.244,0,0,1,.969.385,1.529,1.529,0,0,1,.349,1.061" transform="translate(-110.613 -9.893)"/>
        <path id="Path_280" data-name="Path 280" d="M152.089,1.134a.6.6,0,0,0-.3-.073c-.311,0-.465.2-.465.588v.428h.65v.376h-.65v2.4h-.445v-2.4h-.472V2.077h.472v-.45a.92.92,0,0,1,.284-.718.851.851,0,0,1,.6-.225.868.868,0,0,1,.322.048v.4Z" transform="translate(-131.565 -0.684)"/>
        <path id="Path_281" data-name="Path 281" d="M166.432,8.8a.839.839,0,0,1-.418.09q-.727,0-.727-.819V6.425h-.476V6.048h.476V5.371c.142-.045.29-.094.445-.144v.821h.7v.377h-.7V7.992a.635.635,0,0,0,.094.4.383.383,0,0,0,.317.119.471.471,0,0,0,.287-.089V8.8Z" transform="translate(-144.154 -4.656)"/>
      </g>
      <g id="Group_35" data-name="Group 35" transform="translate(0.81 20.205)">
        <path id="Path_282" data-name="Path 282" d="M2.4,70.663a.807.807,0,0,1-.8.8.74.74,0,0,1-.554-.238.82.82,0,0,1,0-1.133.742.742,0,0,1,.554-.235.768.768,0,0,1,.569.238.777.777,0,0,1,.235.566" transform="translate(-0.81 -61.11)"/>
        <path id="Path_283" data-name="Path 283" d="M35.454,10.471H34l-5.26-8.124a3.727,3.727,0,0,1-.319-.64h-.043a10.582,10.582,0,0,1,.057,1.4v7.364H27.244V.279h1.551l5.1,8c.2.317.342.545.412.681h.028a10.736,10.736,0,0,1-.072-1.5V.279h1.187V10.471Z" transform="translate(-23.92 -0.279)"/>
        <path id="Path_284" data-name="Path 284" d="M115.88,10.471h-5.4V.279h5.167v1.08h-3.974V4.75h3.682V5.83h-3.682V9.391h4.208v1.08Z" transform="translate(-96.687 -0.279)"/>
        <path id="Path_285" data-name="Path 285" d="M169.431,1.357h-2.936v9.112H165.3V1.357h-2.941V.276h7.072v1.08Z" transform="translate(-142.045 -0.276)"/>
      </g>
      <g id="Group_36" data-name="Group 36" transform="translate(0.832 0)">
        <path id="Path_286" data-name="Path 286" d="M88.5,17.792c1.152,3.524,1.589,9.811,4.959,9.811h0a4.149,4.149,0,0,0,.776-.075h0c-3.063-.714-3.427-6.933-5.3-10.153h0c-.147.133-.292.272-.439.417" transform="translate(-77.393 -15.191)" fill="url(#linear-gradient)"/>
        <path id="Path_287" data-name="Path 287" d="M91.992,15.044c1.869,3.22,2.232,9.439,5.3,10.153h0a4.872,4.872,0,0,0,.724-.2h0c-2.75-1.347-3.51-7.386-5.633-10.293h0q-.193.161-.387.335" transform="translate(-80.446 -12.859)" fill="url(#linear-gradient-2)"/>
        <path id="Path_288" data-name="Path 288" d="M93.6,2.145a4.163,4.163,0,0,0-.776.075,5.946,5.946,0,0,0-2.073.867,5.146,5.146,0,0,1,.543.639,7.445,7.445,0,0,1,2.119-1.287,4.72,4.72,0,0,1,.79-.22,2.435,2.435,0,0,0-.6-.074" transform="translate(-79.361 -1.876)" fill="#14559a"/>
        <path id="Path_289" data-name="Path 289" d="M123.072,12.812q.422-.336.846-.741c-1.171-3.508-1.59-9.885-4.984-9.885a4.018,4.018,0,0,0-.732.068c3.091.769,3.487,7.494,4.87,10.558" transform="translate(-103.361 -1.912)" fill="url(#linear-gradient-3)"/>
        <path id="Path_290" data-name="Path 290" d="M114.013,2.217a2.437,2.437,0,0,0-.6-.074l1.335,0a3.972,3.972,0,0,0-.732.068" transform="translate(-99.171 -1.874)" fill="#3092c4"/>
        <path id="Path_291" data-name="Path 291" d="M141.947,89.738a5.025,5.025,0,0,1-.383-.413,7.019,7.019,0,0,1-1.7.91,2.627,2.627,0,0,0,.636.217,2.7,2.7,0,0,0,.542.053,3.552,3.552,0,0,0,1.562-.28,2.967,2.967,0,0,1-.652-.487" transform="translate(-122.295 -78.092)" fill="#1969bc"/>
        <path id="Path_292" data-name="Path 292" d="M111.917,2.947c2.769,1.448,3.009,8.006,5.219,10.669h0c.148-.1.295-.215.441-.332h0c-1.383-3.063-1.778-9.79-4.869-10.558h0a4.786,4.786,0,0,0-.791.221" transform="translate(-97.866 -2.384)" fill="url(#linear-gradient-4)"/>
        <path id="Path_293" data-name="Path 293" d="M95.067,5.767C97.19,8.674,97.95,14.713,100.7,16.06h0a7.019,7.019,0,0,0,1.7-.91h0c-2.209-2.663-2.45-9.221-5.219-10.669h0a7.43,7.43,0,0,0-2.119,1.286" transform="translate(-83.135 -3.918)" fill="url(#linear-gradient-5)"/>
        <path id="Path_294" data-name="Path 294" d="M70.165,14.06a31.653,31.653,0,0,0-1.084,3.032,22.553,22.553,0,0,1,2.442-2.947,8.852,8.852,0,0,0-.36-.941,12.168,12.168,0,0,0-1,.856" transform="translate(-60.417 -11.544)" fill="url(#linear-gradient-6)"/>
        <path id="Path_295" data-name="Path 295" d="M85.93,11.479c-.1.07-.2.141-.295.217a8.868,8.868,0,0,1,.36.941c.147-.144.293-.283.439-.417a5.831,5.831,0,0,0-.5-.742" transform="translate(-74.889 -10.036)" fill="#2b74b1"/>
        <path id="Path_296" data-name="Path 296" d="M88.327,9.629c-.116.074-.232.151-.349.232a5.859,5.859,0,0,1,.505.742c.129-.117.258-.229.387-.336a5.146,5.146,0,0,0-.543-.639" transform="translate(-76.937 -8.419)" fill="#125a9e"/>
        <path id="Path_297" data-name="Path 297" d="M183.583,0c-1.566,6.039-4.837,10.89-7.579,12.112H176c-.05.023-.1.043-.148.063a.135.135,0,0,1-.018.007l-.042.016a.112.112,0,0,1-.019.008c-.023.008-.046.015-.068.024l-.028.01-.034.011-.033.012-.029.01-.059.018a.11.11,0,0,0-.025.007l-.04.011a.12.12,0,0,1-.027.007l-.043.011-.052.012a1.117,1.117,0,0,0,.392.069c2.6,0,5.222-4.66,9.56-12.409h-1.7Z" transform="translate(-153.308 0)" fill="url(#linear-gradient-7)"/>
        <path id="Path_298" data-name="Path 298" d="M8.277,2.373s0,0,0,0a.005.005,0,0,0,.006,0h0l.042-.016a.008.008,0,0,0,.008,0s.007,0,.011,0L8.4,2.324h0c.034-.01.066-.023.1-.035,0,0,.009,0,.015,0s.028-.009.043-.013a.084.084,0,0,1,.02-.006l.043-.013c.006,0,.012,0,.016,0l.143-.037c.007,0,.012,0,.02,0A.274.274,0,0,1,8.84,2.2a.072.072,0,0,1,.021-.006c.014,0,.027,0,.042-.008h.01L9,2.169h.017a.366.366,0,0,1,.04-.007c.008,0,.015,0,.023,0a.3.3,0,0,0,.039-.006.041.041,0,0,0,.021,0c.03,0,.062-.006.094-.008-.09-.009-.183-.014-.277-.014-2.928,0-6.963,5.433-8.78,12.469h.35c.582-1.037,1.1-2.018,1.582-2.939C3.381,6.671,5.974,3.272,8.277,2.372" transform="translate(-0.177 -1.858)" fill="url(#linear-gradient-8)"/>
        <path id="Path_299" data-name="Path 299" d="M77.7,10.868a12.162,12.162,0,0,1,1-.856,4.715,4.715,0,0,0-.238-.459,5.626,5.626,0,0,0-.76,1.315" transform="translate(-67.95 -8.351)" fill="#0d82ca"/>
        <path id="Path_300" data-name="Path 300" d="M79.354,4.29a2.5,2.5,0,0,1,.519.645c.049-.061.1-.117.151-.169a2.936,2.936,0,0,0-.708-.5l.031.015s0,0,.006,0" transform="translate(-69.365 -3.734)" fill="#0d82ca"/>
        <path id="Path_301" data-name="Path 301" d="M15.54,13.375c2.67-5.145,3.935-8.4,6.168-9.283h0c-2.3.9-4.9,4.3-6.168,9.283" transform="translate(-13.608 -3.578)" fill="url(#linear-gradient-9)"/>
        <path id="Path_302" data-name="Path 302" d="M83.892,8.208c-.052.053-.1.109-.151.169a4.776,4.776,0,0,1,.238.459c.1-.076.2-.147.295-.217a4.008,4.008,0,0,0-.382-.411" transform="translate(-73.233 -7.176)" fill="#127bca"/>
        <path id="Path_303" data-name="Path 303" d="M23.692,51.277h0a.333.333,0,0,1-.048.006h-.009c-.014,0-.028,0-.041,0h-.007c-.033,0-.066,0-.1.007h-.01A4.39,4.39,0,0,0,28.029,47.9c.466-1.488.849-2.741,1.184-3.793A53.738,53.738,0,0,0,25.8,49.73a2.8,2.8,0,0,1-2.108,1.545" transform="translate(-20.548 -38.563)" fill="url(#linear-gradient-10)"/>
        <path id="Path_304" data-name="Path 304" d="M25.18,30.2h0a2.8,2.8,0,0,0,2.108-1.545h0a53.967,53.967,0,0,1,3.412-5.62h0a31.578,31.578,0,0,1,1.084-3.032h0c-2.254,2.146-4.517,5.713-6.6,10.2" transform="translate(-22.036 -17.49)" fill="url(#linear-gradient-11)"/>
        <path id="Path_305" data-name="Path 305" d="M4.541,77.916c-.478.921-1,1.9-1.582,2.94H3.978a24.9,24.9,0,0,1,.563-2.939" transform="translate(-2.61 -68.118)" fill="#05a1e6"/>
        <path id="Path_306" data-name="Path 306" d="M18.674,2.3c-.008,0-.014,0-.022,0h0a.177.177,0,0,1-.038.005h0a.045.045,0,0,0-.023,0h0a.391.391,0,0,1-.04.007h0a.026.026,0,0,0-.017,0h0l-.087.015h-.01a.341.341,0,0,1-.042.008h0a.072.072,0,0,1-.021.006h0a.391.391,0,0,1-.041.008h0a.039.039,0,0,1-.02,0h0l-.143.037h0c-.005,0-.01,0-.016,0h0l-.043.013h0a.06.06,0,0,1-.02.006h0l-.043.013h0c-.006,0-.01,0-.015,0h0c-.033.012-.065.025-.1.035h0l-.045.016h0a.1.1,0,0,1-.019.008h0l-.042.016h0a.071.071,0,0,1-.014.007h0c-2.233.881-3.5,4.138-6.168,9.283h0a24.787,24.787,0,0,0-.563,2.939h.143c.4,0,.516,0,.98,0h.449c.032,0,.065,0,.1-.007h.006c.014,0,.028,0,.041,0h.01c.015,0,.032,0,.048-.006h0c2.087-4.483,4.35-8.051,6.6-10.2h0a5.645,5.645,0,0,1,.76-1.315h0a2.49,2.49,0,0,0-.519-.646h0s-.005,0-.006,0h0l-.032-.015h0l-.031-.016h0L19.6,2.523h0a.286.286,0,0,1-.036-.015h0l-.028-.012h0L19.48,2.47h0l-.025-.009h0l-.044-.018h0a.151.151,0,0,0-.024-.008h0l-.061-.021H19.32c-.024-.008-.047-.014-.071-.02h0a.03.03,0,0,0-.016,0h0l-.06-.017h0c-.005,0-.01,0-.014,0h0c-.048-.013-.1-.023-.149-.032h0c-.005,0-.01,0-.015,0h0c-.022,0-.043-.008-.064-.01h0a.017.017,0,0,0-.013,0h0l-.076-.01h-.013c-.021,0-.04,0-.059-.007h0c-.032,0-.063.006-.094.009" transform="translate(-9.711 -2.012)" fill="url(#linear-gradient-12)"/>
        <path id="Path_307" data-name="Path 307" d="M183.313,5.214c-.514,1.646-.93,3-1.292,4.12h0a44.74,44.74,0,0,0,4.12-7.2h0a4.235,4.235,0,0,0-2.829,3.076" transform="translate(-159.154 -1.869)" fill="url(#linear-gradient-13)"/>
        <path id="Path_308" data-name="Path 308" d="M180.883,12.021c-.072.037-.144.071-.215.1C183.41,10.9,186.681,6.05,188.247.011h-.317c-3.6,6.427-4.755,10.729-7.046,12.01" transform="translate(-157.972 -0.01)" fill="url(#linear-gradient-14)"/>
        <path id="Path_309" data-name="Path 309" d="M164.213,63.371a13.236,13.236,0,0,0,1.746-4.006,20.053,20.053,0,0,1-2.307,2.692s0,0,0,.007a7.018,7.018,0,0,0,.563,1.308" transform="translate(-143.092 -51.899)" fill="#079ae1"/>
        <path id="Path_310" data-name="Path 310" d="M162.461,91.223a2.443,2.443,0,0,1-.657.577c-.052.03-.105.059-.159.085a2.311,2.311,0,0,0,.837.264h0l.137.012h.008a.365.365,0,0,1,.066,0h.223a.055.055,0,0,0,.025,0,.2.2,0,0,0,.049,0h.024c.017,0,.035,0,.053-.006h0c.005,0,.011,0,.016,0s.039-.006.057-.009h.017l.064-.011h.01c.043-.008.085-.016.128-.027a1.862,1.862,0,0,1-.905-.87" transform="translate(-141.34 -79.752)" fill="#1969bc"/>
        <path id="Path_311" data-name="Path 311" d="M127.936,96.834a4.112,4.112,0,0,0,.776-.075,4.808,4.808,0,0,0,.724-.195,2.631,2.631,0,0,0,.635.217,2.7,2.7,0,0,0,.542.054Z" transform="translate(-111.871 -84.421)" fill="#1e5cb3"/>
        <path id="Path_312" data-name="Path 312" d="M149.211,96.766a3.549,3.549,0,0,0,1.562-.28,2.312,2.312,0,0,0,.837.264h0l.137.012h.008a.365.365,0,0,1,.066,0h-2.609Z" transform="translate(-130.468 -84.354)" fill="#1e5cb3"/>
        <path id="Path_313" data-name="Path 313" d="M170.6,98.238h.147a.054.054,0,0,0,.025,0,.211.211,0,0,0,.05,0h.024c.017,0,.035,0,.053-.006h0c.005,0,.011,0,.016,0s.039-.006.057-.009a.029.029,0,0,0,.018,0l.064-.01h.01c.043-.008.085-.016.128-.027h0a1.118,1.118,0,0,0,.392.069l-.989,0Z" transform="translate(-149.168 -85.825)" fill="#1d60b5"/>
        <path id="Path_314" data-name="Path 314" d="M154.712,80.794v0q-.423.4-.845.741c-.147.117-.294.227-.442.332a4.988,4.988,0,0,0,.383.413,2.965,2.965,0,0,0,.652.487c.054-.026.107-.055.159-.085a2.441,2.441,0,0,0,.658-.576,7.03,7.03,0,0,1-.563-1.308" transform="translate(-134.154 -70.631)" fill="#175fab"/>
        <path id="Path_315" data-name="Path 315" d="M175.957.011h-1.6c-.086,0-.17.007-.253.012h0c-.039.084-.079.168-.118.252h0a44.73,44.73,0,0,1-4.12,7.2h0a13.225,13.225,0,0,1-1.746,4.006h0a1.867,1.867,0,0,0,.9.871h0a.165.165,0,0,1,.028-.006h.006c.006,0,.013,0,.019,0h0l.044-.011h0a.22.22,0,0,1,.026-.007h0l.04-.01h0a.1.1,0,0,1,.025-.007h0l.059-.018h0a.169.169,0,0,1,.029-.01h0c.011,0,.023-.007.033-.012h0c.012,0,.024-.006.034-.011h0l.028-.01h0l.069-.024h0c.006,0,.012-.006.019-.007h0l.042-.016h0a.053.053,0,0,1,.018-.007h0c.048-.02.1-.041.148-.063h.005c.071-.031.143-.066.215-.1h0c2.292-1.281,3.449-5.583,7.047-12.01h-1Z" transform="translate(-147.004 -0.01)" fill="url(#linear-gradient-15)"/>
        <path id="Path_316" data-name="Path 316" d="M72.2,2.235a.025.025,0,0,1,.016,0,.132.132,0,0,1,.042,0h.014l.076.01a.016.016,0,0,1,.013,0l.064.011s.011,0,.016,0c.049.01.1.02.148.033,0,0,.009,0,.013,0l.06.017c.006,0,.011,0,.016,0,.024.006.047.012.07.02,0,0,0,0,.005,0l.062.021a.117.117,0,0,0,.024.008l.044.018a.09.09,0,0,1,.025.009l.059.025L73,2.448a.253.253,0,0,0,.035.015l.031.015.031.016a2.951,2.951,0,0,1,.708.5,2.3,2.3,0,0,1,.251-.228,2.763,2.763,0,0,0-1.636-.53c-.072,0-.144,0-.217.009" transform="translate(-63.142 -1.951)" fill="#7dcbec"/>
        <path id="Path_317" data-name="Path 317" d="M84.943,6.624a4.006,4.006,0,0,1,.382.411c.117-.081.232-.159.349-.232a3.678,3.678,0,0,0-.48-.407,2.246,2.246,0,0,0-.25.228" transform="translate(-74.284 -5.592)" fill="#5ec5ed"/>
        <path id="Path_318" data-name="Path 318" d="M70.274-6.381c.073-.006.145-.009.217-.009a2.766,2.766,0,0,1,1.636.529A2.961,2.961,0,0,1,74.079-6.4H70c.094,0,.186.006.277.014" transform="translate(-61.218 6.665)" fill="url(#linear-gradient-16)"/>
        <path id="Path_319" data-name="Path 319" d="M88.889-9.63a2.961,2.961,0,0,0-1.952.534,3.708,3.708,0,0,1,.479.407,5.95,5.95,0,0,1,2.074-.867,4.207,4.207,0,0,1,.776-.074Z" transform="translate(-76.027 9.9)" fill="url(#linear-gradient-17)"/>
        <path id="Path_320" data-name="Path 320" d="M165.989,7.583c.363-1.118.778-2.475,1.292-4.121A4.233,4.233,0,0,1,170.109.386c.041-.083.079-.168.119-.252a4.3,4.3,0,0,0-4.281,3.324c-1.034,3.307-1.661,5.45-2.264,6.816a20.1,20.1,0,0,0,2.306-2.691" transform="translate(-143.122 -0.117)" fill="url(#linear-gradient-18)"/>
        <path id="Path_321" data-name="Path 321" d="M206.578,90.973h-.285v.886h-.116v-.886h-.286v-.105h.687v.105Z" transform="translate(-180.023 -79.442)"/>
        <path id="Path_322" data-name="Path 322" d="M213.613,91.858H213.5v-.665c0-.052,0-.117.009-.192h0a.681.681,0,0,1-.031.1l-.337.761h-.057l-.338-.755a.554.554,0,0,1-.03-.1h0c0,.04.005.1.005.194v.664H212.6v-.991h.153l.3.692a.9.9,0,0,1,.045.119h0c.02-.055.037-.1.048-.122l.31-.689h.146v.991Z" transform="translate(-185.891 -79.44)"/>
      </g>
    </g>
  </g>
</svg>
