<svg xmlns="http://www.w3.org/2000/svg" width="32" height="32" viewBox="0 0 32 32">
  <g id="php" transform="translate(-659 -181)">
    <rect id="Rectangle_19" data-name="Rectangle 19" width="32" height="32" transform="translate(659 181)" opacity="0.01"/>
    <g id="php-2" data-name="php" transform="translate(659 181)">
      <path id="Path_252" data-name="Path 252" d="M32,16A16,16,0,0,1,2.132,23.985,16,16,0,1,1,32,16Z" fill="#505b90"/>
      <g id="Group_32" data-name="Group 32" transform="translate(0.564 7.717)">
        <path id="Path_253" data-name="Path 253" d="M16.6,178.239H10.707l-1.679,9.085a15.875,15.875,0,0,0,1.568,3.76h.547l.65-3.519h3.238c3.942,0,5-3.54,5.256-5.278A3.607,3.607,0,0,0,16.6,178.239Zm.855,4.342a3.233,3.233,0,0,1-3.107,2.992H12.161l.977-5.288h2.225C17.532,180.285,17.6,181.6,17.454,182.581Z" transform="translate(-9.028 -174.816)" fill="#f2f2f2"/>
        <path id="Path_254" data-name="Path 254" d="M351.171,178.651a3.855,3.855,0,0,0-1.787-.413h-5.893l-2.374,12.845h2.809l.65-3.519h3.238a4.667,4.667,0,0,0,3.732-1.631,16.121,16.121,0,0,0-.375-7.283Zm-.933,3.929a3.233,3.233,0,0,1-3.108,2.992h-2.185l.977-5.288h2.225C350.316,180.284,350.383,181.594,350.238,182.58Z" transform="translate(-320.361 -174.815)" fill="#f2f2f2"/>
        <path id="Path_255" data-name="Path 255" d="M190.084,126.934h-3.412l.641-3.466h-2.8l-2.374,12.845h2.8l1.365-7.387h1.788c1.187,0,1.992.254,1.823,1.357s-1.145,5.977-1.145,5.977h2.84s1.1-5.426,1.272-6.952S191.652,126.934,190.084,126.934Z" transform="translate(-171.321 -123.468)" fill="#f2f2f2"/>
      </g>
    </g>
  </g>
</svg>
