<svg xmlns="http://www.w3.org/2000/svg" xmlns:xlink="http://www.w3.org/1999/xlink" width="32" height="32" viewBox="0 0 32 32">
  <defs>
    <linearGradient id="linear-gradient" x1="0.13" y1="0.12" x2="0.796" y2="0.782" gradientUnits="objectBoundingBox">
      <stop offset="0" stop-color="#387eb8"/>
      <stop offset="1" stop-color="#366994"/>
    </linearGradient>
    <linearGradient id="linear-gradient-2" x1="0.191" y1="0.206" x2="0.907" y2="0.884" gradientUnits="objectBoundingBox">
      <stop offset="0" stop-color="#ffe052"/>
      <stop offset="1" stop-color="#ffc331"/>
    </linearGradient>
  </defs>
  <g id="pythone" transform="translate(-307 -181)">
    <rect id="Rectangle_15" data-name="Rectangle 15" width="32" height="32" transform="translate(307 181)" opacity="0"/>
    <g id="python-seeklogo.com" transform="translate(306.855 180.928)">
      <path id="Path_323" data-name="Path 323" d="M15.67.072c-7.94,0-7.444,3.443-7.444,3.443l.009,3.567h7.577V8.153H5.225S.145,7.577.145,15.588s4.434,7.727,4.434,7.727H7.226V19.6s-.143-4.434,4.364-4.434H19.1s4.222.068,4.222-4.08V4.223S23.967.072,15.67.072Zm-4.178,2.4a1.363,1.363,0,1,1-1.363,1.363,1.362,1.362,0,0,1,1.363-1.363Z" fill="url(#linear-gradient)"/>
      <path id="Path_324" data-name="Path 324" d="M73.813,87.565c7.94,0,7.444-3.443,7.444-3.443l-.009-3.567H73.671V79.484H84.257s5.081.576,5.081-7.435S84.9,64.322,84.9,64.322H82.257v3.718s.143,4.434-4.364,4.434H70.378s-4.222-.068-4.222,4.08v6.86s-.641,4.151,7.656,4.151Zm4.178-2.4A1.363,1.363,0,1,1,79.354,83.8a1.362,1.362,0,0,1-1.363,1.363Z" transform="translate(-57.918 -56.38)" fill="url(#linear-gradient-2)"/>
    </g>
  </g>
</svg>
