<svg xmlns="http://www.w3.org/2000/svg" width="32" height="32" viewBox="0 0 32 32">
  <g id="Big_Data_Services" data-name="Big Data Services" transform="translate(-161 -181)">
    <rect id="Rectangle_13" data-name="Rectangle 13" width="32" height="32" transform="translate(161 181)" opacity="0"/>
    <g id="Solid" transform="translate(139.001 167.004)">
      <path id="Path_124" data-name="Path 124" d="M96,420.746h18.984V416H96Zm9.967-2.848h6.645v.949h-6.645Zm-5.7,0h.949v.949h-.949Zm-1.9,0h.949v.949h-.949Z" transform="translate(-67.729 -376.273)" fill="#ffb302"/>
      <path id="Path_125" data-name="Path 125" d="M96,324.746h18.984V320H96Zm9.967-2.848h6.645v.949h-6.645Zm-5.7,0h.949v.949h-.949Zm-1.9,0h.949v.949h-.949Z" transform="translate(-67.729 -285.968)" fill="#ffb302"/>
      <path id="Path_126" data-name="Path 126" d="M28.271,28.336H46.306a5.221,5.221,0,1,0-2.057-10.02,5.7,5.7,0,0,0-9.265.127,3.8,3.8,0,0,0-5.37,1.567,4.271,4.271,0,1,0-1.342,8.327Zm7.381-6.594a.475.475,0,0,1,.379-.02l3.563,1.336,4.541-3.179.544.778-4.746,3.322a.475.475,0,0,1-.439.056l-3.6-1.351L31.33,24.964l-.425-.849Zm-5.008,4.221H44.882v.949H30.644Z" transform="translate(0 0)" fill="#ffb302"/>
      <path id="Path_127" data-name="Path 127" d="M279.018,227.8H268.577V225.62l.614.614.671-.671-1.424-1.424a.475.475,0,0,0-.671,0l-1.424,1.424.671.671.614-.614v2.651a.475.475,0,0,0,.475.475h10.441v2.848H276.9l.614-.614-.671-.671-1.424,1.424a.475.475,0,0,0,0,.671l1.424,1.424.671-.671-.614-.614h1.643v4.746H276.9l.614-.614-.671-.671-1.424,1.424a.475.475,0,0,0,0,.671l1.424,1.424.671-.671-.614-.614h2.117a.475.475,0,0,0,.475-.475v-9.492A.475.475,0,0,0,279.018,227.8Z" transform="translate(-227.966 -195.663)" fill="#ffb302"/>
      <path id="Path_128" data-name="Path 128" d="M26.649,233.828l1.424-1.424a.475.475,0,0,0,0-.671l-1.424-1.424-.671.671.614.614H24.949v-2.848H35.391a.475.475,0,0,0,.475-.475v-2.71l.673.673.671-.671-1.424-1.424a.475.475,0,0,0-.671,0l-1.424,1.424.671.671.554-.554V227.8H24.475a.475.475,0,0,0-.475.475v9.492a.475.475,0,0,0,.475.475h2.117l-.614.614.671.671,1.424-1.424a.475.475,0,0,0,0-.671L26.649,236l-.671.671.614.614H24.949v-4.746h1.643l-.614.614Z" transform="translate(-0.001 -195.663)" fill="#ffb302"/>
    </g>
  </g>
</svg>
