<svg xmlns="http://www.w3.org/2000/svg" width="32" height="32" viewBox="0 0 32 32">
  <g id="sap" transform="translate(-430 -181)">
    <rect id="Rectangle_16" data-name="Rectangle 16" width="32" height="32" transform="translate(430 181)" fill="rgba(1,65,133,0)"/>
    <g id="Group_21" data-name="Group 21" transform="translate(-1 -1)">
      <g id="Group_20" data-name="Group 20" transform="translate(432 183)">
        <rect id="Rectangle_21" data-name="Rectangle 21" width="30" height="30" rx="3" fill="#014185"/>
      </g>
      <path id="surface1" d="M8.613,13.908c-3.039,0-3.932,1.8-3.932,2.921A3.027,3.027,0,0,0,7,19.754c1.787.51,3.128.6,3.128,1.457s-3.035,1.035-4.74,0l-.711,2.234s.983.773,3.932.773a5.992,5.992,0,0,0,3.65-1.053l-.433,1.053h3.128l.536-1.55a5.569,5.569,0,0,0,4.29,0l.536,1.55h4.916V21.641h1.341a3.87,3.87,0,1,0,0-7.733H22.556v8.163l-3.4-8.163H16.028L13.27,20.68c-.357-1.5-2.02-2.074-3.044-2.308-2.681-.686-2.864-1.028-2.864-1.545,0-1.289,3.575-.684,4.469-.342.265-.684.8-1.98.8-1.98S11.647,13.908,8.613,13.908Zm16.624,2.578h1.341a1.29,1.29,0,1,1,0,2.578H25.237Zm-7.6.344,1.341,3.691a2.2,2.2,0,0,1-1.341.349,2.2,2.2,0,0,1-1.341-.349Z" transform="translate(429.319 178.574)" fill="#fff"/>
    </g>
  </g>
</svg>
