<svg xmlns="http://www.w3.org/2000/svg" width="32" height="32" viewBox="0 0 32 32">
  <g id="apple" transform="translate(-659 -181)">
    <rect id="Rectangle_19" data-name="Rectangle 19" width="32" height="32" transform="translate(659 181)" opacity="0"/>
    <g id="XMLID_228_" transform="translate(634.125 181)">
      <path id="XMLID_229_" d="M29.225,76.5c-2.705,4.695-.985,11.819,2.006,16.139,1.493,2.16,3.005,4.1,5.076,4.1l.118,0a6.268,6.268,0,0,0,2.356-.628,6.451,6.451,0,0,1,2.791-.662,6.067,6.067,0,0,1,2.656.64,5.628,5.628,0,0,0,2.545.61c2.333-.043,3.765-2.135,5.028-3.981A17.645,17.645,0,0,0,54,88.2l.009-.028a.262.262,0,0,0-.139-.322l-.019-.008A6.686,6.686,0,0,1,49.8,81.716a6.882,6.882,0,0,1,3.252-5.754l.026-.016a.262.262,0,0,0,.074-.368A7.569,7.569,0,0,0,47.2,72.345c-.169-.017-.344-.025-.519-.025a10.378,10.378,0,0,0-3.736.933,6.005,6.005,0,0,1-1.79.535,5.856,5.856,0,0,1-1.851-.541,8.971,8.971,0,0,0-3.263-.829h-.083A8,8,0,0,0,29.225,76.5Z" transform="translate(0 -64.732)"/>
      <path id="XMLID_230_" d="M155.808,0a7.306,7.306,0,0,0-4.824,2.474,6.846,6.846,0,0,0-1.733,5.076.262.262,0,0,0,.24.227c.112.009.226.013.339.013a6.18,6.18,0,0,0,4.553-2.335,7.217,7.217,0,0,0,1.7-5.222A.264.264,0,0,0,155.808,0Z" transform="translate(-108.605 0)"/>
    </g>
  </g>
</svg>
