<svg xmlns="http://www.w3.org/2000/svg" xmlns:xlink="http://www.w3.org/1999/xlink" width="32" height="32" viewBox="0 0 32 32">
  <defs>
    <clipPath id="clip-path">
      <path id="Path_346" data-name="Path 346" d="M33.273,16.042l-8.614,8.617,8.614,8.617H23.43l-8.617-8.617,8.617-8.617ZM23.43,1.276l-16,16L12.354,22.2,33.273,1.276Z" transform="translate(-7.431 -1.276)"/>
    </clipPath>
    <linearGradient id="linear-gradient" x1="0.197" y1="1.193" x2="0.699" y2="0.448" gradientUnits="objectBoundingBox">
      <stop offset="0" stop-color="#1a237e" stop-opacity="0.4"/>
      <stop offset="1" stop-color="#1a237e" stop-opacity="0"/>
    </linearGradient>
    <radialGradient id="radial-gradient" cx="0.028" cy="0.068" r="1.223" gradientTransform="matrix(1.238, 0, 0, -1, -2.189, -5.539)" gradientUnits="objectBoundingBox">
      <stop offset="0" stop-color="#fff" stop-opacity="0.102"/>
      <stop offset="1" stop-color="#fff" stop-opacity="0"/>
    </radialGradient>
  </defs>
  <g id="Flutter" transform="translate(-529 -181)">
    <rect id="Rectangle_17" data-name="Rectangle 17" width="32" height="32" transform="translate(529 181)" fill="rgba(0,0,0,0.47)" opacity="0"/>
    <g id="flutterio-icon" transform="translate(524.569 179.724)">
      <g id="Group_44" data-name="Group 44" transform="translate(7.431 1.276)" clip-path="url(#clip-path)">
        <path id="Path_345" data-name="Path 345" d="M22.2,39.427l4.92,4.923L40.659,30.81H30.816Z" transform="translate(-14.817 -16.044)" fill="#39cefd"/>
      </g>
      <g id="Group_45" data-name="Group 45" transform="translate(7.431 1.276)" clip-path="url(#clip-path)">
        <path id="Path_347" data-name="Path 347" d="M23.43,1.276h9.843L12.354,22.2,7.431,17.274Z" transform="translate(-7.431 -1.276)" fill="#39cefd"/>
      </g>
      <g id="Group_46" data-name="Group 46" transform="translate(7.431 1.276)" clip-path="url(#clip-path)">
        <path id="Path_349" data-name="Path 349" d="M32.042,52.968l3.694,3.691h9.843l-8.614-8.614Z" transform="translate(-19.738 -24.662)" fill="#03569b"/>
      </g>
      <g id="Group_47" data-name="Group 47" transform="translate(7.431 1.276)" clip-path="url(#clip-path)">
        <path id="Path_351" data-name="Path 351" d="M39.344,50.439l-2.378-2.394-4.923,4.923Z" transform="translate(-19.738 -24.662)" fill="url(#linear-gradient)"/>
      </g>
      <g id="Group_48" data-name="Group 48" transform="translate(7.431 1.276)" clip-path="url(#clip-path)">
        <path id="Path_353" data-name="Path 353" d="M22.2,43.118l4.923-4.923,4.924,4.923-4.924,4.923Z" transform="translate(-14.817 -19.736)" fill="#16b9fd"/>
      </g>
      <path id="Path_355" data-name="Path 355" d="M33.273,16.042l-8.614,8.617,8.614,8.617H23.43l-8.617-8.617,8.617-8.617ZM23.43,1.276l-16,16L12.354,22.2,33.273,1.276Z" transform="translate(0 0)" fill="url(#radial-gradient)"/>
    </g>
  </g>
</svg>
