<svg xmlns="http://www.w3.org/2000/svg" width="32" height="32" viewBox="0 0 32 32">
  <g id="reavctnativ" transform="translate(-529 -181)">
    <rect id="Rectangle_17" data-name="Rectangle 17" width="32" height="32" transform="translate(529 181)" fill="rgba(0,0,0,0.47)" opacity="0"/>
    <g id="structure" transform="translate(529.75 181)">
      <path id="Path_337" data-name="Path 337" d="M24.513,24.478c-3.579,0-8.328-1.628-12.451-3.96C6.489,17.365,2.317,13.2,1.434,9.906a4.12,4.12,0,0,1,.323-3.26C4.047,2.755,12.4,4.683,19.1,8.474c5.573,3.153,9.745,7.319,10.628,10.612a4.12,4.12,0,0,1-.323,3.26c-.881,1.5-2.659,2.132-4.9,2.132ZM6.649,7.159c-2.612,0-2.944.915-2.639,2.056.56,2.091,3.729,5.793,9.364,8.983,7.044,3.985,12.841,4.317,13.736,2.795a1.592,1.592,0,0,0,.044-1.216c-.56-2.091-3.729-5.793-9.364-8.983C13.219,8.207,9.171,7.159,6.649,7.159Z" transform="translate(0 1.505)" fill="#0097a7"/>
      <path id="Path_338" data-name="Path 338" d="M15.333,12.667A2.667,2.667,0,1,1,12.667,10,2.668,2.668,0,0,1,15.333,12.667Z" transform="translate(2.917 3.333)" fill="#607d8b"/>
      <path id="Path_339" data-name="Path 339" d="M13.667,32C9.289,32,7,23.951,7,16S9.289,0,13.667,0s6.667,8.049,6.667,16S18.044,32,13.667,32Zm0-29.333c-1.592,0-4,5.317-4,13.333s2.408,13.333,4,13.333,4-5.317,4-13.333S15.259,2.667,13.667,2.667Z" transform="translate(1.917)" fill="#00bcd4"/>
      <path id="Path_340" data-name="Path 340" d="M18.436,5.642a27.663,27.663,0,0,0-2.853,1.08,34.408,34.408,0,0,1,3.227,1.587l.24-.08A25.6,25.6,0,0,0,18.436,5.642Zm10.973,1C28.1,4.429,24.836,4.1,21.023,4.936a24.236,24.236,0,0,1,.6,2.573,13.86,13.86,0,0,1,2.893-.347c2.685,0,2.916.976,2.64,2.053a9.444,9.444,0,0,1-2.147,3.427,31.516,31.516,0,0,1-9.427,6.707,29.207,29.207,0,0,0,3.227,1.333A32.4,32.4,0,0,0,26.9,14.5a11.63,11.63,0,0,0,2.827-4.587,4.184,4.184,0,0,0-.32-3.267ZM19.049,8.229a25.6,25.6,0,0,0-.613-2.587,27.663,27.663,0,0,0-2.853,1.08,34.408,34.408,0,0,1,3.227,1.587ZM12.116,20.762a25.906,25.906,0,0,0,.613,2.6c.947-.307,1.907-.667,2.853-1.08-1.093-.48-2.187-1.013-3.227-1.6ZM8.063,14.5a33.513,33.513,0,0,1,7.52-4.853,29.207,29.207,0,0,0-3.227-1.333,34.463,34.463,0,0,0-6.2,4.333c-1.821,1.581-4.105,4.089-4.72,6.44-.768,2.871.848,5.4,5.213,5.4a15.99,15.99,0,0,0,3.493-.427,24.235,24.235,0,0,1-.6-2.573c-2.507.533-6.173.791-5.533-1.707.509-1.9,2.593-3.983,4.053-5.28Z" transform="translate(0.001 1.504)" fill="#4dd0e1"/>
      <path id="Path_341" data-name="Path 341" d="M11.675,17.174a33.175,33.175,0,0,0,.4,3.352c.093.052.187.105.28.156h0c1.048.58,2.132,1.113,3.225,1.587V19.35q-1.078-.516-2.208-1.153Q12.485,17.693,11.675,17.174ZM8.068,14.492l-.005,0a25.613,25.613,0,0,0-1.9,1.865A32.61,32.61,0,0,0,9.13,18.68c-.119-1.137-.188-2.3-.208-3.475-.3-.239-.583-.477-.853-.713Zm4.659-8.856a24.875,24.875,0,0,0-.607,2.587q.746.252,1.536.569.7.278,1.427.615c.165.076.332.155.5.235V6.722c-.952-.412-1.911-.777-2.856-1.087ZM6.652,4.513c-2.236,0-4.015.636-4.9,2.132A4.127,4.127,0,0,0,1.435,9.9,11.828,11.828,0,0,0,4.256,14.5a22.713,22.713,0,0,1,1.9-1.855l.009-.008A9.288,9.288,0,0,1,4.011,9.216C3.7,8.076,4.038,7.16,6.65,7.16A14.053,14.053,0,0,1,9.535,7.5c.168-.9.371-1.763.607-2.576A16.676,16.676,0,0,0,6.652,4.513Z" transform="translate(0 1.504)" fill="#008391"/>
      <path id="Path_342" data-name="Path 342" d="M12.667,10a2.667,2.667,0,0,0,0,5.333Z" transform="translate(2.917 3.333)" fill="#546d79"/>
      <path id="Path_343" data-name="Path 343" d="M9.76,13.311a33.768,33.768,0,0,0-2.753,1.979C7,15.527,7,15.763,7,16s0,.473.007.709c.02,1.169.089,2.336.208,3.475.1.961.235,1.9.4,2.805h.008a24.566,24.566,0,0,0,.6,2.573h0C9.321,29.337,11.149,32,13.667,32V29.333c-1.025,0-2.389-2.205-3.229-5.916-.085-.369-.165-.755-.237-1.151h0c-.015-.079-.028-.156-.041-.236a33.175,33.175,0,0,1-.4-3.352C9.7,17.825,9.667,16.931,9.667,16s.033-1.832.093-2.689ZM13.667,0C11.151,0,9.324,2.66,8.225,6.432c-.236.813-.439,1.676-.607,2.576s-.3,1.844-.4,2.805c.953-.656,1.925-1.251,2.945-1.839.013-.084.028-.165.044-.248a25.221,25.221,0,0,1,.607-2.587c.835-2.832,1.972-4.473,2.856-4.473Z" transform="translate(1.917)" fill="#00a4b9"/>
      <path id="Path_344" data-name="Path 344" d="M12.356,19.733l-.237.08h0c.073.4.152.781.237,1.151.117.513.244,1,.376,1.449.947-.307,1.907-.667,2.853-1.08C14.489,20.853,13.4,20.32,12.356,19.733Zm0-12.373c-.093.053-.188.107-.28.161-1.02.588-1.992,1.183-2.945,1.839a29.271,29.271,0,0,0-2.964,2.325l-.009.008a23.128,23.128,0,0,0-1.9,1.855,11.914,11.914,0,0,0-2.82,4.585c-.768,2.871.848,5.4,5.213,5.4a15.967,15.967,0,0,0,3.491-.427h0a24.235,24.235,0,0,1-.6-2.573H9.535a14.782,14.782,0,0,1-2.94.352c-1.664,0-2.991-.476-2.584-2.06A9.146,9.146,0,0,1,6.16,15.412a25.1,25.1,0,0,1,1.9-1.865l.005,0q.42-.36.855-.707c.889-.709,1.816-1.373,2.753-1.979a32.219,32.219,0,0,1,3.907-2.164q-.252-.122-.5-.236-.73-.336-1.427-.615-.666-.266-1.3-.483Z" transform="translate(0.001 2.453)" fill="#43b5c4"/>
    </g>
  </g>
</svg>
