<svg xmlns="http://www.w3.org/2000/svg" width="32" height="32" viewBox="0 0 32 32">
  <g id="blog" transform="translate(-69 -181)">
    <rect id="Rectangle_12" data-name="Rectangle 12" width="32" height="32" transform="translate(69 181)" opacity="0"/>
    <g id="_3-blog" data-name="3-blog" transform="translate(59.02 170)">
      <path id="Path_8932" data-name="Path 8932" d="M39.207,13.85a2.137,2.137,0,0,0-2.137,2.137V33.8h4.274V15.987A2.137,2.137,0,0,0,39.207,13.85ZM37.69,35.221l1.517,2.28,1.517-2.28ZM28.771,11H12.6A2.607,2.607,0,0,0,10,13.6V35.47a2.607,2.607,0,0,0,2.6,2.6h4.524a.712.712,0,0,1,.712.712V43l5.97-4.773a.712.712,0,0,1,.442-.157h4.524a2.607,2.607,0,0,0,2.6-2.6V13.6A2.607,2.607,0,0,0,28.771,11ZM20.686,32.371H14.274a.712.712,0,1,1,0-1.425h6.411a.712.712,0,0,1,0,1.425ZM27.1,27.385H14.274a.712.712,0,1,1,0-1.425H27.1a.712.712,0,1,1,0,1.425Zm0-4.987H14.274a.712.712,0,1,1,0-1.425H27.1a.712.712,0,1,1,0,1.425Zm0-4.987H14.274a.712.712,0,1,1,0-1.425H27.1a.712.712,0,1,1,0,1.425Z" fill="#5a52f9"/>
    </g>
  </g>
</svg>
