<svg xmlns="http://www.w3.org/2000/svg" width="32" height="32" viewBox="0 0 32 32">
  <g id="ebook" transform="translate(-69 -181)">
    <rect id="Rectangle_12" data-name="Rectangle 12" width="32" height="32" transform="translate(69 181)" opacity="0"/>
    <g id="noun_ebook_3466893" transform="translate(66.523 177)">
      <g id="Group_2325" data-name="Group 2325" transform="translate(6.477 4)">
        <path id="Path_8933" data-name="Path 8933" d="M37.421,54H22.6a6.218,6.218,0,0,1,.225,1.645v.73a6.473,6.473,0,0,1-.084.994H34.614a2.807,2.807,0,0,0,2.807-2.807ZM29,56.246H26.754V55.123H29Z" transform="translate(-13.548 -25.93)" fill="#00c5d9"/>
        <path id="Path_8934" data-name="Path 8934" d="M34.088,12H15V30.335l1.37-2.369a2.246,2.246,0,0,1,3.891,2.246l-1.83,3.166.432,1.078H34.088ZM17.246,15.368h2.246v1.123H17.246Zm14.6,14.6H21.737V28.842H31.842Zm0-2.246H20.614V26.6H31.842Zm0-2.246h-14.6V24.351h14.6Zm0-2.246h-14.6V22.105h14.6Zm0-2.246h-14.6V19.86h14.6Zm0-2.246h-14.6V17.614h14.6Zm0-2.246H20.614V15.368H31.842Z" transform="translate(-10.215 -7.509)" fill="#00c5d9"/>
        <path id="Path_8935" data-name="Path 8935" d="M34.088,6.807A2.807,2.807,0,0,0,31.281,4H17.807A2.807,2.807,0,0,0,15,6.807v.561H34.088ZM21.737,6.246H20.614V5.123h1.123Zm4.491,0H22.86V5.123h3.368Z" transform="translate(-10.215 -4)" fill="#00c5d9"/>
        <path id="Path_8936" data-name="Path 8936" d="M14.63,48.107v-.73a5.136,5.136,0,0,0-.359-1.881l-.724-1.8a.574.574,0,0,1,.034-.488l1.965-3.4a1.108,1.108,0,0,0,.112-.853,1.082,1.082,0,0,0-.522-.679,1.116,1.116,0,0,0-1.533.41L10.8,43.543l-.971-.561.314-.55V35.15L7.607,39.529a8.4,8.4,0,0,0-1.078,5.142l.556,4.991h7.3A5.022,5.022,0,0,0,14.63,48.107Z" transform="translate(-6.477 -17.662)" fill="#00c5d9"/>
      </g>
    </g>
  </g>
</svg>
