<svg xmlns="http://www.w3.org/2000/svg" width="56" height="56" viewBox="0 0 56.878 56.881">
                            <path id="Certified_Developers" data-name="Certified Developers" d="M219.217,189.982l-4.043-5.219.892-6.541h0a1.972,1.972,0,0,0-1.2-2.093l-6.117-2.5-2.5-6.116a1.974,1.974,0,0,0-2.1-1.208l-6.539.892L192.4,163.17a1.972,1.972,0,0,0-2.415,0l-5.219,4.033-6.539-.892a1.973,1.973,0,0,0-2.1,1.2l-2.5,6.116-6.117,2.5h0a1.973,1.973,0,0,0-1.21,2.094l.892,6.541-4.023,5.221a1.972,1.972,0,0,0,0,2.415l4.043,5.219-.892,6.541h0a1.972,1.972,0,0,0,1.209,2.094l6.1,2.5,2.5,6.117a1.984,1.984,0,0,0,2.1,1.208l6.539-.892,5.219,4.043h0a1.972,1.972,0,0,0,2.415,0l5.219-4.043,6.539.892h0a1.992,1.992,0,0,0,2.1-1.208l2.5-6.117,6.117-2.5a1.974,1.974,0,0,0,1.21-2.094l-.892-6.541,4.043-5.219h0a1.973,1.973,0,0,0-.01-2.415Zm-7.669,5.872a1.973,1.973,0,0,0-.395,1.476l.789,5.847-5.46,2.232h0a1.974,1.974,0,0,0-1.081,1.08l-2.234,5.464-5.845-.789h0a1.944,1.944,0,0,0-1.476.395l-4.659,3.605-4.664-3.615a1.974,1.974,0,0,0-1.209-.412,2.081,2.081,0,0,0-.267.018l-5.845.789-2.234-5.453a1.972,1.972,0,0,0-1.081-1.08l-5.46-2.232.789-5.847h0a1.971,1.971,0,0,0-.394-1.476l-3.609-4.665,3.615-4.664a1.974,1.974,0,0,0,.395-1.476l-.789-5.847,5.453-2.232a1.971,1.971,0,0,0,1.081-1.079l2.234-5.464,5.845.8h0a1.974,1.974,0,0,0,1.476-.395l4.664-3.615,4.664,3.615h0a1.973,1.973,0,0,0,1.476.395l5.845-.8,2.234,5.464h0a1.972,1.972,0,0,0,1.082,1.079l5.46,2.232-.789,5.847h0a1.974,1.974,0,0,0,.395,1.476l3.609,4.664ZM199.6,183.1a1.974,1.974,0,0,1,.395,2.762l-9.3,12.431h0a1.972,1.972,0,0,1-1.549.79h-.028a1.972,1.972,0,0,1-1.543-.744l-5.154-6.468h0a1.973,1.973,0,1,1,3.086-2.456l3.562,4.469,7.766-10.389a1.973,1.973,0,0,1,2.762-.395Z" transform="translate(-162.756 -162.758)" fill="#ffbd33"/>
                        </svg> 