<svg xmlns="http://www.w3.org/2000/svg" width="57.868" height="57.868" viewBox="0 0 57.868 57.868"><path d="M.705,35.057C-3.352,17.63,10.639-.235,28.944,0A28.517,28.517,0,0,1,40.352,2.355c6.4-5.4,17.021-.9,16.959,7.536a13.416,13.416,0,0,1-2.1,7h0C63.06,33.558,52.7,53.647,34.9,57.21a27.027,27.027,0,0,1-5.938.658C15.653,57.868,3.332,48.143.705,35.057Zm12.362,1.83a2.529,2.529,0,0,0-.742,1.788v1.084a6.136,6.136,0,0,1-2.917,5.2h0A25.242,25.242,0,0,0,28.221,54.2V40.3A6.691,6.691,0,0,1,34.9,33.616,6.844,6.844,0,0,1,42.672,40.3a3.075,3.075,0,0,0,3.07,3.072h3.936a25.424,25.424,0,0,0,3-23.193,25.1,25.1,0,0,1-4.73,3.953,1.808,1.808,0,0,1-1.884,0c-1.863-.839-13.109-9.921-8.157-18.872C24.914,0,9.211,7.686,5.064,20.6h5.648c2.7-11.535,20.046-10.053,20.408,1.938,0,8.422-8.981,14.009-9.363,14.242a1.806,1.806,0,0,1-1.884,0,21.4,21.4,0,0,1-2-1.436,6.067,6.067,0,0,1-3.018.8A2.529,2.529,0,0,0,13.067,36.887Zm19.668,1.245a3.073,3.073,0,0,0-.9,2.171V54.046a25.222,25.222,0,0,0,14.319-6.614q.235-.218.465-.444A6.8,6.8,0,0,1,39.059,40.3a3.075,3.075,0,0,0-3.071-3.072H34.905A3.071,3.071,0,0,0,32.735,38.132ZM4.1,24.218a25.319,25.319,0,0,0,3.21,17.787,2.514,2.514,0,0,0,1.4-2.246V38.676a6.154,6.154,0,0,1,6.153-6.145,16.057,16.057,0,0,1-4.233-8.313Zm10.024-1.677c0,5.005,4.649,8.994,6.692,10.506,2.042-1.511,6.692-5.5,6.692-10.506-.153-4.151-3.422-6.226-6.692-6.226S14.277,18.391,14.123,22.541ZM40.315,9.891c0,5.006,4.648,8.994,6.692,10.506,2.041-1.51,6.691-5.5,6.691-10.506-.153-4.15-3.422-6.225-6.692-6.225S40.468,5.741,40.315,9.891Zm6.94,18.02a1.782,1.782,0,1,1,1.781,1.808A1.809,1.809,0,0,1,47.255,27.911Z" transform="translate(0 0)" fill="#ffbd33"/></svg>