<svg xmlns="http://www.w3.org/2000/svg" width="56" height="56" viewBox="0 0 56.06 57.354">
                            <path id="Union_1" data-name="Union 1" d="M26.09,55.716l0-.086V45.714H21.694l-5.756,9.97a1.725,1.725,0,0,1-3.029-1.65l.04-.076,4.761-8.245H12.5a9.056,9.056,0,0,1-9.054-8.9V14.233A5.607,5.607,0,0,1,5.606,3.451H26.3V1.725a1.725,1.725,0,0,1,3.447-.086l0,.086V3.451h20.7a5.607,5.607,0,0,1,2.155,10.783V36.658a9.056,9.056,0,0,1-8.9,9.054l-.152,0H37.916l4.76,8.244a1.725,1.725,0,0,1-2.942,1.8l-.045-.073-5.756-9.969h-4.4V55.63a1.725,1.725,0,0,1-3.447.086ZM7.761,36.658A4.745,4.745,0,0,0,12.38,41.4H43.552a4.743,4.743,0,0,0,4.742-4.619l0-.124v-22H17.464v9.245a6.037,6.037,0,1,1-3.45.129V14.663H7.761Zm5.607-6.9a2.587,2.587,0,1,0,2.587-2.587A2.587,2.587,0,0,0,13.368,29.755ZM4.313,9.057A1.293,1.293,0,0,0,5.606,10.35H50.453a1.294,1.294,0,1,0,0-2.588H5.606A1.294,1.294,0,0,0,4.313,9.057ZM26.735,36.439a1.725,1.725,0,0,1-.086-3.447l.086,0h14.23a1.725,1.725,0,0,1,.086,3.447l-.086,0Zm0-6.467a1.725,1.725,0,0,1-.086-3.448l.086,0H44.846a1.725,1.725,0,0,1,.086,3.447l-.086,0Zm0-6.254a1.725,1.725,0,0,1-.086-3.447l.086,0h14.23a1.725,1.725,0,0,1,.086,3.448l-.086,0Z" fill="#ffbd33"/>
                          </svg> 