<svg xmlns="http://www.w3.org/2000/svg" width="60.435" height="57.868" viewBox="0 0 60.435 57.868"><path d="M25.018,57.722l-7.272-1.7h-.429L7.454,57.663a4.552,4.552,0,0,1-.8.072,4.357,4.357,0,0,1-4.333-3.723L.073,40.349A4.395,4.395,0,0,1,3.71,35.213h.01l7.428-1.238a23.588,23.588,0,0,1-.76-19.733,23.261,23.261,0,0,1,4.914-7.4,22.89,22.89,0,0,1,7.3-5,22.7,22.7,0,0,1,17.89,0,22.871,22.871,0,0,1,7.3,5,23.42,23.42,0,0,1,5.171,24.776,8.529,8.529,0,0,1,1.062-.067,8.623,8.623,0,0,1,5.66,2.129l.025.023.129.129a1.657,1.657,0,0,1,.119.12l.485.484-.152.043a1.8,1.8,0,0,1,.138.7,1.464,1.464,0,0,1-.454,1.084L44.472,53.8a4.1,4.1,0,0,1-2.615,1.49L26.821,57.793a2.979,2.979,0,0,1-.761.076A4.333,4.333,0,0,1,25.018,57.722ZM18.36,52.556l.138.028.016,0,7.275,1.7h.43l14.943-2.435a.727.727,0,0,0,.483-.271l.026-.031L55.9,35.53A4.658,4.658,0,0,0,50.666,36.7L43.85,43.983a2.153,2.153,0,0,1-.526.424,1.426,1.426,0,0,1-.571.183l-11.1,1.85c-.06.005-.122.008-.182.008a1.869,1.869,0,0,1-1.874-1.54,1.789,1.789,0,0,1,1.46-2.1h.008l8.97-1.475a4.724,4.724,0,0,0-4.063-2.291,4.9,4.9,0,0,0-.784.064l-10.4,1.721a5.248,5.248,0,0,1-.536.026,4.985,4.985,0,0,1-1.813-.323l-6.278-2.578a7.372,7.372,0,0,0-2.747-.513,8.223,8.223,0,0,0-1.148.082L4.356,38.837a.967.967,0,0,0-.549.337l-.022.029-.025.025a.614.614,0,0,0-.127.539l0,.017L5.882,53.452a.859.859,0,0,0,.8.728.757.757,0,0,0,.134-.012l.007,0,9.888-1.648a2.983,2.983,0,0,1,.761-.076A4.13,4.13,0,0,1,18.36,52.556ZM42.976,39.141a21.975,21.975,0,0,0,2.2-1.932l.651-.715a19.867,19.867,0,0,0,5.024-13.207A19.5,19.5,0,0,0,31.541,3.643,19.5,19.5,0,0,0,12.227,23.287v.229a19.86,19.86,0,0,0,3.1,10.48,9.413,9.413,0,0,1,2.209.656l6.233,2.559.047.012a1.344,1.344,0,0,0,.305.058.412.412,0,0,0,.1-.013l.04-.008,10.365-1.716a8.093,8.093,0,0,1,1.435-.128A8.327,8.327,0,0,1,42.976,39.141ZM26.258,32.7a4.469,4.469,0,0,1-4.464-4.462V26.921a9.638,9.638,0,0,1,4.618-8.3,7.212,7.212,0,0,1-1.976-4.914,7.105,7.105,0,1,1,14.21,0,6.984,6.984,0,0,1-1.968,4.926,9.779,9.779,0,0,1,4.611,8.284v1.321A4.468,4.468,0,0,1,36.826,32.7Zm-.821-5.784v1.321a.822.822,0,0,0,.821.821H36.826a.822.822,0,0,0,.821-.822V26.92a6.1,6.1,0,1,0-12.209,0ZM28.08,13.711a3.463,3.463,0,1,0,3.462-3.462A3.467,3.467,0,0,0,28.08,13.711Z" transform="translate(0)" fill="#ffbd33"/></svg>