<svg xmlns="http://www.w3.org/2000/svg" width="56" height="56" viewBox="0 0 70.707 56.738">
                            <path id="Path_1740" data-name="Path 1740" d="M174.54,186.307a10.7,10.7,0,1,0,7.551,3.139,10.694,10.694,0,0,0-7.551-3.139Zm0,16.936a6.264,6.264,0,1,1,4.429-1.835,6.276,6.276,0,0,1-4.429,1.835Zm14.174-9.136h0a8.333,8.333,0,1,1,0,.022Zm11.986,0h0a3.815,3.815,0,1,0,0,.022Zm9.192,23.5v14a2.21,2.21,0,0,1-4.419,0V217.682a8.617,8.617,0,0,0-17.024-.519,18.505,18.505,0,0,1,4.519,10.2,1.689,1.689,0,0,1,0,.243v12.837a2.21,2.21,0,0,1-4.419,0V227.724a14.119,14.119,0,0,0-28.038,0v12.716a2.209,2.209,0,1,1-4.419,0V227.6a1.689,1.689,0,0,1,0-.243,18.5,18.5,0,0,1,4.519-10.2,8.617,8.617,0,0,0-17,.519V231.6a2.209,2.209,0,1,1-4.419,0v-14a1.866,1.866,0,0,1,0-.243,13.047,13.047,0,0,1,25.1-3.314,18.448,18.448,0,0,1,20.482,0,13.047,13.047,0,0,1,25.1,3.314,2,2,0,0,1,.022.243Zm-65.931-22.37a8.209,8.209,0,1,0,2.408-5.8,8.207,8.207,0,0,0-2.408,5.8Zm11.986,0h0a3.778,3.778,0,1,1-1.107-2.672,3.791,3.791,0,0,1,1.107,2.672Z" transform="translate(-139.185 -185.91)" fill="#ffbd33"/>
                          </svg>