<svg id="check_1_1_" data-name="check (1) (1)" xmlns="http://www.w3.org/2000/svg" width="22" height="22" viewBox="0 0 50 50"><path id="Path_1585" data-name="Path 1585" d="M110.361,80.176h0a1.815,1.815,0,0,1-1.393-.633L99.4,69.155a1.883,1.883,0,0,1,2.787-2.533l8.233,8.93,22.8-22.737a1.836,1.836,0,0,1,2.66,0,1.892,1.892,0,0,1,0,2.66l-24.194,24.13A1.725,1.725,0,0,1,110.361,80.176Z" transform="translate(-87.342 -45.912)" fill="#ff464b"></path><path id="Path_1586" data-name="Path 1586" d="M25,50A25,25,0,1,1,25,0a1.851,1.851,0,0,1,1.884,1.884A1.851,1.851,0,0,1,25,3.769,21.231,21.231,0,1,0,46.231,25,1.884,1.884,0,0,1,50,25,25.065,25.065,0,0,1,25,50Z"></path></svg>